<svg width="1600" height="768" viewBox="0 0 1600 768" fill="none" xmlns="http://www.w3.org/2000/svg">
<g clip-path="url(#clip0_2_8)">
<rect width="768" height="1600" transform="translate(1600) rotate(90)" fill="white"/>
<rect width="1600" height="768" fill="#5E56B9"/>
<g opacity="0.2">
<path d="M177.579 1089.59C90.3376 1082.67 23.7406 1034.22 -1.53799 967.299C19.1363 971.904 39.8105 971.904 60.4547 971.904C122.447 971.904 184.44 955.744 237.254 925.742V1087.25C218.897 1089.59 198.223 1089.59 177.579 1089.59ZM-242.647 602.731C-242.647 498.882 -189.833 406.589 -109.453 351.219C-74.9963 482.753 44.3848 577.363 184.47 577.363C202.827 577.363 221.214 575.046 239.571 572.759V667.369C218.897 662.765 198.253 660.448 177.579 660.448C110.982 660.448 48.9891 685.846 0.779227 731.977C-40.5392 771.218 -63.5006 821.954 -70.392 877.353C-173.763 826.528 -242.647 722.709 -242.647 602.731ZM182.153 42.0205C198.223 39.7034 216.61 39.7034 232.68 39.7034C234.967 39.7034 234.967 39.7034 237.284 39.7034V279.69C184.47 249.688 122.447 233.528 60.4547 233.528C19.1363 233.528 -19.9251 240.449 -58.9565 254.292C-49.7478 136.601 42.0977 53.5458 182.153 42.0205ZM237.254 734.234V851.925C186.727 888.849 124.735 909.612 60.4547 909.612C35.2062 909.612 9.92765 907.295 -13.0337 900.374C-8.42941 801.16 71.9203 724.996 175.262 724.996C198.223 722.709 218.897 727.313 237.254 734.234ZM237.254 508.121C218.897 512.725 200.51 515.042 182.153 515.042C65.029 515.042 -31.3908 431.987 -54.3521 321.217C-19.895 307.375 19.1363 298.136 60.4547 298.136C124.735 298.136 184.44 318.9 237.254 355.823V508.121ZM301.564 713.471C301.564 713.471 301.564 711.154 301.564 713.471V533.488V9.70131C301.564 -6.45827 290.099 -20.3007 273.999 -22.6178C244.146 -27.222 209.719 -24.935 179.866 -22.6178C-1.53797 -6.45827 -120.949 111.203 -120.949 270.421C-120.949 275.025 -120.949 279.66 -120.949 284.264C-231.152 346.585 -304.64 466.563 -304.64 602.731C-304.64 759.632 -208.19 893.483 -70.4221 946.536C-61.2436 997.301 -38.2822 1043.46 0.749121 1078.07C44.3848 1119.6 106.377 1144.99 172.974 1151.92C182.153 1151.92 191.362 1151.92 200.54 1151.92C230.393 1151.92 255.641 1147.31 280.92 1140.39C294.703 1135.79 301.594 1124.23 301.594 1110.39V713.471H301.564Z" fill="#433D84"/>
<path d="M434.758 1084.99V923.454C487.572 953.456 549.565 969.616 611.558 969.616C632.232 969.616 655.194 967.299 673.551 965.012C648.302 1034.22 581.705 1080.39 494.434 1087.31C473.79 1089.59 453.115 1089.59 434.758 1084.99ZM747.039 877.293C740.148 821.923 714.899 771.157 675.868 731.917C629.945 685.755 565.635 660.387 499.068 660.387C478.394 660.387 457.75 662.704 437.075 667.308V572.698C455.433 575.015 473.82 577.302 492.177 577.302C632.232 577.302 749.356 482.692 786.1 351.158C866.48 406.528 919.294 498.821 919.294 602.67C914.66 722.708 845.776 826.527 747.039 877.293ZM730.969 256.608C694.225 242.766 652.906 235.845 611.558 235.845C549.565 235.845 487.572 252.004 434.758 282.006V39.7028C437.045 39.7028 437.045 39.7028 439.363 39.7028C455.433 39.7028 473.79 39.7028 489.89 42.0199C629.945 53.5453 724.078 136.6 730.969 256.608ZM496.751 722.708C600.092 722.708 680.442 798.842 685.046 898.086C662.085 905.008 636.836 907.325 611.558 907.325C547.278 907.325 487.572 886.561 434.758 849.638V731.947C455.433 727.313 476.077 722.708 496.751 722.708ZM434.758 355.823C485.285 318.899 547.278 298.136 611.558 298.136C652.876 298.136 689.62 305.057 726.365 321.217C703.403 431.986 606.954 515.041 489.86 515.041C471.502 515.041 453.115 512.724 434.758 508.12V355.823V355.823ZM372.766 1110.36C372.766 1124.2 381.944 1135.76 393.44 1140.36C418.688 1147.28 443.967 1151.89 473.82 1151.89C482.998 1151.89 492.177 1151.89 501.385 1151.89C567.982 1147.28 629.975 1121.88 673.611 1078.04C710.355 1043.43 735.603 997.271 744.782 946.505C880.263 893.422 979 759.602 979 604.987C979 468.85 905.512 348.871 795.309 286.55C795.309 281.946 795.309 277.312 795.309 272.708C795.309 111.172 675.898 -6.48891 496.811 -18.0444C466.958 -20.3615 432.531 -22.6485 402.679 -18.0444C386.609 -15.7273 375.113 -1.88478 375.113 14.2748V531.141V711.123C375.113 711.123 375.113 711.123 375.113 713.44V1110.33H372.766V1110.36Z" fill="#433D84"/>
</g>
<g opacity="0.2">
<path d="M1367.63 548.496C1317.04 544.483 1278.42 516.388 1263.76 477.579C1275.75 480.249 1287.74 480.249 1299.71 480.249C1335.66 480.249 1371.61 470.879 1402.23 453.481V547.135C1391.59 548.496 1379.6 548.496 1367.63 548.496ZM1123.95 266.173C1123.95 205.953 1154.57 152.434 1201.19 120.326C1221.17 196.599 1290.39 251.462 1371.63 251.462C1382.27 251.462 1392.93 250.119 1403.58 248.792V303.655C1391.59 300.985 1379.62 299.642 1367.63 299.642C1329.01 299.642 1293.06 314.37 1265.11 341.12C1241.15 363.875 1227.83 393.296 1223.84 425.421C1163.89 395.948 1123.95 335.746 1123.95 266.173ZM1370.28 -58.9733C1379.6 -60.3169 1390.26 -60.3169 1399.58 -60.3169C1400.91 -60.3169 1400.91 -60.3169 1402.25 -60.3169V78.8469C1371.63 61.4492 1335.66 52.0786 1299.71 52.0786C1275.75 52.0786 1253.1 56.0921 1230.47 64.1191C1235.81 -4.1279 1289.07 -52.2899 1370.28 -58.9733ZM1402.23 342.429V410.676C1372.94 432.087 1336.99 444.128 1299.71 444.128C1285.07 444.128 1270.41 442.784 1257.1 438.771C1259.77 381.238 1306.36 337.072 1366.29 337.072C1379.6 335.746 1391.59 338.416 1402.23 342.429ZM1402.23 211.31C1391.59 213.98 1380.93 215.323 1370.28 215.323C1302.36 215.323 1246.45 167.161 1233.14 102.928C1253.12 94.9009 1275.75 89.5437 1299.71 89.5437C1336.99 89.5437 1371.61 101.584 1402.23 122.995V211.31ZM1439.53 330.389C1439.53 330.389 1439.53 329.045 1439.53 330.389V226.02V-77.7146C1439.53 -87.0852 1432.88 -95.1122 1423.54 -96.4559C1406.23 -99.1257 1386.27 -97.7995 1368.96 -96.4559C1263.76 -87.0852 1194.52 -18.8557 1194.52 73.4723C1194.52 76.1421 1194.52 78.8294 1194.52 81.4993C1130.61 117.638 1088 187.211 1088 266.173C1088 357.157 1143.93 434.775 1223.82 465.539C1229.14 494.977 1242.46 521.745 1265.09 541.813C1290.39 565.894 1326.34 580.622 1364.96 584.635C1370.28 584.635 1375.62 584.635 1380.94 584.635C1398.26 584.635 1412.9 581.965 1427.56 577.952C1435.55 575.282 1439.54 568.581 1439.54 560.554V330.389H1439.53Z" fill="#433D84"/>
<path d="M1516.76 545.826V452.154C1547.39 469.552 1583.34 478.923 1619.29 478.923C1631.28 478.923 1644.59 477.579 1655.24 476.253C1640.59 516.388 1601.98 543.156 1551.37 547.17C1539.4 548.496 1527.41 548.496 1516.76 545.826ZM1697.85 425.386C1693.85 393.278 1679.21 363.84 1656.58 341.085C1629.95 314.317 1592.66 299.607 1554.06 299.607C1542.07 299.607 1530.1 300.95 1518.11 303.62V248.757C1528.75 250.101 1539.41 251.427 1550.06 251.427C1631.28 251.427 1699.19 196.564 1720.5 120.29C1767.11 152.398 1797.74 205.917 1797.74 266.137C1795.05 335.745 1755.11 395.948 1697.85 425.386ZM1688.53 65.4624C1667.22 57.4354 1643.26 53.4219 1619.29 53.4219C1583.34 53.4219 1547.39 62.7926 1516.76 80.1902V-60.3172C1518.09 -60.3172 1518.09 -60.3172 1519.43 -60.3172C1528.75 -60.3172 1539.4 -60.3172 1548.73 -58.9736C1629.95 -52.2902 1684.53 -4.12821 1688.53 65.4624ZM1552.71 335.745C1612.64 335.745 1659.23 379.894 1661.9 437.444C1648.59 441.458 1633.95 442.801 1619.29 442.801C1582.01 442.801 1547.39 430.761 1516.76 409.35V341.103C1528.75 338.415 1540.72 335.745 1552.71 335.745ZM1516.76 122.995C1546.06 101.584 1582.01 89.5434 1619.29 89.5434C1643.25 89.5434 1664.55 93.5569 1685.86 102.928C1672.55 167.161 1616.62 215.323 1548.72 215.323C1538.07 215.323 1527.41 213.979 1516.76 211.31V122.995V122.995ZM1480.82 560.536C1480.82 568.563 1486.14 575.264 1492.8 577.934C1507.45 581.948 1522.1 584.617 1539.41 584.617C1544.74 584.617 1550.06 584.617 1555.4 584.617C1594.02 581.947 1629.97 567.22 1655.27 541.795C1676.58 521.728 1691.22 494.959 1696.54 465.521C1775.1 434.739 1832.36 357.139 1832.36 267.481C1832.36 188.537 1789.75 118.964 1725.84 82.8252C1725.84 80.1553 1725.84 77.468 1725.84 74.7982C1725.84 -18.8734 1656.6 -87.103 1552.75 -93.8038C1535.44 -95.1474 1515.47 -96.4736 1498.16 -93.8038C1488.84 -92.4601 1482.18 -84.4331 1482.18 -75.0625V224.659V329.027C1482.18 329.027 1482.18 329.027 1482.18 330.371V560.519H1480.82V560.536Z" fill="#433D84"/>
</g>
<path d="M1061.6 404.816H1070.02V368.074H1061.6V404.816ZM1022.43 390.236L1028.23 376.238L1034.03 390.236H1022.43ZM1040.13 404.816H1049.12L1032.87 368.074H1024.46L1008.21 404.816H1016.91L1020.11 396.944H1036.94L1040.13 404.816ZM976.291 368.074V390.525L958.01 368.074H951.047V404.816H959.459V382.654L977.74 404.816H984.707V368.074H976.291V368.074ZM926.088 404.816H934.504V368.074H926.088V404.816ZM904.617 368.074L896.201 394.024L887.786 368.074H879.952L871.247 394.024L863.124 368.074H854.419L866.314 404.816H875.308L883.724 380.03L891.851 404.816H900.845L912.744 368.074H904.617V368.074ZM835.267 381.197C835.267 383.239 834.685 384.696 833.237 385.863C831.788 387.03 830.046 387.612 827.433 387.612H820.466V374.782H827.43C830.042 374.782 831.784 375.364 833.233 376.531C834.686 377.699 835.267 379.155 835.267 381.197ZM844.55 404.816L836.423 393.153C838.747 391.985 840.778 390.529 841.938 388.487C843.387 386.445 843.968 384.114 843.968 381.49C843.968 378.866 843.387 376.531 841.938 374.493C840.485 372.451 838.747 370.994 836.423 369.827C834.104 368.659 831.202 368.078 828.008 368.078H812.047V404.82H820.463V394.613H827.719H828.008L834.971 404.82H844.55V404.816ZM773.17 390.236L778.973 376.238L784.776 390.236H773.17ZM790.579 404.816H799.573L783.323 368.074H774.908L758.658 404.816H767.363L770.553 396.944H787.674L790.579 404.816ZM722.389 397.819V375.075H730.223C733.996 375.075 736.897 376.242 738.928 378.284C740.959 380.326 742.119 383.243 742.119 386.741C742.119 390.24 740.959 393.157 738.928 395.199C736.608 397.241 733.707 398.408 730.223 398.408H722.389V397.819ZM713.973 404.816H730.512C734.574 404.816 738.057 403.941 740.959 402.481C744.15 401.025 746.473 398.69 747.922 396.066C749.664 393.442 750.535 389.943 750.535 386.445C750.535 382.946 749.664 379.448 747.922 376.824C746.18 374.2 743.861 371.865 740.959 370.409C738.057 368.952 734.285 368.078 730.512 368.078H713.973V404.816V404.816Z" fill="white"/>
<path d="M590.938 450.886C579.913 450.012 571.497 443.889 568.303 435.432C570.916 436.014 573.528 436.014 576.137 436.014C583.971 436.014 591.805 433.972 598.479 430.18V450.59C596.159 450.886 593.547 450.886 590.938 450.886ZM537.834 389.362C537.834 376.238 544.508 364.575 554.666 357.578C559.02 374.2 574.106 386.156 591.809 386.156C594.129 386.156 596.452 385.863 598.772 385.574V397.53C596.159 396.948 593.55 396.655 590.938 396.655C582.522 396.655 574.688 399.865 568.596 405.694C563.374 410.653 560.473 417.065 559.602 424.066C546.539 417.643 537.834 404.523 537.834 389.362ZM591.516 318.505C593.547 318.212 595.87 318.212 597.901 318.212C598.19 318.212 598.19 318.212 598.483 318.212V348.539C591.809 344.748 583.971 342.706 576.137 342.706C570.916 342.706 565.979 343.58 561.047 345.329C562.211 330.457 573.817 319.961 591.516 318.505ZM598.479 405.98V420.852C592.094 425.518 584.26 428.142 576.137 428.142C572.946 428.142 569.752 427.849 566.85 426.975C567.432 414.437 577.586 404.812 590.645 404.812C593.547 404.523 596.159 405.105 598.479 405.98ZM598.479 377.406C596.159 377.988 593.836 378.28 591.516 378.28C576.715 378.28 564.53 367.785 561.629 353.787C565.983 352.038 570.916 350.87 576.137 350.87C584.26 350.87 591.805 353.494 598.479 358.16V377.406ZM606.606 403.356C606.606 403.356 606.606 403.063 606.606 403.356V380.611V314.421C606.606 312.379 605.157 310.629 603.122 310.337C599.35 309.755 594.999 310.044 591.227 310.337C568.303 312.379 553.213 327.247 553.213 347.368C553.213 347.95 553.213 348.535 553.213 349.117C539.287 356.993 530 372.154 530 389.362C530 409.189 542.188 426.104 559.598 432.808C560.758 439.223 563.66 445.057 568.592 449.43C574.106 454.678 581.94 457.887 590.356 458.762C591.516 458.762 592.68 458.762 593.839 458.762C597.612 458.762 600.803 458.18 603.997 457.306C605.739 456.724 606.61 455.263 606.61 453.514V403.356H606.606Z" fill="white"/>
<path d="M623.438 450.304V429.891C630.112 433.683 637.946 435.725 645.78 435.725C648.392 435.725 651.294 435.432 653.614 435.143C650.423 443.889 642.007 449.723 630.979 450.597C628.37 450.886 625.757 450.886 623.438 450.304ZM662.9 424.058C662.029 417.061 658.839 410.645 653.906 405.687C648.103 399.853 639.976 396.648 631.564 396.648C628.952 396.648 626.343 396.94 623.73 397.522V385.566C626.05 385.859 628.374 386.148 630.694 386.148C648.392 386.148 663.193 374.192 667.837 357.57C677.994 364.567 684.668 376.231 684.668 389.354C684.083 404.523 675.378 417.643 662.9 424.058ZM660.87 345.622C656.226 343.873 651.005 342.998 645.78 342.998C637.946 342.998 630.112 345.04 623.438 348.832V318.212C623.727 318.212 623.727 318.212 624.019 318.212C626.05 318.212 628.37 318.212 630.404 318.505C648.103 319.961 659.999 330.457 660.87 345.622ZM631.272 404.523C644.331 404.523 654.485 414.144 655.066 426.686C652.165 427.56 648.974 427.853 645.78 427.853C637.657 427.853 630.112 425.229 623.438 420.563V405.69C626.05 405.105 628.659 404.523 631.272 404.523ZM623.438 358.16C629.823 353.494 637.657 350.87 645.78 350.87C651.001 350.87 655.644 351.745 660.288 353.787C657.386 367.785 645.198 378.28 630.401 378.28C628.081 378.28 625.757 377.987 623.438 377.406V358.16V358.16ZM615.604 453.51C615.604 455.259 616.763 456.72 618.216 457.302C621.407 458.176 624.601 458.758 628.374 458.758C629.534 458.758 630.694 458.758 631.857 458.758C640.273 458.176 648.107 454.967 653.621 449.426C658.265 445.053 661.455 439.219 662.615 432.804C679.736 426.096 692.213 409.185 692.213 389.647C692.213 372.443 682.926 357.281 669 349.406C669 348.824 669 348.238 669 347.657C669 327.243 653.91 312.375 631.279 310.914C627.507 310.622 623.156 310.333 619.384 310.914C617.353 311.207 615.9 312.956 615.9 314.998V380.315V403.059C615.9 403.059 615.9 403.059 615.9 403.352V453.506H615.604V453.51Z" fill="white"/>
</g>
<defs>
<clipPath id="clip0_2_8">
<rect width="768" height="1600" fill="white" transform="translate(1600) rotate(90)"/>
</clipPath>
</defs>
</svg>
