<?xml version="1.0" encoding="utf-8"?>
<!-- Generator: Adobe Illustrator 22.0.1, SVG Export Plug-In . SVG Version: 6.00 Build 0)  -->
<svg version="1.1" id="Layer_4" xmlns="http://www.w3.org/2000/svg" xmlns:xlink="http://www.w3.org/1999/xlink" x="0px" y="0px"
	 viewBox="0 0 300 400" style="enable-background:new 0 0 300 400;" xml:space="preserve">
<style type="text/css">
	.st0{fill:url(#SVGID_1_);}
	.st1{opacity:6.000000e-02;}
	.st2{clip-path:url(#SVGID_3_);}
	.st3{fill:none;stroke:#353535;stroke-miterlimit:10;}
	.st4{fill:url(#SVGID_4_);}
	.st5{fill:url(#SVGID_5_);}
	.st6{fill:url(#SVGID_6_);}
	.st7{fill:url(#SVGID_7_);}
	.st8{fill:#CFCFCE;}
	.st9{fill:#BCBCBC;}
	.st10{fill:#FFFFFF;}
	.st11{fill:#C6DDD9;}
	.st12{fill:#75CABF;}
	.st13{fill:#1CAE97;}
	.st14{fill:#F47F72;}
	.st15{opacity:0.19;clip-path:url(#SVGID_9_);fill:none;stroke:#FFFFFF;stroke-width:4;stroke-miterlimit:10;}
	.st16{clip-path:url(#SVGID_11_);}
	.st17{fill:none;stroke:#16498C;stroke-miterlimit:10;}
	.st18{opacity:0.23;}
	.st19{fill:none;stroke:#FFFFFF;stroke-miterlimit:10;}
</style>
<g>
	<linearGradient id="SVGID_1_" gradientUnits="userSpaceOnUse" x1="-18.0223" y1="357.91" x2="325.0337" y2="35.5463">
		<stop  offset="0" style="stop-color:#CFCFCE"/>
		<stop  offset="1" style="stop-color:#BCBCBC"/>
	</linearGradient>
	<rect x="0" y="0" class="st0" width="300" height="400"/>
</g>
<g class="st1">
	<defs>
		<rect id="SVGID_2_" x="0" y="0" class="st1" width="300" height="400"/>
	</defs>
	<clipPath id="SVGID_3_">
		<use xlink:href="#SVGID_2_"  style="overflow:visible;"/>
	</clipPath>
	<g class="st2">
		<polygon class="st3" points="1.2,-7.7 -7.6,7.6 10.1,7.6 		"/>
		<polygon class="st3" points="85.6,-7.7 76.8,7.6 94.5,7.6 		"/>
		<polygon class="st3" points="141.9,-7.7 133.1,7.6 150.8,7.6 		"/>
		<polygon class="st3" points="29.4,-7.7 20.5,7.6 38.2,7.6 		"/>
		<polygon class="st3" points="57.5,-7.7 48.6,7.6 66.4,7.6 		"/>
		<polygon class="st3" points="198.2,-7.7 189.3,7.6 207.1,7.6 		"/>
		<polygon class="st3" points="254.5,-7.7 245.6,7.6 263.3,7.6 		"/>
		<polygon class="st3" points="113.8,-7.7 104.9,7.6 122.7,7.6 		"/>
		<polygon class="st3" points="170.1,-7.7 161.2,7.6 178.9,7.6 		"/>
		<polygon class="st3" points="226.3,-7.7 217.5,7.6 235.2,7.6 		"/>
		<polygon class="st3" points="282.6,-7.7 273.7,7.6 291.5,7.6 		"/>
	</g>
	<g class="st2">
		<polygon class="st3" points="1.2,19.3 -7.6,34.7 10.1,34.7 		"/>
		<polygon class="st3" points="85.6,19.3 76.8,34.7 94.5,34.7 		"/>
		<polygon class="st3" points="141.9,19.3 133.1,34.7 150.8,34.7 		"/>
		<polygon class="st3" points="29.4,19.3 20.5,34.7 38.2,34.7 		"/>
		<polygon class="st3" points="57.5,19.3 48.6,34.7 66.4,34.7 		"/>
		<polygon class="st3" points="198.2,19.3 189.3,34.7 207.1,34.7 		"/>
		<polygon class="st3" points="254.5,19.3 245.6,34.7 263.3,34.7 		"/>
		<polygon class="st3" points="113.8,19.3 104.9,34.7 122.7,34.7 		"/>
		<polygon class="st3" points="170.1,19.3 161.2,34.7 178.9,34.7 		"/>
		<polygon class="st3" points="226.3,19.3 217.5,34.7 235.2,34.7 		"/>
		<polygon class="st3" points="282.6,19.3 273.7,34.7 291.5,34.7 		"/>
	</g>
	<g class="st2">
		<polygon class="st3" points="1.2,46.4 -7.6,61.8 10.1,61.8 		"/>
		<polygon class="st3" points="85.6,46.4 76.8,61.8 94.5,61.8 		"/>
		<polygon class="st3" points="141.9,46.4 133.1,61.8 150.8,61.8 		"/>
		<polygon class="st3" points="29.4,46.4 20.5,61.8 38.2,61.8 		"/>
		<polygon class="st3" points="57.5,46.4 48.6,61.8 66.4,61.8 		"/>
		<polygon class="st3" points="198.2,46.4 189.3,61.8 207.1,61.8 		"/>
		<polygon class="st3" points="254.5,46.4 245.6,61.8 263.3,61.8 		"/>
		<polygon class="st3" points="113.8,46.4 104.9,61.8 122.7,61.8 		"/>
		<polygon class="st3" points="170.1,46.4 161.2,61.8 178.9,61.8 		"/>
		<polygon class="st3" points="226.3,46.4 217.5,61.8 235.2,61.8 		"/>
		<polygon class="st3" points="282.6,46.4 273.7,61.8 291.5,61.8 		"/>
	</g>
	<g class="st2">
		<polygon class="st3" points="1.2,73.5 -7.6,88.9 10.1,88.9 		"/>
		<polygon class="st3" points="85.6,73.5 76.8,88.9 94.5,88.9 		"/>
		<polygon class="st3" points="141.9,73.5 133.1,88.9 150.8,88.9 		"/>
		<polygon class="st3" points="29.4,73.5 20.5,88.9 38.2,88.9 		"/>
		<polygon class="st3" points="57.5,73.5 48.6,88.9 66.4,88.9 		"/>
		<polygon class="st3" points="198.2,73.5 189.3,88.9 207.1,88.9 		"/>
		<polygon class="st3" points="254.5,73.5 245.6,88.9 263.3,88.9 		"/>
		<polygon class="st3" points="113.8,73.5 104.9,88.9 122.7,88.9 		"/>
		<polygon class="st3" points="170.1,73.5 161.2,88.9 178.9,88.9 		"/>
		<polygon class="st3" points="226.3,73.5 217.5,88.9 235.2,88.9 		"/>
		<polygon class="st3" points="282.6,73.5 273.7,88.9 291.5,88.9 		"/>
	</g>
	<g class="st2">
		<polygon class="st3" points="1.2,100.6 -7.6,115.9 10.1,115.9 		"/>
		<polygon class="st3" points="85.6,100.6 76.8,115.9 94.5,115.9 		"/>
		<polygon class="st3" points="141.9,100.6 133.1,115.9 150.8,115.9 		"/>
		<polygon class="st3" points="29.4,100.6 20.5,115.9 38.2,115.9 		"/>
		<polygon class="st3" points="57.5,100.6 48.6,115.9 66.4,115.9 		"/>
		<polygon class="st3" points="198.2,100.6 189.3,115.9 207.1,115.9 		"/>
		<polygon class="st3" points="254.5,100.6 245.6,115.9 263.3,115.9 		"/>
		<polygon class="st3" points="113.8,100.6 104.9,115.9 122.7,115.9 		"/>
		<polygon class="st3" points="170.1,100.6 161.2,115.9 178.9,115.9 		"/>
		<polygon class="st3" points="226.3,100.6 217.5,115.9 235.2,115.9 		"/>
		<polygon class="st3" points="282.6,100.6 273.7,115.9 291.5,115.9 		"/>
	</g>
	<g class="st2">
		<polygon class="st3" points="1.2,127.7 -7.6,143 10.1,143 		"/>
		<polygon class="st3" points="85.6,127.7 76.8,143 94.5,143 		"/>
		<polygon class="st3" points="141.9,127.7 133.1,143 150.8,143 		"/>
		<polygon class="st3" points="29.4,127.7 20.5,143 38.2,143 		"/>
		<polygon class="st3" points="57.5,127.7 48.6,143 66.4,143 		"/>
		<polygon class="st3" points="198.2,127.7 189.3,143 207.1,143 		"/>
		<polygon class="st3" points="254.5,127.7 245.6,143 263.3,143 		"/>
		<polygon class="st3" points="113.8,127.7 104.9,143 122.7,143 		"/>
		<polygon class="st3" points="170.1,127.7 161.2,143 178.9,143 		"/>
		<polygon class="st3" points="226.3,127.7 217.5,143 235.2,143 		"/>
		<polygon class="st3" points="282.6,127.7 273.7,143 291.5,143 		"/>
	</g>
	<g class="st2">
		<polygon class="st3" points="1.2,154.7 -7.6,170.1 10.1,170.1 		"/>
		<polygon class="st3" points="85.6,154.7 76.8,170.1 94.5,170.1 		"/>
		<polygon class="st3" points="141.9,154.7 133.1,170.1 150.8,170.1 		"/>
		<polygon class="st3" points="29.4,154.7 20.5,170.1 38.2,170.1 		"/>
		<polygon class="st3" points="57.5,154.7 48.6,170.1 66.4,170.1 		"/>
		<polygon class="st3" points="198.2,154.7 189.3,170.1 207.1,170.1 		"/>
		<polygon class="st3" points="254.5,154.7 245.6,170.1 263.3,170.1 		"/>
		<polygon class="st3" points="113.8,154.7 104.9,170.1 122.7,170.1 		"/>
		<polygon class="st3" points="170.1,154.7 161.2,170.1 178.9,170.1 		"/>
		<polygon class="st3" points="226.3,154.7 217.5,170.1 235.2,170.1 		"/>
		<polygon class="st3" points="282.6,154.7 273.7,170.1 291.5,170.1 		"/>
	</g>
	<g class="st2">
		<polygon class="st3" points="1.2,181.8 -7.6,197.2 10.1,197.2 		"/>
		<polygon class="st3" points="85.6,181.8 76.8,197.2 94.5,197.2 		"/>
		<polygon class="st3" points="141.9,181.8 133.1,197.2 150.8,197.2 		"/>
		<polygon class="st3" points="29.4,181.8 20.5,197.2 38.2,197.2 		"/>
		<polygon class="st3" points="57.5,181.8 48.6,197.2 66.4,197.2 		"/>
		<polygon class="st3" points="198.2,181.8 189.3,197.2 207.1,197.2 		"/>
		<polygon class="st3" points="254.5,181.8 245.6,197.2 263.3,197.2 		"/>
		<polygon class="st3" points="113.8,181.8 104.9,197.2 122.7,197.2 		"/>
		<polygon class="st3" points="170.1,181.8 161.2,197.2 178.9,197.2 		"/>
		<polygon class="st3" points="226.3,181.8 217.5,197.2 235.2,197.2 		"/>
		<polygon class="st3" points="282.6,181.8 273.7,197.2 291.5,197.2 		"/>
	</g>
	<g class="st2">
		<polygon class="st3" points="1.2,208.9 -7.6,224.2 10.1,224.2 		"/>
		<polygon class="st3" points="85.6,208.9 76.8,224.2 94.5,224.2 		"/>
		<polygon class="st3" points="141.9,208.9 133.1,224.2 150.8,224.2 		"/>
		<polygon class="st3" points="29.4,208.9 20.5,224.2 38.2,224.2 		"/>
		<polygon class="st3" points="57.5,208.9 48.6,224.2 66.4,224.2 		"/>
		<polygon class="st3" points="198.2,208.9 189.3,224.2 207.1,224.2 		"/>
		<polygon class="st3" points="254.5,208.9 245.6,224.2 263.3,224.2 		"/>
		<polygon class="st3" points="113.8,208.9 104.9,224.2 122.7,224.2 		"/>
		<polygon class="st3" points="170.1,208.9 161.2,224.2 178.9,224.2 		"/>
		<polygon class="st3" points="226.3,208.9 217.5,224.2 235.2,224.2 		"/>
		<polygon class="st3" points="282.6,208.9 273.7,224.2 291.5,224.2 		"/>
	</g>
	<g class="st2">
		<polygon class="st3" points="1.2,236 -7.6,251.3 10.1,251.3 		"/>
		<polygon class="st3" points="85.6,236 76.8,251.3 94.5,251.3 		"/>
		<polygon class="st3" points="141.9,236 133.1,251.3 150.8,251.3 		"/>
		<polygon class="st3" points="29.4,236 20.5,251.3 38.2,251.3 		"/>
		<polygon class="st3" points="57.5,236 48.6,251.3 66.4,251.3 		"/>
		<polygon class="st3" points="198.2,236 189.3,251.3 207.1,251.3 		"/>
		<polygon class="st3" points="254.5,236 245.6,251.3 263.3,251.3 		"/>
		<polygon class="st3" points="113.8,236 104.9,251.3 122.7,251.3 		"/>
		<polygon class="st3" points="170.1,236 161.2,251.3 178.9,251.3 		"/>
		<polygon class="st3" points="226.3,236 217.5,251.3 235.2,251.3 		"/>
		<polygon class="st3" points="282.6,236 273.7,251.3 291.5,251.3 		"/>
	</g>
	<g class="st2">
		<polygon class="st3" points="1.2,263 -7.6,278.4 10.1,278.4 		"/>
		<polygon class="st3" points="85.6,263 76.8,278.4 94.5,278.4 		"/>
		<polygon class="st3" points="141.9,263 133.1,278.4 150.8,278.4 		"/>
		<polygon class="st3" points="29.4,263 20.5,278.4 38.2,278.4 		"/>
		<polygon class="st3" points="57.5,263 48.6,278.4 66.4,278.4 		"/>
		<polygon class="st3" points="198.2,263 189.3,278.4 207.1,278.4 		"/>
		<polygon class="st3" points="254.5,263 245.6,278.4 263.3,278.4 		"/>
		<polygon class="st3" points="113.8,263 104.9,278.4 122.7,278.4 		"/>
		<polygon class="st3" points="170.1,263 161.2,278.4 178.9,278.4 		"/>
		<polygon class="st3" points="226.3,263 217.5,278.4 235.2,278.4 		"/>
		<polygon class="st3" points="282.6,263 273.7,278.4 291.5,278.4 		"/>
	</g>
	<g class="st2">
		<polygon class="st3" points="1.2,290.1 -7.6,305.5 10.1,305.5 		"/>
		<polygon class="st3" points="85.6,290.1 76.8,305.5 94.5,305.5 		"/>
		<polygon class="st3" points="141.9,290.1 133.1,305.5 150.8,305.5 		"/>
		<polygon class="st3" points="29.4,290.1 20.5,305.5 38.2,305.5 		"/>
		<polygon class="st3" points="57.5,290.1 48.6,305.5 66.4,305.5 		"/>
		<polygon class="st3" points="198.2,290.1 189.3,305.5 207.1,305.5 		"/>
		<polygon class="st3" points="254.5,290.1 245.6,305.5 263.3,305.5 		"/>
		<polygon class="st3" points="113.8,290.1 104.9,305.5 122.7,305.5 		"/>
		<polygon class="st3" points="170.1,290.1 161.2,305.5 178.9,305.5 		"/>
		<polygon class="st3" points="226.3,290.1 217.5,305.5 235.2,305.5 		"/>
		<polygon class="st3" points="282.6,290.1 273.7,305.5 291.5,305.5 		"/>
	</g>
	<g class="st2">
		<polygon class="st3" points="1.1,316.7 -7.8,332 10,332.1 		"/>
		<polygon class="st3" points="85.6,317 76.6,332.4 94.4,332.4 		"/>
		<polygon class="st3" points="141.8,317.2 132.9,332.6 150.6,332.6 		"/>
		<polygon class="st3" points="29.3,316.8 20.3,332.1 38.1,332.2 		"/>
		<polygon class="st3" points="57.4,316.9 48.5,332.2 66.2,332.3 		"/>
		<polygon class="st3" points="198.1,317.5 189.2,332.8 206.9,332.9 		"/>
		<polygon class="st3" points="254.4,317.7 245.4,333 263.2,333.1 		"/>
		<polygon class="st3" points="113.7,317.1 104.8,332.5 122.5,332.5 		"/>
		<polygon class="st3" points="170,317.4 161,332.7 178.8,332.8 		"/>
		<polygon class="st3" points="226.2,317.6 217.3,332.9 235.1,333 		"/>
		<polygon class="st3" points="282.5,317.8 273.6,333.1 291.3,333.2 		"/>
	</g>
	<g class="st2">
		<polygon class="st3" points="1,343.8 -7.9,359.1 9.8,359.2 		"/>
		<polygon class="st3" points="85.4,344.1 76.5,359.4 94.3,359.5 		"/>
		<polygon class="st3" points="141.7,344.3 132.8,359.7 150.5,359.7 		"/>
		<polygon class="st3" points="29.2,343.9 20.2,359.2 38,359.3 		"/>
		<polygon class="st3" points="57.3,344 48.4,359.3 66.1,359.4 		"/>
		<polygon class="st3" points="198,344.5 189.1,359.9 206.8,359.9 		"/>
		<polygon class="st3" points="254.3,344.8 245.3,360.1 263.1,360.2 		"/>
		<polygon class="st3" points="113.6,344.2 104.6,359.5 122.4,359.6 		"/>
		<polygon class="st3" points="169.9,344.4 160.9,359.8 178.7,359.8 		"/>
		<polygon class="st3" points="226.1,344.7 217.2,360 234.9,360.1 		"/>
		<polygon class="st3" points="282.4,344.9 273.5,360.2 291.2,360.3 		"/>
	</g>
	<g class="st2">
		<polygon class="st3" points="0.9,370.8 -8,386.2 9.7,386.2 		"/>
		<polygon class="st3" points="85.3,371.2 76.4,386.5 94.1,386.6 		"/>
		<polygon class="st3" points="141.6,371.4 132.7,386.7 150.4,386.8 		"/>
		<polygon class="st3" points="29.1,370.9 20.1,386.3 37.9,386.4 		"/>
		<polygon class="st3" points="57.2,371.1 48.3,386.4 66,386.5 		"/>
		<polygon class="st3" points="197.9,371.6 189,387 206.7,387 		"/>
		<polygon class="st3" points="254.2,371.8 245.2,387.2 263,387.3 		"/>
		<polygon class="st3" points="113.5,371.3 104.5,386.6 122.3,386.7 		"/>
		<polygon class="st3" points="169.7,371.5 160.8,386.8 178.6,386.9 		"/>
		<polygon class="st3" points="226,371.7 217.1,387.1 234.8,387.1 		"/>
		<polygon class="st3" points="282.3,372 273.4,387.3 291.1,387.4 		"/>
	</g>
	<g class="st2">
		<polygon class="st3" points="0.8,397.9 -8.1,413.2 9.6,413.3 		"/>
		<polygon class="st3" points="85.2,398.3 76.3,413.6 94,413.7 		"/>
		<polygon class="st3" points="141.5,398.5 132.6,413.8 150.3,413.9 		"/>
		<polygon class="st3" points="29,398 20,413.4 37.8,413.4 		"/>
		<polygon class="st3" points="57.1,398.1 48.2,413.5 65.9,413.5 		"/>
		<polygon class="st3" points="197.8,398.7 188.8,414 206.6,414.1 		"/>
		<polygon class="st3" points="254.1,398.9 245.1,414.3 262.9,414.3 		"/>
		<polygon class="st3" points="113.4,398.4 104.4,413.7 122.2,413.8 		"/>
		<polygon class="st3" points="169.6,398.6 160.7,413.9 178.5,414 		"/>
		<polygon class="st3" points="225.9,398.8 217,414.1 234.7,414.2 		"/>
		<polygon class="st3" points="282.2,399 273.3,414.4 291,414.4 		"/>
	</g>
</g>
<g>
	<path d="M71.4,176.4l0,2.7l4.4,0l0,2.5l-4.4,0l0,2.9l4.9,0l0,2.6l-8.2,0l0.1-13.3l8.2,0l0,2.6L71.4,176.4z"/>
	<path d="M105.2,177.8c0.8,0.8,1.2,1.9,1.2,3.3l0,6.2l-3.2,0l0-5.8c0-0.7-0.2-1.2-0.5-1.6s-0.9-0.6-1.5-0.6s-1.1,0.2-1.5,0.6
		c-0.4,0.4-0.5,0.9-0.5,1.6l0,5.8l-3.2,0l0-5.8c0-0.7-0.2-1.2-0.5-1.6c-0.4-0.4-0.9-0.6-1.5-0.6c-0.6,0-1.1,0.2-1.5,0.6
		c-0.4,0.4-0.5,0.9-0.5,1.6l0,5.8l-3.2,0l0-10.6l3.2,0l0,1.3c0.3-0.4,0.8-0.8,1.3-1c0.5-0.3,1.1-0.4,1.8-0.4c0.8,0,1.5,0.2,2.1,0.5
		s1.1,0.8,1.5,1.5c0.4-0.6,0.9-1.1,1.5-1.4c0.6-0.4,1.3-0.5,2.1-0.5C103.4,176.6,104.4,177,105.2,177.8z"/>
	<path d="M123.3,177.1c0.6-0.3,1.2-0.5,2-0.4c0.9,0,1.7,0.2,2.4,0.7c0.7,0.4,1.3,1.1,1.7,1.9c0.4,0.8,0.6,1.8,0.6,2.9
		s-0.2,2-0.6,2.9s-1,1.5-1.7,1.9c-0.7,0.4-1.5,0.7-2.4,0.7c-0.7,0-1.4-0.2-1.9-0.5c-0.6-0.3-1-0.7-1.3-1.2l0,6.5l-3.2,0l0.1-15.7
		l3.2,0l0,1.5C122.3,177.8,122.7,177.4,123.3,177.1z M125.9,180.2c-0.4-0.5-1-0.7-1.7-0.7c-0.6,0-1.2,0.2-1.6,0.7
		c-0.5,0.5-0.7,1.1-0.7,1.9c0,0.8,0.2,1.5,0.7,1.9c0.4,0.5,1,0.7,1.6,0.7s1.2-0.2,1.7-0.7c0.5-0.5,0.7-1.1,0.7-1.9
		C126.6,181.3,126.4,180.6,125.9,180.2z"/>
	<path d="M145,173.4l-0.1,14.1l-3.2,0l0.1-14.1L145,173.4z"/>
	<path d="M159.4,187c-0.8-0.4-1.5-1.1-1.9-1.9s-0.7-1.8-0.7-2.9c0-1.1,0.2-2,0.7-2.9c0.5-0.8,1.1-1.5,2-1.9c0.8-0.4,1.8-0.7,2.8-0.7
		c1,0,2,0.2,2.8,0.7c0.8,0.4,1.5,1.1,2,1.9c0.5,0.8,0.7,1.8,0.7,2.9s-0.3,2-0.7,2.9s-1.2,1.5-2,1.9c-0.8,0.4-1.8,0.7-2.8,0.7
		C161.1,187.7,160.2,187.5,159.4,187z M163.8,184.2c0.4-0.5,0.7-1.1,0.7-2s-0.2-1.5-0.6-2c-0.4-0.5-0.9-0.7-1.6-0.7
		c-0.6,0-1.2,0.2-1.6,0.7c-0.4,0.4-0.6,1.1-0.6,2c0,0.8,0.2,1.5,0.6,2c0.4,0.5,0.9,0.7,1.5,0.7C162.8,184.9,163.3,184.6,163.8,184.2
		z"/>
	<path d="M190.4,177l-6.7,15.6l-3.5,0l2.5-5.4l-4.3-10.3l3.6,0l2.4,6.6l2.5-6.6L190.4,177z"/>
	<path d="M211.6,183.2l-7.4,0c0,0.7,0.3,1.2,0.6,1.5c0.4,0.4,0.8,0.5,1.4,0.5c0.8,0,1.4-0.3,1.7-1l3.5,0c-0.2,0.7-0.5,1.3-1,1.9
		c-0.5,0.6-1,1-1.7,1.3c-0.7,0.3-1.5,0.5-2.3,0.5c-1,0-2-0.2-2.8-0.7c-0.8-0.4-1.4-1.1-1.9-1.9c-0.5-0.8-0.7-1.8-0.7-2.9
		c0-1.1,0.2-2.1,0.7-2.9c0.5-0.8,1.1-1.5,1.9-1.9c0.8-0.4,1.7-0.7,2.8-0.7c1,0,1.9,0.2,2.7,0.7c0.8,0.4,1.4,1.1,1.9,1.9
		c0.4,0.8,0.7,1.7,0.7,2.8C211.6,182.6,211.6,182.9,211.6,183.2z M208.3,181.4c0-0.6-0.2-1-0.6-1.3c-0.4-0.3-0.9-0.5-1.4-0.5
		c-0.5,0-1,0.2-1.4,0.5c-0.4,0.3-0.6,0.8-0.7,1.3L208.3,181.4z"/>
	<path d="M233.4,183.3l-7.4,0c0,0.7,0.3,1.2,0.6,1.5c0.4,0.4,0.8,0.5,1.4,0.5c0.8,0,1.4-0.3,1.7-1l3.5,0c-0.2,0.7-0.5,1.3-1,1.9
		c-0.5,0.6-1,1-1.7,1.3c-0.7,0.3-1.5,0.5-2.3,0.5c-1,0-2-0.2-2.8-0.7c-0.8-0.4-1.4-1.1-1.9-1.9c-0.5-0.8-0.7-1.8-0.7-2.9
		c0-1.1,0.2-2.1,0.7-2.9c0.5-0.8,1.1-1.5,1.9-1.9c0.8-0.4,1.7-0.7,2.8-0.7c1,0,1.9,0.2,2.7,0.7c0.8,0.4,1.4,1.1,1.9,1.8
		c0.4,0.8,0.7,1.7,0.7,2.8C233.4,182.6,233.4,183,233.4,183.3z M230.1,181.5c0-0.6-0.2-1-0.6-1.3c-0.4-0.3-0.9-0.5-1.4-0.5
		c-0.5,0-1,0.2-1.4,0.5c-0.4,0.3-0.6,0.8-0.7,1.3L230.1,181.5z"/>
</g>
<g>
	<path d="M77.8,200.3l0,9.7l-1.3,0l0-7.2l-3.2,7.2l-0.9,0l-3.2-7.3l0,7.2l-1.3,0l0-9.7l1.4,0l3.6,8l3.6-8L77.8,200.3z"/>
	<path d="M88,204.1c0.3-0.6,0.8-1,1.3-1.4c0.6-0.3,1.2-0.5,1.9-0.5c0.7,0,1.3,0.1,1.7,0.4c0.5,0.3,0.9,0.7,1.1,1.1l0-1.4l1.3,0
		l0,7.7l-1.3,0l0-1.4c-0.3,0.4-0.6,0.8-1.1,1.1s-1.1,0.4-1.7,0.4c-0.7,0-1.3-0.2-1.8-0.5c-0.5-0.3-1-0.8-1.3-1.4
		c-0.3-0.6-0.5-1.3-0.5-2.1C87.5,205.4,87.6,204.7,88,204.1z M93.6,204.7c-0.2-0.4-0.5-0.8-0.9-1c-0.4-0.2-0.8-0.3-1.3-0.3
		c-0.5,0-0.9,0.1-1.3,0.3c-0.4,0.2-0.7,0.5-0.9,1c-0.2,0.4-0.4,0.9-0.4,1.5c0,0.6,0.1,1.1,0.3,1.5c0.2,0.4,0.5,0.8,0.9,1
		c0.4,0.2,0.8,0.3,1.3,0.3c0.5,0,0.9-0.1,1.3-0.3s0.7-0.6,0.9-1c0.2-0.4,0.4-0.9,0.4-1.5C94,205.6,93.9,205.1,93.6,204.7z"/>
	<path d="M111.4,203.2c0.6,0.6,0.9,1.4,0.9,2.4l0,4.5l-1.3,0l0-4.3c0-0.8-0.2-1.4-0.6-1.8s-0.9-0.6-1.6-0.6c-0.7,0-1.2,0.2-1.6,0.6
		c-0.4,0.4-0.6,1-0.6,1.8l0,4.2l-1.3,0l0-7.7l1.3,0l0,1.1c0.3-0.4,0.6-0.7,1-0.9c0.4-0.2,0.9-0.3,1.4-0.3
		C110.1,202.3,110.8,202.6,111.4,203.2z"/>
	<path d="M122.3,204.2c0.3-0.6,0.8-1,1.3-1.4s1.2-0.5,1.9-0.5c0.7,0,1.3,0.1,1.7,0.4c0.5,0.3,0.9,0.7,1.1,1.1l0-1.4l1.3,0l0,7.7
		l-1.3,0l0-1.4c-0.3,0.4-0.6,0.8-1.1,1.1s-1.1,0.4-1.7,0.4c-0.7,0-1.3-0.2-1.8-0.5c-0.5-0.3-1-0.8-1.3-1.4c-0.3-0.6-0.5-1.3-0.5-2.1
		C121.9,205.5,122,204.8,122.3,204.2z M128,204.8c-0.2-0.4-0.5-0.8-0.9-1c-0.4-0.2-0.8-0.3-1.3-0.3s-0.9,0.1-1.3,0.3
		c-0.4,0.2-0.7,0.5-0.9,1c-0.2,0.4-0.4,0.9-0.4,1.5c0,0.6,0.1,1.1,0.3,1.5c0.2,0.4,0.5,0.8,0.9,1c0.4,0.2,0.8,0.3,1.3,0.3
		s0.9-0.1,1.3-0.3c0.4-0.2,0.7-0.6,0.9-1c0.2-0.4,0.4-0.9,0.4-1.5C128.3,205.8,128.2,205.3,128,204.8z"/>
	<path d="M144.7,202.9c0.5,0.3,0.9,0.7,1.1,1.1l0-1.4l1.3,0l0,7.8c0,0.7-0.2,1.3-0.5,1.9c-0.3,0.5-0.7,1-1.3,1.3
		c-0.6,0.3-1.2,0.5-1.9,0.5c-1,0-1.8-0.2-2.5-0.7c-0.7-0.5-1.1-1.1-1.2-2l1.3,0c0.1,0.5,0.4,0.8,0.9,1.1c0.4,0.3,1,0.4,1.6,0.4
		c0.7,0,1.3-0.2,1.7-0.7c0.4-0.4,0.7-1.1,0.7-1.8l0-1.6c-0.3,0.4-0.6,0.8-1.1,1.1c-0.5,0.3-1.1,0.4-1.7,0.4c-0.7,0-1.3-0.2-1.9-0.5
		c-0.6-0.3-1-0.8-1.3-1.4c-0.3-0.6-0.5-1.3-0.5-2.1c0-0.8,0.2-1.5,0.5-2.1c0.3-0.6,0.8-1,1.3-1.4c0.6-0.3,1.2-0.5,1.9-0.5
		C143.6,202.5,144.2,202.6,144.7,202.9z M145.4,204.9c-0.2-0.4-0.5-0.8-0.9-1c-0.4-0.2-0.8-0.3-1.3-0.3s-0.9,0.1-1.3,0.3
		c-0.4,0.2-0.7,0.5-0.9,1c-0.2,0.4-0.4,0.9-0.4,1.5c0,0.6,0.1,1.1,0.3,1.5c0.2,0.4,0.5,0.8,0.9,1c0.4,0.2,0.8,0.3,1.3,0.3
		s0.9-0.1,1.3-0.3c0.4-0.2,0.7-0.6,0.9-1c0.2-0.4,0.4-0.9,0.4-1.5C145.8,205.8,145.7,205.3,145.4,204.9z"/>
	<path d="M164.2,207l-6.1,0c0,0.8,0.3,1.3,0.8,1.8c0.5,0.4,1,0.6,1.7,0.6c0.6,0,1-0.1,1.4-0.4c0.4-0.3,0.6-0.6,0.8-1l1.4,0
		c-0.2,0.7-0.6,1.3-1.2,1.8c-0.6,0.5-1.4,0.7-2.3,0.7c-0.7,0-1.4-0.2-2-0.5c-0.6-0.3-1-0.8-1.3-1.4c-0.3-0.6-0.5-1.3-0.5-2.1
		c0-0.8,0.2-1.5,0.5-2.1c0.3-0.6,0.8-1.1,1.3-1.4s1.2-0.5,2-0.5c0.7,0,1.4,0.2,1.9,0.5c0.6,0.3,1,0.8,1.3,1.3
		c0.3,0.6,0.5,1.2,0.4,1.9C164.2,206.5,164.2,206.7,164.2,207z M162.6,204.7c-0.2-0.4-0.5-0.6-0.9-0.8c-0.4-0.2-0.8-0.3-1.2-0.3
		c-0.6,0-1.2,0.2-1.6,0.6c-0.5,0.4-0.7,1-0.8,1.7l4.8,0C162.9,205.5,162.8,205,162.6,204.7z"/>
	<path d="M184.7,203c0.5,0.2,0.8,0.6,1.1,1.1c0.3,0.5,0.4,1.1,0.4,1.8l0,4.5l-1.3,0l0-4.3c0-0.8-0.2-1.4-0.6-1.8
		c-0.4-0.4-0.9-0.6-1.5-0.6c-0.7,0-1.2,0.2-1.6,0.6c-0.4,0.4-0.6,1-0.6,1.8l0,4.2l-1.3,0l0-4.3c0-0.8-0.2-1.4-0.6-1.8
		s-0.9-0.6-1.5-0.6c-0.7,0-1.2,0.2-1.6,0.6c-0.4,0.4-0.6,1-0.6,1.8l0,4.2l-1.3,0l0-7.7l1.3,0l0,1.1c0.3-0.4,0.6-0.7,1-0.9
		c0.4-0.2,0.9-0.3,1.4-0.3c0.6,0,1.2,0.1,1.7,0.4c0.5,0.3,0.9,0.7,1.1,1.3c0.2-0.5,0.6-1,1.1-1.3c0.5-0.3,1-0.4,1.7-0.4
		C183.7,202.6,184.2,202.7,184.7,203z"/>
	<path d="M203.2,207.1l-6.1,0c0,0.8,0.3,1.3,0.8,1.8c0.5,0.4,1,0.6,1.7,0.6c0.6,0,1-0.1,1.4-0.4c0.4-0.3,0.6-0.6,0.8-1l1.4,0
		c-0.2,0.7-0.6,1.3-1.2,1.8c-0.6,0.5-1.4,0.7-2.3,0.7c-0.7,0-1.4-0.2-2-0.5c-0.6-0.3-1-0.8-1.3-1.4c-0.3-0.6-0.5-1.3-0.5-2.1
		c0-0.8,0.2-1.5,0.5-2.1c0.3-0.6,0.8-1.1,1.3-1.4c0.6-0.3,1.2-0.5,2-0.5c0.7,0,1.4,0.2,1.9,0.5c0.6,0.3,1,0.8,1.3,1.3
		c0.3,0.6,0.5,1.2,0.4,1.9C203.2,206.6,203.2,206.9,203.2,207.1z M201.6,204.8c-0.2-0.4-0.5-0.6-0.9-0.8c-0.4-0.2-0.8-0.3-1.2-0.3
		c-0.6,0-1.2,0.2-1.6,0.6c-0.5,0.4-0.7,1-0.8,1.7l4.8,0C201.9,205.6,201.8,205.2,201.6,204.8z"/>
	<path d="M218.9,203.6c0.6,0.6,0.9,1.4,0.9,2.4l0,4.5l-1.3,0l0-4.3c0-0.8-0.2-1.4-0.6-1.8c-0.4-0.4-0.9-0.6-1.6-0.6
		c-0.7,0-1.2,0.2-1.6,0.6c-0.4,0.4-0.6,1-0.6,1.8l0,4.2l-1.3,0l0-7.7l1.3,0l0,1.1c0.3-0.4,0.6-0.7,1-0.9c0.4-0.2,0.9-0.3,1.4-0.3
		C217.6,202.7,218.3,203,218.9,203.6z"/>
	<path d="M231.4,204l0,4.5c0,0.4,0.1,0.6,0.2,0.8c0.2,0.2,0.4,0.2,0.8,0.2l0.9,0l0,1.1l-1.1,0c-0.7,0-1.2-0.2-1.6-0.5
		c-0.4-0.3-0.5-0.9-0.5-1.6l0-4.5l-1,0l0-1l1,0l0-1.9l1.3,0l0,1.9l2,0l0,1L231.4,204z"/>
</g>
<g>
	<path d="M70.6,235.7c-0.9-0.4-1.6-0.9-2.1-1.6c-0.5-0.7-0.8-1.6-0.8-2.6l4,0c0.1,0.6,0.3,1,0.6,1.3c0.3,0.3,0.8,0.5,1.3,0.5
		c0.6,0,1-0.1,1.3-0.4c0.3-0.3,0.5-0.6,0.5-1.1c0-0.4-0.1-0.7-0.4-0.9c-0.3-0.3-0.6-0.5-0.9-0.6c-0.4-0.2-0.9-0.3-1.6-0.6
		c-1-0.3-1.8-0.6-2.4-0.9c-0.6-0.3-1.2-0.8-1.6-1.4c-0.5-0.6-0.7-1.4-0.7-2.4c0-1.4,0.5-2.6,1.6-3.4c1-0.8,2.4-1.2,4.1-1.2
		c1.7,0,3.1,0.4,4.1,1.2c1,0.8,1.6,2,1.7,3.4l-4.1,0c0-0.5-0.2-0.9-0.5-1.2c-0.3-0.3-0.8-0.4-1.3-0.4c-0.5,0-0.8,0.1-1.1,0.4
		c-0.3,0.2-0.4,0.6-0.4,1c0,0.5,0.2,0.9,0.7,1.2c0.5,0.3,1.2,0.6,2.2,0.9c1,0.3,1.8,0.7,2.4,1s1.2,0.8,1.6,1.3s0.7,1.3,0.7,2.3
		c0,0.9-0.2,1.7-0.7,2.4c-0.5,0.7-1.1,1.3-2,1.7c-0.9,0.4-1.9,0.6-3,0.6C72.6,236.3,71.5,236.1,70.6,235.7z"/>
	<path d="M110.5,224l-7.8,18.1l-4,0l2.8-6.2L96.6,224l4.2,0l2.8,7.7l2.8-7.7L110.5,224z"/>
	<path d="M130.3,236c-0.8-0.4-1.5-0.9-2-1.5c-0.5-0.6-0.8-1.4-0.8-2.1l3.7,0c0,0.4,0.2,0.8,0.6,1c0.4,0.3,0.8,0.4,1.3,0.4
		c0.5,0,0.8-0.1,1.1-0.3c0.3-0.2,0.4-0.4,0.4-0.7c0-0.4-0.2-0.6-0.5-0.8c-0.4-0.2-1-0.4-1.8-0.6c-0.9-0.2-1.6-0.4-2.2-0.7
		c-0.6-0.2-1.1-0.6-1.5-1.1c-0.4-0.5-0.6-1.2-0.6-2c0-0.7,0.2-1.3,0.6-1.9c0.4-0.6,1-1,1.7-1.4s1.7-0.5,2.7-0.5
		c1.5,0,2.8,0.4,3.6,1.2c0.9,0.8,1.4,1.8,1.5,3l-3.5,0c-0.1-0.4-0.2-0.8-0.6-1c-0.3-0.3-0.7-0.4-1.2-0.4c-0.4,0-0.8,0.1-1,0.2
		c-0.2,0.2-0.4,0.4-0.4,0.7c0,0.4,0.2,0.6,0.6,0.8c0.4,0.2,1,0.4,1.7,0.5c0.9,0.2,1.6,0.5,2.2,0.7c0.6,0.2,1.1,0.6,1.5,1.1
		c0.4,0.5,0.7,1.2,0.7,2c0,0.7-0.2,1.4-0.6,1.9c-0.4,0.6-1,1-1.7,1.3c-0.8,0.3-1.6,0.5-2.6,0.5C132.1,236.6,131.1,236.4,130.3,236z"
		/>
	<path d="M163.6,233.3l0,3.2l-1.9,0c-1.4,0-2.4-0.3-3.2-1c-0.8-0.7-1.1-1.8-1.1-3.3l0-4.9l-1.5,0l0-3.1l1.5,0l0-3l3.8,0l0,3l2.5,0
		l0,3.1l-2.5,0l0,4.9c0,0.4,0.1,0.6,0.3,0.8c0.2,0.2,0.5,0.2,0.9,0.2L163.6,233.3z"/>
	<path d="M193.5,231.4l-8.5,0c0.1,0.8,0.3,1.3,0.7,1.8c0.4,0.4,1,0.6,1.6,0.6c0.9,0,1.6-0.4,2-1.2l4,0c-0.2,0.8-0.6,1.5-1.1,2.2
		c-0.5,0.6-1.2,1.1-2,1.5s-1.7,0.5-2.7,0.5c-1.2,0-2.3-0.3-3.2-0.8c-0.9-0.5-1.7-1.3-2.2-2.2c-0.5-1-0.8-2.1-0.8-3.3
		c0-1.3,0.3-2.4,0.8-3.3c0.5-1,1.3-1.7,2.2-2.2c0.9-0.5,2-0.8,3.2-0.8c1.2,0,2.2,0.3,3.2,0.8c0.9,0.5,1.6,1.2,2.2,2.1
		c0.5,0.9,0.8,2,0.8,3.2C193.5,230.6,193.5,231,193.5,231.4z M189.7,229.3c0-0.6-0.2-1.2-0.7-1.5c-0.4-0.4-1-0.6-1.6-0.6
		c-0.6,0-1.2,0.2-1.6,0.5c-0.4,0.4-0.7,0.9-0.8,1.6L189.7,229.3z"/>
	<path d="M231.1,225.8c0.9,0.9,1.3,2.2,1.3,3.9l0,7.2l-3.7,0l0-6.7c0-0.8-0.2-1.4-0.6-1.8c-0.4-0.4-1-0.7-1.7-0.7
		c-0.7,0-1.3,0.2-1.7,0.6c-0.4,0.4-0.6,1-0.6,1.8l0,6.7l-3.7,0l0-6.7c0-0.8-0.2-1.4-0.6-1.8c-0.4-0.4-1-0.7-1.7-0.7
		s-1.3,0.2-1.7,0.6c-0.4,0.4-0.6,1-0.6,1.8l0,6.7l-3.8,0l0-12.3l3.8,0l0,1.5c0.4-0.5,0.9-0.9,1.5-1.2c0.6-0.3,1.3-0.4,2.1-0.4
		c0.9,0,1.7,0.2,2.5,0.6s1.3,1,1.7,1.7c0.4-0.7,1-1.2,1.7-1.6c0.7-0.4,1.5-0.6,2.4-0.6C229,224.4,230.2,224.8,231.1,225.8z"/>
</g>
</svg>
