<svg id="Layer_1" data-name="Layer 1" xmlns="http://www.w3.org/2000/svg" xmlns:xlink="http://www.w3.org/1999/xlink" viewBox="0 0 600 600"><defs><style>.cls-1{fill:url(#linear-gradient);}.cls-2{fill:#fff;}.cls-3{fill:#c6ddd9;}.cls-4{fill:#75cabf;}.cls-5{fill:#1cae97;}</style><linearGradient id="linear-gradient" x1="10.61" y1="571.93" x2="601.34" y2="16.83" gradientUnits="userSpaceOnUse"><stop offset="0" stop-color="#00293c"/><stop offset="1" stop-color="#033f3f"/></linearGradient></defs><title>fedorafield</title><rect class="cls-1" width="600" height="600"/><path class="cls-2" d="M166.37,261.37v5.54h9.71v3.9h-9.71v7.65h-4.86v-21h15.86v3.9Z"/><path class="cls-2" d="M229.9,274.56v3.9H213.65v-21h15.86v3.9h-11v4.55h9.74v3.78h-9.74v4.86Z"/><path class="cls-2" d="M266.75,257.47h9.54a13.38,13.38,0,0,1,6,1.3,9.78,9.78,0,0,1,4.08,3.68,11.21,11.21,0,0,1,0,11,9.76,9.76,0,0,1-4.08,3.67,13.39,13.39,0,0,1-6,1.31h-9.54Zm9.3,17a7,7,0,0,0,5-1.76,7,7,0,0,0,0-9.5,7,7,0,0,0-5-1.75h-4.44v13Z"/><path class="cls-2" d="M379.34,278.46l-4-5.85h-4.47v5.85H366v-21h9.08a11.61,11.61,0,0,1,4.84.93A7.49,7.49,0,0,1,383,269.12a7.11,7.11,0,0,1-3.19,2.59l4.71,6.75Zm-1.23-16.09a5.1,5.1,0,0,0-3.33-.94h-4v7.31h4a5,5,0,0,0,3.33-1,3.78,3.78,0,0,0,0-5.41Z"/><path class="cls-2" d="M434.81,274h-9.75l-1.86,4.5h-5l9.35-21h4.8l9.38,21h-5.09Zm-1.53-3.69-3.33-8-3.33,8Z"/><path class="cls-2" d="M172.81,306.29v12.48h21.86v8.77H172.81v17.2H161.88V297.52h35.69v8.77Z"/><path class="cls-2" d="M225.23,297.52h10.93v47.22H225.23Z"/><path class="cls-2" d="M304.16,336v8.77H267.59V297.52h35.69v8.77H278.45v10.25h21.93v8.51H278.45V336Z"/><path class="cls-2" d="M333.1,297.52H344v38.32h23.68v8.9H333.1Z"/><path class="cls-2" d="M394.08,297.52h21.46a30.12,30.12,0,0,1,13.59,2.94,22,22,0,0,1,9.18,8.26,25.2,25.2,0,0,1,0,24.83,22,22,0,0,1-9.18,8.26,30.12,30.12,0,0,1-13.59,2.93H394.08ZM415,335.77q7.08,0,11.3-3.94t4.21-10.7q0-6.74-4.21-10.69T415,306.49H405v29.28Z"/><path class="cls-2" d="M285.28,230.83c-2.45.3-4.89.3-6.72,2.44s-.31,7.94,1.52,8.86,3.36,1.83,17.41,1.83,24.13-7,25.66-12.22-1.53-5.19-8.55-4.27l.3,4.27c-7.94,8.86-27.18,4.28-30.23,1.84Z"/><path class="cls-2" d="M285.89,226.55c.91-5.8,1.22-12.83,6.11-14.35a10,10,0,0,1,8.55,1.22,28.69,28.69,0,0,1,8.55-.31c4,.61,4.89,10.69,4.89,14C312.15,228.08,290.77,230.83,285.89,226.55Z"/><g id="_Group_" data-name="&lt;Group&gt;"><rect class="cls-3" x="337.8" y="270.03" width="2.67" height="2.66"/><rect class="cls-3" x="337.8" y="267.37" width="2.67" height="2.66"/><rect class="cls-3" x="337.8" y="264.71" width="2.67" height="2.66"/><rect class="cls-3" x="335.14" y="272.7" width="2.66" height="2.66"/><rect class="cls-4" x="335.14" y="270.03" width="2.66" height="2.66"/><rect class="cls-4" x="335.14" y="267.37" width="2.66" height="2.66"/><rect class="cls-4" x="335.14" y="264.71" width="2.66" height="2.66"/><rect class="cls-3" x="335.14" y="262.04" width="2.66" height="2.66"/><rect class="cls-3" x="332.48" y="275.36" width="2.66" height="2.66"/><rect class="cls-4" x="332.48" y="272.7" width="2.66" height="2.66"/><rect class="cls-5" x="332.48" y="270.03" width="2.66" height="2.66"/><rect class="cls-5" x="332.48" y="267.37" width="2.66" height="2.66"/><rect class="cls-5" x="332.48" y="264.71" width="2.66" height="2.66"/><rect class="cls-4" x="332.48" y="262.04" width="2.66" height="2.66"/><rect class="cls-3" x="332.48" y="259.38" width="2.66" height="2.66"/><rect class="cls-3" x="329.81" y="278.03" width="2.66" height="2.66"/><rect class="cls-4" x="329.81" y="275.36" width="2.66" height="2.66"/><rect class="cls-5" x="329.81" y="272.7" width="2.66" height="2.66"/><rect class="cls-5" x="329.81" y="270.03" width="2.66" height="2.66"/><rect class="cls-5" x="329.81" y="267.37" width="2.66" height="2.66"/><rect class="cls-5" x="329.81" y="264.71" width="2.66" height="2.66"/><rect class="cls-5" x="329.81" y="262.04" width="2.66" height="2.66"/><rect class="cls-4" x="329.81" y="259.38" width="2.66" height="2.66"/><rect class="cls-3" x="329.81" y="256.71" width="2.66" height="2.67"/><rect class="cls-3" x="327.15" y="278.03" width="2.66" height="2.66"/><rect class="cls-4" x="327.15" y="275.36" width="2.66" height="2.66"/><rect class="cls-5" x="327.15" y="272.7" width="2.66" height="2.66"/><rect class="cls-3" x="327.15" y="270.03" width="2.66" height="2.66"/><rect class="cls-3" x="327.15" y="267.37" width="2.66" height="2.66"/><rect class="cls-3" x="327.15" y="264.71" width="2.66" height="2.66"/><rect class="cls-5" x="327.15" y="262.04" width="2.66" height="2.66"/><rect class="cls-4" x="327.15" y="259.38" width="2.66" height="2.66"/><rect class="cls-3" x="327.15" y="256.71" width="2.66" height="2.67"/><rect class="cls-3" x="324.48" y="278.03" width="2.66" height="2.66"/><rect class="cls-4" x="324.48" y="275.36" width="2.66" height="2.66"/><rect class="cls-3" x="324.48" y="272.7" width="2.66" height="2.66"/><rect class="cls-3" x="324.48" y="270.03" width="2.66" height="2.66"/><rect class="cls-3" x="324.48" y="267.37" width="2.66" height="2.66"/><rect class="cls-3" x="324.48" y="264.71" width="2.66" height="2.66"/><rect class="cls-3" x="324.48" y="262.04" width="2.66" height="2.66"/><rect class="cls-4" x="324.48" y="259.38" width="2.66" height="2.66"/><rect class="cls-3" x="324.48" y="256.71" width="2.66" height="2.67"/><rect class="cls-3" x="321.82" y="275.36" width="2.66" height="2.66"/><rect class="cls-4" x="321.82" y="272.7" width="2.66" height="2.66"/><rect class="cls-3" x="321.82" y="270.03" width="2.66" height="2.66"/><rect class="cls-3" x="321.82" y="267.37" width="2.66" height="2.66"/><rect class="cls-3" x="321.82" y="264.71" width="2.66" height="2.66"/><rect class="cls-4" x="321.82" y="262.04" width="2.66" height="2.66"/><rect class="cls-3" x="321.82" y="259.38" width="2.66" height="2.66"/><rect class="cls-3" x="319.15" y="272.7" width="2.66" height="2.66"/><rect class="cls-4" x="319.15" y="270.03" width="2.66" height="2.66"/><rect class="cls-4" x="319.15" y="267.37" width="2.66" height="2.66"/><rect class="cls-4" x="319.15" y="264.71" width="2.66" height="2.66"/><rect class="cls-3" x="319.15" y="262.04" width="2.66" height="2.66"/><rect class="cls-3" x="316.49" y="270.03" width="2.66" height="2.66"/><rect class="cls-3" x="316.49" y="267.37" width="2.66" height="2.66"/><rect class="cls-3" x="316.49" y="264.71" width="2.66" height="2.66"/></g><path class="cls-2" d="M408.19,238h-.08a.49.49,0,0,1-.41-.57l2.41-14.48,21.17-6.39a.5.5,0,0,1,.62.33.51.51,0,0,1-.33.63L411,223.68l-2.32,13.86A.49.49,0,0,1,408.19,238Z"/><circle class="cls-2" cx="431.42" cy="216.99" r="2.76"/><circle class="cls-2" cx="322.98" cy="361.41" r="2.76"/><circle class="cls-2" cx="472.4" cy="299.44" r="2.76"/><circle class="cls-2" cx="453.41" cy="300.44" r="2.76"/><circle class="cls-2" cx="410.55" cy="223.29" r="2.76"/><circle class="cls-2" cx="408.19" cy="237.46" r="2.76"/><path class="cls-2" d="M147.32,365.09a.5.5,0,0,1-.48-.37L141.29,344l-13.79-2.75a.5.5,0,0,1-.39-.59.51.51,0,0,1,.59-.39l14.4,2.87,5.71,21.36a.5.5,0,0,1-.36.61A.27.27,0,0,1,147.32,365.09Z"/><circle class="cls-2" cx="147.32" cy="364.59" r="2.76"/><circle class="cls-2" cx="141.69" cy="343.53" r="2.76"/><circle class="cls-2" cx="127.6" cy="340.72" r="2.76"/><path class="cls-2" d="M180.31,225.67a.47.47,0,0,1-.3-.1.5.5,0,0,1-.11-.69L190,210.79l-17.95.94a.49.49,0,0,1-.52-.47.48.48,0,0,1,.47-.52l20-1.06-11.36,15.78A.49.49,0,0,1,180.31,225.67Z"/><path class="cls-2" d="M316,390.63a.49.49,0,0,1-.47-.36l-3.32-11.35-12.93,8.14a.5.5,0,1,1-.53-.85l14-8.84L316.46,390a.48.48,0,0,1-.33.61A.39.39,0,0,1,316,390.63Z"/><path class="cls-2" d="M312.83,378.63l-.89-.45L312,378a.57.57,0,0,1,.19-.24l10.35-16.34a.5.5,0,1,1,.84.54Z"/><path class="cls-2" d="M453.41,301.18a.49.49,0,0,1-.5-.47.5.5,0,0,1,.47-.52l19-1a.5.5,0,1,1,.06,1l-19,1Z"/><circle class="cls-2" cx="180.31" cy="225.17" r="2.76"/><circle class="cls-2" cx="191.17" cy="210.11" r="2.76"/><circle class="cls-2" cx="172.08" cy="211.79" r="2.76"/><circle class="cls-2" cx="315.99" cy="389.89" r="2.76"/><circle class="cls-2" cx="298.99" cy="386.89" r="2.76"/></svg>