<?xml version="1.0" encoding="utf-8"?>
<!-- Generator: Adobe Illustrator 22.0.1, SVG Export Plug-In . SVG Version: 6.00 Build 0)  -->
<svg version="1.1" id="Layer_1" xmlns="http://www.w3.org/2000/svg" xmlns:xlink="http://www.w3.org/1999/xlink" x="0px" y="0px"
	 viewBox="0 0 1000 600" style="enable-background:new 0 0 1000 600;" xml:space="preserve">
<style type="text/css">
	.st0{fill:url(#SVGID_1_);}
	.st1{fill:url(#SVGID_2_);}
	.st2{fill:#FFFFFF;}
	.st3{fill:#C6DDD9;}
	.st4{fill:#75CABF;}
	.st5{fill:#1CAE97;}
	.st6{opacity:0.14;}
</style>
<linearGradient id="SVGID_1_" gradientUnits="userSpaceOnUse" x1="111.1496" y1="665.3959" x2="904.9167" y2="-80.4931">
	<stop  offset="0" style="stop-color:#00293C"/>
	<stop  offset="1" style="stop-color:#033F3F"/>
</linearGradient>
<rect class="st0" width="1000" height="600"/>
<g>
	<g>
		<g>
			<path class="st2" d="M366.4,261.4v5.5h9.7v3.9h-9.7v7.6h-4.9v-21h15.9v3.9H366.4z"/>
		</g>
		<g>
			<path class="st2" d="M429.9,274.6v3.9h-16.3v-21h15.9v3.9h-11v4.6h9.7v3.8h-9.7v4.9H429.9z"/>
		</g>
		<g>
			<path class="st2" d="M466.8,257.5h9.5c2.3,0,4.3,0.4,6,1.3c1.7,0.9,3.1,2.1,4.1,3.7c1,1.6,1.5,3.4,1.5,5.5s-0.5,3.9-1.5,5.5
				c-1,1.6-2.3,2.8-4.1,3.7c-1.7,0.9-3.8,1.3-6,1.3h-9.5V257.5z M476,274.5c2.1,0,3.8-0.6,5-1.8c1.2-1.2,1.9-2.8,1.9-4.8
				c0-2-0.6-3.6-1.9-4.8c-1.2-1.2-2.9-1.8-5-1.8h-4.4v13H476z"/>
		</g>
		<g>
			<path class="st2" d="M579.3,278.5l-4-5.8h-0.2h-4.2v5.8H566v-21h9.1c1.9,0,3.5,0.3,4.8,0.9c1.4,0.6,2.4,1.5,3.2,2.6
				c0.7,1.1,1.1,2.5,1.1,4c0,1.6-0.4,2.9-1.1,4c-0.7,1.1-1.8,2-3.2,2.6l4.7,6.7H579.3z M578.1,262.4c-0.8-0.6-1.9-0.9-3.3-0.9h-4
				v7.3h4c1.5,0,2.6-0.3,3.3-1c0.8-0.6,1.1-1.5,1.1-2.7C579.2,263.9,578.9,263,578.1,262.4z"/>
		</g>
		<g>
			<path class="st2" d="M634.8,274h-9.7l-1.9,4.5h-5l9.4-21h4.8l9.4,21h-5.1L634.8,274z M633.3,270.3l-3.3-8l-3.3,8H633.3z"/>
		</g>
	</g>
	<g>
		<g>
			<path class="st2" d="M372.8,306.3v12.5h21.9v8.8h-21.9v17.2h-10.9v-47.2h35.7v8.8H372.8z"/>
		</g>
		<g>
			<path class="st2" d="M425.2,297.5h10.9v47.2h-10.9V297.5z"/>
		</g>
		<g>
			<path class="st2" d="M504.2,336v8.8h-36.6v-47.2h35.7v8.8h-24.8v10.3h21.9v8.5h-21.9V336H504.2z"/>
		</g>
		<g>
			<path class="st2" d="M533.1,297.5H544v38.3h23.7v8.9h-34.6V297.5z"/>
		</g>
		<g>
			<path class="st2" d="M594.1,297.5h21.5c5.1,0,9.7,1,13.6,2.9c3.9,2,7,4.7,9.2,8.3c2.2,3.6,3.3,7.7,3.3,12.4
				c0,4.7-1.1,8.9-3.3,12.4c-2.2,3.6-5.2,6.3-9.2,8.3c-3.9,2-8.5,2.9-13.6,2.9h-21.5V297.5z M615,335.8c4.7,0,8.5-1.3,11.3-3.9
				c2.8-2.6,4.2-6.2,4.2-10.7c0-4.5-1.4-8.1-4.2-10.7c-2.8-2.6-6.6-3.9-11.3-3.9h-10v29.3H615z"/>
		</g>
	</g>
	<g>
		<g>
			<g>
				<path class="st2" d="M485.3,230.8c-2.4,0.3-4.9,0.3-6.7,2.4c-1.8,2.1-0.3,7.9,1.5,8.9s3.4,1.8,17.4,1.8c14,0,24.1-7,25.7-12.2
					c1.5-5.2-1.5-5.2-8.6-4.3l0.3,4.3c-7.9,8.9-27.2,4.3-30.2,1.8L485.3,230.8z"/>
			</g>
		</g>
		<g>
			<g>
				<path class="st2" d="M485.9,226.6c0.9-5.8,1.2-12.8,6.1-14.4c4.9-1.5,8.6,1.2,8.6,1.2s4.6-0.9,8.6-0.3s4.9,10.7,4.9,14
					C512.2,228.1,490.8,230.8,485.9,226.6z"/>
			</g>
		</g>
	</g>
	<g>
		<g id="XMLID_4_">
			<g>
				<rect x="537.8" y="270" class="st3" width="2.7" height="2.7"/>
				<rect x="537.8" y="267.4" class="st3" width="2.7" height="2.7"/>
				<rect x="537.8" y="264.7" class="st3" width="2.7" height="2.7"/>
				<rect x="535.1" y="272.7" class="st3" width="2.7" height="2.7"/>
				<rect x="535.1" y="270" class="st4" width="2.7" height="2.7"/>
				<rect x="535.1" y="267.4" class="st4" width="2.7" height="2.7"/>
				<rect x="535.1" y="264.7" class="st4" width="2.7" height="2.7"/>
				<rect x="535.1" y="262" class="st3" width="2.7" height="2.7"/>
				<rect x="532.5" y="275.4" class="st3" width="2.7" height="2.7"/>
				<rect x="532.5" y="272.7" class="st4" width="2.7" height="2.7"/>
				<rect x="532.5" y="270" class="st5" width="2.7" height="2.7"/>
				<rect x="532.5" y="267.4" class="st5" width="2.7" height="2.7"/>
				<rect x="532.5" y="264.7" class="st5" width="2.7" height="2.7"/>
				<rect x="532.5" y="262" class="st4" width="2.7" height="2.7"/>
				<rect x="532.5" y="259.4" class="st3" width="2.7" height="2.7"/>
				<rect x="529.8" y="278" class="st3" width="2.7" height="2.7"/>
				<rect x="529.8" y="275.4" class="st4" width="2.7" height="2.7"/>
				<rect x="529.8" y="272.7" class="st5" width="2.7" height="2.7"/>
				<rect x="529.8" y="270" class="st5" width="2.7" height="2.7"/>
				<rect x="529.8" y="267.4" class="st5" width="2.7" height="2.7"/>
				<rect x="529.8" y="264.7" class="st5" width="2.7" height="2.7"/>
				<rect x="529.8" y="262" class="st5" width="2.7" height="2.7"/>
				<rect x="529.8" y="259.4" class="st4" width="2.7" height="2.7"/>
				<rect x="529.8" y="256.7" class="st3" width="2.7" height="2.7"/>
				<rect x="527.1" y="278" class="st3" width="2.7" height="2.7"/>
				<rect x="527.1" y="275.4" class="st4" width="2.7" height="2.7"/>
				<rect x="527.1" y="272.7" class="st5" width="2.7" height="2.7"/>
				<rect x="527.1" y="270" class="st3" width="2.7" height="2.7"/>
				<rect x="527.1" y="267.4" class="st3" width="2.7" height="2.7"/>
				<rect x="527.1" y="264.7" class="st3" width="2.7" height="2.7"/>
				<rect x="527.1" y="262" class="st5" width="2.7" height="2.7"/>
				<rect x="527.1" y="259.4" class="st4" width="2.7" height="2.7"/>
				<rect x="527.1" y="256.7" class="st3" width="2.7" height="2.7"/>
				<rect x="524.5" y="278" class="st3" width="2.7" height="2.7"/>
				<rect x="524.5" y="275.4" class="st4" width="2.7" height="2.7"/>
				<rect x="524.5" y="272.7" class="st3" width="2.7" height="2.7"/>
				<rect x="524.5" y="270" class="st3" width="2.7" height="2.7"/>
				<rect x="524.5" y="267.4" class="st3" width="2.7" height="2.7"/>
				<rect x="524.5" y="264.7" class="st3" width="2.7" height="2.7"/>
				<rect x="524.5" y="262" class="st3" width="2.7" height="2.7"/>
				<rect x="524.5" y="259.4" class="st4" width="2.7" height="2.7"/>
				<rect x="524.5" y="256.7" class="st3" width="2.7" height="2.7"/>
				<rect x="521.8" y="275.4" class="st3" width="2.7" height="2.7"/>
				<rect x="521.8" y="272.7" class="st4" width="2.7" height="2.7"/>
				<rect x="521.8" y="270" class="st3" width="2.7" height="2.7"/>
				<rect x="521.8" y="267.4" class="st3" width="2.7" height="2.7"/>
				<rect x="521.8" y="264.7" class="st3" width="2.7" height="2.7"/>
				<rect x="521.8" y="262" class="st4" width="2.7" height="2.7"/>
				<rect x="521.8" y="259.4" class="st3" width="2.7" height="2.7"/>
				<rect x="519.2" y="272.7" class="st3" width="2.7" height="2.7"/>
				<rect x="519.2" y="270" class="st4" width="2.7" height="2.7"/>
				<rect x="519.2" y="267.4" class="st4" width="2.7" height="2.7"/>
				<rect x="519.2" y="264.7" class="st4" width="2.7" height="2.7"/>
				<rect x="519.2" y="262" class="st3" width="2.7" height="2.7"/>
				<rect x="516.5" y="270" class="st3" width="2.7" height="2.7"/>
				<rect x="516.5" y="267.4" class="st3" width="2.7" height="2.7"/>
				<rect x="516.5" y="264.7" class="st3" width="2.7" height="2.7"/>
			</g>
		</g>
	</g>
	<g>
		<g>
			<path class="st2" d="M608.2,238C608.2,238,608.1,238,608.2,238c-0.4-0.1-0.5-0.3-0.5-0.6l2.4-14.5l21.2-6.4
				c0.3-0.1,0.5,0.1,0.6,0.3c0.1,0.3-0.1,0.5-0.3,0.6l-20.6,6.2l-2.3,13.9C608.6,237.8,608.4,238,608.2,238z"/>
		</g>
	</g>
	<g>
		<g>
			<circle class="st2" cx="631.4" cy="217" r="2.8"/>
		</g>
	</g>
	<g>
		<g>
			<circle class="st2" cx="523" cy="361.4" r="2.8"/>
		</g>
	</g>
	<g>
		<g>
			<circle class="st2" cx="672.4" cy="299.4" r="2.8"/>
		</g>
	</g>
	<g>
		<g>
			<circle class="st2" cx="653.4" cy="300.4" r="2.8"/>
		</g>
	</g>
	<g>
		<g>
			<circle class="st2" cx="610.6" cy="223.3" r="2.8"/>
		</g>
	</g>
	<g>
		<g>
			<circle class="st2" cx="608.2" cy="237.5" r="2.8"/>
		</g>
	</g>
	<g>
		<g>
			<path class="st2" d="M347.3,365.1c-0.2,0-0.4-0.1-0.5-0.4l-5.6-20.8l-13.8-2.8c-0.3-0.1-0.4-0.3-0.4-0.6c0.1-0.3,0.3-0.4,0.6-0.4
				l14.4,2.9l5.7,21.4c0.1,0.3-0.1,0.5-0.4,0.6C347.4,365.1,347.4,365.1,347.3,365.1z"/>
		</g>
	</g>
	<g>
		<g>
			<circle class="st2" cx="347.3" cy="364.6" r="2.8"/>
		</g>
	</g>
	<g>
		<g>
			<circle class="st2" cx="341.7" cy="343.5" r="2.8"/>
		</g>
	</g>
	<g>
		<g>
			<circle class="st2" cx="327.6" cy="340.7" r="2.8"/>
		</g>
	</g>
	<g>
		<g>
			<path class="st2" d="M380.3,225.7c-0.1,0-0.2,0-0.3-0.1c-0.2-0.2-0.3-0.5-0.1-0.7l10.1-14.1l-17.9,0.9c-0.3,0-0.5-0.2-0.5-0.5
				c0-0.3,0.2-0.5,0.5-0.5l20-1.1l-11.4,15.8C380.6,225.6,380.5,225.7,380.3,225.7z"/>
		</g>
	</g>
	<g>
		<g>
			<path class="st2" d="M516,390.6c-0.2,0-0.4-0.1-0.5-0.4l-3.3-11.4l-12.9,8.1c-0.2,0.1-0.5,0.1-0.7-0.2c-0.1-0.2-0.1-0.5,0.2-0.7
				l14.1-8.8l3.7,12.6c0.1,0.3-0.1,0.5-0.3,0.6C516.1,390.6,516,390.6,516,390.6z"/>
		</g>
	</g>
	<g>
		<g>
			<path class="st2" d="M512.8,378.6l-0.9-0.4l0.1-0.2c0-0.1,0.1-0.2,0.2-0.2l10.3-16.3c0.1-0.2,0.5-0.3,0.7-0.2
				c0.2,0.1,0.3,0.5,0.2,0.7L512.8,378.6z"/>
		</g>
	</g>
	<g>
		<g>
			<path class="st2" d="M653.4,301.2c-0.3,0-0.5-0.2-0.5-0.5c0-0.3,0.2-0.5,0.5-0.5l19-1c0.3,0,0.5,0.2,0.5,0.5
				c0,0.3-0.2,0.5-0.5,0.5L653.4,301.2C653.4,301.2,653.4,301.2,653.4,301.2z"/>
		</g>
	</g>
	<g>
		<g>
			<circle class="st2" cx="380.3" cy="225.2" r="2.8"/>
		</g>
	</g>
	<g>
		<g>
			<circle class="st2" cx="391.2" cy="210.1" r="2.8"/>
		</g>
	</g>
	<g>
		<g>
			<circle class="st2" cx="372.1" cy="211.8" r="2.8"/>
		</g>
	</g>
	<g>
		<g>
			<circle class="st2" cx="516" cy="389.9" r="2.8"/>
		</g>
	</g>
	<g>
		<g>
			<circle class="st2" cx="499" cy="386.9" r="2.8"/>
		</g>
	</g>
</g>
</svg>
