<?xml version="1.0" encoding="utf-8"?>
<!-- Generator: Adobe Illustrator 22.0.1, SVG Export Plug-In . SVG Version: 6.00 Build 0)  -->
<svg version="1.1" xmlns="http://www.w3.org/2000/svg" xmlns:xlink="http://www.w3.org/1999/xlink" x="0px" y="0px"
	 viewBox="0 0 2592 1728" style="enable-background:new 0 0 2592 1728;" xml:space="preserve">
<style type="text/css">
	.st0{opacity:0.61;fill:none;stroke:#000000;stroke-width:0.7514;stroke-miterlimit:10;}
	.st1{opacity:0.61;}
	.st2{clip-path:url(#SVGID_2_);}
	.st3{fill:none;stroke:#000000;stroke-width:0.7514;stroke-miterlimit:10;}
	.st4{clip-path:url(#SVGID_4_);}
	.st5{fill:#F5F5F5;}
	.st6{opacity:0.61;fill:none;stroke:#000000;stroke-width:0.4897;stroke-miterlimit:10;}
	.st7{fill:#F5F5F5;stroke:#000000;stroke-width:0.4897;stroke-miterlimit:10;}
	.st8{clip-path:url(#SVGID_6_);}
	.st9{fill:none;stroke:#000000;stroke-width:0.4897;stroke-miterlimit:10;}
	.st10{clip-path:url(#SVGID_8_);}
</style>
<g id="Layer_2">
	<path class="st5" d="M-0.5-0.5v1729h2592.7V-0.5H-0.5z M1548.3,784.8l-147.5,127.8l-38.5,66.5l-99.8,201.5l-271.2,44.2l-5-99
		L1212,794.5L1509,513L1548.3,784.8z"/>
</g>
<g id="Layer_3">
	<polygon class="st6" points="1604.3,445.8 1548.3,785.2 1315.8,1018.3 986.7,1124.5 1311.6,785.2 	"/>
	<polyline class="st7" points="987.8,1123.3 986.7,1124.5 1124.1,674.9 1604.3,445.8 1443.7,631.8 1311.5,785.2 	"/>
	<polyline class="st6" points="986.4,1125 912,1272.1 1295.5,1189 1458.4,829.3 1443.7,632 	"/>
	<polygon class="st6" points="1124.1,674.9 1311.6,785.2 986.7,1124.5 	"/>
	<g class="st1">
		<defs>
			<polygon id="SVGID_5_" class="st1" points="1124.1,674.9 1311.6,785.2 986.7,1124.5 			"/>
		</defs>
		<use xlink:href="#SVGID_5_"  style="overflow:visible;fill:#F5F5F5;"/>
		<clipPath id="SVGID_2_">
			<use xlink:href="#SVGID_5_"  style="overflow:visible;"/>
		</clipPath>
		<g class="st2">
			<line class="st7" x1="1169.2" y1="578.6" x2="804.1" y2="1194.6"/>
			<line class="st7" x1="1191.3" y1="591.7" x2="826.2" y2="1207.7"/>
			<line class="st7" x1="1235.4" y1="617.9" x2="870.4" y2="1233.8"/>
			<line class="st7" x1="1257.5" y1="631" x2="892.4" y2="1246.9"/>
			<line class="st7" x1="1301.7" y1="657.1" x2="936.6" y2="1273.1"/>
			<line class="st7" x1="1345.8" y1="683.3" x2="980.7" y2="1299.3"/>
			<line class="st7" x1="1367.9" y1="696.4" x2="1002.8" y2="1312.3"/>
			<line class="st7" x1="1390" y1="709.5" x2="1024.9" y2="1325.4"/>
			<line class="st7" x1="1323.7" y1="670.2" x2="958.7" y2="1286.2"/>
			<line class="st7" x1="1279.6" y1="644" x2="914.5" y2="1260"/>
			<line class="st7" x1="1213.4" y1="604.8" x2="848.3" y2="1220.8"/>
		</g>
		<use xlink:href="#SVGID_5_"  style="overflow:visible;fill:none;stroke:#000000;stroke-width:0.4897;stroke-miterlimit:10;"/>
	</g>
	<polygon class="st7" points="1295.5,1189 986.7,1124.5 912,1272.1 	"/>
	<polygon class="st9" points="1458.4,829.3 986.7,1124.5 1311.6,785.2 	"/>
	<polygon class="st7" points="1548.3,785.2 1443.7,632 1604.3,445.8 	"/>
	<polygon class="st7" points="1458.4,829.3 1548.3,785.2 1421,912.2 	"/>
	<polygon class="st7" points="1295.5,1189 1277.7,1056.6 1420.7,912.4 	"/>
	<polygon class="st6" points="986.7,1124.5 1277.7,1056.6 1295.5,1189 	"/>
	<g>
		<defs>
			<polygon id="SVGID_7_" points="986.7,1124.5 1277.7,1056.6 1295.5,1189 			"/>
		</defs>
		<use xlink:href="#SVGID_7_"  style="overflow:visible;fill:#F5F5F5;"/>
		<clipPath id="SVGID_4_">
			<use xlink:href="#SVGID_7_"  style="overflow:visible;"/>
		</clipPath>
		<g class="st4">
			<circle class="st7" cx="1035.2" cy="1037" r="6.7"/>
			<circle class="st7" cx="1072.7" cy="1037" r="6.7"/>
			<circle class="st7" cx="1110.2" cy="1037" r="6.7"/>
			<circle class="st7" cx="1147.7" cy="1037" r="6.7"/>
			<circle class="st7" cx="1185.3" cy="1037" r="6.7"/>
			<circle class="st7" cx="1222.8" cy="1037" r="6.7"/>
			<circle class="st7" cx="1260.3" cy="1037" r="6.7"/>
			<circle class="st7" cx="1297.8" cy="1037" r="6.7"/>
			<circle class="st7" cx="1335.3" cy="1037" r="6.7"/>
			<circle class="st7" cx="1372.9" cy="1037" r="6.7"/>
			<circle class="st7" cx="997.6" cy="1037" r="6.7"/>
			<circle class="st7" cx="960.1" cy="1037" r="6.7"/>
			<circle class="st7" cx="1035.2" cy="1069.6" r="6.7"/>
			<circle class="st7" cx="1072.7" cy="1069.6" r="6.7"/>
			<circle class="st7" cx="1110.2" cy="1069.6" r="6.7"/>
			<circle class="st7" cx="1147.7" cy="1069.6" r="6.7"/>
			<circle class="st7" cx="1185.3" cy="1069.6" r="6.7"/>
			<circle class="st7" cx="1222.8" cy="1069.6" r="6.7"/>
			<circle class="st7" cx="1260.3" cy="1069.6" r="6.7"/>
			<circle class="st7" cx="1297.8" cy="1069.6" r="6.7"/>
			<circle class="st7" cx="1335.3" cy="1069.6" r="6.7"/>
			<circle class="st7" cx="1372.9" cy="1069.6" r="6.7"/>
			<circle class="st7" cx="997.6" cy="1069.6" r="6.7"/>
			<circle class="st7" cx="960.1" cy="1069.6" r="6.7"/>
			<circle class="st7" cx="1035.2" cy="1102.3" r="6.7"/>
			<circle class="st7" cx="1072.7" cy="1102.3" r="6.7"/>
			<circle class="st7" cx="1110.2" cy="1102.3" r="6.7"/>
			<circle class="st7" cx="1147.7" cy="1102.3" r="6.7"/>
			<circle class="st7" cx="1185.3" cy="1102.3" r="6.7"/>
			<circle class="st7" cx="1222.8" cy="1102.3" r="6.7"/>
			<circle class="st7" cx="1260.3" cy="1102.3" r="6.7"/>
			<circle class="st7" cx="1297.8" cy="1102.3" r="6.7"/>
			<circle class="st7" cx="1335.3" cy="1102.3" r="6.7"/>
			<circle class="st7" cx="1372.9" cy="1102.3" r="6.7"/>
			<circle class="st7" cx="997.6" cy="1102.3" r="6.7"/>
			<circle class="st7" cx="960.1" cy="1102.3" r="6.7"/>
			<circle class="st7" cx="1035.2" cy="1134.9" r="6.7"/>
			<circle class="st7" cx="1072.7" cy="1134.9" r="6.7"/>
			<circle class="st7" cx="1110.2" cy="1134.9" r="6.7"/>
			<circle class="st7" cx="1147.7" cy="1134.9" r="6.7"/>
			<circle class="st7" cx="1185.3" cy="1134.9" r="6.7"/>
			<circle class="st7" cx="1222.8" cy="1134.9" r="6.7"/>
			<circle class="st7" cx="1260.3" cy="1134.9" r="6.7"/>
			<circle class="st7" cx="1297.8" cy="1134.9" r="6.7"/>
			<circle class="st7" cx="1335.3" cy="1134.9" r="6.7"/>
			<circle class="st7" cx="1372.9" cy="1134.9" r="6.7"/>
			<circle class="st7" cx="997.6" cy="1134.9" r="6.7"/>
			<circle class="st7" cx="960.1" cy="1134.9" r="6.7"/>
			<circle class="st7" cx="1035.2" cy="1167.6" r="6.7"/>
			<circle class="st7" cx="1072.7" cy="1167.6" r="6.7"/>
			<circle class="st7" cx="1110.2" cy="1167.6" r="6.7"/>
			<circle class="st7" cx="1147.7" cy="1167.6" r="6.7"/>
			<circle class="st7" cx="1185.3" cy="1167.6" r="6.7"/>
			<circle class="st7" cx="1222.8" cy="1167.6" r="6.7"/>
			<circle class="st7" cx="1260.3" cy="1167.6" r="6.7"/>
			<circle class="st7" cx="1297.8" cy="1167.6" r="6.7"/>
			<circle class="st7" cx="1335.3" cy="1167.6" r="6.7"/>
			<circle class="st7" cx="1372.9" cy="1167.6" r="6.7"/>
			<circle class="st7" cx="997.6" cy="1167.6" r="6.7"/>
			<circle class="st7" cx="960.1" cy="1167.6" r="6.7"/>
			<circle class="st7" cx="1035.2" cy="1200.2" r="6.7"/>
			<circle class="st7" cx="1072.7" cy="1200.2" r="6.7"/>
			<circle class="st7" cx="1110.2" cy="1200.2" r="6.7"/>
			<circle class="st7" cx="1147.7" cy="1200.2" r="6.7"/>
			<circle class="st7" cx="1185.3" cy="1200.2" r="6.7"/>
			<circle class="st7" cx="1222.8" cy="1200.2" r="6.7"/>
			<circle class="st7" cx="1260.3" cy="1200.2" r="6.7"/>
			<circle class="st7" cx="1297.8" cy="1200.2" r="6.7"/>
			<circle class="st7" cx="1335.3" cy="1200.2" r="6.7"/>
			<circle class="st7" cx="1372.9" cy="1200.2" r="6.7"/>
			<circle class="st7" cx="997.6" cy="1200.2" r="6.7"/>
			<circle class="st7" cx="960.1" cy="1200.2" r="6.7"/>
			<circle class="st7" cx="1035.2" cy="1232.8" r="6.7"/>
			<circle class="st7" cx="1072.7" cy="1232.8" r="6.7"/>
			<circle class="st7" cx="1110.2" cy="1232.8" r="6.7"/>
			<circle class="st7" cx="1147.7" cy="1232.8" r="6.7"/>
			<circle class="st7" cx="1185.3" cy="1232.8" r="6.7"/>
			<circle class="st7" cx="1222.8" cy="1232.8" r="6.7"/>
			<circle class="st7" cx="1260.3" cy="1232.8" r="6.7"/>
			<circle class="st7" cx="1297.8" cy="1232.8" r="6.7"/>
			<circle class="st7" cx="1335.3" cy="1232.8" r="6.7"/>
			<circle class="st7" cx="1372.9" cy="1232.8" r="6.7"/>
			<circle class="st7" cx="997.6" cy="1232.8" r="6.7"/>
			<circle class="st7" cx="960.1" cy="1232.8" r="6.7"/>
		</g>
		<use xlink:href="#SVGID_7_"  style="overflow:visible;fill:none;stroke:#000000;stroke-width:0.4897;stroke-miterlimit:10;"/>
	</g>
	<polygon class="st7" points="986.9,1124.2 1315.6,1018.3 1277.6,1056.5 	"/>
	<polygon class="st7" points="1443.5,632.2 1311.6,785.1 1458.1,829.3 	"/>
	<polygon class="st7" points="1458.1,829.5 988.1,1123.8 1315.6,1018.5 1420.7,912.8 	"/>
</g>
</svg>
