<svg width="1600" height="768" viewBox="0 0 1600 768" fill="none" xmlns="http://www.w3.org/2000/svg">
<g clip-path="url(#clip0_120_2)">
<rect width="768" height="1600" transform="translate(1600) rotate(90)" fill="white"/>
<rect width="1600" height="768" fill="#DEC800"/>
<circle opacity="0.2" cx="673" cy="1074" r="966" fill="#FDE400" fill-opacity="0.5"/>
<circle opacity="0.2" cx="1149" cy="-250" r="966" fill="#FDE400" fill-opacity="0.5"/>
<circle opacity="0.2" cx="223" cy="-76" r="966" fill="#C2AF00" fill-opacity="0.5"/>
<path d="M695.566 409.2V461H683.596V409.2H695.566ZM710.26 417.88C708.16 417.88 706.434 417.273 705.08 416.06C703.774 414.8 703.12 413.26 703.12 411.44C703.12 409.573 703.774 408.033 705.08 406.82C706.434 405.56 708.16 404.93 710.26 404.93C712.314 404.93 713.994 405.56 715.3 406.82C716.654 408.033 717.33 409.573 717.33 411.44C717.33 413.26 716.654 414.8 715.3 416.06C713.994 417.273 712.314 417.88 710.26 417.88ZM716.21 421.94V461H704.24V421.94H716.21ZM748.685 421.52C753.258 421.52 756.898 423.013 759.605 426C762.358 428.94 763.735 433 763.735 438.18V461H751.835V439.79C751.835 437.177 751.158 435.147 749.805 433.7C748.452 432.253 746.632 431.53 744.345 431.53C742.058 431.53 740.238 432.253 738.885 433.7C737.532 435.147 736.855 437.177 736.855 439.79V461H724.885V421.94H736.855V427.12C738.068 425.393 739.702 424.04 741.755 423.06C743.808 422.033 746.118 421.52 748.685 421.52ZM795.923 461L784.023 444.62V461H772.053V409.2H784.023V437.83L795.853 421.94H810.623L794.383 441.54L810.763 461H795.923ZM827.294 409.2V461H815.324V409.2H827.294ZM841.989 417.88C839.889 417.88 838.162 417.273 836.809 416.06C835.502 414.8 834.849 413.26 834.849 411.44C834.849 409.573 835.502 408.033 836.809 406.82C838.162 405.56 839.889 404.93 841.989 404.93C844.042 404.93 845.722 405.56 847.029 406.82C848.382 408.033 849.059 409.573 849.059 411.44C849.059 413.26 848.382 414.8 847.029 416.06C845.722 417.273 844.042 417.88 841.989 417.88ZM847.939 421.94V461H835.969V421.94H847.939ZM872.503 461.56C869.097 461.56 866.063 460.977 863.403 459.81C860.743 458.643 858.643 457.057 857.103 455.05C855.563 452.997 854.7 450.71 854.513 448.19H866.343C866.483 449.543 867.113 450.64 868.233 451.48C869.353 452.32 870.73 452.74 872.363 452.74C873.857 452.74 875 452.46 875.793 451.9C876.633 451.293 877.053 450.523 877.053 449.59C877.053 448.47 876.47 447.653 875.303 447.14C874.137 446.58 872.247 445.973 869.633 445.32C866.833 444.667 864.5 443.99 862.633 443.29C860.767 442.543 859.157 441.4 857.803 439.86C856.45 438.273 855.773 436.15 855.773 433.49C855.773 431.25 856.38 429.22 857.593 427.4C858.853 425.533 860.673 424.063 863.053 422.99C865.48 421.917 868.35 421.38 871.663 421.38C876.563 421.38 880.413 422.593 883.213 425.02C886.06 427.447 887.693 430.667 888.113 434.68H877.053C876.867 433.327 876.26 432.253 875.233 431.46C874.253 430.667 872.947 430.27 871.313 430.27C869.913 430.27 868.84 430.55 868.093 431.11C867.347 431.623 866.973 432.347 866.973 433.28C866.973 434.4 867.557 435.24 868.723 435.8C869.937 436.36 871.803 436.92 874.323 437.48C877.217 438.227 879.573 438.973 881.393 439.72C883.213 440.42 884.8 441.587 886.153 443.22C887.553 444.807 888.277 446.953 888.323 449.66C888.323 451.947 887.67 454 886.363 455.82C885.103 457.593 883.26 458.993 880.833 460.02C878.453 461.047 875.677 461.56 872.503 461.56ZM917.417 450.85V461H911.327C906.987 461 903.603 459.95 901.177 457.85C898.75 455.703 897.537 452.227 897.537 447.42V431.88H892.777V421.94H897.537V412.42H909.507V421.94H917.347V431.88H909.507V447.56C909.507 448.727 909.787 449.567 910.347 450.08C910.907 450.593 911.84 450.85 913.147 450.85H917.417Z" fill="white"/>
<rect x="734" y="309" width="50" height="50" fill="white"/>
<rect width="16" height="16" transform="matrix(1 0 0 -1 831 342)" fill="white"/>
<rect x="819" y="314" width="40" height="40" stroke="white" stroke-width="10"/>
<line x1="784" y1="335" x2="814" y2="335" stroke="white" stroke-width="10"/>
</g>
<defs>
<clipPath id="clip0_120_2">
<rect width="768" height="1600" fill="white" transform="translate(1600) rotate(90)"/>
</clipPath>
</defs>
</svg>
