<?xml version="1.0" encoding="utf-8"?>
<!-- Generator: Adobe Illustrator 22.0.1, SVG Export Plug-In . SVG Version: 6.00 Build 0)  -->
<svg version="1.1" id="Layer_1" xmlns="http://www.w3.org/2000/svg" xmlns:xlink="http://www.w3.org/1999/xlink" x="0px" y="0px"
	 viewBox="0 0 600 600" style="enable-background:new 0 0 600 600;" xml:space="preserve">
<style type="text/css">
	.st0{fill:url(#SVGID_1_);}
	.st1{fill:#FFFFFF;}
	.st2{opacity:0.23;}
	.st3{fill:none;stroke:#FFFFFF;stroke-miterlimit:10;}
</style>
<g>
	<linearGradient id="SVGID_1_" gradientUnits="userSpaceOnUse" x1="10.612" y1="571.9329" x2="601.3448" y2="16.8315">
		<stop  offset="0" style="stop-color:#E46125"/>
		<stop  offset="1" style="stop-color:#E63525"/>
	</linearGradient>
	<rect class="st0" width="600" height="600"/>
</g>
<g>
	<path class="st1" d="M240,164l16,45.2l15.9-45.2h16.9v62.3h-12.9v-17l1.3-29.4l-16.8,46.4h-8.8l-16.8-46.4l1.3,29.4v17h-12.8V164
		H240z"/>
	<path class="st1" d="M371.8,213.5h-22.5l-4.3,12.8h-13.6l23.2-62.3h11.9l23.3,62.3h-13.6L371.8,213.5z M352.7,203.1h15.6l-7.8-23.3
		L352.7,203.1z"/>
	<path class="st1" d="M272.5,323.6c-2.3,2.8-5.6,4.9-9.8,6.4c-4.2,1.5-8.9,2.3-14,2.3c-5.4,0-10.1-1.2-14.2-3.5s-7.2-5.8-9.4-10.2
		c-2.2-4.5-3.3-9.7-3.4-15.8v-4.2c0-6.2,1-11.6,3.1-16.2c2.1-4.5,5.1-8,9.1-10.4c4-2.4,8.6-3.6,13.9-3.6c7.4,0,13.2,1.8,17.3,5.3
		c4.2,3.5,6.6,8.7,7.4,15.4H260c-0.6-3.6-1.8-6.2-3.8-7.8c-2-1.7-4.6-2.5-8.1-2.5c-4.4,0-7.7,1.6-10,4.9c-2.3,3.3-3.4,8.2-3.5,14.6
		v4c0,6.5,1.2,11.5,3.7,14.8c2.5,3.3,6.1,5,10.9,5c4.8,0,8.3-1,10.3-3.1v-10.7H248v-9.5h24.5V323.6z"/>
	<path class="st1" d="M383.5,331.5h-12.8l-25-41v41h-12.8v-62.3h12.8l25,41.1v-41.1h12.8V331.5z"/>
	<path class="st1" d="M260.7,409.6h-24.6v16.7H265v10.3h-41.8v-62.3h41.7v10.4h-28.8v14.8h24.6V409.6z"/>
	<path class="st1" d="M389.9,384.7h-19.1v51.9H358v-51.9h-18.8v-10.4h50.7V384.7z"/>
</g>
<g class="st2">
	<circle class="st3" cx="305.8" cy="480.5" r="119.3"/>
	<circle class="st3" cx="305.8" cy="480.5" r="119.3"/>
	<circle class="st3" cx="305.8" cy="469.5" r="132.7"/>
	<circle class="st3" cx="305.8" cy="451.3" r="151"/>
	<circle class="st3" cx="305.8" cy="430.6" r="171.6"/>
	<circle class="st3" cx="305.8" cy="398.9" r="199.6"/>
</g>
</svg>
