<svg width="1600" height="768" viewBox="0 0 1600 768" fill="none" xmlns="http://www.w3.org/2000/svg">
<g clip-path="url(#clip0_101_31)">
<rect width="768" height="1600" transform="translate(1600) rotate(90)" fill="white"/>
<rect width="1600" height="768" fill="black"/>
<path d="M623 369L615 366.4V391.6C615 398 619.2 403.8 625.2 405.8L643 411.8V403.8L628.4 399C625.2 398 623 394.8 623 391.4V369Z" fill="white"/>
<path d="M599 361L591 358.4V407.4C591 413.8 595.2 419.6 601.2 421.6L643 435.4V427.4L604.4 414.8C601.2 413.8 599 410.6 599 407.2V361Z" fill="white"/>
<path d="M598.4 340.8L591 346.4L649.6 366C652.8 367 655 370.2 655 373.6V440.4L663 434.4V373.2C663 366.8 658.8 361 652.8 359L598.4 340.8Z" fill="white"/>
<path d="M616.8 327L609.4 332.6L669.4 352.6C672.6 353.6 674.8 356.8 674.8 360.2V425.4L682.8 419.4V359.8C682.8 353.4 678.6 347.6 672.6 345.6L616.8 327Z" fill="white"/>
<path d="M737.972 393.598C737.972 403.51 746.372 411.406 758.72 411.406C769.304 411.406 778.544 405.442 779.048 395.026C779.552 388.222 776.192 380.914 763.256 377.386L756.116 375.286C749.9 373.606 749.228 370.498 749.228 368.65C749.228 364.534 753.092 361.846 757.88 361.846C763.256 361.846 766.532 364.87 766.532 369.406H777.284C777.284 358.57 768.968 351.934 758.048 351.934C747.38 351.934 738.56 358.738 738.56 368.902C738.56 374.026 740.576 381.334 753.176 385.03L760.316 386.878C765.944 388.39 768.548 390.91 768.296 394.774C768.044 398.722 764.516 401.746 758.72 401.746C752.504 401.746 748.892 397.798 748.724 393.598H737.972ZM799.902 371.254H789.654V429.55H799.902V405.274C802.002 409.222 807.042 411.322 812.166 411.322C822.414 411.322 831.318 403.342 831.318 390.826C831.318 378.478 822.414 370.414 812.166 370.414C807.042 370.414 802.002 372.682 799.902 376.546V371.254ZM800.07 390.994C800.07 384.442 804.858 380.242 810.486 380.242C816.114 380.242 820.818 384.526 820.818 390.994C820.818 397.378 816.114 401.578 810.486 401.578C805.11 401.578 800.07 397.798 800.07 390.994ZM871.93 410.482H882.178V371.254H871.93V376.126C869.074 371.758 863.278 370.414 859.75 370.414C849.418 370.414 839.758 378.226 839.758 390.826C839.758 403.342 849.418 411.238 859.75 411.238C863.614 411.238 869.41 409.474 871.93 405.442V410.482ZM850.342 390.826C850.342 384.442 855.55 380.242 861.178 380.242C866.554 380.242 871.93 384.022 871.93 390.826C871.93 397.546 866.722 401.41 861.178 401.41C855.55 401.41 850.342 397.126 850.342 390.826ZM908.911 356.302H898.747V371.254H891.607V379.486H898.747V410.482H908.911V379.486H917.227V371.254H908.911V356.302ZM936.765 371.254H926.601V410.482H936.765V371.254ZM925.089 356.05C925.089 359.578 928.113 362.266 931.725 362.266C935.253 362.266 938.193 359.578 938.193 356.05C938.193 352.606 935.253 349.918 931.725 349.918C928.113 349.918 925.089 352.606 925.089 356.05ZM979.755 410.482H990.003V371.254H979.755V376.126C976.899 371.758 971.103 370.414 967.575 370.414C957.243 370.414 947.583 378.226 947.583 390.826C947.583 403.342 957.243 411.238 967.575 411.238C971.439 411.238 977.235 409.474 979.755 405.442V410.482ZM958.167 390.826C958.167 384.442 963.375 380.242 969.003 380.242C974.379 380.242 979.755 384.022 979.755 390.826C979.755 397.546 974.547 401.41 969.003 401.41C963.375 401.41 958.167 397.126 958.167 390.826ZM1003.3 410.482H1013.54V349.918H1003.3V410.482Z" fill="white"/>
</g>
<defs>
<clipPath id="clip0_101_31">
<rect width="768" height="1600" fill="white" transform="translate(1600) rotate(90)"/>
</clipPath>
</defs>
</svg>
