<?xml version="1.0" encoding="utf-8"?>
<!-- Generator: Adobe Illustrator 22.0.1, SVG Export Plug-In . SVG Version: 6.00 Build 0)  -->
<svg version="1.1" id="Layer_4" xmlns="http://www.w3.org/2000/svg" xmlns:xlink="http://www.w3.org/1999/xlink" x="0px" y="0px"
	 viewBox="0 0 300 400" style="enable-background:new 0 0 300 400;" xml:space="preserve">
<style type="text/css">
	.st0{fill:url(#SVGID_1_);}
	.st1{fill:url(#SVGID_2_);}
	.st2{fill:url(#SVGID_3_);}
	.st3{fill:url(#SVGID_4_);}
	.st4{fill:#E63525;}
	.st5{fill:#E46125;}
	.st6{fill:#FFFFFF;}
	.st7{fill:#C6DDD9;}
	.st8{fill:#75CABF;}
	.st9{fill:#1CAE97;}
	.st10{fill:#F47F72;}
	.st11{opacity:0.19;clip-path:url(#SVGID_6_);fill:none;stroke:#FFFFFF;stroke-width:4;stroke-miterlimit:10;}
	.st12{clip-path:url(#SVGID_8_);}
	.st13{fill:none;stroke:#16498C;stroke-miterlimit:10;}
	.st14{opacity:0.23;}
	.st15{fill:none;stroke:#FFFFFF;stroke-miterlimit:10;}
</style>
<g>
	<linearGradient id="SVGID_1_" gradientUnits="userSpaceOnUse" x1="-17.9959" y1="357.9272" x2="325.0601" y2="35.5635">
		<stop  offset="0" style="stop-color:#2954A5"/>
		<stop  offset="1" style="stop-color:#018FB5"/>
	</linearGradient>
	<rect x="0.1" y="0" class="st0" width="300" height="400"/>
</g>
<g>
	<path class="st6" d="M66.8,306.8h-5.4v-3.2H76v3.2h-5.4v13.6h-3.9V306.8z"/>
	<path class="st6" d="M95.6,316.9h-7.8l-1.5,3.6h-4l7.5-16.8h3.8l7.5,16.8H97L95.6,316.9z M94.3,313.9l-2.7-6.4l-2.7,6.4H94.3z"/>
	<path class="st6" d="M125.5,303.7v16.8h-3.2l-8.4-10.2v10.2h-3.8v-16.8h3.2l8.4,10.2v-10.2H125.5z"/>
	<path class="st6" d="M148,311.8h3.6v6.8c-0.9,0.7-2,1.2-3.2,1.6c-1.2,0.4-2.4,0.6-3.6,0.6c-1.7,0-3.3-0.4-4.7-1.1
		c-1.4-0.7-2.5-1.8-3.3-3.1c-0.8-1.3-1.2-2.8-1.2-4.5s0.4-3.2,1.2-4.5s1.9-2.4,3.3-3.1c1.4-0.7,3-1.1,4.8-1.1c1.5,0,2.8,0.2,4,0.7
		c1.2,0.5,2.2,1.2,3,2.2l-2.5,2.3c-1.2-1.3-2.6-1.9-4.3-1.9c-1.1,0-2,0.2-2.9,0.7c-0.8,0.4-1.5,1.1-1.9,1.9
		c-0.5,0.8-0.7,1.8-0.7,2.8c0,1,0.2,2,0.7,2.8c0.5,0.8,1.1,1.5,1.9,1.9c0.8,0.5,1.8,0.7,2.8,0.7c1.1,0,2.1-0.2,3-0.7V311.8z"/>
	<path class="st6" d="M162.4,303.7h3.9v16.8h-3.9V303.7z"/>
	<path class="st6" d="M192,313.3c0.5,0.7,0.8,1.6,0.8,2.6c0,1.5-0.6,2.6-1.7,3.4c-1.1,0.8-2.8,1.2-5,1.2h-8.7v-16.8h8.2
		c2,0,3.6,0.4,4.7,1.2c1.1,0.8,1.6,1.8,1.6,3.2c0,0.8-0.2,1.5-0.6,2.2c-0.4,0.6-0.9,1.1-1.6,1.5C190.7,312,191.5,312.6,192,313.3z
		 M181.3,306.6v4h3.9c1,0,1.7-0.2,2.2-0.5s0.7-0.8,0.7-1.5s-0.2-1.1-0.7-1.5c-0.5-0.3-1.2-0.5-2.2-0.5H181.3z M188.2,317
		c0.5-0.3,0.8-0.9,0.8-1.6c0-1.4-1-2.1-3.1-2.1h-4.5v4.2h4.5C186.9,317.5,187.6,317.4,188.2,317z"/>
	<path class="st6" d="M203,303.7h3.9v13.6h8.4v3.2H203V303.7z"/>
	<path class="st6" d="M237.7,317.4v3.1h-13v-16.8h12.7v3.1h-8.8v3.6h7.8v3h-7.8v3.9H237.7z"/>
</g>
<g>
	<path class="st6" d="M68.2,332c-0.4-0.4-0.6-1-0.6-1.8V327h0.6v3.2c0,0.7,0.1,1.1,0.4,1.5s0.7,0.5,1.3,0.5c0.6,0,1-0.2,1.3-0.5
		c0.3-0.3,0.4-0.8,0.4-1.5V327h0.6v3.2c0,0.8-0.2,1.4-0.6,1.8s-1,0.6-1.7,0.6C69.1,332.7,68.6,332.4,68.2,332z"/>
	<path class="st6" d="M80.8,328.8c0.3,0.3,0.5,0.8,0.5,1.3v2.4h-0.6v-2.4c0-0.4-0.1-0.8-0.3-1c-0.2-0.2-0.5-0.3-0.9-0.3
		c-0.5,0-0.8,0.1-1.1,0.4c-0.3,0.3-0.4,0.6-0.4,1.1v2.2h-0.6v-4.2H78v0.8c0.2-0.3,0.4-0.5,0.6-0.6c0.3-0.1,0.6-0.2,1-0.2
		C80.1,328.4,80.5,328.5,80.8,328.8z"/>
	<path class="st6" d="M86.4,327.4c-0.1-0.1-0.1-0.2-0.1-0.3c0-0.1,0-0.2,0.1-0.3c0.1-0.1,0.2-0.1,0.3-0.1c0.1,0,0.2,0,0.3,0.1
		c0.1,0.1,0.1,0.2,0.1,0.3c0,0.1,0,0.2-0.1,0.3s-0.2,0.1-0.3,0.1C86.6,327.5,86.5,327.4,86.4,327.4z M86.4,328.4H87v4.2h-0.6V328.4z
		"/>
	<path class="st6" d="M95.7,328.4l-1.9,4.2h-0.6l-1.9-4.2H92l1.6,3.6l1.6-3.6H95.7z"/>
	<path class="st6" d="M103.7,330.7h-3.5c0,0.4,0.2,0.8,0.5,1.1c0.3,0.3,0.7,0.4,1.2,0.4c0.3,0,0.5,0,0.7-0.1s0.4-0.2,0.6-0.4
		l0.3,0.4c-0.2,0.2-0.4,0.4-0.7,0.5c-0.3,0.1-0.6,0.2-0.9,0.2c-0.4,0-0.8-0.1-1.1-0.3c-0.3-0.2-0.6-0.4-0.8-0.8s-0.3-0.7-0.3-1.1
		s0.1-0.8,0.3-1.1c0.2-0.3,0.4-0.6,0.7-0.8c0.3-0.2,0.7-0.3,1.1-0.3c0.4,0,0.7,0.1,1,0.3c0.3,0.2,0.6,0.4,0.7,0.8
		c0.2,0.3,0.3,0.7,0.3,1.1L103.7,330.7z M100.6,329.2c-0.3,0.3-0.4,0.6-0.5,1h3c0-0.4-0.2-0.8-0.5-1c-0.3-0.3-0.6-0.4-1-0.4
		C101.2,328.9,100.9,329,100.6,329.2z"/>
	<path class="st6" d="M109.6,328.6c0.3-0.1,0.6-0.2,1-0.2v0.6l-0.1,0c-0.4,0-0.8,0.1-1,0.4c-0.3,0.3-0.4,0.7-0.4,1.1v2.1h-0.6v-4.2
		h0.5v0.8C109.1,328.9,109.3,328.7,109.6,328.6z"/>
	<path class="st6" d="M115.4,332.5c-0.3-0.1-0.6-0.2-0.7-0.4l0.3-0.4c0.2,0.1,0.4,0.3,0.7,0.3s0.5,0.1,0.8,0.1
		c0.4,0,0.7-0.1,0.9-0.2c0.2-0.1,0.3-0.3,0.3-0.5c0-0.2-0.1-0.3-0.2-0.4c-0.1-0.1-0.2-0.2-0.4-0.2c-0.2,0-0.4-0.1-0.6-0.1
		c-0.3-0.1-0.6-0.1-0.8-0.2c-0.2-0.1-0.4-0.2-0.5-0.3c-0.1-0.2-0.2-0.4-0.2-0.7c0-0.4,0.1-0.6,0.4-0.9c0.3-0.2,0.7-0.3,1.2-0.3
		c0.3,0,0.5,0,0.8,0.1c0.3,0.1,0.5,0.2,0.7,0.3l-0.2,0.5c-0.3-0.2-0.8-0.4-1.2-0.4c-0.4,0-0.6,0.1-0.8,0.2s-0.3,0.3-0.3,0.5
		c0,0.2,0.1,0.3,0.2,0.4c0.1,0.1,0.2,0.2,0.4,0.2c0.2,0,0.4,0.1,0.6,0.1c0.3,0.1,0.6,0.1,0.8,0.2s0.4,0.2,0.5,0.3s0.2,0.4,0.2,0.6
		c0,0.4-0.2,0.7-0.5,0.9c-0.3,0.2-0.7,0.3-1.3,0.3C116,332.6,115.7,332.6,115.4,332.5z"/>
	<path class="st6" d="M125.5,328.8c0.3,0.3,0.4,0.7,0.4,1.2v2.6h-0.5v-0.7c-0.1,0.2-0.3,0.4-0.6,0.5s-0.5,0.2-0.9,0.2
		c-0.5,0-0.8-0.1-1.1-0.3s-0.4-0.5-0.4-0.9c0-0.4,0.1-0.6,0.4-0.9c0.3-0.2,0.7-0.3,1.2-0.3h1.3V330c0-0.4-0.1-0.6-0.3-0.8
		c-0.2-0.2-0.5-0.3-0.9-0.3c-0.3,0-0.5,0-0.8,0.1c-0.2,0.1-0.5,0.2-0.6,0.4l-0.3-0.4c0.2-0.2,0.5-0.3,0.8-0.4
		c0.3-0.1,0.6-0.1,0.9-0.1C124.8,328.4,125.2,328.5,125.5,328.8z M124.8,332c0.2-0.1,0.4-0.4,0.5-0.6v-0.7H124
		c-0.7,0-1.1,0.3-1.1,0.8c0,0.2,0.1,0.4,0.3,0.6c0.2,0.1,0.4,0.2,0.8,0.2C124.3,332.2,124.6,332.1,124.8,332z"/>
	<path class="st6" d="M131.1,326.7h0.6v5.9h-0.6V326.7z"/>
	<path class="st6" d="M143.7,327.5h-2V327h4.5v0.5h-2v5.1h-0.6V327.5z"/>
	<path class="st6" d="M150.9,332.4c-0.3-0.2-0.6-0.4-0.8-0.8s-0.3-0.7-0.3-1.1s0.1-0.8,0.3-1.1s0.4-0.6,0.8-0.8
		c0.3-0.2,0.7-0.3,1.1-0.3c0.4,0,0.8,0.1,1.1,0.3c0.3,0.2,0.6,0.4,0.8,0.8s0.3,0.7,0.3,1.1s-0.1,0.8-0.3,1.1s-0.4,0.6-0.8,0.8
		s-0.7,0.3-1.1,0.3C151.6,332.6,151.2,332.6,150.9,332.4z M152.8,331.9c0.2-0.1,0.4-0.3,0.6-0.6c0.1-0.3,0.2-0.5,0.2-0.9
		s-0.1-0.6-0.2-0.9s-0.3-0.4-0.6-0.6c-0.2-0.1-0.5-0.2-0.8-0.2c-0.3,0-0.6,0.1-0.8,0.2c-0.2,0.1-0.4,0.3-0.6,0.6
		c-0.1,0.3-0.2,0.5-0.2,0.9s0.1,0.6,0.2,0.9c0.1,0.3,0.3,0.4,0.6,0.6c0.2,0.1,0.5,0.2,0.8,0.2C152.3,332.1,152.5,332.1,152.8,331.9z
		"/>
	<path class="st6" d="M162.7,328.4v4.2h-0.5v-0.8c-0.1,0.3-0.4,0.5-0.6,0.6c-0.3,0.1-0.6,0.2-0.9,0.2c-0.5,0-1-0.2-1.3-0.5
		s-0.5-0.8-0.5-1.3v-2.4h0.6v2.4c0,0.4,0.1,0.8,0.3,1s0.5,0.3,0.9,0.3c0.4,0,0.8-0.1,1-0.4c0.3-0.3,0.4-0.6,0.4-1.1v-2.2H162.7z"/>
	<path class="st6" d="M168.5,332.4c-0.3-0.2-0.6-0.4-0.8-0.8s-0.3-0.7-0.3-1.1s0.1-0.8,0.3-1.1s0.4-0.6,0.8-0.8
		c0.3-0.2,0.7-0.3,1.1-0.3c0.4,0,0.7,0.1,1,0.2c0.3,0.1,0.5,0.3,0.7,0.6l-0.4,0.3c-0.1-0.2-0.3-0.4-0.5-0.5s-0.4-0.2-0.7-0.2
		c-0.3,0-0.6,0.1-0.8,0.2c-0.2,0.1-0.4,0.3-0.6,0.6c-0.1,0.3-0.2,0.5-0.2,0.9c0,0.3,0.1,0.6,0.2,0.9c0.1,0.2,0.3,0.4,0.6,0.6
		c0.2,0.1,0.5,0.2,0.8,0.2c0.3,0,0.5-0.1,0.7-0.2c0.2-0.1,0.4-0.3,0.5-0.5l0.4,0.3c-0.2,0.3-0.4,0.5-0.7,0.6c-0.3,0.1-0.6,0.2-1,0.2
		C169.2,332.6,168.8,332.6,168.5,332.4z"/>
	<path class="st6" d="M179.3,328.8c0.3,0.3,0.5,0.8,0.5,1.3v2.4h-0.6v-2.4c0-0.4-0.1-0.8-0.3-1c-0.2-0.2-0.5-0.3-0.9-0.3
		c-0.5,0-0.8,0.1-1.1,0.4c-0.3,0.3-0.4,0.6-0.4,1.1v2.2h-0.6v-5.9h0.6v2.5c0.2-0.2,0.4-0.4,0.6-0.6s0.6-0.2,0.9-0.2
		C178.6,328.4,179,328.5,179.3,328.8z"/>
	<path class="st6" d="M191.1,332.5c-0.4-0.1-0.7-0.3-0.9-0.5l0.2-0.5c0.2,0.2,0.5,0.4,0.8,0.5c0.3,0.1,0.7,0.2,1,0.2
		c0.5,0,0.9-0.1,1.1-0.3c0.3-0.2,0.4-0.4,0.4-0.7c0-0.2-0.1-0.4-0.2-0.5c-0.1-0.1-0.3-0.2-0.5-0.3s-0.5-0.2-0.8-0.2
		c-0.4-0.1-0.8-0.2-1-0.3c-0.3-0.1-0.5-0.2-0.6-0.5s-0.3-0.5-0.3-0.8c0-0.3,0.1-0.5,0.2-0.8c0.1-0.2,0.4-0.4,0.7-0.6
		c0.3-0.1,0.7-0.2,1.2-0.2c0.3,0,0.6,0,0.9,0.1s0.6,0.2,0.8,0.4l-0.2,0.5c-0.2-0.2-0.5-0.3-0.8-0.3c-0.3-0.1-0.5-0.1-0.8-0.1
		c-0.5,0-0.9,0.1-1.1,0.3c-0.2,0.2-0.4,0.4-0.4,0.7c0,0.2,0.1,0.4,0.2,0.5c0.1,0.1,0.3,0.2,0.5,0.3c0.2,0.1,0.5,0.2,0.8,0.2
		c0.4,0.1,0.7,0.2,1,0.3c0.3,0.1,0.5,0.2,0.6,0.4c0.2,0.2,0.3,0.5,0.3,0.8c0,0.3-0.1,0.5-0.2,0.8s-0.4,0.4-0.7,0.6
		c-0.3,0.1-0.7,0.2-1.2,0.2C191.9,332.7,191.5,332.6,191.1,332.5z"/>
	<path class="st6" d="M199.8,332.4c-0.3-0.2-0.6-0.4-0.8-0.8s-0.3-0.7-0.3-1.1s0.1-0.8,0.3-1.1s0.4-0.6,0.8-0.8
		c0.3-0.2,0.7-0.3,1.1-0.3c0.4,0,0.7,0.1,1,0.2c0.3,0.1,0.5,0.3,0.7,0.6l-0.4,0.3c-0.1-0.2-0.3-0.4-0.5-0.5s-0.4-0.2-0.7-0.2
		c-0.3,0-0.6,0.1-0.8,0.2c-0.2,0.1-0.4,0.3-0.6,0.6c-0.1,0.3-0.2,0.5-0.2,0.9c0,0.3,0.1,0.6,0.2,0.9c0.1,0.2,0.3,0.4,0.6,0.6
		c0.2,0.1,0.5,0.2,0.8,0.2c0.3,0,0.5-0.1,0.7-0.2c0.2-0.1,0.4-0.3,0.5-0.5l0.4,0.3c-0.2,0.3-0.4,0.5-0.7,0.6c-0.3,0.1-0.6,0.2-1,0.2
		C200.5,332.6,200.1,332.6,199.8,332.4z"/>
	<path class="st6" d="M208.4,328.6c0.3-0.1,0.6-0.2,1-0.2v0.6l-0.1,0c-0.4,0-0.8,0.1-1,0.4c-0.3,0.3-0.4,0.7-0.4,1.1v2.1h-0.6v-4.2
		h0.5v0.8C207.9,328.9,208.1,328.7,208.4,328.6z"/>
	<path class="st6" d="M217.6,330.7h-3.5c0,0.4,0.2,0.8,0.5,1.1c0.3,0.3,0.7,0.4,1.2,0.4c0.3,0,0.5,0,0.7-0.1s0.4-0.2,0.6-0.4
		l0.3,0.4c-0.2,0.2-0.4,0.4-0.7,0.5c-0.3,0.1-0.6,0.2-0.9,0.2c-0.4,0-0.8-0.1-1.1-0.3c-0.3-0.2-0.6-0.4-0.8-0.8s-0.3-0.7-0.3-1.1
		s0.1-0.8,0.3-1.1c0.2-0.3,0.4-0.6,0.7-0.8c0.3-0.2,0.7-0.3,1.1-0.3c0.4,0,0.7,0.1,1,0.3c0.3,0.2,0.6,0.4,0.7,0.8
		c0.2,0.3,0.3,0.7,0.3,1.1L217.6,330.7z M214.5,329.2c-0.3,0.3-0.4,0.6-0.5,1h3c0-0.4-0.2-0.8-0.5-1c-0.3-0.3-0.6-0.4-1-0.4
		C215.2,328.9,214.8,329,214.5,329.2z"/>
	<path class="st6" d="M226,330.7h-3.5c0,0.4,0.2,0.8,0.5,1.1c0.3,0.3,0.7,0.4,1.2,0.4c0.3,0,0.5,0,0.7-0.1s0.4-0.2,0.6-0.4l0.3,0.4
		c-0.2,0.2-0.4,0.4-0.7,0.5c-0.3,0.1-0.6,0.2-0.9,0.2c-0.4,0-0.8-0.1-1.1-0.3c-0.3-0.2-0.6-0.4-0.8-0.8s-0.3-0.7-0.3-1.1
		s0.1-0.8,0.3-1.1c0.2-0.3,0.4-0.6,0.7-0.8c0.3-0.2,0.7-0.3,1.1-0.3c0.4,0,0.7,0.1,1,0.3c0.3,0.2,0.6,0.4,0.7,0.8
		c0.2,0.3,0.3,0.7,0.3,1.1L226,330.7z M223,329.2c-0.3,0.3-0.4,0.6-0.5,1h3c0-0.4-0.2-0.8-0.5-1c-0.3-0.3-0.6-0.4-1-0.4
		C223.6,328.9,223.3,329,223,329.2z"/>
	<path class="st6" d="M234.2,328.8c0.3,0.3,0.5,0.8,0.5,1.3v2.4h-0.6v-2.4c0-0.4-0.1-0.8-0.3-1c-0.2-0.2-0.5-0.3-0.9-0.3
		c-0.5,0-0.8,0.1-1.1,0.4c-0.3,0.3-0.4,0.6-0.4,1.1v2.2h-0.6v-4.2h0.5v0.8c0.2-0.3,0.4-0.5,0.6-0.6c0.3-0.1,0.6-0.2,1-0.2
		C233.5,328.4,233.9,328.5,234.2,328.8z"/>
</g>
<g>
	<defs>
		<rect id="SVGID_5_" x="-320" y="0" width="300" height="400"/>
	</defs>
	<clipPath id="SVGID_2_">
		<use xlink:href="#SVGID_5_"  style="overflow:visible;"/>
	</clipPath>
	
		<circle style="opacity:0.19;clip-path:url(#SVGID_2_);fill:none;stroke:#FFFFFF;stroke-width:4;stroke-miterlimit:10;" cx="-7.5" cy="294.7" r="306.5"/>
	
		<circle style="opacity:0.19;clip-path:url(#SVGID_2_);fill:none;stroke:#FFFFFF;stroke-width:4;stroke-miterlimit:10;" cx="-9.5" cy="249.7" r="306.5"/>
	
		<circle style="opacity:0.19;clip-path:url(#SVGID_2_);fill:none;stroke:#FFFFFF;stroke-width:4;stroke-miterlimit:10;" cx="-18.5" cy="202.7" r="306.5"/>
</g>
<g>
	<defs>
		<rect id="SVGID_7_" x="0.1" y="0" width="300" height="400"/>
	</defs>
	<clipPath id="SVGID_3_">
		<use xlink:href="#SVGID_7_"  style="overflow:visible;"/>
	</clipPath>
	<g style="clip-path:url(#SVGID_3_);">
		<polygon class="st13" points="516.9,-457.6 463.8,-136.1 242,80.9 -68.2,185.3 239.6,-136.1 		"/>
		<polygon class="st13" points="-68.2,185.3 62,-240.6 516.9,-457.6 224.4,-118.4 		"/>
		<polygon class="st13" points="-138.9,325.2 224.4,246.4 378.7,-94.3 364.8,-281.2 224.4,-118.4 -68.2,185.3 		"/>
		<polygon class="st13" points="62,-240.6 239.6,-136.1 -68.2,185.3 		"/>
		<polygon class="st13" points="224.4,246.4 -68.2,185.3 -138.9,325.2 		"/>
		<polygon class="st13" points="378.7,-94.3 -68.2,185.3 239.6,-136.1 		"/>
		<polygon class="st13" points="224.4,246.4 207.5,121 347.2,-24.8 		"/>
		<polygon class="st13" points="-68.2,185.3 207.5,121 224.4,246.4 		"/>
	</g>
</g>
</svg>
