<?xml version="1.0" encoding="utf-8"?>
<!-- Generator: Adobe Illustrator 22.0.1, SVG Export Plug-In . SVG Version: 6.00 Build 0)  -->
<svg version="1.1" id="Layer_1" xmlns="http://www.w3.org/2000/svg" xmlns:xlink="http://www.w3.org/1999/xlink" x="0px" y="0px"
	 viewBox="0 0 1080 1080" style="enable-background:new 0 0 1080 1080;" xml:space="preserve">
<style type="text/css">
	.st0{fill:url(#SVGID_1_);}
	.st1{fill:#FFFFFF;}
	.st2{fill:#4FB848;}
	.st3{fill:url(#SVGID_2_);}
	.st4{opacity:0.44;}
	.st5{opacity:0.44;clip-path:url(#SVGID_6_);}
	.st6{enable-background:new    ;}
	.st7{clip-path:url(#SVGID_10_);}
	.st8{clip-path:url(#SVGID_12_);}
	.st9{fill:#E41C3F;}
	.st10{fill:#FDEB07;}
	.st11{fill:#39C0C4;}
	.st12{fill:none;}
</style>
<g>
	
		<image style="overflow:visible;opacity:0.75;" width="880" height="704" xlink:href="37900E54.png"  transform="matrix(1 0 0 1 100 197)">
	</image>
	<g>
		<polygon class="st1" points="934.4,755.3 934.4,345.6 518.6,242 146,345.6 146,755.3 539.4,855.8 		"/>
	</g>
</g>
<polygon points="934.4,755.3 934.4,345.6 518.6,242 146,345.6 146,755.3 539.4,855.8 "/>
<g>
	<g class="st6">
		<defs>
			<polygon id="SVGID_11_" class="st6" points="558.8,715.4 559.2,465 923,380.7 922.5,631 			"/>
		</defs>
		<clipPath id="SVGID_1_">
			<use xlink:href="#SVGID_11_"  style="overflow:visible;"/>
		</clipPath>
		<g style="clip-path:url(#SVGID_1_);">
			<polyline class="st1" points="642.9,447.3 619.9,452.6 619.8,500.7 582.2,509.4 582.3,461.3 559.2,466.7 559,586.5 582.1,581.1 
				582.2,533 619.8,524.3 619.7,572.4 642.7,567.1 642.9,447.3 			"/>
			<path class="st1" d="M738.1,425.2l-23,5.3l-0.1,74.8c0,4.1-0.7,8-2.2,11.6c-1.5,3.6-3.5,6.6-6.1,9c-2.6,2.4-5.6,4.1-9.1,4.9
				c-3.4,0.8-6.5,0.6-9.1-0.6c-2.6-1.2-4.6-3.3-6.1-6.2c-1.4-2.9-2.2-6.4-2.1-10.6l0.1-74.8l-23.1,5.4l-0.1,77.3
				c0,8.9,1.6,16.3,5,22.1c3.3,5.8,8,9.9,14.1,12.1c6.1,2.2,13.1,2.4,21.2,0.5c8-1.9,15.1-5.3,21.1-10.3s10.8-11.2,14.2-18.6
				c3.4-7.4,5.1-15.6,5.1-24.5L738.1,425.2"/>
			<path class="st1" d="M789.7,411.6c-7.2,1.7-13.7,4.7-19.3,9.2c-5.7,4.4-10.1,9.8-13.3,16.1c-3.2,6.3-4.8,13.2-4.8,20.6
				c0,9.1,2.3,15.8,7,20c4.7,4.2,11.2,6.6,19.5,7l10,0.6c3.5,0.2,6.3,0.6,8.6,1.3s3.9,1.7,5,3c1.1,1.4,1.6,3.2,1.7,5.4
				c0,2.4-0.6,4.7-1.8,6.9c-1.2,2.1-2.9,4-5.1,5.6c-2.2,1.6-4.8,2.7-8,3.4c-3.4,0.8-6.4,0.8-8.9,0.1c-2.6-0.7-4.6-2.2-6-4.5
				c-1.5-2.2-2.3-5.3-2.5-9.1l-22.1,5.1c0.1,9.3,1.8,16.7,5,22c3.3,5.4,7.9,8.9,13.8,10.5c5.9,1.6,12.9,1.5,20.9-0.3
				c8-1.8,14.8-4.9,20.4-9.1s10-9.4,13-15.5c3-6.1,4.6-13,4.6-20.5c0-4.8-0.7-9-1.9-12.5c-1.3-3.6-3.1-6.5-5.6-8.9
				c-2.5-2.4-5.5-4.2-9.1-5.5c-3.6-1.3-7.8-2.1-12.5-2.2l-8.2-0.4c-2.2-0.1-4.1-0.3-5.9-0.7c-1.7-0.4-3.2-0.9-4.4-1.7
				c-1.2-0.7-2.2-1.7-2.8-2.9c-0.6-1.2-0.9-2.7-0.9-4.5c0-2.2,0.5-4.3,1.5-6.2c1-1.9,2.5-3.6,4.5-5c2-1.4,4.5-2.5,7.5-3.2
				c4.5-1,8-0.6,10.4,1.2c2.4,1.8,3.8,4.9,4.1,9.1l22.1-5.1c0-7.4-1.6-13.6-4.6-18.6c-3-5-7.2-8.4-12.7-10.2
				C803.5,409.9,797.1,409.9,789.7,411.6"/>
			<polyline class="st1" points="922.9,382.3 899.9,387.6 899.8,435.7 862.2,444.5 862.3,396.4 839.3,401.7 839,521.5 862.1,516.2 
				862.2,468 899.8,459.3 899.7,507.5 922.7,502.1 922.9,382.3 			"/>
			<polyline class="st1" points="642.7,574.7 619.7,580 619.6,628.1 582,636.8 582.1,588.7 559,594.1 558.8,713.9 581.8,708.6 
				581.9,660.4 619.5,651.7 619.4,699.8 642.5,694.5 642.7,574.7 			"/>
			<path class="st1" d="M737.9,552.6l-23,5.3l-0.1,74.8c0,4.1-0.7,8-2.2,11.6c-1.5,3.6-3.5,6.6-6.1,9c-2.6,2.4-5.6,4.1-9.1,4.9
				c-3.4,0.8-6.5,0.6-9.1-0.6s-4.6-3.3-6.1-6.2c-1.4-2.9-2.2-6.4-2.1-10.6l0.1-74.8l-23.1,5.4l-0.1,77.3c0,8.9,1.6,16.3,5,22.1
				c3.3,5.8,8,9.9,14.1,12.1c6.1,2.2,13.1,2.4,21.2,0.5c8-1.9,15.1-5.3,21.1-10.3c6.1-5,10.8-11.2,14.2-18.6
				c3.4-7.4,5.1-15.6,5.1-24.5L737.9,552.6"/>
			<path class="st1" d="M789.4,539c-7.2,1.7-13.7,4.7-19.3,9.2c-5.7,4.4-10.1,9.8-13.3,16.1c-3.2,6.3-4.8,13.2-4.8,20.6
				c0,9.1,2.3,15.8,7,20c4.7,4.2,11.2,6.6,19.5,7l10,0.6c3.5,0.2,6.3,0.6,8.6,1.3c2.2,0.7,3.9,1.7,5,3c1.1,1.4,1.6,3.2,1.7,5.4
				c0,2.4-0.6,4.7-1.8,6.9c-1.2,2.1-2.9,4-5.1,5.6c-2.2,1.6-4.8,2.7-8,3.4c-3.4,0.8-6.4,0.8-8.9,0.1c-2.6-0.7-4.6-2.2-6-4.5
				c-1.5-2.2-2.3-5.3-2.5-9.1l-22.1,5.1c0.1,9.3,1.8,16.7,5,22c3.3,5.4,7.9,8.9,13.8,10.5c5.9,1.6,12.9,1.5,20.9-0.3
				c8-1.8,14.8-4.9,20.4-9.1c5.6-4.2,10-9.3,13-15.5c3-6.1,4.6-13,4.6-20.5c0-4.8-0.7-9-1.9-12.5c-1.3-3.6-3.1-6.5-5.6-8.9
				c-2.5-2.4-5.5-4.2-9.1-5.5c-3.6-1.3-7.8-2.1-12.5-2.2l-8.2-0.4c-2.2-0.1-4.1-0.3-5.9-0.7c-1.7-0.4-3.2-0.9-4.4-1.7
				c-1.2-0.7-2.2-1.7-2.8-2.9c-0.6-1.2-0.9-2.7-0.9-4.5c0-2.2,0.5-4.3,1.5-6.2s2.5-3.6,4.5-5c2-1.4,4.5-2.5,7.5-3.2
				c4.5-1,8-0.6,10.4,1.2c2.4,1.8,3.8,4.9,4.1,9.1l22.1-5.1c0-7.4-1.6-13.6-4.6-18.6c-3-5-7.2-8.4-12.7-10.2
				C803.3,537.4,796.8,537.3,789.4,539"/>
			<polyline class="st1" points="922.7,509.7 899.7,515 899.6,563.1 862,571.9 862.1,523.8 839,529.1 838.8,648.9 861.9,643.6 
				862,595.4 899.6,586.7 899.5,634.9 922.5,629.5 922.7,509.7 			"/>
		</g>
	</g>
</g>
<g>
	
		<image style="overflow:visible;opacity:0.75;" width="255" height="249" xlink:href="37900E55.png"  transform="matrix(1 0 0 1 758 194)">
	</image>
	<g>
		<polygon class="st1" points="922.6,343.1 922.6,294.7 883.4,284.9 848.3,294.7 848.3,343.1 885.4,352.6 		"/>
	</g>
</g>
</svg>
