<?xml version="1.0" encoding="utf-8"?>
<!-- Generator: Adobe Illustrator 22.0.1, SVG Export Plug-In . SVG Version: 6.00 Build 0)  -->
<svg version="1.1" id="Layer_1" xmlns="http://www.w3.org/2000/svg" xmlns:xlink="http://www.w3.org/1999/xlink" x="0px" y="0px"
	 viewBox="0 0 1080 1080" style="enable-background:new 0 0 1080 1080;" xml:space="preserve">
<style type="text/css">
	.st0{fill:url(#SVGID_1_);}
	.st1{fill:#FFFFFF;}
	.st2{fill:#4FB848;}
	.st3{fill:url(#SVGID_2_);}
	.st4{opacity:0.44;}
	.st5{opacity:0.44;clip-path:url(#SVGID_6_);}
	.st6{enable-background:new    ;}
	.st7{clip-path:url(#SVGID_10_);}
	.st8{clip-path:url(#SVGID_12_);}
	.st9{fill:#E41C3F;}
	.st10{fill:#FDEB07;}
	.st11{fill:#39C0C4;}
	.st12{fill:none;}
</style>
<g>
	<path class="st1" d="M591,323.8c-0.1,0-0.2,0-0.3,0c-13.9-14.7-33.6-23.8-55.4-23.8c-32.7,0-60.7,20.7-71.4,49.6
		c-19.9,4.8-34.7,22.7-34.7,44.1c0,25.1,20.3,45.4,45.4,45.4c5.1,0,10-0.8,14.5-2.4c12.8,9.8,28.9,15.6,46.3,15.6
		c14.5,0,28.1-4.1,39.7-11.1c5.1,1.4,10.4,2.2,16,2.2c33,0,59.8-26.8,59.8-59.8S624.1,323.8,591,323.8z M591.1,349.9
		c-5.7,3.2-15.4,15.1-24.1,29.8c-9.6,16.1-14.8,29.9-15,35.1l-0.2,4c-0.1,1.5-1.3,2.7-2.8,2.7h-17.7c-1.5,0-2.8-1.2-2.8-2.7l-0.2-4
		c-0.2-5.2-5.4-19-15-35.1c-8.7-14.6-18.4-26.6-24.1-29.8c-1.1-0.6-1.7-1.9-1.4-3.2c0.3-1.3,1.5-2.1,2.8-2.1h12.9
		c0.8,0,1.5,0.3,2,0.9c8.3,8.5,16,20.7,19.8,27.1c2.7,4.6,11,19,14.9,31.3c3.9-12.4,12.1-26.7,14.9-31.3
		c3.8-6.5,11.5-18.6,19.8-27.1c0.5-0.6,1.3-0.9,2-0.9h12.9c1.3,0,2.4,0.9,2.8,2.1C592.8,348,592.2,349.3,591.1,349.9z"/>
	<g>
		<path class="st1" d="M242.5,547.7L206.7,633h-11.2l-35.7-85.3h11.3l30.2,72.6l30.5-72.6H242.5z"/>
		<path class="st1" d="M280.6,526.6c-1.5-1.6-2.3-3.6-2.3-5.8c0-2.2,0.8-4.1,2.3-5.7s3.4-2.4,5.7-2.4c2.2,0,4.1,0.8,5.7,2.4
			c1.5,1.6,2.3,3.4,2.3,5.6c0,2.4-0.8,4.4-2.3,6s-3.4,2.4-5.7,2.4C284.1,529.1,282.2,528.2,280.6,526.6z M280.8,547.7h10.9V633
			h-10.9V547.7z"/>
		<path class="st1" d="M366.8,551.4c5.1-2.9,11.3-4.4,18.8-4.4v11.2l-2.6-0.2c-8.5,0-15.1,2.8-19.9,8.3c-4.8,5.5-7.2,13.2-7.2,23.2
			V633H345v-85.3h10.4v16.7C357.9,558.7,361.7,554.4,366.8,551.4z"/>
		<path class="st1" d="M474,627.8c-2,1.9-4.6,3.4-7.6,4.5c-3,1-6.2,1.5-9.4,1.5c-7.6,0-13.4-2.2-17.5-6.5
			c-4.1-4.3-6.1-10.4-6.1-18.3v-51.6h-14.4v-9.7h14.4v-18.6h10.9v18.6h24.5v9.7h-24.5v50.9c0,5.1,1.2,8.9,3.6,11.6
			c2.4,2.6,5.8,4,10.3,4c2.2,0,4.4-0.4,6.5-1.1c2.1-0.8,3.9-1.8,5.4-3.2L474,627.8z"/>
		<path class="st1" d="M538.6,551.4c5.1-2.9,11.3-4.4,18.8-4.4v11.2l-2.6-0.2c-8.5,0-15.1,2.8-19.9,8.3c-4.8,5.5-7.2,13.2-7.2,23.2
			V633h-10.9v-85.3h10.4v16.7C529.7,558.7,533.5,554.4,538.6,551.4z"/>
		<path class="st1" d="M611,628.2c-6.2-3.7-11.1-8.9-14.7-15.5c-3.6-6.6-5.4-14.1-5.4-22.4c0-8.3,1.8-15.8,5.4-22.4
			c3.6-6.6,8.5-11.7,14.7-15.4c6.2-3.7,13.2-5.5,21-5.5c7.8,0,14.7,1.8,21,5.5c6.2,3.7,11.1,8.8,14.6,15.4
			c3.5,6.6,5.3,14.1,5.3,22.4c0,8.3-1.8,15.8-5.3,22.4c-3.5,6.6-8.4,11.8-14.6,15.5c-6.2,3.7-13.2,5.6-21,5.6
			C624.3,633.8,617.3,631.9,611,628.2z M647.4,619.5c4.5-2.8,8.1-6.7,10.6-11.8c2.6-5.1,3.8-10.9,3.8-17.3s-1.3-12.3-3.8-17.4
			c-2.6-5.1-6.1-9-10.6-11.8c-4.5-2.8-9.7-4.1-15.4-4.1c-5.7,0-10.8,1.4-15.4,4.1c-4.5,2.8-8.1,6.7-10.7,11.8
			c-2.6,5.1-3.9,10.9-3.9,17.4s1.3,12.3,3.9,17.3c2.6,5.1,6.2,9,10.7,11.8c4.5,2.8,9.7,4.1,15.4,4.1
			C637.7,623.6,642.9,622.2,647.4,619.5z"/>
		<path class="st1" d="M718.1,512.7h10.9V633h-10.9V512.7z"/>
		<path class="st1" d="M782.1,526.6c-1.5-1.6-2.3-3.6-2.3-5.8c0-2.2,0.8-4.1,2.3-5.7c1.5-1.6,3.4-2.4,5.7-2.4c2.2,0,4.1,0.8,5.7,2.4
			c1.5,1.6,2.3,3.4,2.3,5.6c0,2.4-0.8,4.4-2.3,6c-1.5,1.6-3.4,2.4-5.7,2.4C785.5,529.1,783.6,528.2,782.1,526.6z M782.2,547.7h10.9
			V633h-10.9V547.7z"/>
		<path class="st1" d="M858.3,628.2c-6.2-3.7-11.1-8.9-14.7-15.5c-3.6-6.6-5.4-14.1-5.4-22.4c0-8.3,1.8-15.8,5.4-22.4
			c3.6-6.6,8.5-11.7,14.7-15.4c6.2-3.7,13.2-5.5,21-5.5c7.8,0,14.7,1.8,21,5.5c6.2,3.7,11.1,8.8,14.6,15.4
			c3.5,6.6,5.3,14.1,5.3,22.4c0,8.3-1.8,15.8-5.3,22.4c-3.5,6.6-8.4,11.8-14.6,15.5c-6.2,3.7-13.2,5.6-21,5.6
			C871.5,633.8,864.5,631.9,858.3,628.2z M894.7,619.5c4.5-2.8,8.1-6.7,10.6-11.8c2.6-5.1,3.8-10.9,3.8-17.3s-1.3-12.3-3.8-17.4
			c-2.6-5.1-6.1-9-10.6-11.8c-4.5-2.8-9.7-4.1-15.4-4.1c-5.7,0-10.8,1.4-15.4,4.1c-4.5,2.8-8.1,6.7-10.7,11.8
			c-2.6,5.1-3.9,10.9-3.9,17.4s1.3,12.3,3.9,17.3c2.6,5.1,6.2,9,10.7,11.8c4.5,2.8,9.7,4.1,15.4,4.1
			C885,623.6,890.1,622.2,894.7,619.5z"/>
	</g>
	<g>
		<path class="st1" d="M248.8,741.8c-2.9-1.1-5.2-2.5-6.8-4.3l1.8-3.7c1.6,1.6,3.6,3,6.2,4c2.6,1,5.2,1.5,8,1.5
			c3.8,0,6.7-0.7,8.6-2.2c1.9-1.5,2.9-3.4,2.9-5.8c0-1.8-0.5-3.3-1.6-4.3c-1-1.1-2.3-1.9-3.8-2.5c-1.5-0.6-3.6-1.2-6.3-1.9
			c-3.2-0.9-5.8-1.7-7.7-2.5c-1.9-0.8-3.6-2-4.9-3.7c-1.4-1.6-2.1-3.9-2.1-6.7c0-2.3,0.6-4.4,1.7-6.3c1.1-1.9,2.9-3.4,5.3-4.5
			c2.4-1.1,5.3-1.7,8.8-1.7c2.4,0,4.8,0.4,7.2,1.1c2.3,0.7,4.4,1.7,6.1,3l-1.5,3.8c-1.8-1.3-3.7-2.2-5.8-2.8c-2-0.6-4-0.9-6-0.9
			c-3.8,0-6.6,0.8-8.5,2.3c-1.9,1.5-2.8,3.5-2.8,5.9c0,1.8,0.5,3.3,1.6,4.4c1,1.1,2.3,1.9,3.9,2.5c1.6,0.6,3.7,1.2,6.3,1.9
			c3.1,0.8,5.7,1.6,7.6,2.4c1.9,0.8,3.6,2,4.9,3.6c1.3,1.6,2,3.8,2,6.6c0,2.3-0.6,4.4-1.7,6.3c-1.2,1.9-3,3.4-5.4,4.5
			c-2.4,1.1-5.4,1.7-8.9,1.7C254.8,743.5,251.8,742.9,248.8,741.8z"/>
		<path class="st1" d="M309.1,741c-0.8,0.8-1.8,1.4-3,1.8c-1.2,0.4-2.5,0.6-3.8,0.6c-3,0-5.3-0.9-7-2.6c-1.6-1.7-2.4-4.2-2.4-7.3
			v-20.6h-5.8V709h5.8v-7.5h4.3v7.5h9.8v3.9h-9.8v20.4c0,2,0.5,3.6,1.4,4.6c1,1.1,2.3,1.6,4.1,1.6c0.9,0,1.8-0.2,2.6-0.5
			c0.8-0.3,1.6-0.7,2.2-1.3L309.1,741z"/>
		<path class="st1" d="M347.1,712c2.2,2.2,3.4,5.5,3.4,9.9v21.1h-4.2v-5.3c-1,1.8-2.4,3.2-4.3,4.2c-1.9,1-4.2,1.5-6.8,1.5
			c-3.6,0-6.5-0.9-8.6-2.7c-2.1-1.8-3.2-4.2-3.2-7.2c0-2.9,1-5.2,3-7c2-1.8,5.1-2.7,9.5-2.7h10.2v-2.1c0-2.9-0.8-5.2-2.3-6.7
			c-1.6-1.5-3.8-2.3-6.8-2.3c-2,0-4,0.4-5.9,1.1c-1.9,0.7-3.5,1.7-4.8,3l-2-3.4c1.6-1.5,3.6-2.6,5.9-3.4c2.3-0.8,4.7-1.2,7.2-1.2
			C341.6,708.7,344.9,709.8,347.1,712z M342.2,738c1.8-1.2,3.1-2.9,3.9-5.2v-5.6H336c-5.5,0-8.3,2-8.3,6.1c0,2,0.7,3.6,2.1,4.7
			c1.4,1.1,3.4,1.7,6,1.7C338.3,739.8,340.4,739.2,342.2,738z"/>
		<path class="st1" d="M397.9,709l-16.1,38.2c-1.3,3.2-2.8,5.5-4.5,6.8s-3.8,2-6.2,2c-1.6,0-3-0.3-4.3-0.8c-1.3-0.5-2.5-1.3-3.5-2.3
			l2-3.4c1.6,1.7,3.6,2.6,5.9,2.6c1.5,0,2.7-0.4,3.8-1.3c1-0.9,2-2.3,2.9-4.4l1.4-3.3L364.9,709h4.5l12.1,29l12.1-29H397.9z"/>
		<path class="st1" d="M446.5,740.5c-3.4-2-6.1-4.7-8-8.3c-1.9-3.5-2.9-7.5-2.9-11.8c0-4.4,1-8.3,2.9-11.8c1.9-3.5,4.6-6.3,8.1-8.3
			c3.4-2,7.3-3,11.5-3c3.2,0,6.1,0.6,8.8,1.7c2.7,1.1,5,2.8,6.9,4.9l-2.9,3c-3.3-3.6-7.6-5.4-12.7-5.4c-3.4,0-6.5,0.8-9.2,2.5
			c-2.8,1.6-5,3.9-6.5,6.7c-1.6,2.9-2.4,6.1-2.4,9.6c0,3.5,0.8,6.7,2.4,9.6c1.6,2.9,3.7,5.1,6.5,6.7c2.8,1.6,5.9,2.5,9.2,2.5
			c5.1,0,9.4-1.8,12.7-5.4l2.9,3c-1.9,2.2-4.2,3.8-6.9,5c-2.7,1.1-5.7,1.7-8.9,1.7C453.8,743.5,449.9,742.5,446.5,740.5z"/>
		<path class="st1" d="M495.1,741.2c-2.5-1.5-4.5-3.6-5.9-6.2c-1.4-2.6-2.1-5.6-2.1-8.9c0-3.3,0.7-6.3,2.1-9
			c1.4-2.6,3.4-4.7,5.9-6.2c2.5-1.5,5.3-2.2,8.4-2.2c3.1,0,5.9,0.7,8.4,2.2c2.5,1.5,4.4,3.5,5.8,6.2c1.4,2.6,2.1,5.6,2.1,9
			c0,3.3-0.7,6.3-2.1,8.9c-1.4,2.6-3.4,4.7-5.8,6.2c-2.5,1.5-5.3,2.2-8.4,2.2C500.3,743.4,497.5,742.7,495.1,741.2z M509.6,737.7
			c1.8-1.1,3.2-2.7,4.3-4.7c1-2,1.5-4.3,1.5-6.9c0-2.6-0.5-4.9-1.5-6.9c-1-2-2.4-3.6-4.3-4.7c-1.8-1.1-3.9-1.7-6.2-1.7
			c-2.3,0-4.3,0.6-6.2,1.7c-1.8,1.1-3.2,2.7-4.3,4.7c-1,2-1.6,4.3-1.6,6.9c0,2.6,0.5,4.9,1.6,6.9c1,2,2.5,3.6,4.3,4.7
			c1.8,1.1,3.9,1.7,6.2,1.7C505.7,739.3,507.8,738.8,509.6,737.7z"/>
		<path class="st1" d="M563.9,712.4c2.4,2.5,3.6,6.1,3.6,10.9v19.8h-4.3v-19.3c0-3.5-0.8-6.2-2.5-8.1c-1.7-1.9-4.1-2.8-7.2-2.8
			c-3.5,0-6.2,1.1-8.2,3.3c-2,2.2-3,5.2-3,9v17.9h-4.3V709h4.2v6.3c1.2-2.1,2.8-3.7,4.9-4.8c2.1-1.1,4.5-1.7,7.3-1.7
			C558.3,708.7,561.5,709.9,563.9,712.4z"/>
		<path class="st1" d="M614.6,712.4c2.4,2.5,3.6,6.1,3.6,10.9v19.8h-4.3v-19.3c0-3.5-0.8-6.2-2.5-8.1c-1.7-1.9-4.1-2.8-7.2-2.8
			c-3.5,0-6.2,1.1-8.2,3.3c-2,2.2-3,5.2-3,9v17.9h-4.3V709h4.2v6.3c1.2-2.1,2.8-3.7,4.9-4.8c2.1-1.1,4.5-1.7,7.3-1.7
			C609,708.7,612.2,709.9,614.6,712.4z"/>
		<path class="st1" d="M667.3,727.4h-26.9c0.2,3.5,1.5,6.4,3.9,8.6c2.3,2.2,5.3,3.3,8.8,3.3c2,0,3.8-0.4,5.5-1.1
			c1.7-0.8,3.1-1.9,4.3-3.3l2.4,3c-1.4,1.8-3.2,3.2-5.4,4.2c-2.1,1-4.5,1.4-7.1,1.4c-3.3,0-6.2-0.7-8.8-2.2s-4.5-3.6-6-6.2
			c-1.4-2.6-2.1-5.6-2.1-8.9c0-3.3,0.7-6.3,2.1-9c1.4-2.6,3.2-4.7,5.6-6.2c2.4-1.5,5.1-2.2,8.1-2.2c3,0,5.7,0.7,8,2.2
			c2.4,1.5,4.2,3.5,5.6,6.1c1.3,2.6,2,5.6,2,9L667.3,727.4z M644,715.8c-2.1,2.1-3.3,4.8-3.6,8.2h22.8c-0.3-3.4-1.5-6.1-3.6-8.2
			c-2.1-2.1-4.7-3.1-7.9-3.1C648.7,712.7,646.1,713.7,644,715.8z"/>
		<path class="st1" d="M690.3,741.2c-2.5-1.5-4.5-3.5-5.9-6.2c-1.4-2.7-2.1-5.7-2.1-9c0-3.3,0.7-6.3,2.1-9c1.4-2.6,3.4-4.7,5.9-6.2
			c2.5-1.5,5.4-2.2,8.5-2.2c2.8,0,5.3,0.6,7.4,1.7c2.2,1.1,3.9,2.8,5.2,5l-3.2,2.3c-1.1-1.7-2.4-3-4-3.8c-1.6-0.8-3.4-1.3-5.3-1.3
			c-2.3,0-4.4,0.6-6.3,1.7c-1.9,1.1-3.3,2.7-4.3,4.7c-1,2-1.6,4.3-1.6,6.9c0,2.6,0.5,5,1.6,7c1,2,2.5,3.6,4.3,4.7
			c1.9,1.1,3.9,1.7,6.3,1.7c1.9,0,3.7-0.4,5.3-1.2c1.6-0.8,3-2.1,4-3.8l3.2,2.3c-1.3,2.2-3,3.9-5.2,5c-2.2,1.1-4.7,1.7-7.4,1.7
			C695.6,743.4,692.8,742.7,690.3,741.2z"/>
		<path class="st1" d="M746.5,741c-0.8,0.8-1.8,1.4-3,1.8c-1.2,0.4-2.5,0.6-3.8,0.6c-3,0-5.3-0.9-7-2.6c-1.6-1.7-2.4-4.2-2.4-7.3
			v-20.6h-5.8V709h5.8v-7.5h4.3v7.5h9.8v3.9h-9.8v20.4c0,2,0.5,3.6,1.4,4.6c1,1.1,2.3,1.6,4.1,1.6c0.9,0,1.8-0.2,2.6-0.5
			c0.8-0.3,1.6-0.7,2.2-1.3L746.5,741z"/>
		<path class="st1" d="M790.4,727.4h-26.9c0.2,3.5,1.5,6.4,3.9,8.6c2.3,2.2,5.3,3.3,8.8,3.3c2,0,3.8-0.4,5.5-1.1
			c1.7-0.8,3.1-1.9,4.3-3.3l2.4,3c-1.4,1.8-3.2,3.2-5.4,4.2c-2.1,1-4.5,1.4-7.1,1.4c-3.3,0-6.2-0.7-8.8-2.2s-4.5-3.6-6-6.2
			c-1.4-2.6-2.1-5.6-2.1-8.9c0-3.3,0.7-6.3,2.1-9c1.4-2.6,3.2-4.7,5.6-6.2c2.4-1.5,5.1-2.2,8.1-2.2c3,0,5.7,0.7,8,2.2
			c2.4,1.5,4.2,3.5,5.6,6.1c1.3,2.6,2,5.6,2,9L790.4,727.4z M767.1,715.8c-2.1,2.1-3.3,4.8-3.6,8.2h22.8c-0.3-3.4-1.5-6.1-3.6-8.2
			c-2.1-2.1-4.7-3.1-7.9-3.1C771.8,712.7,769.2,713.7,767.1,715.8z"/>
		<path class="st1" d="M837.9,695v48.1h-4.2v-6.7c-1.3,2.3-3,4-5.2,5.3c-2.1,1.2-4.6,1.8-7.3,1.8c-3,0-5.8-0.7-8.2-2.2
			c-2.4-1.5-4.4-3.5-5.8-6.2c-1.4-2.6-2.1-5.6-2.1-9c0-3.4,0.7-6.4,2.1-9c1.4-2.6,3.3-4.7,5.8-6.1c2.4-1.4,5.2-2.2,8.2-2.2
			c2.6,0,5,0.6,7.1,1.7c2.1,1.1,3.8,2.8,5.2,5V695H837.9z M827.8,737.7c1.8-1.1,3.2-2.7,4.3-4.7c1-2,1.6-4.3,1.6-6.9
			c0-2.6-0.5-4.9-1.6-6.9c-1-2-2.5-3.6-4.3-4.7c-1.8-1.1-3.8-1.7-6.1-1.7c-2.3,0-4.3,0.6-6.2,1.7c-1.8,1.1-3.2,2.7-4.3,4.7
			c-1,2-1.6,4.3-1.6,6.9c0,2.6,0.5,4.9,1.6,6.9c1,2,2.5,3.6,4.3,4.7c1.8,1.1,3.9,1.7,6.2,1.7C824,739.3,826,738.8,827.8,737.7z"/>
	</g>
</g>
</svg>
