<?xml version="1.0" encoding="utf-8"?>
<!-- Generator: Adobe Illustrator 22.0.1, SVG Export Plug-In . SVG Version: 6.00 Build 0)  -->
<svg version="1.1" id="Layer_1" xmlns="http://www.w3.org/2000/svg" xmlns:xlink="http://www.w3.org/1999/xlink" x="0px" y="0px"
	 viewBox="0 0 1920 1080" style="enable-background:new 0 0 1920 1080;" xml:space="preserve">
<style type="text/css">
	.st0{fill:url(#SVGID_1_);}
	.st1{fill:#FFFFFF;}
	.st2{fill:#4FB848;}
	.st3{fill:url(#SVGID_2_);}
	.st4{opacity:0.44;}
	.st5{opacity:0.44;clip-path:url(#SVGID_6_);}
	.st6{enable-background:new    ;}
	.st7{clip-path:url(#SVGID_10_);}
	.st8{clip-path:url(#SVGID_12_);}
	.st9{fill:#E41C3F;}
	.st10{fill:#FDEB07;}
	.st11{fill:#39C0C4;}
	.st12{fill:none;}
</style>
<g>
	<path class="st1" d="M978.5,453.9c0,0-0.1,0-0.1,0c-5-5.3-12.2-8.7-20.1-8.7c-11.9,0-22,7.5-25.9,18c-7.2,1.7-12.6,8.2-12.6,16
		c0,9.1,7.4,16.5,16.5,16.5c1.8,0,3.6-0.3,5.3-0.9c4.7,3.6,10.5,5.7,16.8,5.7c5.3,0,10.2-1.5,14.4-4c1.8,0.5,3.8,0.8,5.8,0.8
		c12,0,21.7-9.7,21.7-21.7S990.5,453.9,978.5,453.9z M978.5,463.4c-2.1,1.1-5.6,5.5-8.8,10.8c-3.5,5.9-5.4,10.8-5.4,12.7l-0.1,1.4
		c0,0.6-0.5,1-1,1h-6.4c-0.6,0-1-0.4-1-1l-0.1-1.4c-0.1-1.9-2-6.9-5.5-12.7c-3.2-5.3-6.7-9.7-8.8-10.8c-0.4-0.2-0.6-0.7-0.5-1.2
		c0.1-0.5,0.5-0.8,1-0.8h4.7c0.3,0,0.5,0.1,0.7,0.3c3,3.1,5.8,7.5,7.2,9.8c1,1.7,4,6.9,5.4,11.4c1.4-4.5,4.4-9.7,5.4-11.4
		c1.4-2.3,4.2-6.7,7.2-9.8c0.2-0.2,0.5-0.3,0.7-0.3h4.7c0.5,0,0.9,0.3,1,0.8C979.2,462.7,979,463.1,978.5,463.4z"/>
	<g>
		<path class="st1" d="M852,535.1l-13,31H835l-12.9-31h4.1l10.9,26.4l11.1-26.4H852z"/>
		<path class="st1" d="M865.9,527.5c-0.6-0.6-0.8-1.3-0.8-2.1c0-0.8,0.3-1.5,0.8-2.1c0.6-0.6,1.2-0.9,2.1-0.9c0.8,0,1.5,0.3,2.1,0.9
			c0.6,0.6,0.8,1.2,0.8,2c0,0.9-0.3,1.6-0.8,2.2c-0.6,0.6-1.2,0.9-2.1,0.9C867.1,528.4,866.4,528.1,865.9,527.5z M865.9,535.1h3.9
			v31h-3.9V535.1z"/>
		<path class="st1" d="M897.1,536.5c1.8-1.1,4.1-1.6,6.8-1.6v4.1l-0.9-0.1c-3.1,0-5.5,1-7.2,3c-1.7,2-2.6,4.8-2.6,8.4v15.8h-3.9v-31
			h3.8v6.1C893.9,539.1,895.3,537.6,897.1,536.5z"/>
		<path class="st1" d="M936.1,564.2c-0.7,0.7-1.7,1.2-2.8,1.6c-1.1,0.4-2.2,0.6-3.4,0.6c-2.7,0-4.9-0.8-6.3-2.4
			c-1.5-1.6-2.2-3.8-2.2-6.7v-18.7h-5.2v-3.5h5.2v-6.8h3.9v6.8h8.9v3.5h-8.9v18.5c0,1.8,0.4,3.2,1.3,4.2c0.9,1,2.1,1.4,3.8,1.4
			c0.8,0,1.6-0.1,2.4-0.4c0.8-0.3,1.4-0.7,2-1.2L936.1,564.2z"/>
		<path class="st1" d="M959.5,536.5c1.8-1.1,4.1-1.6,6.8-1.6v4.1l-0.9-0.1c-3.1,0-5.5,1-7.2,3c-1.7,2-2.6,4.8-2.6,8.4v15.8h-3.9v-31
			h3.8v6.1C956.3,539.1,957.6,537.6,959.5,536.5z"/>
		<path class="st1" d="M985.8,564.4c-2.3-1.4-4-3.2-5.3-5.6c-1.3-2.4-1.9-5.1-1.9-8.1c0-3,0.6-5.7,1.9-8.1c1.3-2.4,3.1-4.3,5.3-5.6
			c2.3-1.3,4.8-2,7.6-2c2.8,0,5.4,0.7,7.6,2c2.3,1.3,4,3.2,5.3,5.6c1.3,2.4,1.9,5.1,1.9,8.1c0,3-0.6,5.7-1.9,8.1
			c-1.3,2.4-3,4.3-5.3,5.6c-2.3,1.4-4.8,2-7.6,2C990.6,566.4,988.1,565.7,985.8,564.4z M999,561.2c1.6-1,2.9-2.4,3.9-4.3
			c0.9-1.8,1.4-3.9,1.4-6.3s-0.5-4.5-1.4-6.3c-0.9-1.8-2.2-3.3-3.9-4.3c-1.6-1-3.5-1.5-5.6-1.5c-2.1,0-3.9,0.5-5.6,1.5
			c-1.6,1-2.9,2.4-3.9,4.3c-0.9,1.8-1.4,3.9-1.4,6.3s0.5,4.5,1.4,6.3c0.9,1.8,2.2,3.3,3.9,4.3c1.6,1,3.5,1.5,5.6,1.5
			C995.5,562.7,997.3,562.2,999,561.2z"/>
		<path class="st1" d="M1024.6,522.4h3.9v43.7h-3.9V522.4z"/>
		<path class="st1" d="M1047.9,527.5c-0.6-0.6-0.8-1.3-0.8-2.1c0-0.8,0.3-1.5,0.8-2.1c0.6-0.6,1.2-0.9,2.1-0.9
			c0.8,0,1.5,0.3,2.1,0.9c0.6,0.6,0.8,1.2,0.8,2c0,0.9-0.3,1.6-0.8,2.2c-0.6,0.6-1.2,0.9-2.1,0.9
			C1049.1,528.4,1048.4,528.1,1047.9,527.5z M1047.9,535.1h3.9v31h-3.9V535.1z"/>
		<path class="st1" d="M1075.5,564.4c-2.3-1.4-4-3.2-5.3-5.6c-1.3-2.4-1.9-5.1-1.9-8.1c0-3,0.6-5.7,1.9-8.1c1.3-2.4,3.1-4.3,5.3-5.6
			c2.3-1.3,4.8-2,7.6-2c2.8,0,5.4,0.7,7.6,2c2.3,1.3,4,3.2,5.3,5.6c1.3,2.4,1.9,5.1,1.9,8.1c0,3-0.6,5.7-1.9,8.1
			c-1.3,2.4-3,4.3-5.3,5.6c-2.3,1.4-4.8,2-7.6,2C1080.3,566.4,1077.8,565.7,1075.5,564.4z M1088.7,561.2c1.6-1,2.9-2.4,3.9-4.3
			c0.9-1.8,1.4-3.9,1.4-6.3s-0.5-4.5-1.4-6.3c-0.9-1.8-2.2-3.3-3.9-4.3c-1.6-1-3.5-1.5-5.6-1.5c-2.1,0-3.9,0.5-5.6,1.5
			c-1.6,1-2.9,2.4-3.9,4.3c-0.9,1.8-1.4,3.9-1.4,6.3s0.5,4.5,1.4,6.3c0.9,1.8,2.2,3.3,3.9,4.3c1.6,1,3.5,1.5,5.6,1.5
			C1085.2,562.7,1087.1,562.2,1088.7,561.2z"/>
	</g>
	<g>
		<path class="st1" d="M854.3,605.6c-1.1-0.4-1.9-0.9-2.5-1.6l0.6-1.3c0.6,0.6,1.3,1.1,2.2,1.4c0.9,0.4,1.9,0.6,2.9,0.6
			c1.4,0,2.4-0.3,3.1-0.8c0.7-0.5,1-1.2,1-2.1c0-0.7-0.2-1.2-0.6-1.6c-0.4-0.4-0.8-0.7-1.4-0.9s-1.3-0.4-2.3-0.7
			c-1.2-0.3-2.1-0.6-2.8-0.9c-0.7-0.3-1.3-0.7-1.8-1.3c-0.5-0.6-0.7-1.4-0.7-2.4c0-0.8,0.2-1.6,0.6-2.3c0.4-0.7,1.1-1.2,1.9-1.6
			c0.9-0.4,1.9-0.6,3.2-0.6c0.9,0,1.8,0.1,2.6,0.4c0.9,0.3,1.6,0.6,2.2,1.1l-0.6,1.4c-0.7-0.5-1.3-0.8-2.1-1
			c-0.7-0.2-1.5-0.3-2.2-0.3c-1.4,0-2.4,0.3-3.1,0.8c-0.7,0.6-1,1.3-1,2.2c0,0.7,0.2,1.2,0.6,1.6c0.4,0.4,0.9,0.7,1.4,0.9
			c0.6,0.2,1.3,0.4,2.3,0.7c1.1,0.3,2.1,0.6,2.8,0.9c0.7,0.3,1.3,0.7,1.8,1.3c0.5,0.6,0.7,1.4,0.7,2.4c0,0.8-0.2,1.6-0.6,2.3
			c-0.4,0.7-1.1,1.2-1.9,1.6c-0.9,0.4-1.9,0.6-3.2,0.6C856.5,606.2,855.4,606,854.3,605.6z"/>
		<path class="st1" d="M876.2,605.3c-0.3,0.3-0.7,0.5-1.1,0.6c-0.4,0.1-0.9,0.2-1.4,0.2c-1.1,0-1.9-0.3-2.5-0.9
			c-0.6-0.6-0.9-1.5-0.9-2.7v-7.5h-2.1v-1.4h2.1V591h1.6v2.7h3.6v1.4h-3.6v7.4c0,0.7,0.2,1.3,0.5,1.7c0.3,0.4,0.8,0.6,1.5,0.6
			c0.3,0,0.6-0.1,0.9-0.2c0.3-0.1,0.6-0.3,0.8-0.5L876.2,605.3z"/>
		<path class="st1" d="M890,594.8c0.8,0.8,1.2,2,1.2,3.6v7.7h-1.5v-1.9c-0.4,0.6-0.9,1.1-1.6,1.5c-0.7,0.4-1.5,0.5-2.5,0.5
			c-1.3,0-2.3-0.3-3.1-1c-0.8-0.7-1.2-1.5-1.2-2.6c0-1.1,0.4-1.9,1.1-2.5c0.7-0.6,1.9-1,3.4-1h3.7v-0.8c0-1.1-0.3-1.9-0.8-2.4
			c-0.6-0.6-1.4-0.8-2.5-0.8c-0.7,0-1.5,0.1-2.1,0.4c-0.7,0.3-1.3,0.6-1.8,1.1l-0.7-1.2c0.6-0.5,1.3-0.9,2.1-1.2
			c0.8-0.3,1.7-0.4,2.6-0.4C888,593.6,889.2,594,890,594.8z M888.2,604.2c0.6-0.4,1.1-1.1,1.4-1.9v-2H886c-2,0-3,0.7-3,2.2
			c0,0.7,0.3,1.3,0.8,1.7c0.5,0.4,1.2,0.6,2.2,0.6C886.8,604.9,887.6,604.6,888.2,604.2z"/>
		<path class="st1" d="M908.4,593.7l-5.8,13.9c-0.5,1.2-1,2-1.6,2.5s-1.4,0.7-2.2,0.7c-0.6,0-1.1-0.1-1.6-0.3
			c-0.5-0.2-0.9-0.5-1.3-0.8l0.7-1.2c0.6,0.6,1.3,0.9,2.1,0.9c0.5,0,1-0.2,1.4-0.5c0.4-0.3,0.7-0.8,1.1-1.6l0.5-1.2l-5.2-12.4h1.6
			l4.4,10.5l4.4-10.5H908.4z"/>
		<path class="st1" d="M926.1,605.1c-1.2-0.7-2.2-1.7-2.9-3c-0.7-1.3-1.1-2.7-1.1-4.3c0-1.6,0.4-3,1.1-4.3c0.7-1.3,1.7-2.3,2.9-3
			c1.2-0.7,2.6-1.1,4.2-1.1c1.2,0,2.2,0.2,3.2,0.6c1,0.4,1.8,1,2.5,1.8l-1,1.1c-1.2-1.3-2.7-2-4.6-2c-1.2,0-2.3,0.3-3.4,0.9
			c-1,0.6-1.8,1.4-2.4,2.4c-0.6,1-0.9,2.2-0.9,3.5s0.3,2.4,0.9,3.5c0.6,1,1.4,1.9,2.4,2.4c1,0.6,2.1,0.9,3.4,0.9
			c1.9,0,3.4-0.7,4.6-2l1,1.1c-0.7,0.8-1.5,1.4-2.5,1.8c-1,0.4-2.1,0.6-3.2,0.6C928.7,606.2,927.3,605.8,926.1,605.1z"/>
		<path class="st1" d="M943.7,605.4c-0.9-0.5-1.6-1.3-2.1-2.2c-0.5-1-0.8-2-0.8-3.2c0-1.2,0.3-2.3,0.8-3.2c0.5-1,1.2-1.7,2.1-2.2
			c0.9-0.5,1.9-0.8,3-0.8c1.1,0,2.1,0.3,3,0.8c0.9,0.5,1.6,1.3,2.1,2.2c0.5,1,0.8,2,0.8,3.2c0,1.2-0.3,2.3-0.8,3.2
			c-0.5,1-1.2,1.7-2.1,2.2c-0.9,0.5-1.9,0.8-3,0.8C945.6,606.2,944.6,605.9,943.7,605.4z M949,604.1c0.7-0.4,1.2-1,1.5-1.7
			c0.4-0.7,0.6-1.6,0.6-2.5c0-0.9-0.2-1.8-0.6-2.5c-0.4-0.7-0.9-1.3-1.5-1.7c-0.7-0.4-1.4-0.6-2.2-0.6c-0.8,0-1.6,0.2-2.2,0.6
			c-0.7,0.4-1.2,1-1.6,1.7c-0.4,0.7-0.6,1.6-0.6,2.5c0,0.9,0.2,1.8,0.6,2.5c0.4,0.7,0.9,1.3,1.6,1.7c0.7,0.4,1.4,0.6,2.2,0.6
			C947.6,604.7,948.3,604.5,949,604.1z"/>
		<path class="st1" d="M968.7,594.9c0.9,0.9,1.3,2.2,1.3,3.9v7.2h-1.6v-7c0-1.3-0.3-2.3-0.9-2.9c-0.6-0.7-1.5-1-2.6-1
			c-1.3,0-2.3,0.4-3,1.2c-0.7,0.8-1.1,1.9-1.1,3.3v6.5h-1.6v-12.4h1.5v2.3c0.4-0.8,1-1.3,1.8-1.8c0.8-0.4,1.6-0.6,2.7-0.6
			C966.7,593.6,967.8,594,968.7,594.9z"/>
		<path class="st1" d="M987.1,594.9c0.9,0.9,1.3,2.2,1.3,3.9v7.2h-1.6v-7c0-1.3-0.3-2.3-0.9-2.9c-0.6-0.7-1.5-1-2.6-1
			c-1.3,0-2.3,0.4-3,1.2c-0.7,0.8-1.1,1.9-1.1,3.3v6.5h-1.6v-12.4h1.5v2.3c0.4-0.8,1-1.3,1.8-1.8c0.8-0.4,1.6-0.6,2.7-0.6
			C985,593.6,986.2,594,987.1,594.9z"/>
		<path class="st1" d="M1006.2,600.4h-9.8c0.1,1.3,0.6,2.3,1.4,3.1c0.8,0.8,1.9,1.2,3.2,1.2c0.7,0,1.4-0.1,2-0.4
			c0.6-0.3,1.1-0.7,1.6-1.2l0.9,1.1c-0.5,0.7-1.2,1.2-1.9,1.5c-0.8,0.3-1.6,0.5-2.6,0.5c-1.2,0-2.3-0.3-3.2-0.8
			c-0.9-0.5-1.6-1.3-2.2-2.2c-0.5-1-0.8-2-0.8-3.2c0-1.2,0.2-2.3,0.7-3.2c0.5-1,1.2-1.7,2-2.2c0.9-0.5,1.8-0.8,2.9-0.8
			c1.1,0,2.1,0.3,2.9,0.8c0.9,0.5,1.5,1.3,2,2.2s0.7,2,0.7,3.3L1006.2,600.4z M997.7,596.2c-0.8,0.8-1.2,1.8-1.3,3h8.3
			c-0.1-1.2-0.5-2.2-1.3-3c-0.8-0.8-1.7-1.1-2.9-1.1C999.5,595,998.5,595.4,997.7,596.2z"/>
		<path class="st1" d="M1014.5,605.4c-0.9-0.5-1.6-1.3-2.1-2.2c-0.5-1-0.8-2.1-0.8-3.3c0-1.2,0.3-2.3,0.8-3.2c0.5-1,1.2-1.7,2.1-2.2
			s1.9-0.8,3.1-0.8c1,0,1.9,0.2,2.7,0.6c0.8,0.4,1.4,1,1.9,1.8l-1.2,0.8c-0.4-0.6-0.9-1.1-1.5-1.4c-0.6-0.3-1.2-0.5-1.9-0.5
			c-0.8,0-1.6,0.2-2.3,0.6c-0.7,0.4-1.2,1-1.6,1.7c-0.4,0.7-0.6,1.6-0.6,2.5c0,1,0.2,1.8,0.6,2.5c0.4,0.7,0.9,1.3,1.6,1.7
			c0.7,0.4,1.4,0.6,2.3,0.6c0.7,0,1.3-0.1,1.9-0.4c0.6-0.3,1.1-0.8,1.5-1.4l1.2,0.8c-0.5,0.8-1.1,1.4-1.9,1.8
			c-0.8,0.4-1.7,0.6-2.7,0.6C1016.5,606.2,1015.5,605.9,1014.5,605.4z"/>
		<path class="st1" d="M1034.9,605.3c-0.3,0.3-0.7,0.5-1.1,0.6c-0.4,0.1-0.9,0.2-1.4,0.2c-1.1,0-1.9-0.3-2.5-0.9
			c-0.6-0.6-0.9-1.5-0.9-2.7v-7.5h-2.1v-1.4h2.1V591h1.6v2.7h3.6v1.4h-3.6v7.4c0,0.7,0.2,1.3,0.5,1.7c0.3,0.4,0.8,0.6,1.5,0.6
			c0.3,0,0.6-0.1,0.9-0.2c0.3-0.1,0.6-0.3,0.8-0.5L1034.9,605.3z"/>
		<path class="st1" d="M1050.9,600.4h-9.8c0.1,1.3,0.6,2.3,1.4,3.1c0.8,0.8,1.9,1.2,3.2,1.2c0.7,0,1.4-0.1,2-0.4
			c0.6-0.3,1.1-0.7,1.6-1.2l0.9,1.1c-0.5,0.7-1.2,1.2-1.9,1.5c-0.8,0.3-1.6,0.5-2.6,0.5c-1.2,0-2.3-0.3-3.2-0.8s-1.6-1.3-2.2-2.2
			c-0.5-1-0.8-2-0.8-3.2c0-1.2,0.2-2.3,0.7-3.2c0.5-1,1.2-1.7,2-2.2s1.8-0.8,2.9-0.8c1.1,0,2.1,0.3,2.9,0.8c0.9,0.5,1.5,1.3,2,2.2
			s0.7,2,0.7,3.3L1050.9,600.4z M1042.4,596.2c-0.8,0.8-1.2,1.8-1.3,3h8.3c-0.1-1.2-0.5-2.2-1.3-3c-0.8-0.8-1.7-1.1-2.9-1.1
			C1044.1,595,1043.2,595.4,1042.4,596.2z"/>
		<path class="st1" d="M1068.2,588.6v17.5h-1.5v-2.4c-0.5,0.8-1.1,1.5-1.9,1.9c-0.8,0.4-1.7,0.7-2.6,0.7c-1.1,0-2.1-0.3-3-0.8
			c-0.9-0.5-1.6-1.3-2.1-2.2c-0.5-1-0.8-2-0.8-3.3c0-1.2,0.3-2.3,0.8-3.3c0.5-1,1.2-1.7,2.1-2.2c0.9-0.5,1.9-0.8,3-0.8
			c0.9,0,1.8,0.2,2.6,0.6c0.8,0.4,1.4,1,1.9,1.8v-7.4H1068.2z M1064.5,604.1c0.7-0.4,1.2-1,1.6-1.7c0.4-0.7,0.6-1.6,0.6-2.5
			c0-0.9-0.2-1.8-0.6-2.5c-0.4-0.7-0.9-1.3-1.6-1.7c-0.7-0.4-1.4-0.6-2.2-0.6c-0.8,0-1.6,0.2-2.2,0.6c-0.7,0.4-1.2,1-1.6,1.7
			c-0.4,0.7-0.6,1.6-0.6,2.5c0,0.9,0.2,1.8,0.6,2.5c0.4,0.7,0.9,1.3,1.6,1.7c0.7,0.4,1.4,0.6,2.2,0.6
			C1063.1,604.7,1063.8,604.5,1064.5,604.1z"/>
	</g>
</g>
</svg>
