<?xml version="1.0" encoding="utf-8"?>
<!-- Generator: Adobe Illustrator 22.0.1, SVG Export Plug-In . SVG Version: 6.00 Build 0)  -->
<svg version="1.1" id="Layer_1" xmlns="http://www.w3.org/2000/svg" xmlns:xlink="http://www.w3.org/1999/xlink" x="0px" y="0px"
	 viewBox="0 0 36 36" style="enable-background:new 0 0 36 36;" xml:space="preserve">
<style type="text/css">
	.st0{fill:none;stroke:#FFFFFF;stroke-width:2;stroke-linecap:round;stroke-linejoin:round;}
</style>
<path class="st0" d="M13.5,28.5C6,30.8,6,24.8,3,24 M24,33v-5.8c0.1-1.4-0.4-2.9-1.4-3.9c4.7-0.5,9.7-2.3,9.7-10.5
	c0-2.1-0.8-4.1-2.3-5.6c0.7-1.8,0.6-3.9-0.1-5.7c0,0-1.8-0.5-5.9,2.2c-3.4-0.9-7.1-0.9-10.5,0C9.4,1,7.6,1.5,7.6,1.5
	C6.9,3.3,6.8,5.3,7.5,7.2C6,8.7,5.2,10.7,5.3,12.8c0,8.1,5,9.9,9.7,10.5c-1,1-1.5,2.4-1.4,3.9V33"/>
</svg>
