<svg width="36" height="36" viewBox="0 0 36 36" fill="none" xmlns="http://www.w3.org/2000/svg">
<path fill-rule="evenodd" clip-rule="evenodd" d="M13.4736 8.40858V27.0931C18.028 26.4303 21.5264 22.5001 21.5264 17.7508C21.5264 13.0016 18.028 9.07143 13.4736 8.40858ZM12.4342 29.8846C12.326 29.8875 12.2175 29.8889 12.1086 29.8889C5.4212 29.8889 0 24.4545 0 17.7508C0 11.0472 5.4212 5.61279 12.1086 5.61279C12.2175 5.61279 12.326 5.61423 12.4342 5.6171C12.4754 5.61424 12.5169 5.61279 12.5587 5.61279H35V29.8889H12.5587C12.5169 29.8889 12.4754 29.8875 12.4342 29.8846ZM10.7828 27.0987V8.40296C6.20925 9.04891 2.6908 12.988 2.6908 17.7508C2.6908 22.5137 6.20925 26.4528 10.7828 27.0987ZM19.72 8.31014H32.3092V27.1916H19.72C22.4632 24.9663 24.2172 21.5639 24.2172 17.7508C24.2172 13.9378 22.4632 10.5354 19.72 8.31014Z" fill="black"/>
</svg>
