<?xml version="1.0" encoding="utf-8"?>
<!-- Generator: Adobe Illustrator 22.0.1, SVG Export Plug-In . SVG Version: 6.00 Build 0)  -->
<svg version="1.1" id="Layer_4" xmlns="http://www.w3.org/2000/svg" xmlns:xlink="http://www.w3.org/1999/xlink" x="0px" y="0px"
	 viewBox="0 0 300 400" style="enable-background:new 0 0 300 400;" xml:space="preserve">
<style type="text/css">
	.st0{fill:#7DC242;}
	.st1{opacity:6.000000e-02;}
	.st2{clip-path:url(#SVGID_2_);}
	.st3{fill:none;stroke:#FFFFFF;stroke-miterlimit:10;}
	.st4{fill:none;stroke:#353535;stroke-miterlimit:10;}
	.st5{fill:url(#SVGID_3_);}
	.st6{fill:url(#SVGID_4_);}
	.st7{fill:url(#SVGID_5_);}
	.st8{fill:url(#SVGID_6_);}
	.st9{fill:#A41E21;}
	.st10{fill:#FFFFFF;}
	.st11{fill:#CFCFCE;}
	.st12{fill:#BCBCBC;}
	.st13{fill:#C6DDD9;}
	.st14{fill:#75CABF;}
	.st15{fill:#1CAE97;}
	.st16{fill:#F47F72;}
	.st17{opacity:0.19;clip-path:url(#SVGID_8_);fill:none;stroke:#FFFFFF;stroke-width:4;stroke-miterlimit:10;}
	.st18{clip-path:url(#SVGID_10_);}
	.st19{fill:none;stroke:#16498C;stroke-miterlimit:10;}
	.st20{opacity:0.23;}
	.st21{fill:#171717;}
	.st22{fill:none;stroke:#FFFFFF;stroke-width:23;stroke-linecap:round;stroke-linejoin:round;stroke-miterlimit:10;}
	.st23{fill:url(#SVGID_11_);}
	.st24{fill:url(#SVGID_12_);}
	.st25{fill:url(#SVGID_13_);}
	.st26{fill:#181818;}
	.st27{fill:#101010;}
	.st28{opacity:0.24;}
	.st29{fill:#D93636;}
	.st30{fill:#C42126;}
	.st31{fill:#D62027;}
	.st32{opacity:0.39;clip-path:url(#SVGID_15_);fill:none;stroke:#FFFFFF;stroke-width:7;stroke-miterlimit:10;}
	.st33{opacity:0.39;clip-path:url(#SVGID_15_);fill:none;stroke:#FFFFFF;stroke-width:2;stroke-miterlimit:10;}
</style>
<g>
	<rect x="0.2" y="0.2" class="st0" width="300" height="400"/>
</g>
<g class="st1">
	<defs>
		<rect id="SVGID_1_" x="0" y="0" class="st1" width="300" height="400"/>
	</defs>
	<clipPath id="SVGID_2_">
		<use xlink:href="#SVGID_1_"  style="overflow:visible;"/>
	</clipPath>
	<g class="st2">
		<polygon class="st3" points="1.2,-7.7 -7.6,7.6 10.1,7.6 		"/>
		<polygon class="st3" points="85.6,-7.7 76.8,7.6 94.5,7.6 		"/>
		<polygon class="st3" points="141.9,-7.7 133.1,7.6 150.8,7.6 		"/>
		<polygon class="st3" points="29.4,-7.7 20.5,7.6 38.2,7.6 		"/>
		<polygon class="st3" points="57.5,-7.7 48.6,7.6 66.4,7.6 		"/>
		<polygon class="st3" points="198.2,-7.7 189.3,7.6 207.1,7.6 		"/>
		<polygon class="st3" points="254.5,-7.7 245.6,7.6 263.3,7.6 		"/>
		<polygon class="st3" points="113.8,-7.7 104.9,7.6 122.7,7.6 		"/>
		<polygon class="st3" points="170.1,-7.7 161.2,7.6 178.9,7.6 		"/>
		<polygon class="st3" points="226.3,-7.7 217.5,7.6 235.2,7.6 		"/>
		<polygon class="st3" points="282.6,-7.7 273.7,7.6 291.5,7.6 		"/>
	</g>
	<g class="st2">
		<polygon class="st3" points="1.2,19.3 -7.6,34.7 10.1,34.7 		"/>
		<polygon class="st3" points="85.6,19.3 76.8,34.7 94.5,34.7 		"/>
		<polygon class="st3" points="141.9,19.3 133.1,34.7 150.8,34.7 		"/>
		<polygon class="st3" points="29.4,19.3 20.5,34.7 38.2,34.7 		"/>
		<polygon class="st3" points="57.5,19.3 48.6,34.7 66.4,34.7 		"/>
		<polygon class="st3" points="198.2,19.3 189.3,34.7 207.1,34.7 		"/>
		<polygon class="st3" points="254.5,19.3 245.6,34.7 263.3,34.7 		"/>
		<polygon class="st3" points="113.8,19.3 104.9,34.7 122.7,34.7 		"/>
		<polygon class="st3" points="170.1,19.3 161.2,34.7 178.9,34.7 		"/>
		<polygon class="st3" points="226.3,19.3 217.5,34.7 235.2,34.7 		"/>
		<polygon class="st3" points="282.6,19.3 273.7,34.7 291.5,34.7 		"/>
	</g>
	<g class="st2">
		<polygon class="st3" points="1.2,46.4 -7.6,61.8 10.1,61.8 		"/>
		<polygon class="st3" points="85.6,46.4 76.8,61.8 94.5,61.8 		"/>
		<polygon class="st3" points="141.9,46.4 133.1,61.8 150.8,61.8 		"/>
		<polygon class="st3" points="29.4,46.4 20.5,61.8 38.2,61.8 		"/>
		<polygon class="st3" points="57.5,46.4 48.6,61.8 66.4,61.8 		"/>
		<polygon class="st3" points="198.2,46.4 189.3,61.8 207.1,61.8 		"/>
		<polygon class="st3" points="254.5,46.4 245.6,61.8 263.3,61.8 		"/>
		<polygon class="st3" points="113.8,46.4 104.9,61.8 122.7,61.8 		"/>
		<polygon class="st3" points="170.1,46.4 161.2,61.8 178.9,61.8 		"/>
		<polygon class="st3" points="226.3,46.4 217.5,61.8 235.2,61.8 		"/>
		<polygon class="st3" points="282.6,46.4 273.7,61.8 291.5,61.8 		"/>
	</g>
	<g class="st2">
		<polygon class="st3" points="1.2,73.5 -7.6,88.9 10.1,88.9 		"/>
		<polygon class="st3" points="85.6,73.5 76.8,88.9 94.5,88.9 		"/>
		<polygon class="st3" points="141.9,73.5 133.1,88.9 150.8,88.9 		"/>
		<polygon class="st3" points="29.4,73.5 20.5,88.9 38.2,88.9 		"/>
		<polygon class="st3" points="57.5,73.5 48.6,88.9 66.4,88.9 		"/>
		<polygon class="st3" points="198.2,73.5 189.3,88.9 207.1,88.9 		"/>
		<polygon class="st3" points="254.5,73.5 245.6,88.9 263.3,88.9 		"/>
		<polygon class="st3" points="113.8,73.5 104.9,88.9 122.7,88.9 		"/>
		<polygon class="st3" points="170.1,73.5 161.2,88.9 178.9,88.9 		"/>
		<polygon class="st3" points="226.3,73.5 217.5,88.9 235.2,88.9 		"/>
		<polygon class="st3" points="282.6,73.5 273.7,88.9 291.5,88.9 		"/>
	</g>
	<g class="st2">
		<polygon class="st3" points="1.2,100.6 -7.6,115.9 10.1,115.9 		"/>
		<polygon class="st3" points="85.6,100.6 76.8,115.9 94.5,115.9 		"/>
		<polygon class="st3" points="141.9,100.6 133.1,115.9 150.8,115.9 		"/>
		<polygon class="st3" points="29.4,100.6 20.5,115.9 38.2,115.9 		"/>
		<polygon class="st3" points="57.5,100.6 48.6,115.9 66.4,115.9 		"/>
		<polygon class="st3" points="198.2,100.6 189.3,115.9 207.1,115.9 		"/>
		<polygon class="st3" points="254.5,100.6 245.6,115.9 263.3,115.9 		"/>
		<polygon class="st3" points="113.8,100.6 104.9,115.9 122.7,115.9 		"/>
		<polygon class="st3" points="170.1,100.6 161.2,115.9 178.9,115.9 		"/>
		<polygon class="st3" points="226.3,100.6 217.5,115.9 235.2,115.9 		"/>
		<polygon class="st3" points="282.6,100.6 273.7,115.9 291.5,115.9 		"/>
	</g>
	<g class="st2">
		<polygon class="st3" points="1.2,127.7 -7.6,143 10.1,143 		"/>
		<polygon class="st3" points="85.6,127.7 76.8,143 94.5,143 		"/>
		<polygon class="st3" points="141.9,127.7 133.1,143 150.8,143 		"/>
		<polygon class="st3" points="29.4,127.7 20.5,143 38.2,143 		"/>
		<polygon class="st3" points="57.5,127.7 48.6,143 66.4,143 		"/>
		<polygon class="st3" points="198.2,127.7 189.3,143 207.1,143 		"/>
		<polygon class="st3" points="254.5,127.7 245.6,143 263.3,143 		"/>
		<polygon class="st3" points="113.8,127.7 104.9,143 122.7,143 		"/>
		<polygon class="st3" points="170.1,127.7 161.2,143 178.9,143 		"/>
		<polygon class="st3" points="226.3,127.7 217.5,143 235.2,143 		"/>
		<polygon class="st3" points="282.6,127.7 273.7,143 291.5,143 		"/>
	</g>
	<g class="st2">
		<polygon class="st3" points="1.2,154.7 -7.6,170.1 10.1,170.1 		"/>
		<polygon class="st3" points="85.6,154.7 76.8,170.1 94.5,170.1 		"/>
		<polygon class="st3" points="141.9,154.7 133.1,170.1 150.8,170.1 		"/>
		<polygon class="st3" points="29.4,154.7 20.5,170.1 38.2,170.1 		"/>
		<polygon class="st3" points="57.5,154.7 48.6,170.1 66.4,170.1 		"/>
		<polygon class="st3" points="198.2,154.7 189.3,170.1 207.1,170.1 		"/>
		<polygon class="st3" points="254.5,154.7 245.6,170.1 263.3,170.1 		"/>
		<polygon class="st3" points="113.8,154.7 104.9,170.1 122.7,170.1 		"/>
		<polygon class="st3" points="170.1,154.7 161.2,170.1 178.9,170.1 		"/>
		<polygon class="st3" points="226.3,154.7 217.5,170.1 235.2,170.1 		"/>
		<polygon class="st3" points="282.6,154.7 273.7,170.1 291.5,170.1 		"/>
	</g>
	<g class="st2">
		<polygon class="st3" points="1.2,181.8 -7.6,197.2 10.1,197.2 		"/>
		<polygon class="st3" points="85.6,181.8 76.8,197.2 94.5,197.2 		"/>
		<polygon class="st3" points="141.9,181.8 133.1,197.2 150.8,197.2 		"/>
		<polygon class="st3" points="29.4,181.8 20.5,197.2 38.2,197.2 		"/>
		<polygon class="st3" points="57.5,181.8 48.6,197.2 66.4,197.2 		"/>
		<polygon class="st3" points="198.2,181.8 189.3,197.2 207.1,197.2 		"/>
		<polygon class="st3" points="254.5,181.8 245.6,197.2 263.3,197.2 		"/>
		<polygon class="st3" points="113.8,181.8 104.9,197.2 122.7,197.2 		"/>
		<polygon class="st3" points="170.1,181.8 161.2,197.2 178.9,197.2 		"/>
		<polygon class="st3" points="226.3,181.8 217.5,197.2 235.2,197.2 		"/>
		<polygon class="st3" points="282.6,181.8 273.7,197.2 291.5,197.2 		"/>
	</g>
	<g class="st2">
		<polygon class="st3" points="1.2,208.9 -7.6,224.2 10.1,224.2 		"/>
		<polygon class="st3" points="85.6,208.9 76.8,224.2 94.5,224.2 		"/>
		<polygon class="st3" points="141.9,208.9 133.1,224.2 150.8,224.2 		"/>
		<polygon class="st3" points="29.4,208.9 20.5,224.2 38.2,224.2 		"/>
		<polygon class="st3" points="57.5,208.9 48.6,224.2 66.4,224.2 		"/>
		<polygon class="st3" points="198.2,208.9 189.3,224.2 207.1,224.2 		"/>
		<polygon class="st3" points="254.5,208.9 245.6,224.2 263.3,224.2 		"/>
		<polygon class="st3" points="113.8,208.9 104.9,224.2 122.7,224.2 		"/>
		<polygon class="st3" points="170.1,208.9 161.2,224.2 178.9,224.2 		"/>
		<polygon class="st3" points="226.3,208.9 217.5,224.2 235.2,224.2 		"/>
		<polygon class="st3" points="282.6,208.9 273.7,224.2 291.5,224.2 		"/>
	</g>
	<g class="st2">
		<polygon class="st3" points="1.2,236 -7.6,251.3 10.1,251.3 		"/>
		<polygon class="st3" points="85.6,236 76.8,251.3 94.5,251.3 		"/>
		<polygon class="st3" points="141.9,236 133.1,251.3 150.8,251.3 		"/>
		<polygon class="st3" points="29.4,236 20.5,251.3 38.2,251.3 		"/>
		<polygon class="st3" points="57.5,236 48.6,251.3 66.4,251.3 		"/>
		<polygon class="st3" points="198.2,236 189.3,251.3 207.1,251.3 		"/>
		<polygon class="st3" points="254.5,236 245.6,251.3 263.3,251.3 		"/>
		<polygon class="st3" points="113.8,236 104.9,251.3 122.7,251.3 		"/>
		<polygon class="st3" points="170.1,236 161.2,251.3 178.9,251.3 		"/>
		<polygon class="st3" points="226.3,236 217.5,251.3 235.2,251.3 		"/>
		<polygon class="st3" points="282.6,236 273.7,251.3 291.5,251.3 		"/>
	</g>
	<g class="st2">
		<polygon class="st3" points="1.2,263 -7.6,278.4 10.1,278.4 		"/>
		<polygon class="st3" points="85.6,263 76.8,278.4 94.5,278.4 		"/>
		<polygon class="st3" points="141.9,263 133.1,278.4 150.8,278.4 		"/>
		<polygon class="st3" points="29.4,263 20.5,278.4 38.2,278.4 		"/>
		<polygon class="st3" points="57.5,263 48.6,278.4 66.4,278.4 		"/>
		<polygon class="st3" points="198.2,263 189.3,278.4 207.1,278.4 		"/>
		<polygon class="st3" points="254.5,263 245.6,278.4 263.3,278.4 		"/>
		<polygon class="st3" points="113.8,263 104.9,278.4 122.7,278.4 		"/>
		<polygon class="st3" points="170.1,263 161.2,278.4 178.9,278.4 		"/>
		<polygon class="st3" points="226.3,263 217.5,278.4 235.2,278.4 		"/>
		<polygon class="st3" points="282.6,263 273.7,278.4 291.5,278.4 		"/>
	</g>
	<g class="st2">
		<polygon class="st3" points="1.2,290.1 -7.6,305.5 10.1,305.5 		"/>
		<polygon class="st3" points="85.6,290.1 76.8,305.5 94.5,305.5 		"/>
		<polygon class="st3" points="141.9,290.1 133.1,305.5 150.8,305.5 		"/>
		<polygon class="st3" points="29.4,290.1 20.5,305.5 38.2,305.5 		"/>
		<polygon class="st3" points="57.5,290.1 48.6,305.5 66.4,305.5 		"/>
		<polygon class="st3" points="198.2,290.1 189.3,305.5 207.1,305.5 		"/>
		<polygon class="st3" points="254.5,290.1 245.6,305.5 263.3,305.5 		"/>
		<polygon class="st3" points="113.8,290.1 104.9,305.5 122.7,305.5 		"/>
		<polygon class="st3" points="170.1,290.1 161.2,305.5 178.9,305.5 		"/>
		<polygon class="st3" points="226.3,290.1 217.5,305.5 235.2,305.5 		"/>
		<polygon class="st3" points="282.6,290.1 273.7,305.5 291.5,305.5 		"/>
	</g>
	<g class="st2">
		<polygon class="st3" points="1.1,316.7 -7.8,332 10,332.1 		"/>
		<polygon class="st3" points="85.6,317 76.6,332.4 94.4,332.4 		"/>
		<polygon class="st3" points="141.8,317.2 132.9,332.6 150.6,332.6 		"/>
		<polygon class="st3" points="29.3,316.8 20.3,332.1 38.1,332.2 		"/>
		<polygon class="st3" points="57.4,316.9 48.5,332.2 66.2,332.3 		"/>
		<polygon class="st3" points="198.1,317.5 189.2,332.8 206.9,332.9 		"/>
		<polygon class="st3" points="254.4,317.7 245.4,333 263.2,333.1 		"/>
		<polygon class="st3" points="113.7,317.1 104.8,332.5 122.5,332.5 		"/>
		<polygon class="st3" points="170,317.4 161,332.7 178.8,332.8 		"/>
		<polygon class="st3" points="226.2,317.6 217.3,332.9 235.1,333 		"/>
		<polygon class="st3" points="282.5,317.8 273.6,333.1 291.3,333.2 		"/>
	</g>
	<g class="st2">
		<polygon class="st3" points="1,343.8 -7.9,359.1 9.8,359.2 		"/>
		<polygon class="st3" points="85.4,344.1 76.5,359.4 94.3,359.5 		"/>
		<polygon class="st3" points="141.7,344.3 132.8,359.7 150.5,359.7 		"/>
		<polygon class="st3" points="29.2,343.9 20.2,359.2 38,359.3 		"/>
		<polygon class="st3" points="57.3,344 48.4,359.3 66.1,359.4 		"/>
		<polygon class="st3" points="198,344.5 189.1,359.9 206.8,359.9 		"/>
		<polygon class="st3" points="254.3,344.8 245.3,360.1 263.1,360.2 		"/>
		<polygon class="st3" points="113.6,344.2 104.6,359.5 122.4,359.6 		"/>
		<polygon class="st3" points="169.9,344.4 160.9,359.8 178.7,359.8 		"/>
		<polygon class="st3" points="226.1,344.7 217.2,360 234.9,360.1 		"/>
		<polygon class="st3" points="282.4,344.9 273.5,360.2 291.2,360.3 		"/>
	</g>
	<g class="st2">
		<polygon class="st3" points="0.9,370.8 -8,386.2 9.7,386.2 		"/>
		<polygon class="st3" points="85.3,371.2 76.4,386.5 94.1,386.6 		"/>
		<polygon class="st3" points="141.6,371.4 132.7,386.7 150.4,386.8 		"/>
		<polygon class="st3" points="29.1,370.9 20.1,386.3 37.9,386.4 		"/>
		<polygon class="st3" points="57.2,371.1 48.3,386.4 66,386.5 		"/>
		<polygon class="st3" points="197.9,371.6 189,387 206.7,387 		"/>
		<polygon class="st3" points="254.2,371.8 245.2,387.2 263,387.3 		"/>
		<polygon class="st3" points="113.5,371.3 104.5,386.6 122.3,386.7 		"/>
		<polygon class="st3" points="169.7,371.5 160.8,386.8 178.6,386.9 		"/>
		<polygon class="st3" points="226,371.7 217.1,387.1 234.8,387.1 		"/>
		<polygon class="st3" points="282.3,372 273.4,387.3 291.1,387.4 		"/>
	</g>
	<g class="st2">
		<polygon class="st4" points="0.8,397.9 -8.1,413.2 9.6,413.3 		"/>
		<polygon class="st4" points="85.2,398.3 76.3,413.6 94,413.7 		"/>
		<polygon class="st4" points="141.5,398.5 132.6,413.8 150.3,413.9 		"/>
		<polygon class="st4" points="29,398 20,413.4 37.8,413.4 		"/>
		<polygon class="st4" points="57.1,398.1 48.2,413.5 65.9,413.5 		"/>
		<polygon class="st4" points="197.8,398.7 188.8,414 206.6,414.1 		"/>
		<polygon class="st4" points="254.1,398.9 245.1,414.3 262.9,414.3 		"/>
		<polygon class="st4" points="113.4,398.4 104.4,413.7 122.2,413.8 		"/>
		<polygon class="st4" points="169.6,398.6 160.7,413.9 178.5,414 		"/>
		<polygon class="st4" points="225.9,398.8 217,414.1 234.7,414.2 		"/>
		<polygon class="st4" points="282.2,399 273.3,414.4 291,414.4 		"/>
	</g>
	<use xlink:href="#SVGID_1_"  style="overflow:visible;fill:none;stroke:#FFFFFF;stroke-miterlimit:10;"/>
</g>
<g>
	<path class="st10" d="M22,319.5v2.8h4.6v2.6H22v3.1h5.2v2.7h-8.6v-14h8.6v2.7H22z"/>
	<path class="st10" d="M55.3,316.8v14h-3.4v-8.4l-3.1,8.4H46l-3.2-8.4v8.4h-3.4v-14h4l3.9,9.7l3.9-9.7H55.3z"/>
	<path class="st10" d="M77.9,323.5c-0.4,0.7-0.9,1.2-1.7,1.6c-0.8,0.4-1.7,0.6-2.9,0.6h-2.1v5h-3.4v-14h5.5c1.1,0,2.1,0.2,2.8,0.6
		c0.8,0.4,1.4,0.9,1.7,1.6c0.4,0.7,0.6,1.5,0.6,2.3C78.5,322.1,78.3,322.8,77.9,323.5z M74.5,322.6c0.3-0.3,0.5-0.7,0.5-1.3
		s-0.2-1-0.5-1.3s-0.8-0.5-1.5-0.5h-1.9v3.5H73C73.7,323,74.2,322.9,74.5,322.6z"/>
	<path class="st10" d="M93.7,328.2h4.5v2.6h-7.9v-14h3.4V328.2z"/>
	<path class="st10" d="M112.8,330c-1.1-0.6-2-1.5-2.6-2.6c-0.6-1.1-1-2.3-1-3.7c0-1.4,0.3-2.6,1-3.7c0.6-1.1,1.5-1.9,2.6-2.6
		s2.3-0.9,3.6-0.9c1.3,0,2.5,0.3,3.6,0.9c1.1,0.6,2,1.5,2.6,2.6s1,2.3,1,3.7c0,1.4-0.3,2.6-1,3.7s-1.5,2-2.6,2.6s-2.3,0.9-3.6,0.9
		C115.1,330.9,113.9,330.6,112.8,330z M119.1,326.7c0.7-0.7,1-1.7,1-3c0-1.2-0.3-2.2-1-3c-0.7-0.7-1.6-1.1-2.7-1.1
		c-1.1,0-2,0.4-2.7,1.1c-0.7,0.7-1,1.7-1,3c0,1.2,0.3,2.2,1,3c0.7,0.7,1.6,1.1,2.7,1.1C117.5,327.8,118.4,327.4,119.1,326.7z"/>
	<path class="st10" d="M147.5,316.8l-4.9,9.4v4.6h-3.4v-4.6l-4.9-9.4h3.9l2.7,5.9l2.7-5.9H147.5z"/>
	<path class="st10" d="M162.3,319.5v2.8h4.6v2.6h-4.6v3.1h5.2v2.7h-8.6v-14h8.6v2.7H162.3z"/>
	<path class="st10" d="M183.2,319.5v2.8h4.6v2.6h-4.6v3.1h5.2v2.7h-8.6v-14h8.6v2.7H183.2z"/>
	<path class="st10" d="M34.5,340.8v14h-3.4v-8.4l-3.1,8.4h-2.8l-3.2-8.4v8.4h-3.4v-14h4l3.9,9.7l3.9-9.7H34.5z"/>
	<path class="st10" d="M55.7,352.3h-5.2l-0.8,2.5H46l5.1-14h4l5.1,14h-3.6L55.7,352.3z M54.8,349.7l-1.7-5.1l-1.7,5.1H54.8z"/>
	<path class="st10" d="M84.2,354.8h-3.4l-5.7-8.7v8.7h-3.4v-14h3.4l5.7,8.7v-8.7h3.4V354.8z"/>
	<path class="st10" d="M105.5,352.3h-5.2l-0.8,2.5h-3.6l5.1-14h4l5.1,14h-3.6L105.5,352.3z M104.6,349.7l-1.7-5.1l-1.7,5.1H104.6z"
		/>
	<path class="st10" d="M130.8,345.2c-0.3-0.5-0.6-0.8-1.1-1.1c-0.5-0.2-1-0.4-1.7-0.4c-1.1,0-2,0.4-2.7,1.1c-0.7,0.7-1,1.7-1,2.9
		c0,1.3,0.4,2.3,1,3c0.7,0.7,1.7,1.1,2.9,1.1c0.8,0,1.5-0.2,2.1-0.6c0.6-0.4,1-1,1.3-1.8h-4.3v-2.5h7.4v3.2
		c-0.3,0.9-0.7,1.6-1.3,2.4c-0.6,0.7-1.4,1.3-2.3,1.8c-0.9,0.5-2,0.7-3.2,0.7c-1.4,0-2.6-0.3-3.7-0.9c-1.1-0.6-1.9-1.4-2.5-2.5
		s-0.9-2.3-0.9-3.7s0.3-2.6,0.9-3.7c0.6-1.1,1.5-1.9,2.5-2.5c1.1-0.6,2.3-0.9,3.7-0.9c1.7,0,3.1,0.4,4.3,1.2
		c1.2,0.8,1.9,1.9,2.3,3.4H130.8z"/>
	<path class="st10" d="M150.1,343.5v2.8h4.6v2.6h-4.6v3.1h5.2v2.7h-8.6v-14h8.6v2.7H150.1z"/>
	<path class="st10" d="M183.4,340.8v14H180v-8.4l-3.1,8.4h-2.8l-3.2-8.4v8.4h-3.4v-14h4l3.9,9.7l3.9-9.7H183.4z"/>
	<path class="st10" d="M199.3,343.5v2.8h4.6v2.6h-4.6v3.1h5.2v2.7h-8.6v-14h8.6v2.7H199.3z"/>
	<path class="st10" d="M229.3,354.8h-3.4l-5.7-8.7v8.7h-3.4v-14h3.4l5.7,8.7v-8.7h3.4V354.8z"/>
	<path class="st10" d="M251.8,340.8v2.7h-3.7v11.3h-3.4v-11.3H241v-2.7H251.8z"/>
	<path class="st10" d="M20.9,378.4c-0.8-0.3-1.5-0.8-2-1.5s-0.7-1.4-0.8-2.4h3.6c0.1,0.5,0.2,0.9,0.5,1.2c0.3,0.3,0.7,0.4,1.2,0.4
		c0.5,0,0.9-0.1,1.2-0.4c0.3-0.2,0.4-0.6,0.4-1c0-0.3-0.1-0.6-0.4-0.9s-0.5-0.4-0.9-0.6c-0.3-0.1-0.8-0.3-1.4-0.5
		c-0.9-0.3-1.6-0.6-2.2-0.8c-0.6-0.3-1.1-0.7-1.5-1.2c-0.4-0.5-0.6-1.3-0.6-2.1c0-1.3,0.5-2.3,1.4-3.1c0.9-0.7,2.2-1.1,3.7-1.1
		c1.5,0,2.8,0.4,3.7,1.1c0.9,0.7,1.5,1.8,1.5,3.1h-3.7c0-0.5-0.2-0.8-0.5-1.1c-0.3-0.3-0.7-0.4-1.2-0.4c-0.4,0-0.7,0.1-1,0.3
		c-0.3,0.2-0.4,0.5-0.4,0.9c0,0.5,0.2,0.8,0.6,1.1c0.4,0.3,1.1,0.5,2,0.8c0.9,0.3,1.6,0.6,2.2,0.9c0.6,0.3,1.1,0.7,1.5,1.2
		c0.4,0.5,0.6,1.2,0.6,2.1c0,0.8-0.2,1.5-0.6,2.2c-0.4,0.7-1,1.2-1.8,1.6c-0.8,0.4-1.7,0.6-2.7,0.6
		C22.6,378.9,21.7,378.8,20.9,378.4z"/>
	<path class="st10" d="M52.9,364.8l-4.9,9.4v4.6h-3.4v-4.6l-4.9-9.4h3.9l2.7,5.9l2.7-5.9H52.9z"/>
	<path class="st10" d="M66.6,378.4c-0.8-0.3-1.5-0.8-2-1.5s-0.7-1.4-0.8-2.4h3.6c0.1,0.5,0.2,0.9,0.5,1.2c0.3,0.3,0.7,0.4,1.2,0.4
		c0.5,0,0.9-0.1,1.2-0.4c0.3-0.2,0.4-0.6,0.4-1c0-0.3-0.1-0.6-0.4-0.9s-0.5-0.4-0.9-0.6c-0.3-0.1-0.8-0.3-1.4-0.5
		c-0.9-0.3-1.6-0.6-2.2-0.8c-0.6-0.3-1.1-0.7-1.5-1.2c-0.4-0.5-0.6-1.3-0.6-2.1c0-1.3,0.5-2.3,1.4-3.1c0.9-0.7,2.2-1.1,3.7-1.1
		c1.5,0,2.8,0.4,3.7,1.1c0.9,0.7,1.5,1.8,1.5,3.1h-3.7c0-0.5-0.2-0.8-0.5-1.1c-0.3-0.3-0.7-0.4-1.2-0.4c-0.4,0-0.7,0.1-1,0.3
		c-0.3,0.2-0.4,0.5-0.4,0.9c0,0.5,0.2,0.8,0.6,1.1c0.4,0.3,1.1,0.5,2,0.8c0.9,0.3,1.6,0.6,2.2,0.9c0.6,0.3,1.1,0.7,1.5,1.2
		c0.4,0.5,0.6,1.2,0.6,2.1c0,0.8-0.2,1.5-0.6,2.2c-0.4,0.7-1,1.2-1.8,1.6c-0.8,0.4-1.7,0.6-2.7,0.6
		C68.3,378.9,67.4,378.8,66.6,378.4z"/>
	<path class="st10" d="M96.7,364.8v2.7H93v11.3h-3.4v-11.3h-3.7v-2.7H96.7z"/>
	<path class="st10" d="M111.8,367.5v2.8h4.6v2.6h-4.6v3.1h5.2v2.7h-8.6v-14h8.6v2.7H111.8z"/>
	<path class="st10" d="M145.1,364.8v14h-3.4v-8.4l-3.1,8.4h-2.8l-3.2-8.4v8.4h-3.4v-14h4l3.9,9.7l3.9-9.7H145.1z"/>
</g>
<g>
	<defs>
		<rect id="SVGID_14_" x="0" y="0" width="300" height="400"/>
	</defs>
	<clipPath id="SVGID_3_">
		<use xlink:href="#SVGID_14_"  style="overflow:visible;"/>
	</clipPath>
	<polygon style="opacity:0.39;clip-path:url(#SVGID_3_);fill:none;stroke:#FFFFFF;stroke-width:7;stroke-miterlimit:10;" points="
		247.6,-161.1 62.5,-111.5 12.9,73.6 148.4,209.1 333.5,159.5 383.1,-25.6 	"/>
	<polygon style="opacity:0.39;clip-path:url(#SVGID_3_);fill:none;stroke:#FFFFFF;stroke-width:2;stroke-miterlimit:10;" points="
		243.6,-146.4 73.3,-100.7 27.6,69.7 152.4,194.4 322.7,148.7 368.4,-21.7 	"/>
</g>
</svg>
