<?xml version="1.0" encoding="utf-8"?>
<!-- Generator: Adobe Illustrator 22.0.1, SVG Export Plug-In . SVG Version: 6.00 Build 0)  -->
<svg version="1.1" id="Layer_2" xmlns="http://www.w3.org/2000/svg" xmlns:xlink="http://www.w3.org/1999/xlink" x="0px" y="0px"
	 viewBox="0 0 2592 1728" style="enable-background:new 0 0 2592 1728;" xml:space="preserve">
<style type="text/css">
	.st0{opacity:0.61;fill:none;stroke:#000000;stroke-width:0.7514;stroke-miterlimit:10;}
	.st1{opacity:0.61;}
	.st2{clip-path:url(#SVGID_2_);}
	.st3{fill:none;stroke:#000000;stroke-width:0.7514;stroke-miterlimit:10;}
	.st4{clip-path:url(#SVGID_4_);}
</style>
<g>
	<polygon class="st0" points="1768.4,225.5 1682.5,746.2 1323.2,1097.7 820.8,1266.9 1319.3,746.2 	"/>
	<polygon class="st0" points="820.8,1266.9 1031.6,577 1768.4,225.5 1294.6,774.9 	"/>
	<polygon class="st0" points="706.2,1493.4 1294.6,1365.8 1544.5,813.9 1522,511.2 1294.6,774.9 820.8,1266.9 	"/>
	<polygon class="st0" points="1031.6,577 1319.3,746.2 820.8,1266.9 	"/>
	<g class="st1">
		<defs>
			<polygon id="SVGID_1_" class="st1" points="1031.6,577 1319.3,746.2 820.8,1266.9 			"/>
		</defs>
		<clipPath id="SVGID_2_">
			<use xlink:href="#SVGID_1_"  style="overflow:visible;"/>
		</clipPath>
		<g class="st2">
			<line class="st3" x1="1100.8" y1="429.3" x2="540.7" y2="1374.4"/>
			<line class="st3" x1="1134.7" y1="449.4" x2="574.6" y2="1394.5"/>
			<line class="st3" x1="1202.5" y1="489.5" x2="642.3" y2="1434.6"/>
			<line class="st3" x1="1236.3" y1="509.6" x2="676.2" y2="1454.7"/>
			<line class="st3" x1="1304.1" y1="549.8" x2="743.9" y2="1494.9"/>
			<line class="st3" x1="1371.8" y1="589.9" x2="811.7" y2="1535"/>
			<line class="st3" x1="1405.7" y1="610" x2="845.6" y2="1555.1"/>
			<line class="st3" x1="1439.6" y1="630.1" x2="879.4" y2="1575.2"/>
			<line class="st3" x1="1338" y1="569.8" x2="777.8" y2="1514.9"/>
			<line class="st3" x1="1270.2" y1="529.7" x2="710.1" y2="1474.8"/>
			<line class="st3" x1="1168.6" y1="469.5" x2="608.4" y2="1414.6"/>
		</g>
		<use xlink:href="#SVGID_1_"  style="overflow:visible;fill:none;stroke:#000000;stroke-width:0.7514;stroke-miterlimit:10;"/>
	</g>
	<polygon class="st0" points="1294.6,1365.8 820.8,1266.9 706.2,1493.4 	"/>
	<polygon class="st0" points="1544.5,813.9 820.8,1266.9 1319.3,746.2 	"/>
	<polygon class="st0" points="1682.5,746.2 1522,511.2 1768.4,225.5 	"/>
	<polygon class="st0" points="1544.5,813.9 1682.5,746.2 1489.8,934.7 	"/>
	<polygon class="st0" points="1294.6,1365.8 1267.2,1162.8 1493.5,926.5 	"/>
	<polygon class="st0" points="820.8,1266.9 1267.2,1162.8 1294.6,1365.8 	"/>
	<g class="st1">
		<defs>
			<polygon id="SVGID_3_" class="st1" points="820.8,1266.9 1267.2,1162.8 1294.6,1365.8 			"/>
		</defs>
		<clipPath id="SVGID_4_">
			<use xlink:href="#SVGID_3_"  style="overflow:visible;"/>
		</clipPath>
		<g class="st4">
			<circle class="st3" cx="895.2" cy="1132.6" r="10.2"/>
			<circle class="st3" cx="952.8" cy="1132.6" r="10.2"/>
			<circle class="st3" cx="1010.3" cy="1132.6" r="10.2"/>
			<circle class="st3" cx="1067.9" cy="1132.6" r="10.2"/>
			<circle class="st3" cx="1125.5" cy="1132.6" r="10.2"/>
			<circle class="st3" cx="1183" cy="1132.6" r="10.2"/>
			<circle class="st3" cx="1240.6" cy="1132.6" r="10.2"/>
			<circle class="st3" cx="1298.2" cy="1132.6" r="10.2"/>
			<circle class="st3" cx="1355.8" cy="1132.6" r="10.2"/>
			<circle class="st3" cx="1413.3" cy="1132.6" r="10.2"/>
			<circle class="st3" cx="837.6" cy="1132.6" r="10.2"/>
			<circle class="st3" cx="780.1" cy="1132.6" r="10.2"/>
			<circle class="st3" cx="895.2" cy="1182.7" r="10.2"/>
			<circle class="st3" cx="952.8" cy="1182.7" r="10.2"/>
			<circle class="st3" cx="1010.3" cy="1182.7" r="10.2"/>
			<circle class="st3" cx="1067.9" cy="1182.7" r="10.2"/>
			<circle class="st3" cx="1125.5" cy="1182.7" r="10.2"/>
			<circle class="st3" cx="1183" cy="1182.7" r="10.2"/>
			<circle class="st3" cx="1240.6" cy="1182.7" r="10.2"/>
			<circle class="st3" cx="1298.2" cy="1182.7" r="10.2"/>
			<circle class="st3" cx="1355.8" cy="1182.7" r="10.2"/>
			<circle class="st3" cx="1413.3" cy="1182.7" r="10.2"/>
			<circle class="st3" cx="837.6" cy="1182.7" r="10.2"/>
			<circle class="st3" cx="780.1" cy="1182.7" r="10.2"/>
			<circle class="st3" cx="895.2" cy="1232.8" r="10.2"/>
			<circle class="st3" cx="952.8" cy="1232.8" r="10.2"/>
			<circle class="st3" cx="1010.3" cy="1232.8" r="10.2"/>
			<circle class="st3" cx="1067.9" cy="1232.8" r="10.2"/>
			<circle class="st3" cx="1125.5" cy="1232.8" r="10.2"/>
			<circle class="st3" cx="1183" cy="1232.8" r="10.2"/>
			<circle class="st3" cx="1240.6" cy="1232.8" r="10.2"/>
			<circle class="st3" cx="1298.2" cy="1232.8" r="10.2"/>
			<circle class="st3" cx="1355.8" cy="1232.8" r="10.2"/>
			<circle class="st3" cx="1413.3" cy="1232.8" r="10.2"/>
			<circle class="st3" cx="837.6" cy="1232.8" r="10.2"/>
			<circle class="st3" cx="780.1" cy="1232.8" r="10.2"/>
			<circle class="st3" cx="895.2" cy="1282.9" r="10.2"/>
			<circle class="st3" cx="952.8" cy="1282.9" r="10.2"/>
			<circle class="st3" cx="1010.3" cy="1282.9" r="10.2"/>
			<circle class="st3" cx="1067.9" cy="1282.9" r="10.2"/>
			<circle class="st3" cx="1125.5" cy="1282.9" r="10.2"/>
			<circle class="st3" cx="1183" cy="1282.9" r="10.2"/>
			<circle class="st3" cx="1240.6" cy="1282.9" r="10.2"/>
			<circle class="st3" cx="1298.2" cy="1282.9" r="10.2"/>
			<circle class="st3" cx="1355.8" cy="1282.9" r="10.2"/>
			<circle class="st3" cx="1413.3" cy="1282.9" r="10.2"/>
			<circle class="st3" cx="837.6" cy="1282.9" r="10.2"/>
			<circle class="st3" cx="780.1" cy="1282.9" r="10.2"/>
			<circle class="st3" cx="895.2" cy="1332.9" r="10.2"/>
			<circle class="st3" cx="952.8" cy="1332.9" r="10.2"/>
			<circle class="st3" cx="1010.3" cy="1332.9" r="10.2"/>
			<circle class="st3" cx="1067.9" cy="1332.9" r="10.2"/>
			<circle class="st3" cx="1125.5" cy="1332.9" r="10.2"/>
			<circle class="st3" cx="1183" cy="1332.9" r="10.2"/>
			<circle class="st3" cx="1240.6" cy="1332.9" r="10.2"/>
			<circle class="st3" cx="1298.2" cy="1332.9" r="10.2"/>
			<circle class="st3" cx="1355.8" cy="1332.9" r="10.2"/>
			<circle class="st3" cx="1413.3" cy="1332.9" r="10.2"/>
			<circle class="st3" cx="837.6" cy="1332.9" r="10.2"/>
			<circle class="st3" cx="780.1" cy="1332.9" r="10.2"/>
			<circle class="st3" cx="895.2" cy="1383" r="10.2"/>
			<circle class="st3" cx="952.8" cy="1383" r="10.2"/>
			<circle class="st3" cx="1010.3" cy="1383" r="10.2"/>
			<circle class="st3" cx="1067.9" cy="1383" r="10.2"/>
			<circle class="st3" cx="1125.5" cy="1383" r="10.2"/>
			<circle class="st3" cx="1183" cy="1383" r="10.2"/>
			<circle class="st3" cx="1240.6" cy="1383" r="10.2"/>
			<circle class="st3" cx="1298.2" cy="1383" r="10.2"/>
			<circle class="st3" cx="1355.8" cy="1383" r="10.2"/>
			<circle class="st3" cx="1413.3" cy="1383" r="10.2"/>
			<circle class="st3" cx="837.6" cy="1383" r="10.2"/>
			<circle class="st3" cx="780.1" cy="1383" r="10.2"/>
			<circle class="st3" cx="895.2" cy="1433.1" r="10.2"/>
			<circle class="st3" cx="952.8" cy="1433.1" r="10.2"/>
			<circle class="st3" cx="1010.3" cy="1433.1" r="10.2"/>
			<circle class="st3" cx="1067.9" cy="1433.1" r="10.2"/>
			<circle class="st3" cx="1125.5" cy="1433.1" r="10.2"/>
			<circle class="st3" cx="1183" cy="1433.1" r="10.2"/>
			<circle class="st3" cx="1240.6" cy="1433.1" r="10.2"/>
			<circle class="st3" cx="1298.2" cy="1433.1" r="10.2"/>
			<circle class="st3" cx="1355.8" cy="1433.1" r="10.2"/>
			<circle class="st3" cx="1413.3" cy="1433.1" r="10.2"/>
			<circle class="st3" cx="837.6" cy="1433.1" r="10.2"/>
			<circle class="st3" cx="780.1" cy="1433.1" r="10.2"/>
		</g>
		<use xlink:href="#SVGID_3_"  style="overflow:visible;fill:none;stroke:#000000;stroke-width:0.7514;stroke-miterlimit:10;"/>
	</g>
</g>
</svg>
