<?xml version="1.0" encoding="utf-8"?>
<!-- Generator: Adobe Illustrator 22.0.1, SVG Export Plug-In . SVG Version: 6.00 Build 0)  -->
<svg version="1.1" id="Layer_4" xmlns="http://www.w3.org/2000/svg" xmlns:xlink="http://www.w3.org/1999/xlink" x="0px" y="0px"
	 viewBox="0 0 300 400" style="enable-background:new 0 0 300 400;" xml:space="preserve">
<style type="text/css">
	.st0{fill:url(#SVGID_1_);}
	.st1{fill:url(#SVGID_2_);}
	.st2{fill:url(#SVGID_3_);}
	.st3{fill:url(#SVGID_4_);}
	.st4{fill:#E63525;}
	.st5{fill:#E46125;}
	.st6{fill:#FFFFFF;}
	.st7{fill:#C6DDD9;}
	.st8{fill:#75CABF;}
	.st9{fill:#1CAE97;}
	.st10{fill:#F47F72;}
	.st11{opacity:0.19;clip-path:url(#SVGID_6_);fill:none;stroke:#FFFFFF;stroke-width:4;stroke-miterlimit:10;}
	.st12{clip-path:url(#SVGID_8_);}
	.st13{fill:none;stroke:#16498C;stroke-miterlimit:10;}
	.st14{opacity:0.23;}
	.st15{fill:none;stroke:#FFFFFF;stroke-miterlimit:10;}
</style>
<g>
	<linearGradient id="SVGID_1_" gradientUnits="userSpaceOnUse" x1="-18.071" y1="357.9272" x2="324.985" y2="35.5635">
		<stop  offset="0" style="stop-color:#F47F72"/>
		<stop  offset="1" style="stop-color:#F15C5E"/>
	</linearGradient>
	<rect x="0" y="0" class="st0" width="300" height="400"/>
</g>
<g>
	<g>
		<path class="st6" d="M162.3,141.5C162.3,141.5,162.3,141.5,162.3,141.5c-3.4-3.5-8.2-5.8-13.5-5.8c-7.9,0-14.7,5-17.3,12
			c-4.8,1.2-8.4,5.5-8.4,10.7c0,6.1,4.9,11,11,11c1.2,0,2.4-0.2,3.5-0.6c3.1,2.4,7,3.8,11.2,3.8c3.5,0,6.8-1,9.6-2.7
			c1.2,0.3,2.5,0.5,3.9,0.5c8,0,14.5-6.5,14.5-14.5C176.8,148,170.3,141.5,162.3,141.5z"/>
	</g>
	<g>
		<path class="st10" d="M158.9,147.2c-2,2-3.8,5-4.7,6.4c-1.6,2.8-3.4,6.3-3.9,8.8h-0.1h-0.5c-0.5-2.4-2.2-6-3.9-8.8
			c-0.9-1.5-2.7-4.4-4.7-6.4H138c1.5,0.8,3.9,3.7,6.1,7.4c2.1,3.6,3.7,7.2,3.7,8.8l0,1h2.4h0.1h1.8l0-1c0.1-1.6,1.6-5.2,3.7-8.8
			c2.2-3.7,4.6-6.6,6.1-7.4H158.9z"/>
		<path class="st10" d="M152.1,165.1h-4.3c-0.4,0-0.7-0.3-0.7-0.7l0-1c0-1.3-1.3-4.6-3.6-8.5c-2.1-3.5-4.4-6.4-5.8-7.2
			c-0.3-0.2-0.4-0.5-0.3-0.8c0.1-0.3,0.4-0.5,0.7-0.5h3.1c0.2,0,0.4,0.1,0.5,0.2c2,2.1,3.9,5,4.8,6.6c0.7,1.1,2.7,4.6,3.6,7.6
			c0.9-3,2.9-6.5,3.6-7.6c0.9-1.6,2.8-4.5,4.8-6.6c0.1-0.1,0.3-0.2,0.5-0.2h3.1c0.3,0,0.6,0.2,0.7,0.5c0.1,0.3-0.1,0.6-0.3,0.8
			c-1.4,0.8-3.7,3.7-5.8,7.2c-2.3,3.9-3.6,7.2-3.6,8.5l0,1C152.8,164.8,152.5,165.1,152.1,165.1z M148.5,163.7h2.9l0-0.3
			c0.1-1.7,1.6-5.4,3.8-9.1c1.6-2.7,3.3-5,4.7-6.4h-0.9c-1.8,2-3.5,4.6-4.4,6.1c-1.5,2.6-3.3,6.2-3.8,8.6c-0.1,0.3-0.3,0.6-0.7,0.6
			h-0.6c-0.3,0-0.6-0.2-0.7-0.6c-0.5-2.4-2.3-6-3.8-8.6c-0.9-1.5-2.6-4.1-4.4-6.1H140c1.4,1.4,3.1,3.7,4.7,6.4
			c2.2,3.7,3.8,7.4,3.8,9.1L148.5,163.7z"/>
	</g>
</g>
<g>
	<path class="st6" d="M78.1,195.6l-8.7,20.6h-2.7l-8.6-20.6h2.7l7.3,17.6l7.4-17.6H78.1z"/>
	<path class="st6" d="M87.3,190.5c-0.4-0.4-0.6-0.9-0.6-1.4c0-0.5,0.2-1,0.6-1.4c0.4-0.4,0.8-0.6,1.4-0.6c0.5,0,1,0.2,1.4,0.6
		c0.4,0.4,0.6,0.8,0.6,1.4c0,0.6-0.2,1.1-0.6,1.5c-0.4,0.4-0.8,0.6-1.4,0.6C88.1,191.1,87.7,190.9,87.3,190.5z M87.3,195.6H90v20.6
		h-2.6V195.6z"/>
	<path class="st6" d="M108.1,196.5c1.2-0.7,2.7-1.1,4.5-1.1v2.7l-0.6,0c-2,0-3.7,0.7-4.8,2c-1.2,1.3-1.7,3.2-1.7,5.6v10.5h-2.6
		v-20.6h2.5v4C106,198.3,106.9,197.2,108.1,196.5z"/>
	<path class="st6" d="M134,215c-0.5,0.5-1.1,0.8-1.8,1.1c-0.7,0.2-1.5,0.4-2.3,0.4c-1.8,0-3.2-0.5-4.2-1.6c-1-1-1.5-2.5-1.5-4.4V198
		h-3.5v-2.4h3.5v-4.5h2.6v4.5h5.9v2.4h-5.9v12.3c0,1.2,0.3,2.2,0.9,2.8c0.6,0.6,1.4,1,2.5,1c0.5,0,1.1-0.1,1.6-0.3
		c0.5-0.2,0.9-0.4,1.3-0.8L134,215z"/>
	<path class="st6" d="M149.6,196.5c1.2-0.7,2.7-1.1,4.5-1.1v2.7l-0.6,0c-2,0-3.7,0.7-4.8,2c-1.2,1.3-1.7,3.2-1.7,5.6v10.5h-2.6
		v-20.6h2.5v4C147.5,198.3,148.4,197.2,149.6,196.5z"/>
	<path class="st6" d="M167.2,215.1c-1.5-0.9-2.7-2.1-3.6-3.7c-0.9-1.6-1.3-3.4-1.3-5.4c0-2,0.4-3.8,1.3-5.4c0.9-1.6,2-2.8,3.6-3.7
		c1.5-0.9,3.2-1.3,5.1-1.3c1.9,0,3.6,0.4,5.1,1.3c1.5,0.9,2.7,2.1,3.5,3.7c0.9,1.6,1.3,3.4,1.3,5.4c0,2-0.4,3.8-1.3,5.4
		c-0.9,1.6-2,2.8-3.5,3.7c-1.5,0.9-3.2,1.4-5.1,1.4C170.4,216.4,168.7,216,167.2,215.1z M175.9,213c1.1-0.7,2-1.6,2.6-2.8
		c0.6-1.2,0.9-2.6,0.9-4.2s-0.3-3-0.9-4.2c-0.6-1.2-1.5-2.2-2.6-2.8c-1.1-0.7-2.3-1-3.7-1c-1.4,0-2.6,0.3-3.7,1
		c-1.1,0.7-2,1.6-2.6,2.8c-0.6,1.2-0.9,2.6-0.9,4.2s0.3,3,0.9,4.2c0.6,1.2,1.5,2.2,2.6,2.8c1.1,0.7,2.3,1,3.7,1
		C173.6,214,174.8,213.6,175.9,213z"/>
	<path class="st6" d="M193,187.2h2.6v29.1H193V187.2z"/>
	<path class="st6" d="M208.5,190.5c-0.4-0.4-0.6-0.9-0.6-1.4c0-0.5,0.2-1,0.6-1.4c0.4-0.4,0.8-0.6,1.4-0.6c0.5,0,1,0.2,1.4,0.6
		c0.4,0.4,0.6,0.8,0.6,1.4c0,0.6-0.2,1.1-0.6,1.5c-0.4,0.4-0.8,0.6-1.4,0.6C209.3,191.1,208.9,190.9,208.5,190.5z M208.5,195.6h2.6
		v20.6h-2.6V195.6z"/>
	<path class="st6" d="M226.9,215.1c-1.5-0.9-2.7-2.1-3.6-3.7c-0.9-1.6-1.3-3.4-1.3-5.4c0-2,0.4-3.8,1.3-5.4c0.9-1.6,2-2.8,3.6-3.7
		c1.5-0.9,3.2-1.3,5.1-1.3c1.9,0,3.6,0.4,5.1,1.3c1.5,0.9,2.7,2.1,3.5,3.7c0.9,1.6,1.3,3.4,1.3,5.4c0,2-0.4,3.8-1.3,5.4
		c-0.9,1.6-2,2.8-3.5,3.7c-1.5,0.9-3.2,1.4-5.1,1.4C230.1,216.4,228.4,216,226.9,215.1z M235.7,213c1.1-0.7,2-1.6,2.6-2.8
		c0.6-1.2,0.9-2.6,0.9-4.2s-0.3-3-0.9-4.2c-0.6-1.2-1.5-2.2-2.6-2.8c-1.1-0.7-2.3-1-3.7-1c-1.4,0-2.6,0.3-3.7,1
		c-1.1,0.7-2,1.6-2.6,2.8c-0.6,1.2-0.9,2.6-0.9,4.2s0.3,3,0.9,4.2c0.6,1.2,1.5,2.2,2.6,2.8c1.1,0.7,2.3,1,3.7,1
		C233.4,214,234.6,213.6,235.7,213z"/>
</g>
<g>
	<path class="st6" d="M79.6,242.5c-0.7-0.3-1.3-0.6-1.6-1l0.4-0.9c0.4,0.4,0.9,0.7,1.5,1c0.6,0.2,1.3,0.4,1.9,0.4
		c0.9,0,1.6-0.2,2.1-0.5c0.5-0.4,0.7-0.8,0.7-1.4c0-0.4-0.1-0.8-0.4-1.1c-0.3-0.3-0.6-0.5-0.9-0.6s-0.9-0.3-1.5-0.5
		c-0.8-0.2-1.4-0.4-1.9-0.6c-0.5-0.2-0.9-0.5-1.2-0.9c-0.3-0.4-0.5-0.9-0.5-1.6c0-0.6,0.1-1.1,0.4-1.5c0.3-0.5,0.7-0.8,1.3-1.1
		c0.6-0.3,1.3-0.4,2.1-0.4c0.6,0,1.2,0.1,1.7,0.3c0.6,0.2,1.1,0.4,1.5,0.7l-0.4,0.9c-0.4-0.3-0.9-0.5-1.4-0.7
		c-0.5-0.2-1-0.2-1.5-0.2c-0.9,0-1.6,0.2-2.1,0.6c-0.5,0.4-0.7,0.8-0.7,1.4c0,0.4,0.1,0.8,0.4,1.1c0.3,0.3,0.6,0.5,0.9,0.6
		c0.4,0.1,0.9,0.3,1.5,0.5c0.8,0.2,1.4,0.4,1.8,0.6c0.5,0.2,0.9,0.5,1.2,0.9c0.3,0.4,0.5,0.9,0.5,1.6c0,0.6-0.1,1.1-0.4,1.5
		c-0.3,0.5-0.7,0.8-1.3,1.1c-0.6,0.3-1.3,0.4-2.1,0.4C81,242.9,80.3,242.8,79.6,242.5z"/>
	<path class="st6" d="M94.2,242.3c-0.2,0.2-0.4,0.3-0.7,0.4c-0.3,0.1-0.6,0.1-0.9,0.1c-0.7,0-1.3-0.2-1.7-0.6
		c-0.4-0.4-0.6-1-0.6-1.8v-5h-1.4v-0.9h1.4v-1.8h1.1v1.8h2.4v0.9h-2.4v4.9c0,0.5,0.1,0.9,0.3,1.1c0.2,0.3,0.6,0.4,1,0.4
		c0.2,0,0.4,0,0.6-0.1c0.2-0.1,0.4-0.2,0.5-0.3L94.2,242.3z"/>
	<path class="st6" d="M103.4,235.3c0.5,0.5,0.8,1.3,0.8,2.4v5.1h-1v-1.3c-0.2,0.4-0.6,0.8-1,1c-0.5,0.2-1,0.4-1.6,0.4
		c-0.9,0-1.6-0.2-2.1-0.7c-0.5-0.4-0.8-1-0.8-1.7c0-0.7,0.2-1.3,0.7-1.7c0.5-0.4,1.2-0.6,2.3-0.6h2.5v-0.5c0-0.7-0.2-1.3-0.6-1.6
		c-0.4-0.4-0.9-0.6-1.6-0.6c-0.5,0-1,0.1-1.4,0.3c-0.5,0.2-0.8,0.4-1.2,0.7l-0.5-0.8c0.4-0.4,0.9-0.6,1.4-0.8
		c0.6-0.2,1.1-0.3,1.7-0.3C102,234.5,102.8,234.8,103.4,235.3z M102.2,241.6c0.4-0.3,0.7-0.7,0.9-1.2V239h-2.4c-1.3,0-2,0.5-2,1.5
		c0,0.5,0.2,0.9,0.5,1.1c0.3,0.3,0.8,0.4,1.5,0.4C101.2,242,101.7,241.9,102.2,241.6z"/>
	<path class="st6" d="M115.6,234.6l-3.9,9.2c-0.3,0.8-0.7,1.3-1.1,1.6c-0.4,0.3-0.9,0.5-1.5,0.5c-0.4,0-0.7-0.1-1.1-0.2
		c-0.3-0.1-0.6-0.3-0.8-0.6l0.5-0.8c0.4,0.4,0.9,0.6,1.4,0.6c0.4,0,0.7-0.1,0.9-0.3c0.3-0.2,0.5-0.6,0.7-1.1l0.3-0.8l-3.5-8.2h1.1
		l2.9,7l2.9-7H115.6z"/>
	<path class="st6" d="M127.4,242.2c-0.8-0.5-1.5-1.1-1.9-2c-0.5-0.9-0.7-1.8-0.7-2.9c0-1.1,0.2-2,0.7-2.9c0.5-0.9,1.1-1.5,1.9-2
		c0.8-0.5,1.8-0.7,2.8-0.7c0.8,0,1.5,0.1,2.1,0.4c0.7,0.3,1.2,0.7,1.7,1.2l-0.7,0.7c-0.8-0.9-1.8-1.3-3.1-1.3
		c-0.8,0-1.6,0.2-2.2,0.6c-0.7,0.4-1.2,0.9-1.6,1.6c-0.4,0.7-0.6,1.5-0.6,2.3c0,0.9,0.2,1.6,0.6,2.3c0.4,0.7,0.9,1.2,1.6,1.6
		c0.7,0.4,1.4,0.6,2.2,0.6c1.2,0,2.3-0.4,3.1-1.3l0.7,0.7c-0.5,0.5-1,0.9-1.7,1.2c-0.7,0.3-1.4,0.4-2.1,0.4
		C129.1,242.9,128.2,242.7,127.4,242.2z"/>
	<path class="st6" d="M139.1,242.4c-0.6-0.4-1.1-0.9-1.4-1.5c-0.3-0.6-0.5-1.4-0.5-2.2s0.2-1.5,0.5-2.2c0.3-0.6,0.8-1.1,1.4-1.5
		c0.6-0.4,1.3-0.5,2-0.5c0.7,0,1.4,0.2,2,0.5c0.6,0.4,1.1,0.9,1.4,1.5c0.3,0.6,0.5,1.4,0.5,2.2s-0.2,1.5-0.5,2.2
		c-0.3,0.6-0.8,1.1-1.4,1.5c-0.6,0.4-1.3,0.5-2,0.5C140.4,242.9,139.7,242.7,139.1,242.4z M142.6,241.5c0.4-0.3,0.8-0.6,1-1.1
		c0.2-0.5,0.4-1.1,0.4-1.7c0-0.6-0.1-1.2-0.4-1.7c-0.2-0.5-0.6-0.9-1-1.1c-0.4-0.3-0.9-0.4-1.5-0.4c-0.6,0-1,0.1-1.5,0.4
		c-0.4,0.3-0.8,0.6-1,1.1c-0.3,0.5-0.4,1.1-0.4,1.7c0,0.6,0.1,1.2,0.4,1.7c0.3,0.5,0.6,0.9,1,1.1c0.4,0.3,0.9,0.4,1.5,0.4
		C141.7,241.9,142.2,241.8,142.6,241.5z"/>
	<path class="st6" d="M155.8,235.4c0.6,0.6,0.9,1.5,0.9,2.6v4.8h-1.1v-4.7c0-0.9-0.2-1.5-0.6-2c-0.4-0.4-1-0.7-1.7-0.7
		c-0.8,0-1.5,0.3-2,0.8c-0.5,0.5-0.7,1.3-0.7,2.2v4.3h-1.1v-8.2h1v1.5c0.3-0.5,0.7-0.9,1.2-1.2c0.5-0.3,1.1-0.4,1.8-0.4
		C154.4,234.5,155.2,234.8,155.8,235.4z"/>
	<path class="st6" d="M168,235.4c0.6,0.6,0.9,1.5,0.9,2.6v4.8h-1.1v-4.7c0-0.9-0.2-1.5-0.6-2c-0.4-0.4-1-0.7-1.7-0.7
		c-0.8,0-1.5,0.3-2,0.8c-0.5,0.5-0.7,1.3-0.7,2.2v4.3h-1.1v-8.2h1v1.5c0.3-0.5,0.7-0.9,1.2-1.2c0.5-0.3,1.1-0.4,1.8-0.4
		C166.7,234.5,167.4,234.8,168,235.4z"/>
	<path class="st6" d="M180.8,239.1h-6.5c0.1,0.9,0.4,1.5,0.9,2.1c0.6,0.5,1.3,0.8,2.1,0.8c0.5,0,0.9-0.1,1.3-0.3
		c0.4-0.2,0.8-0.5,1.1-0.8l0.6,0.7c-0.3,0.4-0.8,0.8-1.3,1c-0.5,0.2-1.1,0.3-1.7,0.3c-0.8,0-1.5-0.2-2.1-0.5
		c-0.6-0.4-1.1-0.9-1.4-1.5c-0.3-0.6-0.5-1.4-0.5-2.2s0.2-1.5,0.5-2.2c0.3-0.6,0.8-1.1,1.4-1.5c0.6-0.4,1.2-0.5,1.9-0.5
		c0.7,0,1.4,0.2,1.9,0.5c0.6,0.4,1,0.8,1.3,1.5c0.3,0.6,0.5,1.4,0.5,2.2L180.8,239.1z M175.1,236.3c-0.5,0.5-0.8,1.2-0.9,2h5.5
		c-0.1-0.8-0.4-1.5-0.9-2c-0.5-0.5-1.1-0.8-1.9-0.8C176.3,235.5,175.6,235.7,175.1,236.3z"/>
	<path class="st6" d="M186.3,242.4c-0.6-0.4-1.1-0.9-1.4-1.5c-0.3-0.6-0.5-1.4-0.5-2.2s0.2-1.5,0.5-2.2c0.3-0.6,0.8-1.1,1.4-1.5
		c0.6-0.4,1.3-0.5,2.1-0.5c0.7,0,1.3,0.1,1.8,0.4c0.5,0.3,0.9,0.7,1.3,1.2l-0.8,0.6c-0.3-0.4-0.6-0.7-1-0.9
		c-0.4-0.2-0.8-0.3-1.3-0.3c-0.6,0-1.1,0.1-1.5,0.4c-0.4,0.3-0.8,0.6-1.1,1.1c-0.3,0.5-0.4,1.1-0.4,1.7c0,0.6,0.1,1.2,0.4,1.7
		c0.3,0.5,0.6,0.9,1.1,1.1c0.4,0.3,1,0.4,1.5,0.4c0.5,0,0.9-0.1,1.3-0.3c0.4-0.2,0.7-0.5,1-0.9l0.8,0.6c-0.3,0.5-0.7,0.9-1.3,1.2
		c-0.5,0.3-1.1,0.4-1.8,0.4C187.6,242.9,186.9,242.7,186.3,242.4z"/>
	<path class="st6" d="M199.9,242.3c-0.2,0.2-0.4,0.3-0.7,0.4c-0.3,0.1-0.6,0.1-0.9,0.1c-0.7,0-1.3-0.2-1.7-0.6
		c-0.4-0.4-0.6-1-0.6-1.8v-5h-1.4v-0.9h1.4v-1.8h1.1v1.8h2.4v0.9H197v4.9c0,0.5,0.1,0.9,0.3,1.1c0.2,0.3,0.6,0.4,1,0.4
		c0.2,0,0.4,0,0.6-0.1c0.2-0.1,0.4-0.2,0.5-0.3L199.9,242.3z"/>
	<path class="st6" d="M210.5,239.1H204c0.1,0.9,0.4,1.5,0.9,2.1c0.6,0.5,1.3,0.8,2.1,0.8c0.5,0,0.9-0.1,1.3-0.3
		c0.4-0.2,0.8-0.5,1.1-0.8l0.6,0.7c-0.3,0.4-0.8,0.8-1.3,1c-0.5,0.2-1.1,0.3-1.7,0.3c-0.8,0-1.5-0.2-2.1-0.5
		c-0.6-0.4-1.1-0.9-1.4-1.5c-0.3-0.6-0.5-1.4-0.5-2.2s0.2-1.5,0.5-2.2c0.3-0.6,0.8-1.1,1.4-1.5c0.6-0.4,1.2-0.5,1.9-0.5
		c0.7,0,1.4,0.2,1.9,0.5c0.6,0.4,1,0.8,1.3,1.5c0.3,0.6,0.5,1.4,0.5,2.2L210.5,239.1z M204.9,236.3c-0.5,0.5-0.8,1.2-0.9,2h5.5
		c-0.1-0.8-0.4-1.5-0.9-2c-0.5-0.5-1.1-0.8-1.9-0.8C206,235.5,205.4,235.7,204.9,236.3z"/>
	<path class="st6" d="M222,231.2v11.6h-1v-1.6c-0.3,0.6-0.7,1-1.3,1.3c-0.5,0.3-1.1,0.4-1.8,0.4c-0.7,0-1.4-0.2-2-0.5
		c-0.6-0.4-1.1-0.9-1.4-1.5c-0.3-0.6-0.5-1.4-0.5-2.2c0-0.8,0.2-1.5,0.5-2.2c0.3-0.6,0.8-1.1,1.4-1.5c0.6-0.3,1.3-0.5,2-0.5
		c0.6,0,1.2,0.1,1.7,0.4c0.5,0.3,0.9,0.7,1.3,1.2v-5H222z M219.6,241.5c0.4-0.3,0.8-0.6,1-1.1c0.3-0.5,0.4-1.1,0.4-1.7
		c0-0.6-0.1-1.2-0.4-1.7c-0.3-0.5-0.6-0.9-1-1.1c-0.4-0.3-0.9-0.4-1.5-0.4c-0.6,0-1,0.1-1.5,0.4c-0.4,0.3-0.8,0.6-1,1.1
		c-0.3,0.5-0.4,1.1-0.4,1.7c0,0.6,0.1,1.2,0.4,1.7c0.3,0.5,0.6,0.9,1,1.1c0.4,0.3,0.9,0.4,1.5,0.4
		C218.6,241.9,219.1,241.8,219.6,241.5z"/>
</g>
<g>
	<defs>
		<rect id="SVGID_5_" x="0" y="0" width="300" height="400"/>
	</defs>
	<clipPath id="SVGID_2_">
		<use xlink:href="#SVGID_5_"  style="overflow:visible;"/>
	</clipPath>
	
		<circle style="opacity:0.19;clip-path:url(#SVGID_2_);fill:none;stroke:#FFFFFF;stroke-width:4;stroke-miterlimit:10;" cx="312.5" cy="294.7" r="306.5"/>
	
		<circle style="opacity:0.19;clip-path:url(#SVGID_2_);fill:none;stroke:#FFFFFF;stroke-width:4;stroke-miterlimit:10;" cx="310.5" cy="249.7" r="306.5"/>
	
		<circle style="opacity:0.19;clip-path:url(#SVGID_2_);fill:none;stroke:#FFFFFF;stroke-width:4;stroke-miterlimit:10;" cx="301.5" cy="202.7" r="306.5"/>
</g>
<g>
	<defs>
		<rect id="SVGID_7_" x="320.1" y="0" width="300" height="400"/>
	</defs>
	<clipPath id="SVGID_3_">
		<use xlink:href="#SVGID_7_"  style="overflow:visible;"/>
	</clipPath>
	<g style="clip-path:url(#SVGID_3_);">
		<polygon class="st13" points="836.9,-457.6 783.8,-136.1 562,80.9 251.8,185.3 559.6,-136.1 		"/>
		<polygon class="st13" points="251.8,185.3 382,-240.6 836.9,-457.6 544.4,-118.4 		"/>
		<polygon class="st13" points="181.1,325.2 544.4,246.4 698.7,-94.3 684.8,-281.2 544.4,-118.4 251.8,185.3 		"/>
		<polygon class="st13" points="382,-240.6 559.6,-136.1 251.8,185.3 		"/>
		<polygon class="st13" points="544.4,246.4 251.8,185.3 181.1,325.2 		"/>
		<polygon class="st13" points="698.7,-94.3 251.8,185.3 559.6,-136.1 		"/>
		<polygon class="st13" points="251.8,185.3 527.5,121 544.4,246.4 		"/>
	</g>
</g>
</svg>
