<?xml version="1.0" encoding="utf-8"?>
<!-- Generator: Adobe Illustrator 22.0.1, SVG Export Plug-In . SVG Version: 6.00 Build 0)  -->
<svg version="1.1" id="Layer_4" xmlns="http://www.w3.org/2000/svg" xmlns:xlink="http://www.w3.org/1999/xlink" x="0px" y="0px"
	 viewBox="0 0 300 400" style="enable-background:new 0 0 300 400;" xml:space="preserve">
<style type="text/css">
	.st0{fill:#7DC242;}
	.st1{opacity:6.000000e-02;}
	.st2{clip-path:url(#SVGID_2_);}
	.st3{fill:none;stroke:#FFFFFF;stroke-miterlimit:10;}
	.st4{fill:none;stroke:#353535;stroke-miterlimit:10;}
	.st5{fill:url(#SVGID_3_);}
	.st6{fill:url(#SVGID_4_);}
	.st7{fill:url(#SVGID_5_);}
	.st8{fill:url(#SVGID_6_);}
	.st9{fill:#A41E21;}
	.st10{fill:#FFFFFF;}
	.st11{fill:#CFCFCE;}
	.st12{fill:#BCBCBC;}
	.st13{fill:#C6DDD9;}
	.st14{fill:#75CABF;}
	.st15{fill:#1CAE97;}
	.st16{fill:#F47F72;}
	.st17{opacity:0.19;clip-path:url(#SVGID_8_);fill:none;stroke:#FFFFFF;stroke-width:4;stroke-miterlimit:10;}
	.st18{clip-path:url(#SVGID_10_);}
	.st19{fill:none;stroke:#16498C;stroke-miterlimit:10;}
	.st20{opacity:0.23;}
	.st21{fill:#171717;}
	.st22{fill:none;stroke:#FFFFFF;stroke-width:23;stroke-linecap:round;stroke-linejoin:round;stroke-miterlimit:10;}
	.st23{fill:url(#SVGID_11_);}
	.st24{fill:url(#SVGID_12_);}
	.st25{fill:url(#SVGID_13_);}
	.st26{fill:#181818;}
	.st27{fill:#101010;}
	.st28{opacity:0.24;}
	.st29{fill:#D93636;}
	.st30{fill:#C42126;}
	.st31{fill:#D62027;}
</style>
<rect x="0" y="0" class="st9" width="300" height="400"/>
<g class="st28">
	<g>
		<polygon class="st9" points="150,0 81.5,76.6 150,97 		"/>
		<polygon class="st29" points="-5,91.6 81.5,76.6 -5,189.4 		"/>
		<polygon class="st29" points="150,140.2 81.5,76.6 150,97 		"/>
		<polygon class="st30" points="91.4,137.1 150,140.2 102.8,227.4 		"/>
		<polygon class="st9" points="81.5,76.6 91.4,137.1 150,140.2 		"/>
		<polygon class="st30" points="-5,189.4 91.4,137.1 81.5,76.6 		"/>
		<polygon class="st30" points="43.4,26.1 81.5,76.6 150,0 		"/>
		<polygon class="st30" points="-5,0 43.4,26.1 -5,91.6 		"/>
		<polygon class="st9" points="81.5,76.6 43.4,26.1 -5,91.6 		"/>
		<polygon class="st9" points="-5,0 43.4,26.1 150,0 		"/>
		<polygon class="st9" points="-5,189.4 102.8,227.4 91.4,137.1 		"/>
		<polygon class="st9" points="150,264.7 102.8,227.4 150,140.2 		"/>
		<polygon class="st29" points="43.4,268.6 102.8,227.4 150,264.7 		"/>
		<polygon class="st30" points="-5,189.4 43.4,268.6 102.8,227.4 		"/>
		<polygon class="st9" points="-5,289.5 43.4,268.6 -5,189.4 		"/>
		<polygon class="st30" points="88.5,347.2 43.4,268.6 120.7,307.9 		"/>
		<polygon class="st9" points="150,264.7 120.7,307.9 43.4,268.6 		"/>
		<polygon class="st9" points="150,400 88.5,347.2 19.2,400 		"/>
		<polygon class="st9" points="-5,289.5 88.5,347.2 -5,359.6 		"/>
		<polygon class="st29" points="43.4,268.6 88.5,347.2 -5,289.5 		"/>
		<polygon class="st9" points="-5,359.6 19.2,400 -5,400 		"/>
		<polygon class="st30" points="88.5,347.2 -5,359.6 19.2,400 		"/>
		<polygon class="st29" points="120.7,307.9 150,400 88.5,347.2 		"/>
		<polygon class="st31" points="150,264.7 150,400 120.7,307.9 		"/>
	</g>
	<g>
		<polygon class="st9" points="150,0 218.5,76.6 150,97 		"/>
		<polygon class="st29" points="305,91.6 218.5,76.6 305,189.4 		"/>
		<polygon class="st29" points="150,140.2 218.5,76.6 150,97 		"/>
		<polygon class="st30" points="208.6,137.1 150,140.2 197.2,227.4 		"/>
		<polygon class="st9" points="218.5,76.6 208.6,137.1 150,140.2 		"/>
		<polygon class="st30" points="305,189.4 208.6,137.1 218.5,76.6 		"/>
		<polygon class="st30" points="256.6,26.1 218.5,76.6 150,0 		"/>
		<polygon class="st30" points="305,0 256.6,26.1 305,91.6 		"/>
		<polygon class="st9" points="218.5,76.6 256.6,26.1 305,91.6 		"/>
		<polygon class="st9" points="305,0 256.6,26.1 150,0 		"/>
		<polygon class="st9" points="305,189.4 197.2,227.4 208.6,137.1 		"/>
		<polygon class="st9" points="150,264.7 197.2,227.4 150,140.2 		"/>
		<polygon class="st29" points="256.6,268.6 197.2,227.4 150,264.7 		"/>
		<polygon class="st30" points="305,189.4 256.6,268.6 197.2,227.4 		"/>
		<polygon class="st9" points="305,289.5 256.6,268.6 305,189.4 		"/>
		<polygon class="st30" points="211.5,347.2 256.6,268.6 179.3,307.9 		"/>
		<polygon class="st9" points="150,264.7 179.3,307.9 256.6,268.6 		"/>
		<polygon class="st9" points="150,400 211.5,347.2 280.8,400 		"/>
		<polygon class="st9" points="305,289.5 211.5,347.2 305,359.6 		"/>
		<polygon class="st29" points="256.6,268.6 211.5,347.2 305,289.5 		"/>
		<polygon class="st9" points="305,359.6 280.8,400 305,400 		"/>
		<polygon class="st30" points="211.5,347.2 305,359.6 280.8,400 		"/>
		<polygon class="st29" points="179.3,307.9 150,400 211.5,347.2 		"/>
		<polygon class="st31" points="150,264.7 150,400 179.3,307.9 		"/>
	</g>
</g>
<g>
	<path class="st10" d="M158.5,162c0.6,1.4,1.3,2.9,1.9,4.3c1,2.1,2,4.3,3,6.5c2.4-1.1,4.8-2,7.5-1.8c-4.7,1.7-8.5,5-12.9,7.2
		c-5.4,2.7-11.1,4.8-17.1,5.8c-3.1,0.5-6.3,0.9-9.5,0.2c-0.8-0.2-1.6-0.4-2.2-1.4c1.4,0,2.5,0,3.7,0c0.9,0,1.8-0.2,2.7-0.3
		c0.5,0,0.6-0.2,0.7-0.7c0.9-4.6,1.8-9.2,2.8-13.8c0.4-2,1.1-4,1.7-6C146.7,162,152.6,162,158.5,162z"/>
	<path class="st10" d="M145.1,185.5c3.4,0.2,6,3,5.8,6.1c-0.2,3.5-3.1,5.9-6.3,5.8c-3.4-0.1-6-3.1-5.8-6.2
		C139,187.9,141.8,185.3,145.1,185.5z"/>
	<path class="st10" d="M163.7,187.1c0,2.3-1.9,4.2-4.3,4.2c-2.4,0-4.3-1.9-4.3-4.3c0-2.3,2-4.2,4.3-4.2
		C161.7,182.9,163.7,184.9,163.7,187.1z"/>
</g>
<g>
	<path class="st10" d="M61,213.1l-2.4,9.1h-2.7l-1.5-6l-1.5,6h-2.7l-2.3-9.1h2.4l1.3,6.6l1.6-6.6h2.4l1.6,6.6l1.3-6.6H61z"/>
	<path class="st10" d="M68.8,213.9c-0.2-0.2-0.4-0.5-0.4-0.9c0-0.3,0.1-0.6,0.4-0.9s0.6-0.3,1-0.3c0.4,0,0.7,0.1,0.9,0.3
		s0.4,0.5,0.4,0.9c0,0.3-0.1,0.6-0.4,0.9c-0.2,0.2-0.6,0.3-0.9,0.3C69.4,214.2,69,214.1,68.8,213.9z M70.9,215v7.3h-2.2V215H70.9z"
		/>
	<path class="st10" d="M81,220.4h3.1v1.8h-5.6v-1.8l3-3.7h-3V215h5.5v1.8L81,220.4z"/>
	<path class="st10" d="M91.9,216.6c0.3-0.6,0.7-1,1.2-1.3s1-0.5,1.6-0.5c0.5,0,1,0.1,1.3,0.3s0.7,0.5,0.9,0.8v-1h2.2v7.3h-2.2v-1
		c-0.2,0.3-0.5,0.6-0.9,0.8s-0.8,0.3-1.3,0.3c-0.6,0-1.1-0.2-1.6-0.5s-0.9-0.7-1.2-1.3c-0.3-0.6-0.4-1.2-0.4-2
		C91.5,217.9,91.6,217.2,91.9,216.6z M96.4,217.3c-0.3-0.3-0.7-0.5-1.1-0.5s-0.8,0.2-1.1,0.5c-0.3,0.3-0.5,0.8-0.5,1.3
		c0,0.6,0.2,1,0.5,1.3c0.3,0.3,0.7,0.5,1.1,0.5s0.8-0.2,1.1-0.5c0.3-0.3,0.5-0.8,0.5-1.3S96.7,217.6,96.4,217.3z"/>
	<path class="st10" d="M110.4,215.3c0.4-0.2,0.8-0.3,1.3-0.3v2.4h-0.6c-0.6,0-1,0.1-1.2,0.4c-0.3,0.2-0.4,0.7-0.4,1.3v3.4h-2.2V215
		h2.2v1.2C109.7,215.8,110,215.5,110.4,215.3z"/>
	<path class="st10" d="M119.3,216.6c0.3-0.6,0.7-1,1.2-1.3s1-0.5,1.6-0.5c0.5,0,0.9,0.1,1.3,0.3c0.4,0.2,0.7,0.5,0.9,0.8v-3.4h2.2
		v9.6h-2.2v-1c-0.2,0.3-0.5,0.6-0.9,0.8s-0.8,0.3-1.3,0.3c-0.6,0-1.1-0.2-1.6-0.5s-0.9-0.7-1.2-1.3c-0.3-0.6-0.4-1.2-0.4-2
		C118.9,217.9,119,217.2,119.3,216.6z M123.8,217.3c-0.3-0.3-0.7-0.5-1.1-0.5s-0.8,0.2-1.1,0.5c-0.3,0.3-0.5,0.8-0.5,1.3
		c0,0.6,0.2,1,0.5,1.3c0.3,0.3,0.7,0.5,1.1,0.5s0.8-0.2,1.1-0.5c0.3-0.3,0.5-0.8,0.5-1.3S124.1,217.6,123.8,217.3z"/>
	<path class="st10" d="M136.6,221.7c-0.7-0.4-1.3-1-1.7-1.7c-0.4-0.7-0.6-1.5-0.6-2.4s0.2-1.7,0.6-2.4c0.4-0.7,1-1.3,1.7-1.7
		c0.7-0.4,1.5-0.6,2.4-0.6s1.6,0.2,2.4,0.6c0.7,0.4,1.3,1,1.7,1.7c0.4,0.7,0.6,1.5,0.6,2.4s-0.2,1.7-0.6,2.4c-0.4,0.7-1,1.3-1.7,1.7
		c-0.7,0.4-1.5,0.6-2.4,0.6S137.3,222.1,136.6,221.7z M140.7,219.6c0.4-0.5,0.7-1.1,0.7-1.9c0-0.8-0.2-1.4-0.7-1.9s-1-0.7-1.7-0.7
		c-0.7,0-1.3,0.2-1.8,0.7s-0.7,1.1-0.7,1.9c0,0.8,0.2,1.4,0.7,1.9s1,0.7,1.8,0.7C139.7,220.3,140.3,220.1,140.7,219.6z"/>
	<path class="st10" d="M155,216.8h-1.2v5.4h-2.2v-5.4h-0.8V215h0.8v-0.2c0-0.9,0.3-1.6,0.8-2c0.5-0.5,1.3-0.7,2.2-0.7
		c0.2,0,0.3,0,0.4,0v1.9c-0.4,0-0.7,0-0.9,0.2c-0.2,0.1-0.3,0.4-0.3,0.8v0.1h1.2V216.8z"/>
	<path class="st10" d="M162.7,215.3c0.4-0.7,0.9-1.3,1.6-1.7c0.7-0.4,1.5-0.6,2.4-0.6c1.1,0,2,0.3,2.8,0.9c0.8,0.6,1.3,1.4,1.5,2.3
		h-2.4c-0.2-0.4-0.4-0.7-0.8-0.9c-0.3-0.2-0.7-0.3-1.1-0.3c-0.7,0-1.2,0.2-1.7,0.7s-0.6,1.1-0.6,1.9c0,0.8,0.2,1.4,0.6,1.9
		s1,0.7,1.7,0.7c0.4,0,0.8-0.1,1.1-0.3c0.3-0.2,0.6-0.5,0.8-0.9h2.4c-0.3,1-0.8,1.8-1.5,2.3c-0.8,0.6-1.7,0.9-2.8,0.9
		c-0.9,0-1.7-0.2-2.4-0.6s-1.2-0.9-1.6-1.6c-0.4-0.7-0.6-1.5-0.6-2.4C162.2,216.8,162.3,216,162.7,215.3z"/>
	<path class="st10" d="M180.3,221.9c-0.6-0.3-1-0.7-1.3-1.3s-0.5-1.2-0.5-2c0-0.7,0.2-1.4,0.5-2c0.3-0.6,0.8-1,1.4-1.3
		s1.2-0.5,1.9-0.5s1.4,0.2,1.9,0.5c0.6,0.3,1,0.7,1.4,1.3c0.3,0.6,0.5,1.2,0.5,2c0,0.7-0.2,1.4-0.5,2c-0.3,0.6-0.8,1-1.4,1.3
		c-0.6,0.3-1.2,0.5-1.9,0.5C181.5,222.3,180.9,222.2,180.3,221.9z M183.3,220c0.3-0.3,0.4-0.8,0.4-1.3s-0.1-1-0.4-1.3
		c-0.3-0.3-0.6-0.5-1.1-0.5c-0.4,0-0.8,0.2-1.1,0.5c-0.3,0.3-0.4,0.8-0.4,1.3c0,0.6,0.1,1,0.4,1.3c0.3,0.3,0.6,0.5,1.1,0.5
		C182.7,220.4,183,220.3,183.3,220z"/>
	<path class="st10" d="M195.9,212.6v9.6h-2.2v-9.6H195.9z"/>
	<path class="st10" d="M205.4,221.9c-0.6-0.3-1-0.7-1.3-1.3s-0.5-1.2-0.5-2c0-0.7,0.2-1.4,0.5-2c0.3-0.6,0.8-1,1.4-1.3
		s1.2-0.5,1.9-0.5s1.4,0.2,1.9,0.5c0.6,0.3,1,0.7,1.4,1.3c0.3,0.6,0.5,1.2,0.5,2c0,0.7-0.2,1.4-0.5,2c-0.3,0.6-0.8,1-1.4,1.3
		c-0.6,0.3-1.2,0.5-1.9,0.5C206.6,222.3,206,222.2,205.4,221.9z M208.4,220c0.3-0.3,0.4-0.8,0.4-1.3s-0.1-1-0.4-1.3
		c-0.3-0.3-0.6-0.5-1.1-0.5c-0.4,0-0.8,0.2-1.1,0.5c-0.3,0.3-0.4,0.8-0.4,1.3c0,0.6,0.1,1,0.4,1.3c0.3,0.3,0.6,0.5,1.1,0.5
		C207.8,220.4,208.1,220.3,208.4,220z"/>
	<path class="st10" d="M226,215v7.3h-2.2v-1c-0.2,0.3-0.5,0.6-0.9,0.8c-0.4,0.2-0.8,0.3-1.3,0.3c-0.6,0-1-0.1-1.5-0.4
		s-0.8-0.6-1-1.1c-0.2-0.5-0.4-1-0.4-1.7V215h2.2v3.9c0,0.5,0.1,0.9,0.4,1.1c0.3,0.3,0.6,0.4,1,0.4c0.4,0,0.8-0.1,1-0.4
		c0.3-0.3,0.4-0.6,0.4-1.1V215H226z"/>
	<path class="st10" d="M237.3,215.3c0.4-0.2,0.8-0.3,1.3-0.3v2.4H238c-0.6,0-1,0.1-1.2,0.4c-0.3,0.2-0.4,0.7-0.4,1.3v3.4h-2.2V215
		h2.2v1.2C236.6,215.8,236.9,215.5,237.3,215.3z"/>
	<path class="st10" d="M247.4,222c-0.5-0.2-0.9-0.5-1.2-0.9c-0.3-0.4-0.4-0.8-0.5-1.3h2.2c0,0.3,0.1,0.5,0.4,0.6
		c0.2,0.2,0.5,0.2,0.8,0.2c0.3,0,0.5-0.1,0.6-0.2c0.2-0.1,0.2-0.2,0.2-0.4c0-0.2-0.1-0.4-0.3-0.5c-0.2-0.1-0.6-0.2-1.1-0.3
		c-0.5-0.1-1-0.2-1.3-0.4s-0.6-0.3-0.9-0.6c-0.3-0.3-0.4-0.7-0.4-1.2c0-0.4,0.1-0.8,0.3-1.1c0.2-0.3,0.6-0.6,1-0.8
		c0.4-0.2,1-0.3,1.6-0.3c0.9,0,1.6,0.2,2.2,0.7c0.5,0.5,0.8,1,0.9,1.8H250c0-0.3-0.1-0.5-0.3-0.6s-0.4-0.2-0.7-0.2
		c-0.3,0-0.5,0-0.6,0.1c-0.1,0.1-0.2,0.2-0.2,0.4c0,0.2,0.1,0.4,0.3,0.5s0.6,0.2,1,0.3c0.5,0.1,1,0.3,1.3,0.4s0.6,0.4,0.9,0.6
		c0.3,0.3,0.4,0.7,0.4,1.2c0,0.4-0.1,0.8-0.4,1.1c-0.2,0.3-0.6,0.6-1,0.8s-1,0.3-1.6,0.3C248.5,222.3,247.9,222.2,247.4,222z"/>
</g>
<g>
	<path class="st10" d="M84.1,234.7c0.2,0.2,0.3,0.5,0.3,0.8c0,0.4-0.2,0.7-0.5,1s-0.8,0.3-1.4,0.3h-2.3v-4.9h2.1
		c0.5,0,1,0.1,1.3,0.3s0.5,0.5,0.5,0.9c0,0.3-0.1,0.5-0.2,0.7c-0.1,0.2-0.3,0.3-0.5,0.4C83.7,234.4,83.9,234.5,84.1,234.7z
		 M80.8,232.3v1.8h1.6c0.4,0,0.7-0.1,0.9-0.2s0.3-0.4,0.3-0.7c0-0.3-0.1-0.5-0.3-0.7c-0.2-0.2-0.5-0.2-0.9-0.2H80.8z M83.5,236.2
		c0.2-0.1,0.3-0.4,0.3-0.7c0-0.6-0.4-0.9-1.3-0.9h-1.7v1.8h1.7C83,236.4,83.3,236.3,83.5,236.2z"/>
	<path class="st10" d="M89.9,233.3c0.2-0.1,0.5-0.2,0.9-0.2v0.5l-0.1,0c-0.4,0-0.7,0.1-0.9,0.4c-0.2,0.2-0.3,0.6-0.3,1v1.9H89v-3.7
		h0.5v0.7C89.5,233.6,89.7,233.4,89.9,233.3z"/>
	<path class="st10" d="M95.2,232.2c-0.1-0.1-0.1-0.2-0.1-0.3c0-0.1,0-0.2,0.1-0.2c0.1-0.1,0.2-0.1,0.3-0.1s0.2,0,0.3,0.1
		s0.1,0.1,0.1,0.2c0,0.1,0,0.2-0.1,0.3c-0.1,0.1-0.2,0.1-0.3,0.1S95.3,232.3,95.2,232.2z M95.2,233.1h0.5v3.7h-0.5V233.1z"/>
	<path class="st10" d="M103.6,233.5c0.3,0.3,0.4,0.7,0.4,1.2v2.1h-0.5v-2.1c0-0.4-0.1-0.7-0.3-0.9c-0.2-0.2-0.5-0.3-0.8-0.3
		c-0.4,0-0.7,0.1-0.9,0.4c-0.2,0.2-0.3,0.6-0.3,1v1.9h-0.5v-3.7h0.5v0.7c0.1-0.2,0.3-0.4,0.6-0.5c0.2-0.1,0.5-0.2,0.8-0.2
		C102.9,233.1,103.3,233.2,103.6,233.5z"/>
	<path class="st10" d="M112.2,233.1v3.2c0,0.6-0.2,1.1-0.5,1.4s-0.8,0.5-1.4,0.5c-0.3,0-0.7,0-1-0.2s-0.6-0.2-0.7-0.4l0.3-0.4
		c0.2,0.2,0.4,0.3,0.6,0.4c0.3,0.1,0.5,0.1,0.8,0.1c0.5,0,0.8-0.1,1-0.3c0.2-0.2,0.3-0.6,0.3-1V236c-0.2,0.2-0.4,0.4-0.6,0.5
		c-0.2,0.1-0.5,0.2-0.8,0.2c-0.3,0-0.7-0.1-0.9-0.2c-0.3-0.2-0.5-0.4-0.7-0.6c-0.2-0.3-0.2-0.6-0.2-0.9c0-0.3,0.1-0.7,0.2-0.9
		s0.4-0.5,0.7-0.6c0.3-0.1,0.6-0.2,0.9-0.2c0.3,0,0.6,0.1,0.8,0.2s0.5,0.3,0.6,0.5v-0.7H112.2z M111.1,236.1
		c0.2-0.1,0.4-0.3,0.5-0.5c0.1-0.2,0.2-0.4,0.2-0.7c0-0.3-0.1-0.5-0.2-0.7s-0.3-0.4-0.5-0.5c-0.2-0.1-0.5-0.2-0.7-0.2
		c-0.3,0-0.5,0.1-0.7,0.2c-0.2,0.1-0.4,0.3-0.5,0.5c-0.1,0.2-0.2,0.4-0.2,0.7c0,0.3,0.1,0.5,0.2,0.7c0.1,0.2,0.3,0.4,0.5,0.5
		c0.2,0.1,0.5,0.2,0.7,0.2C110.6,236.2,110.9,236.2,111.1,236.1z"/>
	<path class="st10" d="M123.4,236.5c-0.4-0.2-0.7-0.5-0.9-0.9c-0.2-0.4-0.3-0.8-0.3-1.3s0.1-0.9,0.3-1.3c0.2-0.4,0.5-0.7,0.9-0.9
		c0.4-0.2,0.8-0.3,1.3-0.3c0.4,0,0.7,0.1,1,0.2c0.3,0.1,0.6,0.3,0.8,0.5l-0.3,0.3c-0.4-0.4-0.9-0.6-1.4-0.6c-0.4,0-0.7,0.1-1.1,0.3
		c-0.3,0.2-0.6,0.4-0.7,0.7s-0.3,0.7-0.3,1s0.1,0.7,0.3,1c0.2,0.3,0.4,0.6,0.7,0.7c0.3,0.2,0.7,0.3,1.1,0.3c0.6,0,1.1-0.2,1.4-0.6
		l0.3,0.3c-0.2,0.2-0.5,0.4-0.8,0.5c-0.3,0.1-0.6,0.2-1,0.2C124.2,236.9,123.8,236.7,123.4,236.5z"/>
	<path class="st10" d="M131.4,236.6c-0.3-0.2-0.5-0.4-0.7-0.7c-0.2-0.3-0.2-0.6-0.2-1s0.1-0.7,0.2-1c0.2-0.3,0.4-0.5,0.7-0.7
		c0.3-0.2,0.6-0.2,1-0.2s0.7,0.1,1,0.2c0.3,0.2,0.5,0.4,0.7,0.7c0.2,0.3,0.2,0.6,0.2,1s-0.1,0.7-0.2,1c-0.2,0.3-0.4,0.5-0.7,0.7
		c-0.3,0.2-0.6,0.2-1,0.2S131.7,236.8,131.4,236.6z M133.1,236.2c0.2-0.1,0.4-0.3,0.5-0.5c0.1-0.2,0.2-0.5,0.2-0.7
		c0-0.3-0.1-0.5-0.2-0.7c-0.1-0.2-0.3-0.4-0.5-0.5s-0.4-0.2-0.7-0.2c-0.3,0-0.5,0.1-0.7,0.2c-0.2,0.1-0.4,0.3-0.5,0.5
		c-0.1,0.2-0.2,0.5-0.2,0.7c0,0.3,0.1,0.5,0.2,0.7c0.1,0.2,0.3,0.4,0.5,0.5c0.2,0.1,0.4,0.2,0.7,0.2
		C132.6,236.4,132.8,236.3,133.1,236.2z"/>
	<path class="st10" d="M138.7,231.6h0.5v5.2h-0.5V231.6z"/>
	<path class="st10" d="M144.7,236.6c-0.3-0.2-0.5-0.4-0.7-0.7c-0.2-0.3-0.2-0.6-0.2-1s0.1-0.7,0.2-1c0.2-0.3,0.4-0.5,0.7-0.7
		c0.3-0.2,0.6-0.2,1-0.2s0.7,0.1,1,0.2c0.3,0.2,0.5,0.4,0.7,0.7c0.2,0.3,0.2,0.6,0.2,1s-0.1,0.7-0.2,1c-0.2,0.3-0.4,0.5-0.7,0.7
		c-0.3,0.2-0.6,0.2-1,0.2S144.9,236.8,144.7,236.6z M146.3,236.2c0.2-0.1,0.4-0.3,0.5-0.5c0.1-0.2,0.2-0.5,0.2-0.7
		c0-0.3-0.1-0.5-0.2-0.7c-0.1-0.2-0.3-0.4-0.5-0.5s-0.4-0.2-0.7-0.2c-0.3,0-0.5,0.1-0.7,0.2c-0.2,0.1-0.4,0.3-0.5,0.5
		c-0.1,0.2-0.2,0.5-0.2,0.7c0,0.3,0.1,0.5,0.2,0.7c0.1,0.2,0.3,0.4,0.5,0.5c0.2,0.1,0.4,0.2,0.7,0.2
		C145.9,236.4,146.1,236.3,146.3,236.2z"/>
	<path class="st10" d="M155.3,233.1v3.7h-0.5v-0.7c-0.1,0.2-0.3,0.4-0.5,0.5c-0.2,0.1-0.5,0.2-0.8,0.2c-0.5,0-0.9-0.1-1.1-0.4
		c-0.3-0.3-0.4-0.7-0.4-1.2v-2.1h0.5v2.1c0,0.4,0.1,0.7,0.3,0.9c0.2,0.2,0.5,0.3,0.8,0.3c0.4,0,0.7-0.1,0.9-0.4
		c0.2-0.2,0.3-0.6,0.3-1v-1.9H155.3z"/>
	<path class="st10" d="M161.2,233.3c0.2-0.1,0.5-0.2,0.9-0.2v0.5l-0.1,0c-0.4,0-0.7,0.1-0.9,0.4c-0.2,0.2-0.3,0.6-0.3,1v1.9h-0.5
		v-3.7h0.5v0.7C160.8,233.6,161,233.4,161.2,233.3z"/>
	<path class="st10" d="M166.6,236.7c-0.3-0.1-0.5-0.2-0.6-0.3l0.2-0.4c0.2,0.1,0.3,0.2,0.6,0.3s0.5,0.1,0.7,0.1
		c0.3,0,0.6-0.1,0.7-0.2c0.2-0.1,0.2-0.3,0.2-0.4c0-0.1,0-0.2-0.1-0.3c-0.1-0.1-0.2-0.1-0.3-0.2c-0.1,0-0.3-0.1-0.5-0.1
		c-0.3-0.1-0.5-0.1-0.7-0.2c-0.2-0.1-0.3-0.2-0.5-0.3c-0.1-0.1-0.2-0.3-0.2-0.6c0-0.3,0.1-0.6,0.4-0.8c0.3-0.2,0.6-0.3,1.1-0.3
		c0.2,0,0.5,0,0.7,0.1c0.2,0.1,0.4,0.1,0.6,0.2l-0.2,0.4c-0.3-0.2-0.7-0.3-1.1-0.3c-0.3,0-0.6,0.1-0.7,0.2s-0.2,0.3-0.2,0.4
		c0,0.1,0,0.3,0.1,0.3s0.2,0.1,0.3,0.2c0.1,0,0.3,0.1,0.6,0.1c0.3,0.1,0.5,0.1,0.7,0.2c0.2,0.1,0.3,0.2,0.5,0.3s0.2,0.3,0.2,0.6
		c0,0.3-0.1,0.6-0.4,0.8c-0.3,0.2-0.6,0.3-1.1,0.3C167.2,236.8,166.9,236.8,166.6,236.7z"/>
	<path class="st10" d="M180.7,236.6c-0.1,0.1-0.2,0.1-0.3,0.2c-0.1,0-0.3,0.1-0.4,0.1c-0.3,0-0.6-0.1-0.8-0.3s-0.3-0.5-0.3-0.8v-2.2
		h-0.7v-0.4h0.7v-0.8h0.5v0.8h1.1v0.4h-1.1v2.2c0,0.2,0.1,0.4,0.2,0.5s0.3,0.2,0.5,0.2c0.1,0,0.2,0,0.3,0c0.1,0,0.2-0.1,0.2-0.1
		L180.7,236.6z"/>
	<path class="st10" d="M185.5,236.6c-0.3-0.2-0.5-0.4-0.7-0.7c-0.2-0.3-0.2-0.6-0.2-1s0.1-0.7,0.2-1c0.2-0.3,0.4-0.5,0.7-0.7
		c0.3-0.2,0.6-0.2,1-0.2s0.7,0.1,1,0.2c0.3,0.2,0.5,0.4,0.7,0.7c0.2,0.3,0.2,0.6,0.2,1s-0.1,0.7-0.2,1c-0.2,0.3-0.4,0.5-0.7,0.7
		c-0.3,0.2-0.6,0.2-1,0.2S185.8,236.8,185.5,236.6z M187.2,236.2c0.2-0.1,0.4-0.3,0.5-0.5c0.1-0.2,0.2-0.5,0.2-0.7
		c0-0.3-0.1-0.5-0.2-0.7c-0.1-0.2-0.3-0.4-0.5-0.5s-0.4-0.2-0.7-0.2c-0.3,0-0.5,0.1-0.7,0.2c-0.2,0.1-0.4,0.3-0.5,0.5
		c-0.1,0.2-0.2,0.5-0.2,0.7c0,0.3,0.1,0.5,0.2,0.7c0.1,0.2,0.3,0.4,0.5,0.5c0.2,0.1,0.4,0.2,0.7,0.2
		C186.7,236.4,187,236.3,187.2,236.2z"/>
	<path class="st10" d="M198.3,231.9h0.5v4.5h2.7v0.4h-3.3V231.9z"/>
	<path class="st10" d="M205.8,232.2c-0.1-0.1-0.1-0.2-0.1-0.3c0-0.1,0-0.2,0.1-0.2c0.1-0.1,0.2-0.1,0.3-0.1s0.2,0,0.3,0.1
		s0.1,0.1,0.1,0.2c0,0.1,0,0.2-0.1,0.3c-0.1,0.1-0.2,0.1-0.3,0.1S205.9,232.3,205.8,232.2z M205.8,233.1h0.5v3.7h-0.5V233.1z"/>
	<path class="st10" d="M211.9,232.2c-0.1,0.1-0.2,0.3-0.2,0.5v0.4h1.1v0.4h-1.1v3.3h-0.5v-3.3h-0.7v-0.4h0.7v-0.5
		c0-0.3,0.1-0.6,0.3-0.8c0.2-0.2,0.5-0.3,0.8-0.3c0.1,0,0.3,0,0.4,0.1c0.1,0,0.2,0.1,0.3,0.2l-0.2,0.4c-0.1-0.1-0.3-0.2-0.5-0.2
		C212.2,232,212,232.1,211.9,232.2z"/>
	<path class="st10" d="M220.2,235.1h-3.1c0,0.4,0.2,0.7,0.4,0.9c0.3,0.2,0.6,0.4,1,0.4c0.2,0,0.4,0,0.6-0.1c0.2-0.1,0.4-0.2,0.5-0.4
		l0.3,0.3c-0.2,0.2-0.4,0.3-0.6,0.4s-0.5,0.2-0.8,0.2c-0.4,0-0.7-0.1-1-0.2c-0.3-0.2-0.5-0.4-0.7-0.7c-0.2-0.3-0.2-0.6-0.2-1
		s0.1-0.7,0.2-1c0.2-0.3,0.4-0.5,0.6-0.7c0.3-0.2,0.6-0.2,0.9-0.2s0.6,0.1,0.9,0.2c0.3,0.2,0.5,0.4,0.6,0.7c0.2,0.3,0.2,0.6,0.2,1
		L220.2,235.1z M217.5,233.9c-0.2,0.2-0.4,0.5-0.4,0.9h2.6c0-0.4-0.2-0.7-0.4-0.9c-0.2-0.2-0.5-0.3-0.9-0.3
		C218.1,233.5,217.8,233.6,217.5,233.9z"/>
</g>
</svg>
