<svg width="1440" height="1024" viewBox="0 0 1440 1024" fill="none" xmlns="http://www.w3.org/2000/svg">
<rect width="1440" height="1024" fill="white"/>
<rect x="720" width="720" height="1024" fill="#F2F2F2"/>
<rect x="848" y="330" width="465" height="52" rx="26" fill="white"/>
<rect x="848" y="486" width="465" height="52" rx="26" fill="white"/>
<rect x="848" y="408" width="465" height="52" rx="26" fill="white"/>
<rect x="848" y="564" width="465" height="52" rx="26" fill="white"/>
<g filter="url(#filter0_d_6_50)">
<rect x="848" y="641" width="465" height="52" rx="26" fill="#DEC800"/>
</g>
<path d="M1008.73 218.48V254H1000.52V218.48H1008.73ZM1018.81 224.432C1017.37 224.432 1016.18 224.016 1015.26 223.184C1014.36 222.32 1013.91 221.264 1013.91 220.016C1013.91 218.736 1014.36 217.68 1015.26 216.848C1016.18 215.984 1017.37 215.552 1018.81 215.552C1020.22 215.552 1021.37 215.984 1022.26 216.848C1023.19 217.68 1023.66 218.736 1023.66 220.016C1023.66 221.264 1023.19 222.32 1022.26 223.184C1021.37 224.016 1020.22 224.432 1018.81 224.432ZM1022.89 227.216V254H1014.68V227.216H1022.89ZM1045.16 226.928C1048.29 226.928 1050.79 227.952 1052.64 230C1054.53 232.016 1055.48 234.8 1055.48 238.352V254H1047.32V239.456C1047.32 237.664 1046.85 236.272 1045.92 235.28C1045 234.288 1043.75 233.792 1042.18 233.792C1040.61 233.792 1039.36 234.288 1038.44 235.28C1037.51 236.272 1037.04 237.664 1037.04 239.456V254H1028.84V227.216H1037.04V230.768C1037.88 229.584 1039 228.656 1040.4 227.984C1041.81 227.28 1043.4 226.928 1045.16 226.928ZM1077.55 254L1069.39 242.768V254H1061.18V218.48H1069.39V238.112L1077.5 227.216H1087.63L1076.49 240.656L1087.72 254H1077.55ZM1099.06 218.48V254H1090.85V218.48H1099.06ZM1109.14 224.432C1107.7 224.432 1106.51 224.016 1105.58 223.184C1104.69 222.32 1104.24 221.264 1104.24 220.016C1104.24 218.736 1104.69 217.68 1105.58 216.848C1106.51 215.984 1107.7 215.552 1109.14 215.552C1110.54 215.552 1111.7 215.984 1112.59 216.848C1113.52 217.68 1113.98 218.736 1113.98 220.016C1113.98 221.264 1113.52 222.32 1112.59 223.184C1111.7 224.016 1110.54 224.432 1109.14 224.432ZM1113.22 227.216V254H1105.01V227.216H1113.22ZM1130.06 254.384C1127.72 254.384 1125.64 253.984 1123.82 253.184C1122 252.384 1120.56 251.296 1119.5 249.92C1118.44 248.512 1117.85 246.944 1117.72 245.216H1125.84C1125.93 246.144 1126.36 246.896 1127.13 247.472C1127.9 248.048 1128.84 248.336 1129.96 248.336C1130.99 248.336 1131.77 248.144 1132.32 247.76C1132.89 247.344 1133.18 246.816 1133.18 246.176C1133.18 245.408 1132.78 244.848 1131.98 244.496C1131.18 244.112 1129.88 243.696 1128.09 243.248C1126.17 242.8 1124.57 242.336 1123.29 241.856C1122.01 241.344 1120.91 240.56 1119.98 239.504C1119.05 238.416 1118.59 236.96 1118.59 235.136C1118.59 233.6 1119 232.208 1119.84 230.96C1120.7 229.68 1121.95 228.672 1123.58 227.936C1125.24 227.2 1127.21 226.832 1129.48 226.832C1132.84 226.832 1135.48 227.664 1137.4 229.328C1139.36 230.992 1140.48 233.2 1140.76 235.952H1133.18C1133.05 235.024 1132.64 234.288 1131.93 233.744C1131.26 233.2 1130.36 232.928 1129.24 232.928C1128.28 232.928 1127.55 233.12 1127.04 233.504C1126.52 233.856 1126.27 234.352 1126.27 234.992C1126.27 235.76 1126.67 236.336 1127.47 236.72C1128.3 237.104 1129.58 237.488 1131.31 237.872C1133.29 238.384 1134.91 238.896 1136.16 239.408C1137.4 239.888 1138.49 240.688 1139.42 241.808C1140.38 242.896 1140.88 244.368 1140.91 246.224C1140.91 247.792 1140.46 249.2 1139.56 250.448C1138.7 251.664 1137.44 252.624 1135.77 253.328C1134.14 254.032 1132.24 254.384 1130.06 254.384ZM1160.86 247.04V254H1156.68C1153.71 254 1151.39 253.28 1149.72 251.84C1148.06 250.368 1147.23 247.984 1147.23 244.688V234.032H1143.96V227.216H1147.23V220.688H1155.43V227.216H1160.81V234.032H1155.43V244.784C1155.43 245.584 1155.63 246.16 1156.01 246.512C1156.39 246.864 1157.03 247.04 1157.93 247.04H1160.86Z" fill="black"/>
<path d="M1041.63 677.168C1040.53 677.168 1039.54 676.976 1038.66 676.592C1037.79 676.192 1037.11 675.648 1036.62 674.96C1036.12 674.256 1035.86 673.448 1035.85 672.536H1038.18C1038.26 673.32 1038.58 673.984 1039.14 674.528C1039.71 675.056 1040.54 675.32 1041.63 675.32C1042.67 675.32 1043.49 675.064 1044.08 674.552C1044.69 674.024 1044.99 673.352 1044.99 672.536C1044.99 671.896 1044.82 671.376 1044.46 670.976C1044.11 670.576 1043.67 670.272 1043.14 670.064C1042.62 669.856 1041.9 669.632 1041.01 669.392C1039.9 669.104 1039.02 668.816 1038.34 668.528C1037.69 668.24 1037.12 667.792 1036.64 667.184C1036.18 666.56 1035.94 665.728 1035.94 664.688C1035.94 663.776 1036.18 662.968 1036.64 662.264C1037.1 661.56 1037.75 661.016 1038.58 660.632C1039.43 660.248 1040.4 660.056 1041.49 660.056C1043.06 660.056 1044.34 660.448 1045.33 661.232C1046.34 662.016 1046.9 663.056 1047.03 664.352H1044.63C1044.55 663.712 1044.22 663.152 1043.62 662.672C1043.03 662.176 1042.25 661.928 1041.27 661.928C1040.36 661.928 1039.62 662.168 1039.04 662.648C1038.46 663.112 1038.18 663.768 1038.18 664.616C1038.18 665.224 1038.34 665.72 1038.68 666.104C1039.03 666.488 1039.46 666.784 1039.95 666.992C1040.46 667.184 1041.18 667.408 1042.09 667.664C1043.19 667.968 1044.08 668.272 1044.75 668.576C1045.42 668.864 1046 669.32 1046.48 669.944C1046.96 670.552 1047.2 671.384 1047.2 672.44C1047.2 673.256 1046.98 674.024 1046.55 674.744C1046.12 675.464 1045.48 676.048 1044.63 676.496C1043.78 676.944 1042.78 677.168 1041.63 677.168ZM1052.6 660.272V677H1050.41V660.272H1052.6ZM1068.99 665.12C1068.53 664.144 1067.86 663.392 1066.98 662.864C1066.1 662.32 1065.07 662.048 1063.9 662.048C1062.74 662.048 1061.68 662.32 1060.74 662.864C1059.81 663.392 1059.07 664.16 1058.53 665.168C1058 666.16 1057.74 667.312 1057.74 668.624C1057.74 669.936 1058 671.088 1058.53 672.08C1059.07 673.072 1059.81 673.84 1060.74 674.384C1061.68 674.912 1062.74 675.176 1063.9 675.176C1065.54 675.176 1066.88 674.688 1067.94 673.712C1068.99 672.736 1069.61 671.416 1069.78 669.752H1063.11V667.976H1072.11V669.656C1071.98 671.032 1071.55 672.296 1070.82 673.448C1070.08 674.584 1069.11 675.488 1067.91 676.16C1066.71 676.816 1065.38 677.144 1063.9 677.144C1062.35 677.144 1060.94 676.784 1059.66 676.064C1058.38 675.328 1057.36 674.312 1056.61 673.016C1055.87 671.72 1055.5 670.256 1055.5 668.624C1055.5 666.992 1055.87 665.528 1056.61 664.232C1057.36 662.92 1058.38 661.904 1059.66 661.184C1060.94 660.448 1062.35 660.08 1063.9 660.08C1065.68 660.08 1067.25 660.52 1068.61 661.4C1069.98 662.28 1070.98 663.52 1071.61 665.12H1068.99ZM1088.15 677H1085.97L1077.18 663.68V677H1075V660.248H1077.18L1085.97 673.544V660.248H1088.15V677ZM1100.41 660.272V670.856C1100.41 672.344 1100.77 673.448 1101.49 674.168C1102.23 674.888 1103.24 675.248 1104.54 675.248C1105.82 675.248 1106.82 674.888 1107.54 674.168C1108.27 673.448 1108.64 672.344 1108.64 670.856V660.272H1110.83V670.832C1110.83 672.224 1110.55 673.4 1109.99 674.36C1109.43 675.304 1108.67 676.008 1107.71 676.472C1106.76 676.936 1105.7 677.168 1104.51 677.168C1103.33 677.168 1102.26 676.936 1101.3 676.472C1100.35 676.008 1099.6 675.304 1099.04 674.36C1098.5 673.4 1098.23 672.224 1098.23 670.832V660.272H1100.41ZM1125.65 665.168C1125.65 666.56 1125.17 667.72 1124.21 668.648C1123.27 669.56 1121.82 670.016 1119.87 670.016H1116.65V677H1114.47V660.272H1119.87C1121.76 660.272 1123.19 660.728 1124.17 661.64C1125.16 662.552 1125.65 663.728 1125.65 665.168ZM1119.87 668.216C1121.09 668.216 1121.98 667.952 1122.56 667.424C1123.13 666.896 1123.42 666.144 1123.42 665.168C1123.42 663.104 1122.24 662.072 1119.87 662.072H1116.65V668.216H1119.87Z" fill="white"/>
<path d="M949.725 741.83H945.469L944.685 744H943.341L946.869 734.298H948.339L951.853 744H950.509L949.725 741.83ZM949.361 740.794L947.597 735.866L945.833 740.794H949.361ZM954.665 733.64V744H953.391V733.64H954.665ZM958.11 737.574C958.334 737.135 958.651 736.795 959.062 736.552C959.482 736.309 959.99 736.188 960.588 736.188V737.504H960.252C958.824 737.504 958.11 738.279 958.11 739.828V744H956.836V736.328H958.11V737.574ZM969.058 739.87C969.058 740.113 969.044 740.369 969.016 740.64H962.884C962.931 741.396 963.188 741.989 963.654 742.418C964.13 742.838 964.704 743.048 965.376 743.048C965.927 743.048 966.384 742.922 966.748 742.67C967.122 742.409 967.383 742.063 967.532 741.634H968.904C968.699 742.371 968.288 742.973 967.672 743.44C967.056 743.897 966.291 744.126 965.376 744.126C964.648 744.126 963.995 743.963 963.416 743.636C962.847 743.309 962.399 742.847 962.072 742.25C961.746 741.643 961.582 740.943 961.582 740.15C961.582 739.357 961.741 738.661 962.058 738.064C962.376 737.467 962.819 737.009 963.388 736.692C963.967 736.365 964.63 736.202 965.376 736.202C966.104 736.202 966.748 736.361 967.308 736.678C967.868 736.995 968.298 737.434 968.596 737.994C968.904 738.545 969.058 739.17 969.058 739.87ZM967.742 739.604C967.742 739.119 967.635 738.703 967.42 738.358C967.206 738.003 966.912 737.737 966.538 737.56C966.174 737.373 965.768 737.28 965.32 737.28C964.676 737.28 964.126 737.485 963.668 737.896C963.22 738.307 962.964 738.876 962.898 739.604H967.742ZM970.264 740.136C970.264 739.352 970.423 738.666 970.74 738.078C971.057 737.481 971.491 737.019 972.042 736.692C972.602 736.365 973.223 736.202 973.904 736.202C974.576 736.202 975.159 736.347 975.654 736.636C976.149 736.925 976.517 737.289 976.76 737.728V736.328H978.048V744H976.76V742.572C976.508 743.02 976.13 743.393 975.626 743.692C975.131 743.981 974.553 744.126 973.89 744.126C973.209 744.126 972.593 743.958 972.042 743.622C971.491 743.286 971.057 742.815 970.74 742.208C970.423 741.601 970.264 740.911 970.264 740.136ZM976.76 740.15C976.76 739.571 976.643 739.067 976.41 738.638C976.177 738.209 975.859 737.882 975.458 737.658C975.066 737.425 974.632 737.308 974.156 737.308C973.68 737.308 973.246 737.42 972.854 737.644C972.462 737.868 972.149 738.195 971.916 738.624C971.683 739.053 971.566 739.557 971.566 740.136C971.566 740.724 971.683 741.237 971.916 741.676C972.149 742.105 972.462 742.437 972.854 742.67C973.246 742.894 973.68 743.006 974.156 743.006C974.632 743.006 975.066 742.894 975.458 742.67C975.859 742.437 976.177 742.105 976.41 741.676C976.643 741.237 976.76 740.729 976.76 740.15ZM979.725 740.136C979.725 739.352 979.884 738.666 980.201 738.078C980.518 737.481 980.952 737.019 981.503 736.692C982.063 736.365 982.688 736.202 983.379 736.202C983.976 736.202 984.532 736.342 985.045 736.622C985.558 736.893 985.95 737.252 986.221 737.7V733.64H987.509V744H986.221V742.558C985.969 743.015 985.596 743.393 985.101 743.692C984.606 743.981 984.028 744.126 983.365 744.126C982.684 744.126 982.063 743.958 981.503 743.622C980.952 743.286 980.518 742.815 980.201 742.208C979.884 741.601 979.725 740.911 979.725 740.136ZM986.221 740.15C986.221 739.571 986.104 739.067 985.871 738.638C985.638 738.209 985.32 737.882 984.919 737.658C984.527 737.425 984.093 737.308 983.617 737.308C983.141 737.308 982.707 737.42 982.315 737.644C981.923 737.868 981.61 738.195 981.377 738.624C981.144 739.053 981.027 739.557 981.027 740.136C981.027 740.724 981.144 741.237 981.377 741.676C981.61 742.105 981.923 742.437 982.315 742.67C982.707 742.894 983.141 743.006 983.617 743.006C984.093 743.006 984.527 742.894 984.919 742.67C985.32 742.437 985.638 742.105 985.871 741.676C986.104 741.237 986.221 740.729 986.221 740.15ZM996.27 736.328L991.65 747.612H990.334L991.846 743.916L988.752 736.328H990.166L992.574 742.544L994.954 736.328H996.27ZM1005.09 736.188C1005.67 736.188 1006.19 736.314 1006.66 736.566C1007.13 736.809 1007.49 737.177 1007.75 737.672C1008.02 738.167 1008.16 738.769 1008.16 739.478V744H1006.9V739.66C1006.9 738.895 1006.71 738.311 1006.32 737.91C1005.94 737.499 1005.42 737.294 1004.76 737.294C1004.08 737.294 1003.55 737.504 1003.15 737.924C1002.75 738.344 1002.56 738.955 1002.56 739.758V744H1001.28V733.64H1002.56V737.42C1002.81 737.028 1003.15 736.725 1003.59 736.51C1004.04 736.295 1004.54 736.188 1005.09 736.188ZM1009.76 740.136C1009.76 739.352 1009.92 738.666 1010.24 738.078C1010.56 737.481 1010.99 737.019 1011.54 736.692C1012.1 736.365 1012.72 736.202 1013.4 736.202C1014.07 736.202 1014.66 736.347 1015.15 736.636C1015.65 736.925 1016.02 737.289 1016.26 737.728V736.328H1017.55V744H1016.26V742.572C1016.01 743.02 1015.63 743.393 1015.12 743.692C1014.63 743.981 1014.05 744.126 1013.39 744.126C1012.71 744.126 1012.09 743.958 1011.54 743.622C1010.99 743.286 1010.56 742.815 1010.24 742.208C1009.92 741.601 1009.76 740.911 1009.76 740.136ZM1016.26 740.15C1016.26 739.571 1016.14 739.067 1015.91 738.638C1015.67 738.209 1015.36 737.882 1014.96 737.658C1014.56 737.425 1014.13 737.308 1013.65 737.308C1013.18 737.308 1012.74 737.42 1012.35 737.644C1011.96 737.868 1011.65 738.195 1011.41 738.624C1011.18 739.053 1011.06 739.557 1011.06 740.136C1011.06 740.724 1011.18 741.237 1011.41 741.676C1011.65 742.105 1011.96 742.437 1012.35 742.67C1012.74 742.894 1013.18 743.006 1013.65 743.006C1014.13 743.006 1014.56 742.894 1014.96 742.67C1015.36 742.437 1015.67 742.105 1015.91 741.676C1016.14 741.237 1016.26 740.729 1016.26 740.15ZM1022.56 742.824L1024.94 736.328H1026.29L1023.28 744H1021.8L1018.79 736.328H1020.16L1022.56 742.824ZM1034.55 739.87C1034.55 740.113 1034.53 740.369 1034.5 740.64H1028.37C1028.42 741.396 1028.68 741.989 1029.14 742.418C1029.62 742.838 1030.19 743.048 1030.86 743.048C1031.42 743.048 1031.87 742.922 1032.24 742.67C1032.61 742.409 1032.87 742.063 1033.02 741.634H1034.39C1034.19 742.371 1033.78 742.973 1033.16 743.44C1032.54 743.897 1031.78 744.126 1030.86 744.126C1030.14 744.126 1029.48 743.963 1028.9 743.636C1028.34 743.309 1027.89 742.847 1027.56 742.25C1027.23 741.643 1027.07 740.943 1027.07 740.15C1027.07 739.357 1027.23 738.661 1027.55 738.064C1027.86 737.467 1028.31 737.009 1028.88 736.692C1029.46 736.365 1030.12 736.202 1030.86 736.202C1031.59 736.202 1032.24 736.361 1032.8 736.678C1033.36 736.995 1033.79 737.434 1034.08 737.994C1034.39 738.545 1034.55 739.17 1034.55 739.87ZM1033.23 739.604C1033.23 739.119 1033.12 738.703 1032.91 738.358C1032.69 738.003 1032.4 737.737 1032.03 737.56C1031.66 737.373 1031.26 737.28 1030.81 737.28C1030.16 737.28 1029.61 737.485 1029.16 737.896C1028.71 738.307 1028.45 738.876 1028.39 739.604H1033.23ZM1039.48 740.136C1039.48 739.352 1039.64 738.666 1039.96 738.078C1040.28 737.481 1040.71 737.019 1041.26 736.692C1041.82 736.365 1042.44 736.202 1043.12 736.202C1043.8 736.202 1044.38 736.347 1044.87 736.636C1045.37 736.925 1045.74 737.289 1045.98 737.728V736.328H1047.27V744H1045.98V742.572C1045.73 743.02 1045.35 743.393 1044.85 743.692C1044.35 743.981 1043.77 744.126 1043.11 744.126C1042.43 744.126 1041.81 743.958 1041.26 743.622C1040.71 743.286 1040.28 742.815 1039.96 742.208C1039.64 741.601 1039.48 740.911 1039.48 740.136ZM1045.98 740.15C1045.98 739.571 1045.86 739.067 1045.63 738.638C1045.4 738.209 1045.08 737.882 1044.68 737.658C1044.29 737.425 1043.85 737.308 1043.38 737.308C1042.9 737.308 1042.47 737.42 1042.07 737.644C1041.68 737.868 1041.37 738.195 1041.14 738.624C1040.9 739.053 1040.79 739.557 1040.79 740.136C1040.79 740.724 1040.9 741.237 1041.14 741.676C1041.37 742.105 1041.68 742.437 1042.07 742.67C1042.47 742.894 1042.9 743.006 1043.38 743.006C1043.85 743.006 1044.29 742.894 1044.68 742.67C1045.08 742.437 1045.4 742.105 1045.63 741.676C1045.86 741.237 1045.98 740.729 1045.98 740.15ZM1053.16 736.188C1054.09 736.188 1054.85 736.473 1055.43 737.042C1056.01 737.602 1056.3 738.414 1056.3 739.478V744H1055.04V739.66C1055.04 738.895 1054.84 738.311 1054.46 737.91C1054.08 737.499 1053.56 737.294 1052.89 737.294C1052.22 737.294 1051.69 737.504 1051.28 737.924C1050.89 738.344 1050.7 738.955 1050.7 739.758V744H1049.42V736.328H1050.7V737.42C1050.95 737.028 1051.29 736.725 1051.72 736.51C1052.16 736.295 1052.64 736.188 1053.16 736.188ZM1061.63 740.136C1061.63 739.352 1061.79 738.666 1062.11 738.078C1062.43 737.481 1062.86 737.019 1063.41 736.692C1063.97 736.365 1064.59 736.202 1065.27 736.202C1065.95 736.202 1066.53 736.347 1067.02 736.636C1067.52 736.925 1067.89 737.289 1068.13 737.728V736.328H1069.42V744H1068.13V742.572C1067.88 743.02 1067.5 743.393 1067 743.692C1066.5 743.981 1065.92 744.126 1065.26 744.126C1064.58 744.126 1063.96 743.958 1063.41 743.622C1062.86 743.286 1062.43 742.815 1062.11 742.208C1061.79 741.601 1061.63 740.911 1061.63 740.136ZM1068.13 740.15C1068.13 739.571 1068.01 739.067 1067.78 738.638C1067.55 738.209 1067.23 737.882 1066.83 737.658C1066.44 737.425 1066 737.308 1065.53 737.308C1065.05 737.308 1064.62 737.42 1064.22 737.644C1063.83 737.868 1063.52 738.195 1063.29 738.624C1063.05 739.053 1062.94 739.557 1062.94 740.136C1062.94 740.724 1063.05 741.237 1063.29 741.676C1063.52 742.105 1063.83 742.437 1064.22 742.67C1064.62 742.894 1065.05 743.006 1065.53 743.006C1066 743.006 1066.44 742.894 1066.83 742.67C1067.23 742.437 1067.55 742.105 1067.78 741.676C1068.01 741.237 1068.13 740.729 1068.13 740.15ZM1071.09 740.15C1071.09 739.357 1071.25 738.666 1071.57 738.078C1071.89 737.481 1072.33 737.019 1072.89 736.692C1073.46 736.365 1074.1 736.202 1074.83 736.202C1075.77 736.202 1076.55 736.431 1077.16 736.888C1077.77 737.345 1078.18 737.98 1078.37 738.792H1077C1076.87 738.325 1076.61 737.957 1076.23 737.686C1075.86 737.415 1075.39 737.28 1074.83 737.28C1074.1 737.28 1073.52 737.532 1073.07 738.036C1072.62 738.531 1072.4 739.235 1072.4 740.15C1072.4 741.074 1072.62 741.788 1073.07 742.292C1073.52 742.796 1074.1 743.048 1074.83 743.048C1075.39 743.048 1075.86 742.917 1076.23 742.656C1076.61 742.395 1076.86 742.021 1077 741.536H1078.37C1078.17 742.32 1077.76 742.95 1077.14 743.426C1076.53 743.893 1075.76 744.126 1074.83 744.126C1074.1 744.126 1073.46 743.963 1072.89 743.636C1072.33 743.309 1071.89 742.847 1071.57 742.25C1071.25 741.653 1071.09 740.953 1071.09 740.15ZM1079.6 740.15C1079.6 739.357 1079.76 738.666 1080.07 738.078C1080.39 737.481 1080.83 737.019 1081.39 736.692C1081.96 736.365 1082.61 736.202 1083.34 736.202C1084.28 736.202 1085.05 736.431 1085.66 736.888C1086.28 737.345 1086.68 737.98 1086.88 738.792H1085.51C1085.38 738.325 1085.12 737.957 1084.74 737.686C1084.36 737.415 1083.9 737.28 1083.34 737.28C1082.61 737.28 1082.02 737.532 1081.57 738.036C1081.12 738.531 1080.9 739.235 1080.9 740.15C1080.9 741.074 1081.12 741.788 1081.57 742.292C1082.02 742.796 1082.61 743.048 1083.34 743.048C1083.9 743.048 1084.36 742.917 1084.74 742.656C1085.11 742.395 1085.37 742.021 1085.51 741.536H1086.88C1086.67 742.32 1086.26 742.95 1085.65 743.426C1085.03 743.893 1084.26 744.126 1083.34 744.126C1082.61 744.126 1081.96 743.963 1081.39 743.636C1080.83 743.309 1080.39 742.847 1080.07 742.25C1079.76 741.653 1079.6 740.953 1079.6 740.15ZM1091.92 744.126C1091.21 744.126 1090.55 743.963 1089.96 743.636C1089.39 743.309 1088.93 742.847 1088.59 742.25C1088.27 741.643 1088.1 740.943 1088.1 740.15C1088.1 739.366 1088.27 738.675 1088.61 738.078C1088.95 737.471 1089.42 737.009 1090.01 736.692C1090.59 736.365 1091.25 736.202 1091.98 736.202C1092.71 736.202 1093.37 736.365 1093.95 736.692C1094.54 737.009 1095 737.467 1095.34 738.064C1095.69 738.661 1095.86 739.357 1095.86 740.15C1095.86 740.943 1095.68 741.643 1095.33 742.25C1094.98 742.847 1094.51 743.309 1093.91 743.636C1093.31 743.963 1092.65 744.126 1091.92 744.126ZM1091.92 743.006C1092.38 743.006 1092.81 742.899 1093.21 742.684C1093.61 742.469 1093.94 742.147 1094.18 741.718C1094.43 741.289 1094.56 740.766 1094.56 740.15C1094.56 739.534 1094.43 739.011 1094.19 738.582C1093.95 738.153 1093.63 737.835 1093.24 737.63C1092.85 737.415 1092.42 737.308 1091.97 737.308C1091.5 737.308 1091.07 737.415 1090.68 737.63C1090.3 737.835 1089.99 738.153 1089.75 738.582C1089.52 739.011 1089.4 739.534 1089.4 740.15C1089.4 740.775 1089.52 741.303 1089.74 741.732C1089.97 742.161 1090.28 742.483 1090.66 742.698C1091.05 742.903 1091.47 743.006 1091.92 743.006ZM1104.34 736.328V744H1103.06V742.866C1102.82 743.258 1102.48 743.566 1102.04 743.79C1101.61 744.005 1101.14 744.112 1100.61 744.112C1100.02 744.112 1099.48 743.991 1099 743.748C1098.53 743.496 1098.15 743.123 1097.87 742.628C1097.6 742.133 1097.46 741.531 1097.46 740.822V736.328H1098.72V740.654C1098.72 741.41 1098.91 741.993 1099.3 742.404C1099.68 742.805 1100.2 743.006 1100.87 743.006C1101.55 743.006 1102.08 742.796 1102.48 742.376C1102.87 741.956 1103.06 741.345 1103.06 740.542V736.328H1104.34ZM1110.23 736.188C1111.16 736.188 1111.92 736.473 1112.49 737.042C1113.07 737.602 1113.36 738.414 1113.36 739.478V744H1112.1V739.66C1112.1 738.895 1111.91 738.311 1111.53 737.91C1111.15 737.499 1110.62 737.294 1109.96 737.294C1109.29 737.294 1108.75 737.504 1108.35 737.924C1107.96 738.344 1107.76 738.955 1107.76 739.758V744H1106.49V736.328H1107.76V737.42C1108.01 737.028 1108.35 736.725 1108.78 736.51C1109.22 736.295 1109.7 736.188 1110.23 736.188ZM1117 737.378V741.9C1117 742.273 1117.08 742.539 1117.24 742.698C1117.39 742.847 1117.67 742.922 1118.06 742.922H1119V744H1117.85C1117.14 744 1116.61 743.837 1116.26 743.51C1115.9 743.183 1115.72 742.647 1115.72 741.9V737.378H1114.73V736.328H1115.72V734.396H1117V736.328H1119V737.378H1117ZM1123.03 734.116C1123.96 734.116 1124.71 734.377 1125.27 734.9C1125.84 735.423 1126.13 736.123 1126.13 737C1126.13 737.98 1125.83 738.708 1125.22 739.184C1124.61 739.651 1123.79 739.884 1122.75 739.884L1122.71 741.214H1121.61L1121.55 739.002H1121.96C1122.88 739.002 1123.6 738.862 1124.13 738.582C1124.65 738.302 1124.91 737.775 1124.91 737C1124.91 736.44 1124.74 735.997 1124.41 735.67C1124.07 735.343 1123.62 735.18 1123.05 735.18C1122.47 735.18 1122.01 735.339 1121.68 735.656C1121.35 735.964 1121.19 736.389 1121.19 736.93H1119.98C1119.98 736.37 1120.11 735.88 1120.36 735.46C1120.61 735.031 1120.97 734.699 1121.42 734.466C1121.89 734.233 1122.43 734.116 1123.03 734.116ZM1122.15 744.084C1121.91 744.084 1121.7 744 1121.54 743.832C1121.37 743.664 1121.28 743.459 1121.28 743.216C1121.28 742.973 1121.37 742.768 1121.54 742.6C1121.7 742.432 1121.91 742.348 1122.15 742.348C1122.39 742.348 1122.58 742.432 1122.74 742.6C1122.91 742.768 1122.99 742.973 1122.99 743.216C1122.99 743.459 1122.91 743.664 1122.74 743.832C1122.58 744 1122.39 744.084 1122.15 744.084ZM1138.7 744.098C1137.98 744.098 1137.33 743.981 1136.76 743.748C1136.19 743.515 1135.74 743.169 1135.39 742.712C1135.06 742.255 1134.88 741.704 1134.86 741.06H1137.41C1137.44 741.424 1137.57 741.704 1137.79 741.9C1138 742.087 1138.28 742.18 1138.63 742.18C1138.98 742.18 1139.26 742.101 1139.47 741.942C1139.67 741.774 1139.77 741.545 1139.77 741.256C1139.77 741.013 1139.69 740.813 1139.52 740.654C1139.36 740.495 1139.16 740.365 1138.92 740.262C1138.69 740.159 1138.35 740.043 1137.91 739.912C1137.28 739.716 1136.76 739.52 1136.36 739.324C1135.96 739.128 1135.61 738.839 1135.32 738.456C1135.03 738.073 1134.89 737.574 1134.89 736.958C1134.89 736.043 1135.22 735.329 1135.88 734.816C1136.54 734.293 1137.41 734.032 1138.47 734.032C1139.55 734.032 1140.43 734.293 1141.09 734.816C1141.75 735.329 1142.11 736.048 1142.15 736.972H1139.56C1139.54 736.655 1139.43 736.407 1139.21 736.23C1139 736.043 1138.72 735.95 1138.39 735.95C1138.1 735.95 1137.86 736.029 1137.69 736.188C1137.51 736.337 1137.42 736.557 1137.42 736.846C1137.42 737.163 1137.57 737.411 1137.87 737.588C1138.17 737.765 1138.63 737.957 1139.27 738.162C1139.9 738.377 1140.42 738.582 1140.81 738.778C1141.21 738.974 1141.56 739.259 1141.85 739.632C1142.13 740.005 1142.28 740.486 1142.28 741.074C1142.28 741.634 1142.13 742.143 1141.85 742.6C1141.57 743.057 1141.15 743.421 1140.61 743.692C1140.07 743.963 1139.43 744.098 1138.7 744.098ZM1144.96 735.376C1144.54 735.376 1144.19 735.255 1143.92 735.012C1143.66 734.76 1143.53 734.452 1143.53 734.088C1143.53 733.715 1143.66 733.407 1143.92 733.164C1144.19 732.912 1144.54 732.786 1144.96 732.786C1145.37 732.786 1145.7 732.912 1145.96 733.164C1146.24 733.407 1146.37 733.715 1146.37 734.088C1146.37 734.452 1146.24 734.76 1145.96 735.012C1145.7 735.255 1145.37 735.376 1144.96 735.376ZM1146.15 736.188V744H1143.75V736.188H1146.15ZM1150.85 736.076C1151.4 736.076 1151.88 736.188 1152.29 736.412C1152.71 736.636 1153.03 736.93 1153.26 737.294V736.188H1155.65V743.986C1155.65 744.705 1155.51 745.353 1155.22 745.932C1154.94 746.52 1154.5 746.987 1153.92 747.332C1153.34 747.677 1152.61 747.85 1151.75 747.85C1150.59 747.85 1149.65 747.575 1148.93 747.024C1148.21 746.483 1147.8 745.745 1147.7 744.812H1150.07C1150.14 745.111 1150.32 745.344 1150.6 745.512C1150.88 745.689 1151.22 745.778 1151.63 745.778C1152.13 745.778 1152.52 745.633 1152.81 745.344C1153.11 745.064 1153.26 744.611 1153.26 743.986V742.88C1153.02 743.244 1152.7 743.543 1152.29 743.776C1151.88 744 1151.4 744.112 1150.85 744.112C1150.21 744.112 1149.62 743.949 1149.1 743.622C1148.58 743.286 1148.16 742.815 1147.85 742.208C1147.56 741.592 1147.41 740.883 1147.41 740.08C1147.41 739.277 1147.56 738.573 1147.85 737.966C1148.16 737.359 1148.58 736.893 1149.1 736.566C1149.62 736.239 1150.21 736.076 1150.85 736.076ZM1153.26 740.094C1153.26 739.497 1153.09 739.025 1152.75 738.68C1152.43 738.335 1152.03 738.162 1151.55 738.162C1151.07 738.162 1150.67 738.335 1150.33 738.68C1150.01 739.016 1149.84 739.483 1149.84 740.08C1149.84 740.677 1150.01 741.153 1150.33 741.508C1150.67 741.853 1151.07 742.026 1151.55 742.026C1152.03 742.026 1152.43 741.853 1152.75 741.508C1153.09 741.163 1153.26 740.691 1153.26 740.094ZM1162.14 736.104C1163.06 736.104 1163.79 736.403 1164.33 737C1164.88 737.588 1165.15 738.4 1165.15 739.436V744H1162.77V739.758C1162.77 739.235 1162.64 738.829 1162.37 738.54C1162.1 738.251 1161.73 738.106 1161.28 738.106C1160.82 738.106 1160.45 738.251 1160.18 738.54C1159.91 738.829 1159.78 739.235 1159.78 739.758V744H1157.38V736.188H1159.78V737.224C1160.02 736.879 1160.35 736.608 1160.76 736.412C1161.17 736.207 1161.63 736.104 1162.14 736.104ZM1170.99 735.376C1170.57 735.376 1170.22 735.255 1169.95 735.012C1169.69 734.76 1169.56 734.452 1169.56 734.088C1169.56 733.715 1169.69 733.407 1169.95 733.164C1170.22 732.912 1170.57 732.786 1170.99 732.786C1171.4 732.786 1171.73 732.912 1172 733.164C1172.27 733.407 1172.4 733.715 1172.4 734.088C1172.4 734.452 1172.27 734.76 1172 735.012C1171.73 735.255 1171.4 735.376 1170.99 735.376ZM1172.18 736.188V744H1169.78V736.188H1172.18ZM1178.67 736.104C1179.59 736.104 1180.32 736.403 1180.86 737C1181.41 737.588 1181.68 738.4 1181.68 739.436V744H1179.3V739.758C1179.3 739.235 1179.17 738.829 1178.9 738.54C1178.63 738.251 1178.26 738.106 1177.8 738.106C1177.35 738.106 1176.98 738.251 1176.71 738.54C1176.44 738.829 1176.31 739.235 1176.31 739.758V744H1173.91V736.188H1176.31V737.224C1176.55 736.879 1176.88 736.608 1177.29 736.412C1177.7 736.207 1178.16 736.104 1178.67 736.104ZM1191.12 736.104C1192.01 736.104 1192.73 736.403 1193.27 737C1193.81 737.588 1194.08 738.4 1194.08 739.436V744H1191.7V739.758C1191.7 739.235 1191.57 738.829 1191.3 738.54C1191.03 738.251 1190.66 738.106 1190.21 738.106C1189.75 738.106 1189.38 738.251 1189.11 738.54C1188.84 738.829 1188.71 739.235 1188.71 739.758V744H1186.31V733.64H1188.71V737.238C1188.95 736.893 1189.28 736.617 1189.7 736.412C1190.12 736.207 1190.59 736.104 1191.12 736.104ZM1203.11 739.968C1203.11 740.192 1203.1 740.425 1203.07 740.668H1197.65C1197.69 741.153 1197.84 741.527 1198.11 741.788C1198.39 742.04 1198.73 742.166 1199.13 742.166C1199.73 742.166 1200.15 741.914 1200.38 741.41H1202.93C1202.8 741.923 1202.56 742.385 1202.21 742.796C1201.88 743.207 1201.45 743.529 1200.94 743.762C1200.43 743.995 1199.85 744.112 1199.22 744.112C1198.45 744.112 1197.77 743.949 1197.17 743.622C1196.58 743.295 1196.11 742.829 1195.77 742.222C1195.44 741.615 1195.27 740.906 1195.27 740.094C1195.27 739.282 1195.43 738.573 1195.76 737.966C1196.1 737.359 1196.56 736.893 1197.16 736.566C1197.76 736.239 1198.44 736.076 1199.22 736.076C1199.97 736.076 1200.65 736.235 1201.23 736.552C1201.82 736.869 1202.28 737.322 1202.61 737.91C1202.94 738.498 1203.11 739.184 1203.11 739.968ZM1200.66 739.338C1200.66 738.927 1200.52 738.601 1200.24 738.358C1199.96 738.115 1199.61 737.994 1199.19 737.994C1198.79 737.994 1198.45 738.111 1198.17 738.344C1197.9 738.577 1197.73 738.909 1197.66 739.338H1200.66ZM1206.77 737.49C1207.05 737.061 1207.4 736.725 1207.82 736.482C1208.24 736.23 1208.7 736.104 1209.22 736.104V738.638H1208.56C1207.96 738.638 1207.51 738.769 1207.22 739.03C1206.92 739.282 1206.77 739.73 1206.77 740.374V744H1204.37V736.188H1206.77V737.49ZM1217.73 739.968C1217.73 740.192 1217.71 740.425 1217.68 740.668H1212.27C1212.3 741.153 1212.46 741.527 1212.73 741.788C1213.01 742.04 1213.35 742.166 1213.75 742.166C1214.35 742.166 1214.76 741.914 1215 741.41H1217.54C1217.41 741.923 1217.18 742.385 1216.83 742.796C1216.49 743.207 1216.07 743.529 1215.56 743.762C1215.04 743.995 1214.47 744.112 1213.83 744.112C1213.07 744.112 1212.39 743.949 1211.79 743.622C1211.19 743.295 1210.73 742.829 1210.39 742.222C1210.05 741.615 1209.89 740.906 1209.89 740.094C1209.89 739.282 1210.05 738.573 1210.38 737.966C1210.71 737.359 1211.18 736.893 1211.78 736.566C1212.37 736.239 1213.06 736.076 1213.83 736.076C1214.59 736.076 1215.26 736.235 1215.85 736.552C1216.44 736.869 1216.9 737.322 1217.22 737.91C1217.56 738.498 1217.73 739.184 1217.73 739.968ZM1215.28 739.338C1215.28 738.927 1215.14 738.601 1214.86 738.358C1214.58 738.115 1214.23 737.994 1213.81 737.994C1213.4 737.994 1213.06 738.111 1212.78 738.344C1212.51 738.577 1212.35 738.909 1212.28 739.338H1215.28Z" fill="#767676"/>
<path d="M967.572 293.098C966.928 293.098 966.35 292.986 965.836 292.762C965.332 292.529 964.936 292.211 964.646 291.81C964.357 291.399 964.208 290.928 964.198 290.396H965.556C965.603 290.853 965.79 291.241 966.116 291.558C966.452 291.866 966.938 292.02 967.572 292.02C968.179 292.02 968.655 291.871 969 291.572C969.355 291.264 969.532 290.872 969.532 290.396C969.532 290.023 969.43 289.719 969.224 289.486C969.019 289.253 968.762 289.075 968.454 288.954C968.146 288.833 967.731 288.702 967.208 288.562C966.564 288.394 966.046 288.226 965.654 288.058C965.272 287.89 964.94 287.629 964.66 287.274C964.39 286.91 964.254 286.425 964.254 285.818C964.254 285.286 964.39 284.815 964.66 284.404C964.931 283.993 965.309 283.676 965.794 283.452C966.289 283.228 966.854 283.116 967.488 283.116C968.403 283.116 969.15 283.345 969.728 283.802C970.316 284.259 970.648 284.866 970.722 285.622H969.322C969.276 285.249 969.08 284.922 968.734 284.642C968.389 284.353 967.932 284.208 967.362 284.208C966.83 284.208 966.396 284.348 966.06 284.628C965.724 284.899 965.556 285.281 965.556 285.776C965.556 286.131 965.654 286.42 965.85 286.644C966.056 286.868 966.303 287.041 966.592 287.162C966.891 287.274 967.306 287.405 967.838 287.554C968.482 287.731 969 287.909 969.392 288.086C969.784 288.254 970.12 288.52 970.4 288.884C970.68 289.239 970.82 289.724 970.82 290.34C970.82 290.816 970.694 291.264 970.442 291.684C970.19 292.104 969.817 292.445 969.322 292.706C968.828 292.967 968.244 293.098 967.572 293.098ZM973.353 284.082C973.111 284.082 972.905 283.998 972.737 283.83C972.569 283.662 972.485 283.457 972.485 283.214C972.485 282.971 972.569 282.766 972.737 282.598C972.905 282.43 973.111 282.346 973.353 282.346C973.587 282.346 973.783 282.43 973.941 282.598C974.109 282.766 974.193 282.971 974.193 283.214C974.193 283.457 974.109 283.662 973.941 283.83C973.783 283.998 973.587 284.082 973.353 284.082ZM973.969 285.328V293H972.695V285.328H973.969ZM979.305 285.202C979.967 285.202 980.546 285.347 981.041 285.636C981.545 285.925 981.918 286.289 982.161 286.728V285.328H983.449V293.168C983.449 293.868 983.299 294.489 983.001 295.03C982.702 295.581 982.273 296.01 981.713 296.318C981.162 296.626 980.518 296.78 979.781 296.78C978.773 296.78 977.933 296.542 977.261 296.066C976.589 295.59 976.192 294.941 976.071 294.12H977.331C977.471 294.587 977.76 294.96 978.199 295.24C978.637 295.529 979.165 295.674 979.781 295.674C980.481 295.674 981.05 295.455 981.489 295.016C981.937 294.577 982.161 293.961 982.161 293.168V291.558C981.909 292.006 981.535 292.379 981.041 292.678C980.546 292.977 979.967 293.126 979.305 293.126C978.623 293.126 978.003 292.958 977.443 292.622C976.892 292.286 976.458 291.815 976.141 291.208C975.823 290.601 975.665 289.911 975.665 289.136C975.665 288.352 975.823 287.666 976.141 287.078C976.458 286.481 976.892 286.019 977.443 285.692C978.003 285.365 978.623 285.202 979.305 285.202ZM982.161 289.15C982.161 288.571 982.044 288.067 981.811 287.638C981.577 287.209 981.26 286.882 980.859 286.658C980.467 286.425 980.033 286.308 979.557 286.308C979.081 286.308 978.647 286.42 978.255 286.644C977.863 286.868 977.55 287.195 977.317 287.624C977.083 288.053 976.967 288.557 976.967 289.136C976.967 289.724 977.083 290.237 977.317 290.676C977.55 291.105 977.863 291.437 978.255 291.67C978.647 291.894 979.081 292.006 979.557 292.006C980.033 292.006 980.467 291.894 980.859 291.67C981.26 291.437 981.577 291.105 981.811 290.676C982.044 290.237 982.161 289.729 982.161 289.15ZM989.339 285.188C990.273 285.188 991.029 285.473 991.607 286.042C992.186 286.602 992.475 287.414 992.475 288.478V293H991.215V288.66C991.215 287.895 991.024 287.311 990.641 286.91C990.259 286.499 989.736 286.294 989.073 286.294C988.401 286.294 987.865 286.504 987.463 286.924C987.071 287.344 986.875 287.955 986.875 288.758V293H985.601V285.328H986.875V286.42C987.127 286.028 987.468 285.725 987.897 285.51C988.336 285.295 988.817 285.188 989.339 285.188ZM998.947 284.082C998.704 284.082 998.499 283.998 998.331 283.83C998.163 283.662 998.079 283.457 998.079 283.214C998.079 282.971 998.163 282.766 998.331 282.598C998.499 282.43 998.704 282.346 998.947 282.346C999.18 282.346 999.376 282.43 999.535 282.598C999.703 282.766 999.787 282.971 999.787 283.214C999.787 283.457 999.703 283.662 999.535 283.83C999.376 283.998 999.18 284.082 998.947 284.082ZM999.563 285.328V293H998.289V285.328H999.563ZM1005.47 285.188C1006.41 285.188 1007.16 285.473 1007.74 286.042C1008.32 286.602 1008.61 287.414 1008.61 288.478V293H1007.35V288.66C1007.35 287.895 1007.16 287.311 1006.77 286.91C1006.39 286.499 1005.87 286.294 1005.21 286.294C1004.53 286.294 1004 286.504 1003.6 286.924C1003.2 287.344 1003.01 287.955 1003.01 288.758V293H1001.73V285.328H1003.01V286.42C1003.26 286.028 1003.6 285.725 1004.03 285.51C1004.47 285.295 1004.95 285.188 1005.47 285.188ZM1015.98 286.378V290.9C1015.98 291.273 1016.06 291.539 1016.21 291.698C1016.37 291.847 1016.65 291.922 1017.04 291.922H1017.98V293H1016.83C1016.12 293 1015.59 292.837 1015.23 292.51C1014.88 292.183 1014.7 291.647 1014.7 290.9V286.378H1013.71V285.328H1014.7V283.396H1015.98V285.328H1017.98V286.378H1015.98ZM1022.87 293.126C1022.15 293.126 1021.5 292.963 1020.91 292.636C1020.33 292.309 1019.87 291.847 1019.54 291.25C1019.21 290.643 1019.05 289.943 1019.05 289.15C1019.05 288.366 1019.21 287.675 1019.55 287.078C1019.89 286.471 1020.36 286.009 1020.95 285.692C1021.54 285.365 1022.2 285.202 1022.92 285.202C1023.65 285.202 1024.31 285.365 1024.9 285.692C1025.49 286.009 1025.95 286.467 1026.28 287.064C1026.63 287.661 1026.8 288.357 1026.8 289.15C1026.8 289.943 1026.62 290.643 1026.27 291.25C1025.92 291.847 1025.45 292.309 1024.86 292.636C1024.26 292.963 1023.6 293.126 1022.87 293.126ZM1022.87 292.006C1023.32 292.006 1023.75 291.899 1024.16 291.684C1024.56 291.469 1024.88 291.147 1025.12 290.718C1025.37 290.289 1025.5 289.766 1025.5 289.15C1025.5 288.534 1025.38 288.011 1025.14 287.582C1024.89 287.153 1024.58 286.835 1024.18 286.63C1023.79 286.415 1023.37 286.308 1022.91 286.308C1022.44 286.308 1022.01 286.415 1021.62 286.63C1021.24 286.835 1020.93 287.153 1020.7 287.582C1020.46 288.011 1020.35 288.534 1020.35 289.15C1020.35 289.775 1020.46 290.303 1020.68 290.732C1020.92 291.161 1021.22 291.483 1021.61 291.698C1021.99 291.903 1022.41 292.006 1022.87 292.006ZM1031.73 289.136C1031.73 288.352 1031.89 287.666 1032.21 287.078C1032.53 286.481 1032.96 286.019 1033.51 285.692C1034.07 285.365 1034.69 285.202 1035.37 285.202C1036.04 285.202 1036.63 285.347 1037.12 285.636C1037.62 285.925 1037.99 286.289 1038.23 286.728V285.328H1039.52V293H1038.23V291.572C1037.98 292.02 1037.6 292.393 1037.09 292.692C1036.6 292.981 1036.02 293.126 1035.36 293.126C1034.68 293.126 1034.06 292.958 1033.51 292.622C1032.96 292.286 1032.53 291.815 1032.21 291.208C1031.89 290.601 1031.73 289.911 1031.73 289.136ZM1038.23 289.15C1038.23 288.571 1038.11 288.067 1037.88 287.638C1037.65 287.209 1037.33 286.882 1036.93 286.658C1036.53 286.425 1036.1 286.308 1035.62 286.308C1035.15 286.308 1034.71 286.42 1034.32 286.644C1033.93 286.868 1033.62 287.195 1033.38 287.624C1033.15 288.053 1033.03 288.557 1033.03 289.136C1033.03 289.724 1033.15 290.237 1033.38 290.676C1033.62 291.105 1033.93 291.437 1034.32 291.67C1034.71 291.894 1035.15 292.006 1035.62 292.006C1036.1 292.006 1036.53 291.894 1036.93 291.67C1037.33 291.437 1037.65 291.105 1037.88 290.676C1038.11 290.237 1038.23 289.729 1038.23 289.15ZM1041.19 289.15C1041.19 288.357 1041.35 287.666 1041.67 287.078C1041.99 286.481 1042.43 286.019 1042.99 285.692C1043.56 285.365 1044.2 285.202 1044.93 285.202C1045.87 285.202 1046.65 285.431 1047.26 285.888C1047.87 286.345 1048.28 286.98 1048.47 287.792H1047.1C1046.97 287.325 1046.71 286.957 1046.33 286.686C1045.96 286.415 1045.49 286.28 1044.93 286.28C1044.2 286.28 1043.62 286.532 1043.17 287.036C1042.72 287.531 1042.5 288.235 1042.5 289.15C1042.5 290.074 1042.72 290.788 1043.17 291.292C1043.62 291.796 1044.2 292.048 1044.93 292.048C1045.49 292.048 1045.96 291.917 1046.33 291.656C1046.71 291.395 1046.96 291.021 1047.1 290.536H1048.47C1048.27 291.32 1047.86 291.95 1047.24 292.426C1046.63 292.893 1045.86 293.126 1044.93 293.126C1044.2 293.126 1043.56 292.963 1042.99 292.636C1042.43 292.309 1041.99 291.847 1041.67 291.25C1041.35 290.653 1041.19 289.953 1041.19 289.15ZM1049.7 289.15C1049.7 288.357 1049.86 287.666 1050.17 287.078C1050.49 286.481 1050.93 286.019 1051.49 285.692C1052.06 285.365 1052.71 285.202 1053.44 285.202C1054.38 285.202 1055.15 285.431 1055.76 285.888C1056.38 286.345 1056.78 286.98 1056.98 287.792H1055.61C1055.48 287.325 1055.22 286.957 1054.84 286.686C1054.46 286.415 1054 286.28 1053.44 286.28C1052.71 286.28 1052.12 286.532 1051.67 287.036C1051.22 287.531 1051 288.235 1051 289.15C1051 290.074 1051.22 290.788 1051.67 291.292C1052.12 291.796 1052.71 292.048 1053.44 292.048C1054 292.048 1054.46 291.917 1054.84 291.656C1055.21 291.395 1055.47 291.021 1055.61 290.536H1056.98C1056.77 291.32 1056.36 291.95 1055.75 292.426C1055.13 292.893 1054.36 293.126 1053.44 293.126C1052.71 293.126 1052.06 292.963 1051.49 292.636C1050.93 292.309 1050.49 291.847 1050.17 291.25C1049.86 290.653 1049.7 289.953 1049.7 289.15ZM1065.68 288.87C1065.68 289.113 1065.66 289.369 1065.64 289.64H1059.5C1059.55 290.396 1059.81 290.989 1060.27 291.418C1060.75 291.838 1061.32 292.048 1062 292.048C1062.55 292.048 1063 291.922 1063.37 291.67C1063.74 291.409 1064 291.063 1064.15 290.634H1065.52C1065.32 291.371 1064.91 291.973 1064.29 292.44C1063.68 292.897 1062.91 293.126 1062 293.126C1061.27 293.126 1060.61 292.963 1060.04 292.636C1059.47 292.309 1059.02 291.847 1058.69 291.25C1058.36 290.643 1058.2 289.943 1058.2 289.15C1058.2 288.357 1058.36 287.661 1058.68 287.064C1058.99 286.467 1059.44 286.009 1060.01 285.692C1060.59 285.365 1061.25 285.202 1062 285.202C1062.72 285.202 1063.37 285.361 1063.93 285.678C1064.49 285.995 1064.92 286.434 1065.22 286.994C1065.52 287.545 1065.68 288.17 1065.68 288.87ZM1064.36 288.604C1064.36 288.119 1064.25 287.703 1064.04 287.358C1063.82 287.003 1063.53 286.737 1063.16 286.56C1062.79 286.373 1062.39 286.28 1061.94 286.28C1061.3 286.28 1060.74 286.485 1060.29 286.896C1059.84 287.307 1059.58 287.876 1059.52 288.604H1064.36ZM1070.08 293.126C1069.49 293.126 1068.96 293.028 1068.49 292.832C1068.03 292.627 1067.66 292.347 1067.39 291.992C1067.12 291.628 1066.97 291.213 1066.94 290.746H1068.26C1068.29 291.129 1068.47 291.441 1068.79 291.684C1069.11 291.927 1069.54 292.048 1070.06 292.048C1070.55 292.048 1070.93 291.941 1071.21 291.726C1071.49 291.511 1071.63 291.241 1071.63 290.914C1071.63 290.578 1071.48 290.331 1071.18 290.172C1070.88 290.004 1070.42 289.841 1069.8 289.682C1069.23 289.533 1068.76 289.383 1068.4 289.234C1068.04 289.075 1067.73 288.847 1067.47 288.548C1067.22 288.24 1067.09 287.839 1067.09 287.344C1067.09 286.952 1067.21 286.593 1067.44 286.266C1067.68 285.939 1068.01 285.683 1068.44 285.496C1068.87 285.3 1069.36 285.202 1069.91 285.202C1070.76 285.202 1071.44 285.417 1071.97 285.846C1072.49 286.275 1072.77 286.863 1072.81 287.61H1071.53C1071.5 287.209 1071.34 286.887 1071.04 286.644C1070.75 286.401 1070.36 286.28 1069.87 286.28C1069.41 286.28 1069.04 286.378 1068.77 286.574C1068.5 286.77 1068.37 287.027 1068.37 287.344C1068.37 287.596 1068.45 287.806 1068.61 287.974C1068.77 288.133 1068.98 288.263 1069.22 288.366C1069.47 288.459 1069.82 288.567 1070.26 288.688C1070.81 288.837 1071.26 288.987 1071.6 289.136C1071.95 289.276 1072.24 289.491 1072.48 289.78C1072.74 290.069 1072.87 290.447 1072.88 290.914C1072.88 291.334 1072.76 291.712 1072.53 292.048C1072.29 292.384 1071.96 292.65 1071.53 292.846C1071.11 293.033 1070.63 293.126 1070.08 293.126ZM1077.39 293.126C1076.8 293.126 1076.27 293.028 1075.81 292.832C1075.34 292.627 1074.97 292.347 1074.7 291.992C1074.43 291.628 1074.28 291.213 1074.25 290.746H1075.57C1075.61 291.129 1075.78 291.441 1076.1 291.684C1076.43 291.927 1076.85 292.048 1077.38 292.048C1077.86 292.048 1078.24 291.941 1078.52 291.726C1078.8 291.511 1078.94 291.241 1078.94 290.914C1078.94 290.578 1078.79 290.331 1078.5 290.172C1078.2 290.004 1077.74 289.841 1077.11 289.682C1076.54 289.533 1076.07 289.383 1075.71 289.234C1075.36 289.075 1075.05 288.847 1074.79 288.548C1074.53 288.24 1074.41 287.839 1074.41 287.344C1074.41 286.952 1074.52 286.593 1074.76 286.266C1074.99 285.939 1075.32 285.683 1075.75 285.496C1076.18 285.3 1076.67 285.202 1077.22 285.202C1078.07 285.202 1078.76 285.417 1079.28 285.846C1079.8 286.275 1080.08 286.863 1080.12 287.61H1078.85C1078.82 287.209 1078.65 286.887 1078.36 286.644C1078.07 286.401 1077.67 286.28 1077.18 286.28C1076.72 286.28 1076.36 286.378 1076.09 286.574C1075.82 286.77 1075.68 287.027 1075.68 287.344C1075.68 287.596 1075.76 287.806 1075.92 287.974C1076.09 288.133 1076.29 288.263 1076.54 288.366C1076.79 288.459 1077.13 288.567 1077.57 288.688C1078.12 288.837 1078.57 288.987 1078.92 289.136C1079.26 289.276 1079.56 289.491 1079.8 289.78C1080.05 290.069 1080.18 290.447 1080.19 290.914C1080.19 291.334 1080.07 291.712 1079.84 292.048C1079.61 292.384 1079.28 292.65 1078.85 292.846C1078.43 293.033 1077.94 293.126 1077.39 293.126ZM1092.33 285.328L1087.71 296.612H1086.39L1087.9 292.916L1084.81 285.328H1086.22L1088.63 291.544L1091.01 285.328H1092.33ZM1096.96 293.126C1096.24 293.126 1095.58 292.963 1095 292.636C1094.42 292.309 1093.96 291.847 1093.62 291.25C1093.3 290.643 1093.13 289.943 1093.13 289.15C1093.13 288.366 1093.3 287.675 1093.64 287.078C1093.98 286.471 1094.45 286.009 1095.04 285.692C1095.63 285.365 1096.28 285.202 1097.01 285.202C1097.74 285.202 1098.4 285.365 1098.99 285.692C1099.57 286.009 1100.04 286.467 1100.37 287.064C1100.72 287.661 1100.89 288.357 1100.89 289.15C1100.89 289.943 1100.71 290.643 1100.36 291.25C1100.01 291.847 1099.54 292.309 1098.94 292.636C1098.35 292.963 1097.68 293.126 1096.96 293.126ZM1096.96 292.006C1097.41 292.006 1097.84 291.899 1098.24 291.684C1098.64 291.469 1098.97 291.147 1099.21 290.718C1099.46 290.289 1099.59 289.766 1099.59 289.15C1099.59 288.534 1099.47 288.011 1099.22 287.582C1098.98 287.153 1098.66 286.835 1098.27 286.63C1097.88 286.415 1097.45 286.308 1097 286.308C1096.53 286.308 1096.1 286.415 1095.71 286.63C1095.33 286.835 1095.02 287.153 1094.79 287.582C1094.55 288.011 1094.44 288.534 1094.44 289.15C1094.44 289.775 1094.55 290.303 1094.77 290.732C1095 291.161 1095.31 291.483 1095.7 291.698C1096.08 291.903 1096.5 292.006 1096.96 292.006ZM1109.37 285.328V293H1108.09V291.866C1107.85 292.258 1107.51 292.566 1107.07 292.79C1106.64 293.005 1106.17 293.112 1105.64 293.112C1105.05 293.112 1104.51 292.991 1104.03 292.748C1103.56 292.496 1103.18 292.123 1102.9 291.628C1102.63 291.133 1102.49 290.531 1102.49 289.822V285.328H1103.75V289.654C1103.75 290.41 1103.95 290.993 1104.33 291.404C1104.71 291.805 1105.23 292.006 1105.9 292.006C1106.58 292.006 1107.11 291.796 1107.51 291.376C1107.9 290.956 1108.09 290.345 1108.09 289.542V285.328H1109.37ZM1112.79 286.574C1113.02 286.135 1113.33 285.795 1113.75 285.552C1114.17 285.309 1114.67 285.188 1115.27 285.188V286.504H1114.94C1113.51 286.504 1112.79 287.279 1112.79 288.828V293H1111.52V285.328H1112.79V286.574ZM1121.75 286.756C1122.01 286.299 1122.39 285.925 1122.9 285.636C1123.4 285.347 1123.97 285.202 1124.62 285.202C1125.31 285.202 1125.93 285.365 1126.48 285.692C1127.03 286.019 1127.47 286.481 1127.78 287.078C1128.1 287.666 1128.26 288.352 1128.26 289.136C1128.26 289.911 1128.1 290.601 1127.78 291.208C1127.47 291.815 1127.03 292.286 1126.47 292.622C1125.92 292.958 1125.3 293.126 1124.62 293.126C1123.96 293.126 1123.37 292.981 1122.87 292.692C1122.37 292.403 1122 292.034 1121.75 291.586V293H1120.47V282.64H1121.75V286.756ZM1126.96 289.136C1126.96 288.557 1126.84 288.053 1126.61 287.624C1126.37 287.195 1126.06 286.868 1125.65 286.644C1125.26 286.42 1124.83 286.308 1124.35 286.308C1123.89 286.308 1123.45 286.425 1123.05 286.658C1122.66 286.882 1122.34 287.213 1122.1 287.652C1121.87 288.081 1121.75 288.581 1121.75 289.15C1121.75 289.729 1121.87 290.237 1122.1 290.676C1122.34 291.105 1122.66 291.437 1123.05 291.67C1123.45 291.894 1123.89 292.006 1124.35 292.006C1124.83 292.006 1125.26 291.894 1125.65 291.67C1126.06 291.437 1126.37 291.105 1126.61 290.676C1126.84 290.237 1126.96 289.724 1126.96 289.136ZM1133.28 293.126C1132.56 293.126 1131.91 292.963 1131.32 292.636C1130.74 292.309 1130.29 291.847 1129.95 291.25C1129.62 290.643 1129.46 289.943 1129.46 289.15C1129.46 288.366 1129.63 287.675 1129.96 287.078C1130.31 286.471 1130.78 286.009 1131.36 285.692C1131.95 285.365 1132.61 285.202 1133.34 285.202C1134.07 285.202 1134.72 285.365 1135.31 285.692C1135.9 286.009 1136.36 286.467 1136.7 287.064C1137.04 287.661 1137.22 288.357 1137.22 289.15C1137.22 289.943 1137.04 290.643 1136.68 291.25C1136.34 291.847 1135.87 292.309 1135.27 292.636C1134.67 292.963 1134.01 293.126 1133.28 293.126ZM1133.28 292.006C1133.74 292.006 1134.17 291.899 1134.57 291.684C1134.97 291.469 1135.29 291.147 1135.54 290.718C1135.79 290.289 1135.91 289.766 1135.91 289.15C1135.91 288.534 1135.79 288.011 1135.55 287.582C1135.31 287.153 1134.99 286.835 1134.6 286.63C1134.21 286.415 1133.78 286.308 1133.32 286.308C1132.86 286.308 1132.43 286.415 1132.04 286.63C1131.65 286.835 1131.34 287.153 1131.11 287.582C1130.88 288.011 1130.76 288.534 1130.76 289.15C1130.76 289.775 1130.87 290.303 1131.1 290.732C1131.33 291.161 1131.64 291.483 1132.02 291.698C1132.4 291.903 1132.82 292.006 1133.28 292.006ZM1142.24 293.126C1141.52 293.126 1140.86 292.963 1140.28 292.636C1139.7 292.309 1139.24 291.847 1138.9 291.25C1138.58 290.643 1138.41 289.943 1138.41 289.15C1138.41 288.366 1138.58 287.675 1138.92 287.078C1139.26 286.471 1139.73 286.009 1140.32 285.692C1140.91 285.365 1141.56 285.202 1142.29 285.202C1143.02 285.202 1143.68 285.365 1144.27 285.692C1144.85 286.009 1145.32 286.467 1145.65 287.064C1146 287.661 1146.17 288.357 1146.17 289.15C1146.17 289.943 1145.99 290.643 1145.64 291.25C1145.29 291.847 1144.82 292.309 1144.22 292.636C1143.63 292.963 1142.96 293.126 1142.24 293.126ZM1142.24 292.006C1142.69 292.006 1143.12 291.899 1143.52 291.684C1143.93 291.469 1144.25 291.147 1144.49 290.718C1144.74 290.289 1144.87 289.766 1144.87 289.15C1144.87 288.534 1144.75 288.011 1144.5 287.582C1144.26 287.153 1143.94 286.835 1143.55 286.63C1143.16 286.415 1142.74 286.308 1142.28 286.308C1141.81 286.308 1141.38 286.415 1140.99 286.63C1140.61 286.835 1140.3 287.153 1140.07 287.582C1139.83 288.011 1139.72 288.534 1139.72 289.15C1139.72 289.775 1139.83 290.303 1140.05 290.732C1140.29 291.161 1140.59 291.483 1140.98 291.698C1141.36 291.903 1141.78 292.006 1142.24 292.006ZM1152.13 293L1149.12 289.612V293H1147.85V282.64H1149.12V288.73L1152.07 285.328H1153.85L1150.24 289.15L1153.87 293H1152.13ZM1164.28 285.188C1164.87 285.188 1165.41 285.314 1165.87 285.566C1166.34 285.809 1166.71 286.177 1166.98 286.672C1167.25 287.167 1167.38 287.769 1167.38 288.478V293H1166.12V288.66C1166.12 287.895 1165.93 287.311 1165.55 286.91C1165.18 286.499 1164.67 286.294 1164.02 286.294C1163.36 286.294 1162.83 286.509 1162.44 286.938C1162.05 287.358 1161.85 287.969 1161.85 288.772V293H1160.59V288.66C1160.59 287.895 1160.4 287.311 1160.02 286.91C1159.65 286.499 1159.14 286.294 1158.49 286.294C1157.83 286.294 1157.3 286.509 1156.91 286.938C1156.52 287.358 1156.32 287.969 1156.32 288.772V293H1155.05V285.328H1156.32V286.434C1156.58 286.033 1156.91 285.725 1157.33 285.51C1157.76 285.295 1158.23 285.188 1158.75 285.188C1159.39 285.188 1159.96 285.333 1160.45 285.622C1160.95 285.911 1161.32 286.336 1161.56 286.896C1161.78 286.355 1162.13 285.935 1162.62 285.636C1163.12 285.337 1163.67 285.188 1164.28 285.188ZM1169 289.136C1169 288.352 1169.16 287.666 1169.47 287.078C1169.79 286.481 1170.23 286.019 1170.78 285.692C1171.34 285.365 1171.96 285.202 1172.64 285.202C1173.31 285.202 1173.89 285.347 1174.39 285.636C1174.88 285.925 1175.25 286.289 1175.49 286.728V285.328H1176.78V293H1175.49V291.572C1175.24 292.02 1174.86 292.393 1174.36 292.692C1173.87 292.981 1173.29 293.126 1172.62 293.126C1171.94 293.126 1171.33 292.958 1170.78 292.622C1170.23 292.286 1169.79 291.815 1169.47 291.208C1169.16 290.601 1169 289.911 1169 289.136ZM1175.49 289.15C1175.49 288.571 1175.38 288.067 1175.14 287.638C1174.91 287.209 1174.59 286.882 1174.19 286.658C1173.8 286.425 1173.37 286.308 1172.89 286.308C1172.41 286.308 1171.98 286.42 1171.59 286.644C1171.2 286.868 1170.88 287.195 1170.65 287.624C1170.42 288.053 1170.3 288.557 1170.3 289.136C1170.3 289.724 1170.42 290.237 1170.65 290.676C1170.88 291.105 1171.2 291.437 1171.59 291.67C1171.98 291.894 1172.41 292.006 1172.89 292.006C1173.37 292.006 1173.8 291.894 1174.19 291.67C1174.59 291.437 1174.91 291.105 1175.14 290.676C1175.38 290.237 1175.49 289.729 1175.49 289.15ZM1180.21 286.574C1180.43 286.135 1180.75 285.795 1181.16 285.552C1181.58 285.309 1182.09 285.188 1182.69 285.188V286.504H1182.35C1180.92 286.504 1180.21 287.279 1180.21 288.828V293H1178.94V285.328H1180.21V286.574ZM1188.44 293L1185.43 289.612V293H1184.16V282.64H1185.43V288.73L1188.39 285.328H1190.16L1186.55 289.15L1190.18 293H1188.44ZM1194.08 293.126C1193.49 293.126 1192.96 293.028 1192.5 292.832C1192.03 292.627 1191.66 292.347 1191.39 291.992C1191.12 291.628 1190.97 291.213 1190.94 290.746H1192.26C1192.3 291.129 1192.47 291.441 1192.79 291.684C1193.12 291.927 1193.54 292.048 1194.07 292.048C1194.55 292.048 1194.93 291.941 1195.21 291.726C1195.49 291.511 1195.63 291.241 1195.63 290.914C1195.63 290.578 1195.48 290.331 1195.19 290.172C1194.89 290.004 1194.42 289.841 1193.8 289.682C1193.23 289.533 1192.76 289.383 1192.4 289.234C1192.04 289.075 1191.74 288.847 1191.48 288.548C1191.22 288.24 1191.1 287.839 1191.1 287.344C1191.1 286.952 1191.21 286.593 1191.45 286.266C1191.68 285.939 1192.01 285.683 1192.44 285.496C1192.87 285.3 1193.36 285.202 1193.91 285.202C1194.76 285.202 1195.45 285.417 1195.97 285.846C1196.49 286.275 1196.77 286.863 1196.81 287.61H1195.54C1195.51 287.209 1195.34 286.887 1195.05 286.644C1194.76 286.401 1194.36 286.28 1193.87 286.28C1193.41 286.28 1193.05 286.378 1192.78 286.574C1192.51 286.77 1192.37 287.027 1192.37 287.344C1192.37 287.596 1192.45 287.806 1192.61 287.974C1192.78 288.133 1192.98 288.263 1193.23 288.366C1193.48 288.459 1193.82 288.567 1194.26 288.688C1194.81 288.837 1195.26 288.987 1195.61 289.136C1195.95 289.276 1196.24 289.491 1196.49 289.78C1196.74 290.069 1196.87 290.447 1196.88 290.914C1196.88 291.334 1196.76 291.712 1196.53 292.048C1196.3 292.384 1195.96 292.65 1195.54 292.846C1195.12 293.033 1194.63 293.126 1194.08 293.126Z" fill="#767676"/>
<path d="M881.988 351.454V359.392C881.988 360.508 882.258 361.336 882.798 361.876C883.35 362.416 884.112 362.686 885.084 362.686C886.044 362.686 886.794 362.416 887.334 361.876C887.886 361.336 888.162 360.508 888.162 359.392V351.454H889.8V359.374C889.8 360.418 889.59 361.3 889.17 362.02C888.75 362.728 888.18 363.256 887.46 363.604C886.752 363.952 885.954 364.126 885.066 364.126C884.178 364.126 883.374 363.952 882.654 363.604C881.946 363.256 881.382 362.728 880.962 362.02C880.554 361.3 880.35 360.418 880.35 359.374V351.454H881.988ZM896.024 364.162C895.268 364.162 894.59 364.036 893.99 363.784C893.39 363.52 892.916 363.16 892.568 362.704C892.22 362.236 892.028 361.702 891.992 361.102H893.684C893.732 361.594 893.96 361.996 894.368 362.308C894.788 362.62 895.334 362.776 896.006 362.776C896.63 362.776 897.122 362.638 897.482 362.362C897.842 362.086 898.022 361.738 898.022 361.318C898.022 360.886 897.83 360.568 897.446 360.364C897.062 360.148 896.468 359.938 895.664 359.734C894.932 359.542 894.332 359.35 893.864 359.158C893.408 358.954 893.012 358.66 892.676 358.276C892.352 357.88 892.19 357.364 892.19 356.728C892.19 356.224 892.34 355.762 892.64 355.342C892.94 354.922 893.366 354.592 893.918 354.352C894.47 354.1 895.1 353.974 895.808 353.974C896.9 353.974 897.782 354.25 898.454 354.802C899.126 355.354 899.486 356.11 899.534 357.07H897.896C897.86 356.554 897.65 356.14 897.266 355.828C896.894 355.516 896.39 355.36 895.754 355.36C895.166 355.36 894.698 355.486 894.35 355.738C894.002 355.99 893.828 356.32 893.828 356.728C893.828 357.052 893.93 357.322 894.134 357.538C894.35 357.742 894.614 357.91 894.926 358.042C895.25 358.162 895.694 358.3 896.258 358.456C896.966 358.648 897.542 358.84 897.986 359.032C898.43 359.212 898.808 359.488 899.12 359.86C899.444 360.232 899.612 360.718 899.624 361.318C899.624 361.858 899.474 362.344 899.174 362.776C898.874 363.208 898.448 363.55 897.896 363.802C897.356 364.042 896.732 364.162 896.024 364.162ZM910.937 358.69C910.937 359.002 910.919 359.332 910.883 359.68H902.999C903.059 360.652 903.389 361.414 903.989 361.966C904.601 362.506 905.339 362.776 906.203 362.776C906.911 362.776 907.499 362.614 907.967 362.29C908.447 361.954 908.783 361.51 908.975 360.958H910.739C910.475 361.906 909.947 362.68 909.155 363.28C908.363 363.868 907.379 364.162 906.203 364.162C905.267 364.162 904.427 363.952 903.683 363.532C902.951 363.112 902.375 362.518 901.955 361.75C901.535 360.97 901.325 360.07 901.325 359.05C901.325 358.03 901.529 357.136 901.937 356.368C902.345 355.6 902.915 355.012 903.647 354.604C904.391 354.184 905.243 353.974 906.203 353.974C907.139 353.974 907.967 354.178 908.687 354.586C909.407 354.994 909.959 355.558 910.343 356.278C910.739 356.986 910.937 357.79 910.937 358.69ZM909.245 358.348C909.245 357.724 909.107 357.19 908.831 356.746C908.555 356.29 908.177 355.948 907.697 355.72C907.229 355.48 906.707 355.36 906.131 355.36C905.303 355.36 904.595 355.624 904.007 356.152C903.431 356.68 903.101 357.412 903.017 358.348H909.245ZM914.737 355.738C915.025 355.174 915.433 354.736 915.961 354.424C916.501 354.112 917.155 353.956 917.923 353.956V355.648H917.491C915.655 355.648 914.737 356.644 914.737 358.636V364H913.099V354.136H914.737V355.738ZM924.62 353.956C925.82 353.956 926.792 354.322 927.536 355.054C928.28 355.774 928.652 356.818 928.652 358.186V364H927.032V358.42C927.032 357.436 926.786 356.686 926.294 356.17C925.802 355.642 925.13 355.378 924.278 355.378C923.414 355.378 922.724 355.648 922.208 356.188C921.704 356.728 921.452 357.514 921.452 358.546V364H919.814V354.136H921.452V355.54C921.776 355.036 922.214 354.646 922.766 354.37C923.33 354.094 923.948 353.956 924.62 353.956ZM930.715 359.032C930.715 358.024 930.919 357.142 931.327 356.386C931.735 355.618 932.293 355.024 933.001 354.604C933.721 354.184 934.519 353.974 935.395 353.974C936.259 353.974 937.009 354.16 937.645 354.532C938.281 354.904 938.755 355.372 939.067 355.936V354.136H940.723V364H939.067V362.164C938.743 362.74 938.257 363.22 937.609 363.604C936.973 363.976 936.229 364.162 935.377 364.162C934.501 364.162 933.709 363.946 933.001 363.514C932.293 363.082 931.735 362.476 931.327 361.696C930.919 360.916 930.715 360.028 930.715 359.032ZM939.067 359.05C939.067 358.306 938.917 357.658 938.617 357.106C938.317 356.554 937.909 356.134 937.393 355.846C936.889 355.546 936.331 355.396 935.719 355.396C935.107 355.396 934.549 355.54 934.045 355.828C933.541 356.116 933.139 356.536 932.839 357.088C932.539 357.64 932.389 358.288 932.389 359.032C932.389 359.788 932.539 360.448 932.839 361.012C933.139 361.564 933.541 361.99 934.045 362.29C934.549 362.578 935.107 362.722 935.719 362.722C936.331 362.722 936.889 362.578 937.393 362.29C937.909 361.99 938.317 361.564 938.617 361.012C938.917 360.448 939.067 359.794 939.067 359.05ZM955.353 353.956C956.121 353.956 956.805 354.118 957.405 354.442C958.005 354.754 958.479 355.228 958.827 355.864C959.175 356.5 959.349 357.274 959.349 358.186V364H957.729V358.42C957.729 357.436 957.483 356.686 956.991 356.17C956.511 355.642 955.857 355.378 955.029 355.378C954.177 355.378 953.499 355.654 952.995 356.206C952.491 356.746 952.239 357.532 952.239 358.564V364H950.619V358.42C950.619 357.436 950.373 356.686 949.881 356.17C949.401 355.642 948.747 355.378 947.919 355.378C947.067 355.378 946.389 355.654 945.885 356.206C945.381 356.746 945.129 357.532 945.129 358.564V364H943.491V354.136H945.129V355.558C945.453 355.042 945.885 354.646 946.425 354.37C946.977 354.094 947.583 353.956 948.243 353.956C949.071 353.956 949.803 354.142 950.439 354.514C951.075 354.886 951.549 355.432 951.861 356.152C952.137 355.456 952.593 354.916 953.229 354.532C953.865 354.148 954.573 353.956 955.353 353.956ZM971.036 358.69C971.036 359.002 971.018 359.332 970.982 359.68H963.098C963.158 360.652 963.488 361.414 964.088 361.966C964.7 362.506 965.438 362.776 966.302 362.776C967.01 362.776 967.598 362.614 968.066 362.29C968.546 361.954 968.882 361.51 969.074 360.958H970.838C970.574 361.906 970.046 362.68 969.254 363.28C968.462 363.868 967.478 364.162 966.302 364.162C965.366 364.162 964.526 363.952 963.782 363.532C963.05 363.112 962.474 362.518 962.054 361.75C961.634 360.97 961.424 360.07 961.424 359.05C961.424 358.03 961.628 357.136 962.036 356.368C962.444 355.6 963.014 355.012 963.746 354.604C964.49 354.184 965.342 353.974 966.302 353.974C967.238 353.974 968.066 354.178 968.786 354.586C969.506 354.994 970.058 355.558 970.442 356.278C970.838 356.986 971.036 357.79 971.036 358.69ZM969.344 358.348C969.344 357.724 969.206 357.19 968.93 356.746C968.654 356.29 968.276 355.948 967.796 355.72C967.328 355.48 966.806 355.36 966.23 355.36C965.402 355.36 964.694 355.624 964.106 356.152C963.53 356.68 963.2 357.412 963.116 358.348H969.344Z" fill="#CACACA"/>
<path d="M888.774 511.126C888.774 512.17 888.414 513.04 887.694 513.736C886.986 514.42 885.9 514.762 884.436 514.762H882.024V520H880.386V507.454H884.436C885.852 507.454 886.926 507.796 887.658 508.48C888.402 509.164 888.774 510.046 888.774 511.126ZM884.436 513.412C885.348 513.412 886.02 513.214 886.452 512.818C886.884 512.422 887.1 511.858 887.1 511.126C887.1 509.578 886.212 508.804 884.436 508.804H882.024V513.412H884.436ZM890.198 515.032C890.198 514.024 890.402 513.142 890.81 512.386C891.218 511.618 891.776 511.024 892.484 510.604C893.204 510.184 894.002 509.974 894.878 509.974C895.742 509.974 896.492 510.16 897.128 510.532C897.764 510.904 898.238 511.372 898.55 511.936V510.136H900.206V520H898.55V518.164C898.226 518.74 897.74 519.22 897.092 519.604C896.456 519.976 895.712 520.162 894.86 520.162C893.984 520.162 893.192 519.946 892.484 519.514C891.776 519.082 891.218 518.476 890.81 517.696C890.402 516.916 890.198 516.028 890.198 515.032ZM898.55 515.05C898.55 514.306 898.4 513.658 898.1 513.106C897.8 512.554 897.392 512.134 896.876 511.846C896.372 511.546 895.814 511.396 895.202 511.396C894.59 511.396 894.032 511.54 893.528 511.828C893.024 512.116 892.622 512.536 892.322 513.088C892.022 513.64 891.872 514.288 891.872 515.032C891.872 515.788 892.022 516.448 892.322 517.012C892.622 517.564 893.024 517.99 893.528 518.29C894.032 518.578 894.59 518.722 895.202 518.722C895.814 518.722 896.372 518.578 896.876 518.29C897.392 517.99 897.8 517.564 898.1 517.012C898.4 516.448 898.55 515.794 898.55 515.05ZM906.466 520.162C905.71 520.162 905.032 520.036 904.432 519.784C903.832 519.52 903.358 519.16 903.01 518.704C902.662 518.236 902.47 517.702 902.434 517.102H904.126C904.174 517.594 904.402 517.996 904.81 518.308C905.23 518.62 905.776 518.776 906.448 518.776C907.072 518.776 907.564 518.638 907.924 518.362C908.284 518.086 908.464 517.738 908.464 517.318C908.464 516.886 908.272 516.568 907.888 516.364C907.504 516.148 906.91 515.938 906.106 515.734C905.374 515.542 904.774 515.35 904.306 515.158C903.85 514.954 903.454 514.66 903.118 514.276C902.794 513.88 902.632 513.364 902.632 512.728C902.632 512.224 902.782 511.762 903.082 511.342C903.382 510.922 903.808 510.592 904.36 510.352C904.912 510.1 905.542 509.974 906.25 509.974C907.342 509.974 908.224 510.25 908.896 510.802C909.568 511.354 909.928 512.11 909.976 513.07H908.338C908.302 512.554 908.092 512.14 907.708 511.828C907.336 511.516 906.832 511.36 906.196 511.36C905.608 511.36 905.14 511.486 904.792 511.738C904.444 511.99 904.27 512.32 904.27 512.728C904.27 513.052 904.372 513.322 904.576 513.538C904.792 513.742 905.056 513.91 905.368 514.042C905.692 514.162 906.136 514.3 906.7 514.456C907.408 514.648 907.984 514.84 908.428 515.032C908.872 515.212 909.25 515.488 909.562 515.86C909.886 516.232 910.054 516.718 910.066 517.318C910.066 517.858 909.916 518.344 909.616 518.776C909.316 519.208 908.89 519.55 908.338 519.802C907.798 520.042 907.174 520.162 906.466 520.162ZM915.87 520.162C915.114 520.162 914.436 520.036 913.836 519.784C913.236 519.52 912.762 519.16 912.414 518.704C912.066 518.236 911.874 517.702 911.838 517.102H913.53C913.578 517.594 913.806 517.996 914.214 518.308C914.634 518.62 915.18 518.776 915.852 518.776C916.476 518.776 916.968 518.638 917.328 518.362C917.688 518.086 917.868 517.738 917.868 517.318C917.868 516.886 917.676 516.568 917.292 516.364C916.908 516.148 916.314 515.938 915.51 515.734C914.778 515.542 914.178 515.35 913.71 515.158C913.254 514.954 912.858 514.66 912.522 514.276C912.198 513.88 912.036 513.364 912.036 512.728C912.036 512.224 912.186 511.762 912.486 511.342C912.786 510.922 913.212 510.592 913.764 510.352C914.316 510.1 914.946 509.974 915.654 509.974C916.746 509.974 917.628 510.25 918.3 510.802C918.972 511.354 919.332 512.11 919.38 513.07H917.742C917.706 512.554 917.496 512.14 917.112 511.828C916.74 511.516 916.236 511.36 915.6 511.36C915.012 511.36 914.544 511.486 914.196 511.738C913.848 511.99 913.674 512.32 913.674 512.728C913.674 513.052 913.776 513.322 913.98 513.538C914.196 513.742 914.46 513.91 914.772 514.042C915.096 514.162 915.54 514.3 916.104 514.456C916.812 514.648 917.388 514.84 917.832 515.032C918.276 515.212 918.654 515.488 918.966 515.86C919.29 516.232 919.458 516.718 919.47 517.318C919.47 517.858 919.32 518.344 919.02 518.776C918.72 519.208 918.294 519.55 917.742 519.802C917.202 520.042 916.578 520.162 915.87 520.162ZM934.922 510.136L931.844 520H930.152L927.776 512.17L925.4 520H923.708L920.612 510.136H922.286L924.554 518.416L927.002 510.136H928.676L931.07 518.434L933.302 510.136H934.922ZM940.85 520.162C939.926 520.162 939.086 519.952 938.33 519.532C937.586 519.112 936.998 518.518 936.566 517.75C936.146 516.97 935.936 516.07 935.936 515.05C935.936 514.042 936.152 513.154 936.584 512.386C937.028 511.606 937.628 511.012 938.384 510.604C939.14 510.184 939.986 509.974 940.922 509.974C941.858 509.974 942.704 510.184 943.46 510.604C944.216 511.012 944.81 511.6 945.242 512.368C945.686 513.136 945.908 514.03 945.908 515.05C945.908 516.07 945.68 516.97 945.224 517.75C944.78 518.518 944.174 519.112 943.406 519.532C942.638 519.952 941.786 520.162 940.85 520.162ZM940.85 518.722C941.438 518.722 941.99 518.584 942.506 518.308C943.022 518.032 943.436 517.618 943.748 517.066C944.072 516.514 944.234 515.842 944.234 515.05C944.234 514.258 944.078 513.586 943.766 513.034C943.454 512.482 943.046 512.074 942.542 511.81C942.038 511.534 941.492 511.396 940.904 511.396C940.304 511.396 939.752 511.534 939.248 511.81C938.756 512.074 938.36 512.482 938.06 513.034C937.76 513.586 937.61 514.258 937.61 515.05C937.61 515.854 937.754 516.532 938.042 517.084C938.342 517.636 938.738 518.05 939.23 518.326C939.722 518.59 940.262 518.722 940.85 518.722ZM949.7 511.738C949.988 511.174 950.396 510.736 950.924 510.424C951.464 510.112 952.118 509.956 952.886 509.956V511.648H952.454C950.618 511.648 949.7 512.644 949.7 514.636V520H948.062V510.136H949.7V511.738ZM954.165 515.032C954.165 514.024 954.369 513.142 954.777 512.386C955.185 511.618 955.743 511.024 956.451 510.604C957.171 510.184 957.975 509.974 958.863 509.974C959.631 509.974 960.345 510.154 961.005 510.514C961.665 510.862 962.169 511.324 962.517 511.9V506.68H964.173V520H962.517V518.146C962.193 518.734 961.713 519.22 961.077 519.604C960.441 519.976 959.697 520.162 958.845 520.162C957.969 520.162 957.171 519.946 956.451 519.514C955.743 519.082 955.185 518.476 954.777 517.696C954.369 516.916 954.165 516.028 954.165 515.032ZM962.517 515.05C962.517 514.306 962.367 513.658 962.067 513.106C961.767 512.554 961.359 512.134 960.843 511.846C960.339 511.546 959.781 511.396 959.169 511.396C958.557 511.396 957.999 511.54 957.495 511.828C956.991 512.116 956.589 512.536 956.289 513.088C955.989 513.64 955.839 514.288 955.839 515.032C955.839 515.788 955.989 516.448 956.289 517.012C956.589 517.564 956.991 517.99 957.495 518.29C957.999 518.578 958.557 518.722 959.169 518.722C959.781 518.722 960.339 518.578 960.843 518.29C961.359 517.99 961.767 517.564 962.067 517.012C962.367 516.448 962.517 515.794 962.517 515.05Z" fill="#CACACA"/>
<path d="M882.024 429.786V433.98H886.596V435.33H882.024V439.65H887.136V441H880.386V428.436H887.136V429.786H882.024ZM901.477 430.956C902.245 430.956 902.929 431.118 903.529 431.442C904.129 431.754 904.603 432.228 904.951 432.864C905.299 433.5 905.473 434.274 905.473 435.186V441H903.853V435.42C903.853 434.436 903.607 433.686 903.115 433.17C902.635 432.642 901.981 432.378 901.153 432.378C900.301 432.378 899.623 432.654 899.119 433.206C898.615 433.746 898.363 434.532 898.363 435.564V441H896.743V435.42C896.743 434.436 896.497 433.686 896.005 433.17C895.525 432.642 894.871 432.378 894.043 432.378C893.191 432.378 892.513 432.654 892.009 433.206C891.505 433.746 891.253 434.532 891.253 435.564V441H889.615V431.136H891.253V432.558C891.577 432.042 892.009 431.646 892.549 431.37C893.101 431.094 893.707 430.956 894.367 430.956C895.195 430.956 895.927 431.142 896.563 431.514C897.199 431.886 897.673 432.432 897.985 433.152C898.261 432.456 898.717 431.916 899.353 431.532C899.989 431.148 900.697 430.956 901.477 430.956ZM907.547 436.032C907.547 435.024 907.751 434.142 908.159 433.386C908.567 432.618 909.125 432.024 909.833 431.604C910.553 431.184 911.351 430.974 912.227 430.974C913.091 430.974 913.841 431.16 914.477 431.532C915.113 431.904 915.587 432.372 915.899 432.936V431.136H917.555V441H915.899V439.164C915.575 439.74 915.089 440.22 914.441 440.604C913.805 440.976 913.061 441.162 912.209 441.162C911.333 441.162 910.541 440.946 909.833 440.514C909.125 440.082 908.567 439.476 908.159 438.696C907.751 437.916 907.547 437.028 907.547 436.032ZM915.899 436.05C915.899 435.306 915.749 434.658 915.449 434.106C915.149 433.554 914.741 433.134 914.225 432.846C913.721 432.546 913.163 432.396 912.551 432.396C911.939 432.396 911.381 432.54 910.877 432.828C910.373 433.116 909.971 433.536 909.671 434.088C909.371 434.64 909.221 435.288 909.221 436.032C909.221 436.788 909.371 437.448 909.671 438.012C909.971 438.564 910.373 438.99 910.877 439.29C911.381 439.578 911.939 439.722 912.551 439.722C913.163 439.722 913.721 439.578 914.225 439.29C914.741 438.99 915.149 438.564 915.449 438.012C915.749 437.448 915.899 436.794 915.899 436.05ZM921.17 429.534C920.858 429.534 920.594 429.426 920.378 429.21C920.162 428.994 920.054 428.73 920.054 428.418C920.054 428.106 920.162 427.842 920.378 427.626C920.594 427.41 920.858 427.302 921.17 427.302C921.47 427.302 921.722 427.41 921.926 427.626C922.142 427.842 922.25 428.106 922.25 428.418C922.25 428.73 922.142 428.994 921.926 429.21C921.722 429.426 921.47 429.534 921.17 429.534ZM921.962 431.136V441H920.324V431.136H921.962ZM926.391 427.68V441H924.753V427.68H926.391Z" fill="#CACACA"/>
<path d="M879.774 590.718C879.774 589.494 880.05 588.396 880.602 587.424C881.154 586.44 881.904 585.672 882.852 585.12C883.812 584.568 884.874 584.292 886.038 584.292C887.406 584.292 888.6 584.622 889.62 585.282C890.64 585.942 891.384 586.878 891.852 588.09H889.89C889.542 587.334 889.038 586.752 888.378 586.344C887.73 585.936 886.95 585.732 886.038 585.732C885.162 585.732 884.376 585.936 883.68 586.344C882.984 586.752 882.438 587.334 882.042 588.09C881.646 588.834 881.448 589.71 881.448 590.718C881.448 591.714 881.646 592.59 882.042 593.346C882.438 594.09 882.984 594.666 883.68 595.074C884.376 595.482 885.162 595.686 886.038 595.686C886.95 595.686 887.73 595.488 888.378 595.092C889.038 594.684 889.542 594.102 889.89 593.346H891.852C891.384 594.546 890.64 595.476 889.62 596.136C888.6 596.784 887.406 597.108 886.038 597.108C884.874 597.108 883.812 596.838 882.852 596.298C881.904 595.746 881.154 594.984 880.602 594.012C880.05 593.04 879.774 591.942 879.774 590.718ZM898.592 597.162C897.668 597.162 896.828 596.952 896.072 596.532C895.328 596.112 894.74 595.518 894.308 594.75C893.888 593.97 893.678 593.07 893.678 592.05C893.678 591.042 893.894 590.154 894.326 589.386C894.77 588.606 895.37 588.012 896.126 587.604C896.882 587.184 897.728 586.974 898.664 586.974C899.6 586.974 900.446 587.184 901.202 587.604C901.958 588.012 902.552 588.6 902.984 589.368C903.428 590.136 903.65 591.03 903.65 592.05C903.65 593.07 903.422 593.97 902.966 594.75C902.522 595.518 901.916 596.112 901.148 596.532C900.38 596.952 899.528 597.162 898.592 597.162ZM898.592 595.722C899.18 595.722 899.732 595.584 900.248 595.308C900.764 595.032 901.178 594.618 901.49 594.066C901.814 593.514 901.976 592.842 901.976 592.05C901.976 591.258 901.82 590.586 901.508 590.034C901.196 589.482 900.788 589.074 900.284 588.81C899.78 588.534 899.234 588.396 898.646 588.396C898.046 588.396 897.494 588.534 896.99 588.81C896.498 589.074 896.102 589.482 895.802 590.034C895.502 590.586 895.352 591.258 895.352 592.05C895.352 592.854 895.496 593.532 895.784 594.084C896.084 594.636 896.48 595.05 896.972 595.326C897.464 595.59 898.004 595.722 898.592 595.722ZM910.61 586.956C911.81 586.956 912.782 587.322 913.526 588.054C914.27 588.774 914.642 589.818 914.642 591.186V597H913.022V591.42C913.022 590.436 912.776 589.686 912.284 589.17C911.792 588.642 911.12 588.378 910.268 588.378C909.404 588.378 908.714 588.648 908.198 589.188C907.694 589.728 907.442 590.514 907.442 591.546V597H905.804V587.136H907.442V588.54C907.766 588.036 908.204 587.646 908.756 587.37C909.32 587.094 909.938 586.956 910.61 586.956ZM921.332 588.486H919.262V597H917.624V588.486H916.346V587.136H917.624V586.434C917.624 585.33 917.906 584.526 918.47 584.022C919.046 583.506 919.964 583.248 921.224 583.248V584.616C920.504 584.616 919.994 584.76 919.694 585.048C919.406 585.324 919.262 585.786 919.262 586.434V587.136H921.332V588.486ZM924.087 585.534C923.775 585.534 923.511 585.426 923.295 585.21C923.079 584.994 922.971 584.73 922.971 584.418C922.971 584.106 923.079 583.842 923.295 583.626C923.511 583.41 923.775 583.302 924.087 583.302C924.387 583.302 924.639 583.41 924.843 583.626C925.059 583.842 925.167 584.106 925.167 584.418C925.167 584.73 925.059 584.994 924.843 585.21C924.639 585.426 924.387 585.534 924.087 585.534ZM924.879 587.136V597H923.241V587.136H924.879ZM929.309 588.738C929.597 588.174 930.005 587.736 930.533 587.424C931.073 587.112 931.727 586.956 932.495 586.956V588.648H932.063C930.227 588.648 929.309 589.644 929.309 591.636V597H927.671V587.136H929.309V588.738ZM946.248 586.956C947.016 586.956 947.7 587.118 948.3 587.442C948.9 587.754 949.374 588.228 949.722 588.864C950.07 589.5 950.244 590.274 950.244 591.186V597H948.624V591.42C948.624 590.436 948.378 589.686 947.886 589.17C947.406 588.642 946.752 588.378 945.924 588.378C945.072 588.378 944.394 588.654 943.89 589.206C943.386 589.746 943.134 590.532 943.134 591.564V597H941.514V591.42C941.514 590.436 941.268 589.686 940.776 589.17C940.296 588.642 939.642 588.378 938.814 588.378C937.962 588.378 937.284 588.654 936.78 589.206C936.276 589.746 936.024 590.532 936.024 591.564V597H934.386V587.136H936.024V588.558C936.348 588.042 936.78 587.646 937.32 587.37C937.872 587.094 938.478 586.956 939.138 586.956C939.966 586.956 940.698 587.142 941.334 587.514C941.97 587.886 942.444 588.432 942.756 589.152C943.032 588.456 943.488 587.916 944.124 587.532C944.76 587.148 945.468 586.956 946.248 586.956ZM959.368 588.954C959.692 588.39 960.172 587.922 960.808 587.55C961.456 587.166 962.206 586.974 963.058 586.974C963.934 586.974 964.726 587.184 965.434 587.604C966.154 588.024 966.718 588.618 967.126 589.386C967.534 590.142 967.738 591.024 967.738 592.032C967.738 593.028 967.534 593.916 967.126 594.696C966.718 595.476 966.154 596.082 965.434 596.514C964.726 596.946 963.934 597.162 963.058 597.162C962.218 597.162 961.474 596.976 960.826 596.604C960.19 596.22 959.704 595.746 959.368 595.182V601.68H957.73V587.136H959.368V588.954ZM966.064 592.032C966.064 591.288 965.914 590.64 965.614 590.088C965.314 589.536 964.906 589.116 964.39 588.828C963.886 588.54 963.328 588.396 962.716 588.396C962.116 588.396 961.558 588.546 961.042 588.846C960.538 589.134 960.13 589.56 959.818 590.124C959.518 590.676 959.368 591.318 959.368 592.05C959.368 592.794 959.518 593.448 959.818 594.012C960.13 594.564 960.538 594.99 961.042 595.29C961.558 595.578 962.116 595.722 962.716 595.722C963.328 595.722 963.886 595.578 964.39 595.29C964.906 594.99 965.314 594.564 965.614 594.012C965.914 593.448 966.064 592.788 966.064 592.032ZM969.282 592.032C969.282 591.024 969.486 590.142 969.894 589.386C970.302 588.618 970.86 588.024 971.568 587.604C972.288 587.184 973.086 586.974 973.962 586.974C974.826 586.974 975.576 587.16 976.212 587.532C976.848 587.904 977.322 588.372 977.634 588.936V587.136H979.29V597H977.634V595.164C977.31 595.74 976.824 596.22 976.176 596.604C975.54 596.976 974.796 597.162 973.944 597.162C973.068 597.162 972.276 596.946 971.568 596.514C970.86 596.082 970.302 595.476 969.894 594.696C969.486 593.916 969.282 593.028 969.282 592.032ZM977.634 592.05C977.634 591.306 977.484 590.658 977.184 590.106C976.884 589.554 976.476 589.134 975.96 588.846C975.456 588.546 974.898 588.396 974.286 588.396C973.674 588.396 973.116 588.54 972.612 588.828C972.108 589.116 971.706 589.536 971.406 590.088C971.106 590.64 970.956 591.288 970.956 592.032C970.956 592.788 971.106 593.448 971.406 594.012C971.706 594.564 972.108 594.99 972.612 595.29C973.116 595.578 973.674 595.722 974.286 595.722C974.898 595.722 975.456 595.578 975.96 595.29C976.476 594.99 976.884 594.564 977.184 594.012C977.484 593.448 977.634 592.794 977.634 592.05ZM985.55 597.162C984.794 597.162 984.116 597.036 983.516 596.784C982.916 596.52 982.442 596.16 982.094 595.704C981.746 595.236 981.554 594.702 981.518 594.102H983.21C983.258 594.594 983.486 594.996 983.894 595.308C984.314 595.62 984.86 595.776 985.532 595.776C986.156 595.776 986.648 595.638 987.008 595.362C987.368 595.086 987.548 594.738 987.548 594.318C987.548 593.886 987.356 593.568 986.972 593.364C986.588 593.148 985.994 592.938 985.19 592.734C984.458 592.542 983.858 592.35 983.39 592.158C982.934 591.954 982.538 591.66 982.202 591.276C981.878 590.88 981.716 590.364 981.716 589.728C981.716 589.224 981.866 588.762 982.166 588.342C982.466 587.922 982.892 587.592 983.444 587.352C983.996 587.1 984.626 586.974 985.334 586.974C986.426 586.974 987.308 587.25 987.98 587.802C988.652 588.354 989.012 589.11 989.06 590.07H987.422C987.386 589.554 987.176 589.14 986.792 588.828C986.42 588.516 985.916 588.36 985.28 588.36C984.692 588.36 984.224 588.486 983.876 588.738C983.528 588.99 983.354 589.32 983.354 589.728C983.354 590.052 983.456 590.322 983.66 590.538C983.876 590.742 984.14 590.91 984.452 591.042C984.776 591.162 985.22 591.3 985.784 591.456C986.492 591.648 987.068 591.84 987.512 592.032C987.956 592.212 988.334 592.488 988.646 592.86C988.97 593.232 989.138 593.718 989.15 594.318C989.15 594.858 989 595.344 988.7 595.776C988.4 596.208 987.974 596.55 987.422 596.802C986.882 597.042 986.258 597.162 985.55 597.162ZM994.954 597.162C994.198 597.162 993.52 597.036 992.92 596.784C992.32 596.52 991.846 596.16 991.498 595.704C991.15 595.236 990.958 594.702 990.922 594.102H992.614C992.662 594.594 992.89 594.996 993.298 595.308C993.718 595.62 994.264 595.776 994.936 595.776C995.56 595.776 996.052 595.638 996.412 595.362C996.772 595.086 996.952 594.738 996.952 594.318C996.952 593.886 996.76 593.568 996.376 593.364C995.992 593.148 995.398 592.938 994.594 592.734C993.862 592.542 993.262 592.35 992.794 592.158C992.338 591.954 991.942 591.66 991.606 591.276C991.282 590.88 991.12 590.364 991.12 589.728C991.12 589.224 991.27 588.762 991.57 588.342C991.87 587.922 992.296 587.592 992.848 587.352C993.4 587.1 994.03 586.974 994.738 586.974C995.83 586.974 996.712 587.25 997.384 587.802C998.056 588.354 998.416 589.11 998.464 590.07H996.826C996.79 589.554 996.58 589.14 996.196 588.828C995.824 588.516 995.32 588.36 994.684 588.36C994.096 588.36 993.628 588.486 993.28 588.738C992.932 588.99 992.758 589.32 992.758 589.728C992.758 590.052 992.86 590.322 993.064 590.538C993.28 590.742 993.544 590.91 993.856 591.042C994.18 591.162 994.624 591.3 995.188 591.456C995.896 591.648 996.472 591.84 996.916 592.032C997.36 592.212 997.738 592.488 998.05 592.86C998.374 593.232 998.542 593.718 998.554 594.318C998.554 594.858 998.404 595.344 998.104 595.776C997.804 596.208 997.378 596.55 996.826 596.802C996.286 597.042 995.662 597.162 994.954 597.162ZM1014.01 587.136L1010.93 597H1009.24L1006.86 589.17L1004.48 597H1002.79L999.696 587.136H1001.37L1003.64 595.416L1006.09 587.136H1007.76L1010.15 595.434L1012.39 587.136H1014.01ZM1019.93 597.162C1019.01 597.162 1018.17 596.952 1017.41 596.532C1016.67 596.112 1016.08 595.518 1015.65 594.75C1015.23 593.97 1015.02 593.07 1015.02 592.05C1015.02 591.042 1015.24 590.154 1015.67 589.386C1016.11 588.606 1016.71 588.012 1017.47 587.604C1018.22 587.184 1019.07 586.974 1020.01 586.974C1020.94 586.974 1021.79 587.184 1022.54 587.604C1023.3 588.012 1023.89 588.6 1024.33 589.368C1024.77 590.136 1024.99 591.03 1024.99 592.05C1024.99 593.07 1024.76 593.97 1024.31 594.75C1023.86 595.518 1023.26 596.112 1022.49 596.532C1021.72 596.952 1020.87 597.162 1019.93 597.162ZM1019.93 595.722C1020.52 595.722 1021.07 595.584 1021.59 595.308C1022.11 595.032 1022.52 594.618 1022.83 594.066C1023.16 593.514 1023.32 592.842 1023.32 592.05C1023.32 591.258 1023.16 590.586 1022.85 590.034C1022.54 589.482 1022.13 589.074 1021.63 588.81C1021.12 588.534 1020.58 588.396 1019.99 588.396C1019.39 588.396 1018.84 588.534 1018.33 588.81C1017.84 589.074 1017.44 589.482 1017.14 590.034C1016.84 590.586 1016.69 591.258 1016.69 592.05C1016.69 592.854 1016.84 593.532 1017.13 594.084C1017.43 594.636 1017.82 595.05 1018.31 595.326C1018.81 595.59 1019.35 595.722 1019.93 595.722ZM1028.78 588.738C1029.07 588.174 1029.48 587.736 1030.01 587.424C1030.55 587.112 1031.2 586.956 1031.97 586.956V588.648H1031.54C1029.7 588.648 1028.78 589.644 1028.78 591.636V597H1027.15V587.136H1028.78V588.738ZM1033.25 592.032C1033.25 591.024 1033.45 590.142 1033.86 589.386C1034.27 588.618 1034.83 588.024 1035.53 587.604C1036.25 587.184 1037.06 586.974 1037.95 586.974C1038.71 586.974 1039.43 587.154 1040.09 587.514C1040.75 587.862 1041.25 588.324 1041.6 588.9V583.68H1043.26V597H1041.6V595.146C1041.28 595.734 1040.8 596.22 1040.16 596.604C1039.52 596.976 1038.78 597.162 1037.93 597.162C1037.05 597.162 1036.25 596.946 1035.53 596.514C1034.83 596.082 1034.27 595.476 1033.86 594.696C1033.45 593.916 1033.25 593.028 1033.25 592.032ZM1041.6 592.05C1041.6 591.306 1041.45 590.658 1041.15 590.106C1040.85 589.554 1040.44 589.134 1039.93 588.846C1039.42 588.546 1038.86 588.396 1038.25 588.396C1037.64 588.396 1037.08 588.54 1036.58 588.828C1036.07 589.116 1035.67 589.536 1035.37 590.088C1035.07 590.64 1034.92 591.288 1034.92 592.032C1034.92 592.788 1035.07 593.448 1035.37 594.012C1035.67 594.564 1036.07 594.99 1036.58 595.29C1037.08 595.578 1037.64 595.722 1038.25 595.722C1038.86 595.722 1039.42 595.578 1039.93 595.29C1040.44 594.99 1040.85 594.564 1041.15 594.012C1041.45 593.448 1041.6 592.794 1041.6 592.05Z" fill="#CACACA"/>
<g clip-path="url(#clip0_6_50)">
<path d="M531.011 665.951C522.372 691.257 511.262 716.507 497.029 740.54C496.713 741.082 496.394 741.612 496.072 742.151L460.835 731.003C461.038 730.493 461.26 729.922 461.498 729.299C475.711 692.542 561.457 468.587 557.608 424.431C558.022 428.046 571.436 547.659 531.011 665.951Z" fill="#E6E6E6"/>
<path d="M503.827 742.691C503.348 743.181 502.857 743.666 502.362 744.141L475.928 735.778C476.286 735.346 476.702 734.836 477.181 734.26C485.009 724.699 508.284 696.072 531.011 665.951C555.435 633.583 579.231 599.494 582.566 585.487C581.896 588.672 561.039 685.634 503.827 742.691Z" fill="#E6E6E6"/>
<path d="M517.04 369.797C517.03 369.797 517.021 369.8 517.011 369.8V313.133C517.011 306.997 514.574 301.114 510.236 296.775C505.898 292.437 500.015 290 493.88 290H316.482C310.347 290 304.464 292.437 300.126 296.775C295.788 301.114 293.351 306.997 293.351 313.133V342.183C292.861 342.194 292.395 342.396 292.053 342.746C291.71 343.096 291.517 343.566 291.517 344.056V358.445C291.517 358.935 291.71 359.405 292.052 359.755C292.395 360.105 292.861 360.307 293.351 360.317V375.391H293.257C293.011 375.391 292.767 375.439 292.539 375.534C292.312 375.628 292.105 375.766 291.93 375.941C291.756 376.115 291.618 376.322 291.524 376.549C291.429 376.777 291.381 377.021 291.381 377.267V405.093C291.381 405.339 291.429 405.583 291.524 405.811C291.618 406.038 291.756 406.245 291.93 406.419C292.105 406.594 292.312 406.732 292.539 406.826C292.767 406.92 293.011 406.969 293.257 406.969H293.351V418.02H293.322C293.076 418.02 292.832 418.069 292.604 418.163C292.376 418.257 292.17 418.395 291.995 418.57C291.821 418.744 291.683 418.951 291.589 419.178C291.494 419.406 291.446 419.65 291.446 419.897V447.994C291.446 448.24 291.494 448.484 291.589 448.712C291.683 448.94 291.821 449.146 291.995 449.321C292.17 449.495 292.376 449.633 292.604 449.727C292.832 449.822 293.076 449.87 293.322 449.87H293.351V721.464C293.351 727.599 295.788 733.483 300.126 737.821C304.464 742.16 310.347 744.597 316.482 744.597H493.88C500.015 744.597 505.898 742.16 510.236 737.821C514.574 733.483 517.011 727.599 517.011 721.464V424.9C517.021 424.9 517.03 424.903 517.04 424.903C517.479 424.903 517.913 424.817 518.319 424.649C518.724 424.481 519.092 424.235 519.403 423.925C519.713 423.615 519.959 423.246 520.127 422.841C520.295 422.436 520.381 422.001 520.381 421.562V373.139C520.381 372.252 520.029 371.403 519.403 370.776C518.776 370.149 517.926 369.797 517.04 369.797Z" fill="#3F3D56"/>
<path d="M503.2 319.608V714.983C503.198 719.693 501.326 724.21 497.995 727.541C494.663 730.871 490.146 732.742 485.436 732.742H324.927C320.216 732.742 315.699 730.871 312.368 727.541C309.036 724.21 307.164 719.693 307.162 714.983V319.608C307.162 314.896 309.034 310.377 312.365 307.045C315.697 303.714 320.215 301.842 324.927 301.842H348.945V304.959C348.947 308.839 350.489 312.559 353.232 315.302C355.974 318.045 359.694 319.587 363.573 319.588H445.234C449.108 319.58 452.82 318.035 455.556 315.292C458.292 312.55 459.829 308.834 459.829 304.959V301.874H485.436C490.141 301.874 494.655 303.742 497.985 307.066C501.316 310.391 503.191 314.902 503.2 319.608Z" fill="white"/>
<path d="M242.922 511.852C241.973 511.484 240.955 511.329 239.939 511.398C238.924 511.466 237.935 511.757 237.044 512.249C236.153 512.74 235.381 513.422 234.781 514.244C234.182 515.067 233.77 516.011 233.575 517.01L176.377 548.114L186.434 559.433L239.552 525.341C241.252 525.557 242.972 525.143 244.387 524.176C245.802 523.208 246.813 521.756 247.228 520.093C247.643 518.431 247.434 516.673 246.641 515.154C245.847 513.635 244.524 512.46 242.922 511.852H242.922Z" fill="#FFB8B8"/>
<path d="M228.335 735.64L235.462 731.03L221.072 701.342L210.553 708.146L228.335 735.64Z" fill="#FFB8B8"/>
<path d="M253.488 728.756L231.088 743.247L225.49 734.591L239.559 725.49C241.769 724.061 244.455 723.568 247.028 724.12C249.601 724.672 251.85 726.223 253.279 728.433L253.488 728.757L253.488 728.756Z" fill="#2F2E41"/>
<path d="M148.364 736.713H156.852L160.892 703.969H148.364V736.713Z" fill="#FFB8B8"/>
<path d="M173.223 744.595H146.545V734.287H163.301C164.604 734.287 165.894 734.543 167.098 735.042C168.302 735.541 169.396 736.272 170.317 737.193C171.238 738.115 171.969 739.208 172.468 740.412C172.966 741.616 173.223 742.906 173.223 744.21V744.595Z" fill="#2F2E41"/>
<path d="M343.111 354.162H325.613C325.183 354.162 324.771 353.992 324.467 353.688C324.163 353.384 323.992 352.972 323.992 352.542C323.992 352.112 324.163 351.7 324.467 351.396C324.771 351.092 325.183 350.922 325.613 350.922H343.111C343.541 350.922 343.953 351.092 344.257 351.396C344.561 351.7 344.732 352.112 344.732 352.542C344.732 352.972 344.561 353.384 344.257 353.688C343.953 353.992 343.541 354.162 343.111 354.162Z" fill="#3F3D56"/>
<path d="M343.111 358.699H325.613C325.183 358.699 324.771 358.529 324.467 358.225C324.163 357.921 323.992 357.509 323.992 357.079C323.992 356.649 324.163 356.237 324.467 355.933C324.771 355.629 325.183 355.459 325.613 355.459H343.111C343.541 355.459 343.953 355.629 344.257 355.933C344.561 356.237 344.732 356.649 344.732 357.079C344.732 357.509 344.561 357.921 344.257 358.225C343.953 358.529 343.541 358.699 343.111 358.699Z" fill="#3F3D56"/>
<path d="M343.111 363.236H325.613C325.183 363.236 324.771 363.066 324.467 362.762C324.163 362.458 323.992 362.046 323.992 361.616C323.992 361.186 324.163 360.774 324.467 360.47C324.771 360.166 325.183 359.996 325.613 359.996H343.111C343.541 359.996 343.953 360.166 344.257 360.47C344.561 360.774 344.732 361.186 344.732 361.616C344.732 362.046 344.561 362.458 344.257 362.762C343.953 363.066 343.541 363.236 343.111 363.236Z" fill="#3F3D56"/>
<path d="M478.754 358.732H478.164L477.937 358.544C478.682 357.656 479.09 356.534 479.091 355.374C479.085 354.421 478.798 353.49 478.264 352.7C477.729 351.91 476.973 351.295 476.09 350.935C475.207 350.575 474.237 350.485 473.303 350.676C472.368 350.867 471.512 351.331 470.841 352.009C470.17 352.687 469.716 353.549 469.535 354.485C469.354 355.421 469.454 356.39 469.824 357.27C470.194 358.149 470.816 358.899 471.611 359.424C472.407 359.95 473.341 360.228 474.295 360.223C475.45 360.214 476.568 359.807 477.457 359.069L477.678 359.257V359.853L481.398 363.58L482.513 362.465L478.754 358.732ZM474.295 358.732C473.631 358.734 472.981 358.54 472.427 358.173C471.874 357.806 471.441 357.284 471.185 356.671C470.929 356.059 470.859 355.384 470.986 354.732C471.113 354.08 471.431 353.481 471.899 353.009C472.366 352.538 472.963 352.216 473.614 352.084C474.265 351.952 474.94 352.016 475.554 352.268C476.169 352.519 476.695 352.948 477.066 353.498C477.437 354.049 477.636 354.697 477.639 355.361L477.639 355.374C477.641 355.813 477.558 356.247 477.392 356.653C477.227 357.059 476.983 357.429 476.675 357.74C476.367 358.052 476 358.3 475.596 358.47C475.192 358.64 474.759 358.729 474.321 358.732C474.312 358.732 474.303 358.732 474.295 358.732H474.295Z" fill="#3F3D56"/>
<path d="M378.76 413.793H347.324C345.433 413.793 343.62 413.041 342.283 411.704C340.946 410.367 340.195 408.554 340.195 406.663C340.195 404.772 340.946 402.959 342.283 401.621C343.62 400.284 345.433 399.533 347.324 399.533H378.76C380.651 399.533 382.465 400.284 383.802 401.621C385.138 402.959 385.89 404.772 385.89 406.663C385.89 408.554 385.138 410.367 383.802 411.704C382.465 413.041 380.651 413.793 378.76 413.793Z" fill="#DEC800"/>
<path d="M475 429.348H344.084C343.052 429.348 342.063 428.939 341.334 428.209C340.605 427.48 340.195 426.491 340.195 425.459C340.195 424.428 340.605 423.439 341.334 422.71C342.063 421.98 343.052 421.57 344.084 421.57H475C476.031 421.57 477.02 421.98 477.75 422.71C478.479 423.439 478.889 424.428 478.889 425.459C478.889 426.491 478.479 427.48 477.75 428.209C477.02 428.939 476.031 429.348 475 429.348Z" fill="#E6E6E6"/>
<path d="M392.173 444.904H344.084C343.052 444.904 342.063 444.494 341.334 443.765C340.605 443.036 340.195 442.047 340.195 441.015C340.195 439.984 340.605 438.995 341.334 438.265C342.063 437.536 343.052 437.126 344.084 437.126H392.173C393.204 437.126 394.193 437.536 394.922 438.265C395.652 438.995 396.061 439.984 396.061 441.015C396.061 442.047 395.652 443.036 394.922 443.765C394.193 444.494 393.204 444.904 392.173 444.904Z" fill="#E6E6E6"/>
<path d="M378.76 586.202H347.324C345.433 586.202 343.62 585.451 342.283 584.114C340.946 582.777 340.195 580.963 340.195 579.072C340.195 577.181 340.946 575.368 342.283 574.031C343.62 572.694 345.433 571.943 347.324 571.943H378.76C380.651 571.943 382.465 572.694 383.802 574.031C385.138 575.368 385.89 577.181 385.89 579.072C385.89 580.963 385.138 582.777 383.802 584.114C382.465 585.451 380.651 586.202 378.76 586.202Z" fill="#DEC800"/>
<path d="M475 601.758H344.084C343.052 601.758 342.063 601.348 341.334 600.619C340.605 599.889 340.195 598.9 340.195 597.869C340.195 596.837 340.605 595.848 341.334 595.119C342.063 594.39 343.052 593.98 344.084 593.98H475C476.031 593.98 477.02 594.39 477.75 595.119C478.479 595.848 478.889 596.837 478.889 597.869C478.889 598.9 478.479 599.889 477.75 600.619C477.02 601.348 476.031 601.758 475 601.758Z" fill="#E6E6E6"/>
<path d="M392.173 617.313H344.084C343.052 617.313 342.063 616.904 341.334 616.174C340.605 615.445 340.195 614.456 340.195 613.424C340.195 612.393 340.605 611.404 341.334 610.675C342.063 609.945 343.052 609.536 344.084 609.536H392.173C393.204 609.536 394.193 609.945 394.922 610.675C395.652 611.404 396.061 612.393 396.061 613.424C396.061 614.456 395.652 615.445 394.922 616.174C394.193 616.904 393.204 617.313 392.173 617.313Z" fill="#E6E6E6"/>
<path d="M378.76 665.925H347.324C345.433 665.925 343.62 665.174 342.283 663.837C340.946 662.5 340.195 660.686 340.195 658.795C340.195 656.904 340.946 655.091 342.283 653.754C343.62 652.417 345.433 651.666 347.324 651.666H378.76C380.651 651.666 382.465 652.417 383.802 653.754C385.138 655.091 385.89 656.904 385.89 658.795C385.89 660.686 385.138 662.5 383.802 663.837C382.465 665.174 380.651 665.925 378.76 665.925Z" fill="#DEC800"/>
<path d="M475 681.481H344.084C343.052 681.481 342.063 681.071 341.334 680.342C340.605 679.612 340.195 678.623 340.195 677.592C340.195 676.56 340.605 675.571 341.334 674.842C342.063 674.113 343.052 673.703 344.084 673.703H475C476.031 673.703 477.02 674.113 477.75 674.842C478.479 675.571 478.889 676.56 478.889 677.592C478.889 678.623 478.479 679.612 477.75 680.342C477.02 681.071 476.031 681.481 475 681.481Z" fill="#E6E6E6"/>
<path d="M392.173 697.036H344.084C343.052 697.036 342.063 696.627 341.334 695.897C340.605 695.168 340.195 694.179 340.195 693.148C340.195 692.116 340.605 691.127 341.334 690.398C342.063 689.668 343.052 689.259 344.084 689.259H392.173C393.204 689.259 394.193 689.668 394.922 690.398C395.652 691.127 396.061 692.116 396.061 693.148C396.061 694.179 395.652 695.168 394.922 695.897C394.193 696.627 393.204 697.036 392.173 697.036Z" fill="#E6E6E6"/>
<path d="M493.471 545.692H243.304C241.843 545.691 240.443 545.11 239.41 544.077C238.378 543.044 237.797 541.644 237.795 540.183V472.127C237.797 470.666 238.377 469.266 239.41 468.233C240.443 467.2 241.843 466.619 243.304 466.617H493.471C494.931 466.619 496.332 467.2 497.364 468.233C498.397 469.266 498.978 470.666 498.98 472.127V540.183C498.978 541.644 498.397 543.044 497.364 544.077C496.332 545.109 494.931 545.69 493.471 545.692Z" fill="#DEC800"/>
<path d="M153.368 626.66C155.759 643.441 143.095 717.784 144.502 717.777L162.688 717.68C163.336 716.436 171.683 676.321 174.301 669.885C177.957 660.954 181.644 651.912 183.083 642.371C184.438 633.414 183.77 624.288 182.889 615.272C182.93 615.003 182.906 614.729 182.821 614.472C182.735 614.215 182.589 613.981 182.395 613.791C182.202 613.601 181.965 613.46 181.706 613.38C181.447 613.299 181.173 613.281 180.906 613.327L156.505 612.07C151.475 611.811 150.283 610.709 151.048 615.648C151.579 619.336 152.836 622.926 153.368 626.66Z" fill="#2F2E41"/>
<path d="M158.164 585.858C153.206 592.988 148.008 601.194 149.654 609.73C150.905 616.212 155.844 621.235 160.503 625.934C179.13 644.64 215.858 727.176 215.858 727.176C233.582 715.833 215.435 727.5 233.421 715.509C231.827 715.386 195.605 585.165 192.604 584.99C180.465 584.186 169.992 583 158.164 585.858Z" fill="#2F2E41"/>
<path d="M177.774 517.997C175.256 515.751 157.559 508.825 157.559 508.825C157.233 508.782 156.903 508.792 156.581 508.854C155.574 509.108 155.114 510.36 155.329 511.372C155.544 512.384 153.779 529.018 153.325 536.582C152.528 549.783 160.301 579.686 160.233 580.601C159.966 583.861 158.539 586.918 156.209 589.216C156.815 589.967 195.267 591.474 197.883 592.364C198.411 591.694 194.905 544.263 194.744 541.583C194.475 537.515 181.099 521.077 177.774 517.997Z" fill="#E6E6E6"/>
<path d="M150.348 620.916C151.26 620.463 152.06 619.815 152.694 619.018C153.328 618.222 153.78 617.296 154.017 616.306C154.254 615.316 154.272 614.286 154.068 613.289C153.864 612.292 153.445 611.351 152.838 610.534L169.062 520.738L153.922 520.539L142.656 609.335C141.35 610.445 140.497 611.995 140.258 613.692C140.019 615.389 140.41 617.115 141.358 618.543C142.307 619.97 143.746 621 145.402 621.438C147.059 621.875 148.819 621.69 150.348 620.916H150.348Z" fill="#FFB8B8"/>
<path d="M150.218 527.401C149.587 527.447 148.958 527.283 148.429 526.935C147.528 526.163 154.878 514.36 156.33 514.185C161.054 513.641 165.915 513.459 170.497 514.736C175.079 516.013 179.389 518.917 181.437 523.214C182.293 525.003 176.09 534.006 173.271 532.684C169.894 531.102 154.664 527.511 150.218 527.401Z" fill="#E6E6E6"/>
<path d="M166.894 507.857C176.286 507.857 183.899 500.243 183.899 490.85C183.899 481.458 176.286 473.844 166.894 473.844C157.502 473.844 149.889 481.458 149.889 490.85C149.889 500.243 157.502 507.857 166.894 507.857Z" fill="#FFB8B8"/>
<path d="M150.191 518.97C152.554 519.217 154.942 518.868 157.135 517.954C159.328 517.04 161.257 515.59 162.746 513.738C164.234 511.886 165.234 509.69 165.655 507.351C166.075 505.013 165.903 502.606 165.153 500.351C164.476 498.316 163.345 496.451 162.725 494.398C162.105 492.346 162.088 489.918 163.463 488.272C166.152 485.052 171.336 487.078 175.482 486.438C179.9 485.756 183.289 481.517 183.643 477.06C183.997 472.604 181.674 468.193 178.216 465.36C174.759 462.526 170.299 461.131 165.85 460.694C160.137 460.132 154.375 461.052 149.12 463.363C143.865 465.674 139.293 469.299 135.845 473.89C132.397 478.48 130.189 483.881 129.433 489.573C128.678 495.264 129.4 501.054 131.53 506.386C133.389 511.037 136.425 515.368 140.737 517.915C145.049 520.463 150.745 520.952 155.043 518.381" fill="#2F2E41"/>
<path d="M332.273 497.729H288.815C286.056 497.729 283.81 494.53 283.81 490.599C283.81 486.668 286.056 483.469 288.816 483.469H332.273C335.033 483.469 337.278 486.668 337.278 490.599C337.278 494.53 335.033 497.729 332.273 497.729Z" fill="white"/>
<path d="M449.076 513.284H287.699C286.667 513.284 285.678 512.875 284.949 512.145C284.22 511.416 283.81 510.427 283.81 509.396C283.81 508.364 284.22 507.375 284.949 506.646C285.678 505.916 286.667 505.507 287.699 505.507H449.076C450.107 505.507 451.096 505.916 451.826 506.646C452.555 507.375 452.965 508.364 452.965 509.396C452.965 510.427 452.555 511.416 451.826 512.145C451.096 512.875 450.107 513.284 449.076 513.284Z" fill="#E6E6E6"/>
<path d="M366.249 528.84H287.699C286.667 528.84 285.678 528.43 284.949 527.701C284.22 526.972 283.81 525.983 283.81 524.951C283.81 523.92 284.22 522.931 284.949 522.201C285.678 521.472 286.667 521.062 287.699 521.062H366.249C367.28 521.062 368.269 521.472 368.998 522.201C369.728 522.931 370.137 523.92 370.137 524.951C370.137 525.983 369.728 526.972 368.998 527.701C368.269 528.43 367.28 528.84 366.249 528.84Z" fill="#E6E6E6"/>
<path d="M603 743.704H91V745H603V743.704Z" fill="#3F3D56"/>
</g>
<path d="M1052 171H1073.54V192.538H1052V171Z" fill="black"/>
<path d="M1093.78 185.215H1100.68V178.323H1093.78V185.215Z" fill="black"/>
<path fill-rule="evenodd" clip-rule="evenodd" d="M1103.69 175.308H1090.77V188.231H1103.69V175.308ZM1086.46 171V192.538H1108V171H1086.46Z" fill="black"/>
<path fill-rule="evenodd" clip-rule="evenodd" d="M1086.46 184.354H1073.54V180.046H1086.46V184.354Z" fill="black"/>
<defs>
<filter id="filter0_d_6_50" x="828" y="621" width="513" height="100" filterUnits="userSpaceOnUse" color-interpolation-filters="sRGB">
<feFlood flood-opacity="0" result="BackgroundImageFix"/>
<feColorMatrix in="SourceAlpha" type="matrix" values="0 0 0 0 0 0 0 0 0 0 0 0 0 0 0 0 0 0 127 0" result="hardAlpha"/>
<feOffset dx="4" dy="4"/>
<feGaussianBlur stdDeviation="12"/>
<feColorMatrix type="matrix" values="0 0 0 0 0 0 0 0 0 0 0 0 0 0 0 0 0 0 0.15 0"/>
<feBlend mode="normal" in2="BackgroundImageFix" result="effect1_dropShadow_6_50"/>
<feBlend mode="normal" in="SourceGraphic" in2="effect1_dropShadow_6_50" result="shape"/>
</filter>
<clipPath id="clip0_6_50">
<rect width="512" height="455" fill="white" transform="translate(91 290)"/>
</clipPath>
</defs>
</svg>
