<?xml version="1.0" encoding="utf-8"?>
<!-- Generator: Adobe Illustrator 22.0.1, SVG Export Plug-In . SVG Version: 6.00 Build 0)  -->
<svg version="1.1" xmlns="http://www.w3.org/2000/svg" xmlns:xlink="http://www.w3.org/1999/xlink" x="0px" y="0px"
	 viewBox="0 0 2592 1728" style="enable-background:new 0 0 2592 1728;" xml:space="preserve">
<style type="text/css">
	.st0{opacity:0.61;fill:none;stroke:#000000;stroke-width:0.7514;stroke-miterlimit:10;}
	.st1{opacity:0.61;}
	.st2{clip-path:url(#SVGID_2_);}
	.st3{fill:none;stroke:#000000;stroke-width:0.7514;stroke-miterlimit:10;}
	.st4{clip-path:url(#SVGID_4_);}
	.st5{fill:#F5F5F5;}
	.st6{opacity:0.61;fill:none;stroke:#000000;stroke-width:0.4897;stroke-miterlimit:10;}
	.st7{fill:#F5F5F5;stroke:#000000;stroke-width:0.4897;stroke-miterlimit:10;}
	.st8{clip-path:url(#SVGID_6_);}
	.st9{fill:none;stroke:#000000;stroke-width:0.4897;stroke-miterlimit:10;}
	.st10{clip-path:url(#SVGID_8_);}
</style>
<g id="Layer_2">
	<path class="st5" d="M-0.3-1v1729h2592.7V-1H-0.3z M1576.5,788l-175.6,124l-38.5,66.5l-99.8,201.5l-271.2,44.2l24-96.6L1212.2,794
		l297-281.5L1576.5,788z"/>
</g>
<g id="Layer_3">
	<g>
		<polygon class="st6" points="1633.1,448.3 1577.1,787.7 1344.6,1020.9 1015.5,1127 1340.4,787.7 		"/>
		<polyline class="st7" points="1016.6,1125.8 1015.5,1127 1152.9,677.4 1633.1,448.3 1472.6,634.3 1340.3,787.7 		"/>
		<polyline class="st6" points="1015.3,1127.5 940.8,1274.6 1324.3,1191.5 1487.2,831.8 1472.5,634.6 		"/>
		<polygon class="st6" points="1152.9,677.4 1340.4,787.7 1015.5,1127 		"/>
		<g class="st1">
			<defs>
				<polygon id="SVGID_5_" class="st1" points="1152.9,677.4 1340.4,787.7 1015.5,1127 				"/>
			</defs>
			<use xlink:href="#SVGID_5_"  style="overflow:visible;fill:#F5F5F5;"/>
			<clipPath id="SVGID_2_">
				<use xlink:href="#SVGID_5_"  style="overflow:visible;"/>
			</clipPath>
			<g class="st2">
				<line class="st7" x1="1198" y1="581.1" x2="833" y2="1197.1"/>
				<line class="st7" x1="1220.1" y1="594.2" x2="855" y2="1210.2"/>
				<line class="st7" x1="1264.3" y1="620.4" x2="899.2" y2="1236.4"/>
				<line class="st7" x1="1286.4" y1="633.5" x2="921.3" y2="1249.4"/>
				<line class="st7" x1="1330.5" y1="659.6" x2="965.4" y2="1275.6"/>
				<line class="st7" x1="1374.7" y1="685.8" x2="1009.6" y2="1301.8"/>
				<line class="st7" x1="1396.7" y1="698.9" x2="1031.7" y2="1314.9"/>
				<line class="st7" x1="1418.8" y1="712" x2="1053.7" y2="1328"/>
				<line class="st7" x1="1352.6" y1="672.7" x2="987.5" y2="1288.7"/>
				<line class="st7" x1="1308.4" y1="646.6" x2="943.4" y2="1262.5"/>
				<line class="st7" x1="1242.2" y1="607.3" x2="877.1" y2="1223.3"/>
			</g>
			<use xlink:href="#SVGID_5_"  style="overflow:visible;fill:none;stroke:#000000;stroke-width:0.4897;stroke-miterlimit:10;"/>
		</g>
		<polygon class="st7" points="1324.3,1191.5 1015.5,1127 940.8,1274.6 		"/>
		<polygon class="st9" points="1487.2,831.8 1015.5,1127 1340.4,787.7 		"/>
		<polygon class="st7" points="1577.1,787.7 1472.5,634.5 1633.1,448.3 		"/>
		<polygon class="st7" points="1487.2,831.8 1577.1,787.7 1449.9,914.7 		"/>
		<polygon class="st7" points="1324.3,1191.5 1306.5,1059.2 1449.6,914.9 		"/>
		<polygon class="st6" points="1015.5,1127 1306.5,1059.2 1324.3,1191.5 		"/>
		<g>
			<defs>
				<polygon id="SVGID_7_" points="1015.5,1127 1306.5,1059.2 1324.3,1191.5 				"/>
			</defs>
			<use xlink:href="#SVGID_7_"  style="overflow:visible;fill:#F5F5F5;"/>
			<clipPath id="SVGID_4_">
				<use xlink:href="#SVGID_7_"  style="overflow:visible;"/>
			</clipPath>
			<g class="st4">
				<circle class="st7" cx="1064" cy="1039.5" r="6.7"/>
				<circle class="st7" cx="1101.5" cy="1039.5" r="6.7"/>
				<circle class="st7" cx="1139.1" cy="1039.5" r="6.7"/>
				<circle class="st7" cx="1176.6" cy="1039.5" r="6.7"/>
				<circle class="st7" cx="1214.1" cy="1039.5" r="6.7"/>
				<circle class="st7" cx="1251.6" cy="1039.5" r="6.7"/>
				<circle class="st7" cx="1289.1" cy="1039.5" r="6.7"/>
				<circle class="st7" cx="1326.7" cy="1039.5" r="6.7"/>
				<circle class="st7" cx="1364.2" cy="1039.5" r="6.7"/>
				<circle class="st7" cx="1401.7" cy="1039.5" r="6.7"/>
				<circle class="st7" cx="1026.5" cy="1039.5" r="6.7"/>
				<circle class="st7" cx="989" cy="1039.5" r="6.7"/>
				<circle class="st7" cx="1064" cy="1072.1" r="6.7"/>
				<circle class="st7" cx="1101.5" cy="1072.1" r="6.7"/>
				<circle class="st7" cx="1139.1" cy="1072.1" r="6.7"/>
				<circle class="st7" cx="1176.6" cy="1072.1" r="6.7"/>
				<circle class="st7" cx="1214.1" cy="1072.1" r="6.7"/>
				<circle class="st7" cx="1251.6" cy="1072.1" r="6.7"/>
				<circle class="st7" cx="1289.1" cy="1072.1" r="6.7"/>
				<circle class="st7" cx="1326.7" cy="1072.1" r="6.7"/>
				<circle class="st7" cx="1364.2" cy="1072.1" r="6.7"/>
				<circle class="st7" cx="1401.7" cy="1072.1" r="6.7"/>
				<circle class="st7" cx="1026.5" cy="1072.1" r="6.7"/>
				<circle class="st7" cx="989" cy="1072.1" r="6.7"/>
				<circle class="st7" cx="1064" cy="1104.8" r="6.7"/>
				<circle class="st7" cx="1101.5" cy="1104.8" r="6.7"/>
				<circle class="st7" cx="1139.1" cy="1104.8" r="6.7"/>
				<circle class="st7" cx="1176.6" cy="1104.8" r="6.7"/>
				<circle class="st7" cx="1214.1" cy="1104.8" r="6.7"/>
				<circle class="st7" cx="1251.6" cy="1104.8" r="6.7"/>
				<circle class="st7" cx="1289.1" cy="1104.8" r="6.7"/>
				<circle class="st7" cx="1326.7" cy="1104.8" r="6.7"/>
				<circle class="st7" cx="1364.2" cy="1104.8" r="6.7"/>
				<circle class="st7" cx="1401.7" cy="1104.8" r="6.7"/>
				<circle class="st7" cx="1026.5" cy="1104.8" r="6.7"/>
				<circle class="st7" cx="989" cy="1104.8" r="6.7"/>
				<circle class="st7" cx="1064" cy="1137.4" r="6.7"/>
				<circle class="st7" cx="1101.5" cy="1137.4" r="6.7"/>
				<circle class="st7" cx="1139.1" cy="1137.4" r="6.7"/>
				<circle class="st7" cx="1176.6" cy="1137.4" r="6.7"/>
				<circle class="st7" cx="1214.1" cy="1137.4" r="6.7"/>
				<circle class="st7" cx="1251.6" cy="1137.4" r="6.7"/>
				<circle class="st7" cx="1289.1" cy="1137.4" r="6.7"/>
				<circle class="st7" cx="1326.7" cy="1137.4" r="6.7"/>
				<circle class="st7" cx="1364.2" cy="1137.4" r="6.7"/>
				<circle class="st7" cx="1401.7" cy="1137.4" r="6.7"/>
				<circle class="st7" cx="1026.5" cy="1137.4" r="6.7"/>
				<circle class="st7" cx="989" cy="1137.4" r="6.7"/>
				<circle class="st7" cx="1064" cy="1170.1" r="6.7"/>
				<circle class="st7" cx="1101.5" cy="1170.1" r="6.7"/>
				<circle class="st7" cx="1139.1" cy="1170.1" r="6.7"/>
				<circle class="st7" cx="1176.6" cy="1170.1" r="6.7"/>
				<circle class="st7" cx="1214.1" cy="1170.1" r="6.7"/>
				<circle class="st7" cx="1251.6" cy="1170.1" r="6.7"/>
				<circle class="st7" cx="1289.1" cy="1170.1" r="6.7"/>
				<circle class="st7" cx="1326.7" cy="1170.1" r="6.7"/>
				<circle class="st7" cx="1364.2" cy="1170.1" r="6.7"/>
				<circle class="st7" cx="1401.7" cy="1170.1" r="6.7"/>
				<circle class="st7" cx="1026.5" cy="1170.1" r="6.7"/>
				<circle class="st7" cx="989" cy="1170.1" r="6.7"/>
				<circle class="st7" cx="1064" cy="1202.7" r="6.7"/>
				<circle class="st7" cx="1101.5" cy="1202.7" r="6.7"/>
				<circle class="st7" cx="1139.1" cy="1202.7" r="6.7"/>
				<circle class="st7" cx="1176.6" cy="1202.7" r="6.7"/>
				<circle class="st7" cx="1214.1" cy="1202.7" r="6.7"/>
				<circle class="st7" cx="1251.6" cy="1202.7" r="6.7"/>
				<circle class="st7" cx="1289.1" cy="1202.7" r="6.7"/>
				<circle class="st7" cx="1326.7" cy="1202.7" r="6.7"/>
				<circle class="st7" cx="1364.2" cy="1202.7" r="6.7"/>
				<circle class="st7" cx="1401.7" cy="1202.7" r="6.7"/>
				<circle class="st7" cx="1026.5" cy="1202.7" r="6.7"/>
				<circle class="st7" cx="989" cy="1202.7" r="6.7"/>
				<circle class="st7" cx="1064" cy="1235.4" r="6.7"/>
				<circle class="st7" cx="1101.5" cy="1235.4" r="6.7"/>
				<circle class="st7" cx="1139.1" cy="1235.4" r="6.7"/>
				<circle class="st7" cx="1176.6" cy="1235.4" r="6.7"/>
				<circle class="st7" cx="1214.1" cy="1235.4" r="6.7"/>
				<circle class="st7" cx="1251.6" cy="1235.4" r="6.7"/>
				<circle class="st7" cx="1289.1" cy="1235.4" r="6.7"/>
				<circle class="st7" cx="1326.7" cy="1235.4" r="6.7"/>
				<circle class="st7" cx="1364.2" cy="1235.4" r="6.7"/>
				<circle class="st7" cx="1401.7" cy="1235.4" r="6.7"/>
				<circle class="st7" cx="1026.5" cy="1235.4" r="6.7"/>
				<circle class="st7" cx="989" cy="1235.4" r="6.7"/>
			</g>
			<use xlink:href="#SVGID_7_"  style="overflow:visible;fill:none;stroke:#000000;stroke-width:0.4897;stroke-miterlimit:10;"/>
		</g>
		<polygon class="st7" points="1015.8,1126.8 1344.5,1020.9 1306.4,1059 		"/>
		<polygon class="st7" points="1472.3,634.7 1340.5,787.6 1487,831.9 		"/>
		<polygon class="st7" points="1487,832 1016.9,1126.4 1344.4,1021 1449.5,915.3 		"/>
	</g>
</g>
</svg>
