<svg width="401" height="479" viewBox="0 0 401 479" fill="none" xmlns="http://www.w3.org/2000/svg">
<g opacity="0.6">
<path d="M400.808 0L123.37 133.216L231.681 196.929L400.808 0Z" fill="#5135FF"/>
<path d="M368.952 196.987L400.808 0L307.788 108.311L368.952 196.987Z" fill="#4A00A8"/>
<path d="M316.823 221.834L307.788 108.311L368.952 196.986L316.823 221.834Z" fill="#AD00FF" fill-opacity="0.91"/>
<path d="M231.681 196.928L307.788 108.311L316.823 221.834L231.681 196.928Z" fill="#4F00B4"/>
<path d="M43.4401 393.278L231.681 196.929L123.37 133.217L43.4401 393.278Z" fill="#4A00A9"/>
<path d="M316.823 221.834L231.681 196.929L43.4401 393.278L316.823 221.834Z" fill="#2D0067"/>
<path d="M294.756 270.313L316.823 221.834L368.952 196.986L294.756 270.313Z" fill="#4800A5"/>
<path d="M233.998 332.114L294.756 270.313L316.823 221.834L43.4401 393.278L233.998 332.114Z" fill="#D400F7"/>
<path d="M211.988 354.471L233.998 332.114L43.4401 393.278L211.988 354.471Z" fill="#5092F4"/>
<path d="M222.413 430.926L294.756 270.313L211.988 354.472L222.413 430.926Z" fill="#22004E"/>
<path d="M0 479L43.4401 393.278L222.414 430.926L0 479Z" fill="#9746FF"/>
<path d="M211.988 354.472L222.413 430.926L43.4401 393.278L211.988 354.472Z" fill="#5E00D7"/>
</g>
</svg>
