<?xml version="1.0" encoding="utf-8"?>
<!-- Generator: Adobe Illustrator 22.0.1, SVG Export Plug-In . SVG Version: 6.00 Build 0)  -->
<svg version="1.1" id="Layer_1" xmlns="http://www.w3.org/2000/svg" xmlns:xlink="http://www.w3.org/1999/xlink" x="0px" y="0px"
	 viewBox="0 0 400 600" style="enable-background:new 0 0 400 600;" xml:space="preserve">
<style type="text/css">
	.st0{clip-path:url(#SVGID_2_);}
	.st1{fill:#D76773;}
	.st2{fill:#91BBBD;}
	.st3{fill:#AB6EAE;}
	.st4{fill:#8F3393;}
	.st5{fill:#E6E8E8;}
	.st6{fill:#6F6EB2;}
	.st7{fill:#9E459A;}
	.st8{fill:#384BA0;}
	.st9{fill:#C62126;}
	.st10{opacity:0.18;}
	.st11{fill:#C94049;}
	.st12{fill:#4B52A3;}
	.st13{fill:#FFFFFF;stroke:#010101;stroke-width:2;stroke-linecap:round;stroke-linejoin:round;}
	.st14{fill:#FFFFFF;stroke:#010101;stroke-width:1.4166;stroke-linecap:round;stroke-linejoin:round;}
	.st15{fill:#010101;}
	.st16{fill:#FFFFFF;stroke:#010101;stroke-width:1.9556;stroke-linecap:round;stroke-linejoin:round;}
	.st17{fill:#FFFFFF;stroke:#FFFFFF;stroke-width:2;stroke-linecap:round;stroke-linejoin:round;}
	.st18{fill:none;stroke:#FFFFFF;stroke-width:2;stroke-linecap:round;stroke-linejoin:round;}
	.st19{fill:none;stroke:#010101;stroke-width:2;stroke-linecap:round;stroke-linejoin:round;}
	.st20{fill:#FFFFFF;}
</style>
<g>
	<defs>
		<rect id="SVGID_1_" width="400" height="600"/>
	</defs>
	<clipPath id="SVGID_2_">
		<use xlink:href="#SVGID_1_"  style="overflow:visible;"/>
	</clipPath>
	<g class="st0">
		<g id="XMLID_1_">
			<g>
				
					<rect x="319.7" y="544" transform="matrix(0.2616 -0.9652 0.9652 0.2616 -299.788 791.1556)" class="st5" width="95" height="95"/>
				
					<rect x="344.5" y="452.2" transform="matrix(0.2616 -0.9652 0.9652 0.2616 -192.8819 747.4163)" class="st1" width="95.1" height="95"/>
				
					<rect x="369.4" y="360.5" transform="matrix(0.2616 -0.9652 0.9652 0.2616 -85.9758 703.677)" class="st6" width="95" height="95"/>
				
					<rect x="394.3" y="268.8" transform="matrix(0.2616 -0.9652 0.9652 0.2616 20.9182 659.9427)" class="st7" width="95" height="95"/>
				
					<rect x="227.9" y="519.1" transform="matrix(0.2616 -0.9652 0.9652 0.2616 -343.5273 684.2495)" class="st2" width="95" height="95.1"/>
				
					<rect x="252.8" y="427.4" transform="matrix(0.2616 -0.9652 0.9652 0.2616 -236.6212 640.5102)" class="st5" width="95.1" height="95.1"/>
				
					<rect x="277.7" y="335.6" transform="matrix(0.2616 -0.9652 0.9652 0.2616 -129.7151 596.7709)" class="st3" width="95" height="95.1"/>
				
					<rect x="302.5" y="243.9" transform="matrix(0.2616 -0.9652 0.9652 0.2616 -22.8211 553.0366)" class="st6" width="95" height="95.1"/>
				
					<rect x="327.4" y="152.2" transform="matrix(0.2616 -0.9652 0.9652 0.2616 84.0851 509.2973)" class="st8" width="95.1" height="95.1"/>
				
					<rect x="352.2" y="60.4" transform="matrix(0.2616 -0.9652 0.9652 0.2616 190.9912 465.558)" class="st1" width="95" height="95.1"/>
				
					<rect x="377.1" y="-31.3" transform="matrix(0.2616 -0.9652 0.9652 0.2616 297.8852 421.8237)" class="st2" width="95" height="95.1"/>
				
					<rect x="111.3" y="586" transform="matrix(0.2616 -0.9652 0.9652 0.2616 -494.1606 621.0776)" class="st9" width="95" height="95"/>
				
					<rect x="136.2" y="494.3" transform="matrix(0.2616 -0.9652 0.9652 0.2616 -387.2666 577.3433)" class="st9" width="95" height="95"/>
				
					<rect x="161" y="402.5" transform="matrix(0.2616 -0.9652 0.9652 0.2616 -280.3604 533.6041)" class="st1" width="95.1" height="95"/>
				
					<rect x="185.9" y="310.8" transform="matrix(0.2616 -0.9652 0.9652 0.2616 -173.4543 489.8648)" class="st5" width="95" height="95"/>
				
					<rect x="210.8" y="219" transform="matrix(0.2616 -0.9652 0.9652 0.2616 -66.5603 446.1305)" class="st1" width="95" height="95"/>
				
					<rect x="235.6" y="127.3" transform="matrix(0.2616 -0.9652 0.9652 0.2616 40.3458 402.3912)" class="st5" width="95.1" height="95"/>
				
					<rect x="260.5" y="35.6" transform="matrix(0.2616 -0.9652 0.9652 0.2616 147.2519 358.6519)" class="st8" width="95" height="95"/>
				
					<rect x="285.4" y="-56.2" transform="matrix(0.2616 -0.9652 0.9652 0.2616 254.1459 314.9176)" class="st5" width="95" height="95"/>
				
					<rect x="19.6" y="561.1" transform="matrix(0.2616 -0.9652 0.9652 0.2616 -537.8949 514.1836)" class="st5" width="95" height="95"/>
				
					<rect x="44.5" y="469.4" transform="matrix(0.2616 -0.9652 0.9652 0.2616 -431.0009 470.4493)" class="st9" width="95" height="95"/>
				
					<rect x="69.3" y="377.7" transform="matrix(0.2616 -0.9652 0.9652 0.2616 -324.0948 426.71)" class="st4" width="95.1" height="95"/>
				
					<rect x="94.2" y="285.9" transform="matrix(0.2616 -0.9652 0.9652 0.2616 -217.1886 382.9708)" class="st8" width="95" height="95"/>
				
					<rect x="119" y="194.2" transform="matrix(0.2616 -0.9652 0.9652 0.2616 -110.2946 339.2365)" class="st7" width="95" height="95"/>
				
					<rect x="143.9" y="102.4" transform="matrix(0.2616 -0.9652 0.9652 0.2616 -3.3885 295.4972)" class="st8" width="95.1" height="95"/>
				
					<rect x="168.8" y="10.7" transform="matrix(0.2616 -0.9652 0.9652 0.2616 103.5176 251.7579)" class="st8" width="95" height="95"/>
				
					<rect x="193.6" y="-81" transform="matrix(0.2616 -0.9652 0.9652 0.2616 210.4116 208.0236)" class="st2" width="95" height="95"/>
				
					<rect x="-72.2" y="536.2" transform="matrix(0.2616 -0.9652 0.9652 0.2616 -581.6342 407.2775)" class="st2" width="95" height="95.1"/>
				
					<rect x="-47.3" y="444.5" transform="matrix(0.2616 -0.9652 0.9652 0.2616 -474.7402 363.5432)" class="st5" width="95" height="95.1"/>
				
					<rect x="-22.4" y="352.8" transform="matrix(0.2616 -0.9652 0.9652 0.2616 -367.834 319.8039)" class="st1" width="95.1" height="95.1"/>
				
					<rect x="2.4" y="261" transform="matrix(0.2616 -0.9652 0.9652 0.2616 -260.9279 276.0646)" class="st5" width="95" height="95.1"/>
				
					<rect x="27.3" y="169.3" transform="matrix(0.2616 -0.9652 0.9652 0.2616 -154.0339 232.3303)" class="st3" width="95" height="95.1"/>
				
					<rect x="52.2" y="77.6" transform="matrix(0.2616 -0.9652 0.9652 0.2616 -47.1278 188.591)" class="st5" width="95.1" height="95.1"/>
				
					<rect x="77" y="-14.2" transform="matrix(0.2616 -0.9652 0.9652 0.2616 59.7784 144.8518)" class="st2" width="95" height="95.1"/>
				
					<rect x="-89.3" y="236.2" transform="matrix(0.2616 -0.9652 0.9652 0.2616 -304.6672 169.1585)" class="st6" width="95" height="95"/>
				
					<rect x="-64.4" y="144.5" transform="matrix(0.2616 -0.9652 0.9652 0.2616 -197.7732 125.4242)" class="st1" width="95" height="95"/>
				
					<rect x="-39.6" y="52.7" transform="matrix(0.2616 -0.9652 0.9652 0.2616 -90.867 81.6849)" class="st6" width="95.1" height="95"/>
				
					<rect x="-14.7" y="-39" transform="matrix(0.2616 -0.9652 0.9652 0.2616 16.0391 37.9457)" class="st5" width="95" height="95"/>
			</g>
		</g>
	</g>
</g>
<rect class="st10" width="400" height="600"/>
<g>
	<g>
		<path class="st1" d="M305,437.8c1.9,0,1.9-3,0-3C303.1,434.8,303.1,437.8,305,437.8L305,437.8z"/>
	</g>
</g>
<g>
	
		<image style="overflow:visible;opacity:0.75;" width="176" height="179" xlink:href="267EB14D.png"  transform="matrix(1 0 0 1 126 123)">
	</image>
	<g>
		<g>
			<ellipse class="st17" cx="206.7" cy="199" rx="6.7" ry="11.3"/>
			<line class="st18" x1="206.7" y1="177.3" x2="206.7" y2="189.2"/>
			<line class="st18" x1="203.2" y1="181.7" x2="210.2" y2="181.7"/>
			<path class="st17" d="M231.9,199.8c-3.9-5.5-14-6-22.8-0.9c-0.9,0.5-1.7,1-2.4,1.6c-0.8-0.6-1.6-1.1-2.4-1.6
				c-8.7-5-18.9-4.6-22.8,0.9c-3.4,4.9-0.7,12.3,6.1,17.3v16.6h38.2v-16.6C232.6,212,235.3,204.7,231.9,199.8z"/>
			<line class="st18" x1="206.7" y1="200.5" x2="206.7" y2="215.8"/>
			<line class="st18" x1="187.6" y1="217.1" x2="206.7" y2="215.8"/>
			<line class="st18" x1="225.8" y1="217.1" x2="206.7" y2="215.8"/>
		</g>
	</g>
</g>
<g>
	<g>
		<g>
			<path class="st20" d="M66,273.5c2.6-4.6,6.1-8.2,10.7-10.8c4.6-2.6,9.7-3.9,15.5-3.9c7.1,0,13.1,1.9,18.2,5.6
				c5,3.7,8.4,8.8,10.1,15.3h-16c-1.2-2.5-2.9-4.4-5.1-5.7c-2.2-1.3-4.7-2-7.4-2c-4.5,0-8.1,1.6-10.9,4.7c-2.8,3.1-4.2,7.3-4.2,12.5
				c0,5.2,1.4,9.4,4.2,12.5c2.8,3.1,6.4,4.7,10.9,4.7c2.8,0,5.3-0.7,7.4-2c2.2-1.3,3.9-3.2,5.1-5.7h16c-1.7,6.5-5.1,11.5-10.1,15.3
				c-5,3.7-11.1,5.6-18.2,5.6c-5.8,0-11-1.3-15.5-3.9c-4.6-2.6-8.1-6.2-10.7-10.8c-2.5-4.6-3.8-9.8-3.8-15.7
				C62.2,283.4,63.5,278.2,66,273.5z"/>
			<path class="st20" d="M183.7,259.6v59.7h-14.5v-24.6h-22.6v24.6H132v-59.7h14.5v23.4h22.6v-23.4H183.7z"/>
			<path class="st20" d="M211.2,271.2v12.1h19.5v11.2h-19.5v13.1h22v11.6h-36.5v-59.7h36.5v11.6H211.2z"/>
			<path class="st20" d="M255.1,317.7c-3.5-1.4-6.2-3.5-8.3-6.3c-2.1-2.8-3.2-6.1-3.3-10H259c0.2,2.2,1,3.9,2.3,5.1
				c1.3,1.2,3,1.7,5.1,1.7c2.2,0,3.9-0.5,5.1-1.5c1.2-1,1.9-2.4,1.9-4.1c0-1.5-0.5-2.7-1.5-3.7c-1-1-2.2-1.8-3.7-2.4
				c-1.4-0.6-3.5-1.3-6.2-2.1c-3.9-1.2-7-2.4-9.4-3.6c-2.4-1.2-4.5-2.9-6.3-5.3c-1.8-2.3-2.6-5.4-2.6-9.1c0-5.6,2-9.9,6-13
				c4-3.1,9.3-4.7,15.7-4.7c6.6,0,11.9,1.6,15.9,4.7c4,3.1,6.2,7.5,6.5,13.1h-15.7c-0.1-1.9-0.8-3.4-2.1-4.5c-1.3-1.1-3-1.7-5-1.7
				c-1.8,0-3.2,0.5-4.3,1.4c-1.1,0.9-1.6,2.3-1.6,4c0,1.9,0.9,3.4,2.7,4.5c1.8,1.1,4.6,2.2,8.5,3.5c3.9,1.3,7,2.5,9.4,3.7
				c2.4,1.2,4.5,2.9,6.2,5.2c1.8,2.3,2.6,5.2,2.6,8.8c0,3.4-0.9,6.5-2.6,9.3c-1.7,2.8-4.2,5-7.5,6.6c-3.3,1.6-7.2,2.5-11.6,2.5
				C262.4,319.8,258.5,319.1,255.1,317.7z"/>
			<path class="st20" d="M309.9,317.7c-3.5-1.4-6.2-3.5-8.3-6.3c-2.1-2.8-3.2-6.1-3.3-10h15.5c0.2,2.2,1,3.9,2.3,5.1
				c1.3,1.2,3,1.7,5.1,1.7c2.2,0,3.9-0.5,5.1-1.5c1.2-1,1.9-2.4,1.9-4.1c0-1.5-0.5-2.7-1.5-3.7c-1-1-2.2-1.8-3.7-2.4
				c-1.4-0.6-3.5-1.3-6.2-2.1c-3.9-1.2-7-2.4-9.4-3.6c-2.4-1.2-4.5-2.9-6.3-5.3c-1.8-2.3-2.6-5.4-2.6-9.1c0-5.6,2-9.9,6-13
				c4-3.1,9.3-4.7,15.7-4.7c6.6,0,11.9,1.6,15.9,4.7c4,3.1,6.2,7.5,6.5,13.1h-15.7c-0.1-1.9-0.8-3.4-2.1-4.5c-1.3-1.1-3-1.7-5-1.7
				c-1.8,0-3.2,0.5-4.3,1.4c-1.1,0.9-1.6,2.3-1.6,4c0,1.9,0.9,3.4,2.7,4.5c1.8,1.1,4.6,2.2,8.5,3.5c3.9,1.3,7,2.5,9.4,3.7
				c2.4,1.2,4.5,2.9,6.2,5.2c1.8,2.3,2.6,5.2,2.6,8.8c0,3.4-0.9,6.5-2.6,9.3c-1.7,2.8-4.2,5-7.5,6.6c-3.3,1.6-7.2,2.5-11.6,2.5
				C317.2,319.8,313.3,319.1,309.9,317.7z"/>
		</g>
	</g>
</g>
<g>
	<g>
		<g>
			<path class="st20" d="M99.5,336.2L85,374.6h-4.4L66,336.2h4.2l12.6,34.3l12.7-34.3H99.5z"/>
			<path class="st20" d="M109.2,336.2v38.4h-3.9v-38.4H109.2z"/>
			<path class="st20" d="M122.9,373.7c-1.9-0.9-3.4-2.1-4.5-3.7c-1.1-1.6-1.7-3.3-1.8-5.3h4.1c0.2,1.9,1,3.5,2.5,4.9
				c1.5,1.4,3.6,2.1,6.4,2.1c2.6,0,4.7-0.7,6.2-2c1.5-1.3,2.3-3,2.3-5.1c0-1.7-0.4-3-1.3-4c-0.8-1-1.9-1.8-3.1-2.3
				c-1.2-0.5-3-1-5.2-1.6c-2.6-0.7-4.6-1.4-6.1-2c-1.5-0.7-2.8-1.7-3.9-3.1c-1.1-1.4-1.6-3.3-1.6-5.7c0-2,0.5-3.7,1.5-5.3
				c1-1.6,2.5-2.8,4.3-3.7c1.9-0.9,4-1.3,6.4-1.3c3.6,0,6.4,0.9,8.6,2.6c2.2,1.7,3.4,4,3.8,6.7h-4.2c-0.3-1.6-1.1-3-2.6-4.2
				c-1.5-1.2-3.4-1.8-5.9-1.8c-2.3,0-4.2,0.6-5.8,1.8s-2.3,2.9-2.3,5c0,1.6,0.4,2.9,1.3,3.9c0.8,1,1.9,1.7,3.2,2.3
				c1.3,0.5,3,1.1,5.1,1.6c2.5,0.7,4.5,1.4,6.1,2.1c1.5,0.7,2.8,1.7,3.9,3.1c1.1,1.4,1.6,3.3,1.6,5.6c0,1.8-0.5,3.5-1.4,5.1
				c-1,1.6-2.4,2.9-4.2,3.9s-4.1,1.5-6.7,1.5C127,375,124.8,374.5,122.9,373.7z"/>
			<path class="st20" d="M153,336.2v24.2c0,3.8,0.9,6.6,2.7,8.5c1.8,1.8,4.3,2.8,7.5,2.8c3.2,0,5.6-0.9,7.4-2.7
				c1.8-1.8,2.7-4.6,2.7-8.5v-24.2h3.8v24.1c0,4.9-1.3,8.5-3.9,11s-5.9,3.7-10.1,3.7c-4.1,0-7.5-1.2-10.1-3.7s-3.9-6.1-3.9-11v-24.1
				H153z"/>
			<path class="st20" d="M208,365.5h-17.5l-3.4,9.1h-4.1l14-38h4.3l14,38h-4.1L208,365.5z M206.8,362.3l-7.6-20.8l-7.6,20.8H206.8z"
				/>
			<path class="st20" d="M225.4,371.5h13.8v3.1h-17.7v-38.4h3.9V371.5z"/>
			<path class="st20" d="M248.6,336.2v38.4h-3.9v-38.4H248.6z"/>
			<path class="st20" d="M259.8,371.2h19.6v3.4h-24.1v-3.1l19.4-32h-19v-3.4h23.5v3.1L259.8,371.2z"/>
			<path class="st20" d="M290,339.3v14.4h14.6v3.2H290v14.6h16.2v3.2h-20.1v-38.5h20.1v3.2H290z"/>
			<path class="st20" d="M334.3,374.6l-9.5-16.1h-7.1v16.1h-3.9v-38.4h11.6c4.3,0,7.5,1,9.8,3.1c2.2,2.1,3.3,4.7,3.3,8.1
				c0,2.8-0.8,5.2-2.4,7.1c-1.6,2-4,3.2-7.1,3.8l9.9,16.3H334.3z M317.7,355.4h7.8c3,0,5.3-0.7,6.8-2.2c1.5-1.5,2.3-3.4,2.3-5.9
				c0-2.5-0.7-4.5-2.2-5.9c-1.5-1.4-3.8-2.1-6.9-2.1h-7.7V355.4z"/>
		</g>
	</g>
</g>
</svg>
