<?xml version="1.0" encoding="utf-8"?>
<!-- Generator: Adobe Illustrator 22.0.1, SVG Export Plug-In . SVG Version: 6.00 Build 0)  -->
<svg version="1.1" id="Layer_4" xmlns="http://www.w3.org/2000/svg" xmlns:xlink="http://www.w3.org/1999/xlink" x="0px" y="0px"
	 viewBox="0 0 300 400" style="enable-background:new 0 0 300 400;" xml:space="preserve">
<style type="text/css">
	.st0{fill:url(#SVGID_1_);}
	.st1{fill:#033F3F;}
	.st2{fill:#00293C;}
	.st3{fill:#FFFFFF;}
	.st4{fill:#C6DDD9;}
	.st5{fill:#75CABF;}
	.st6{fill:#1CAE97;}
</style>
<linearGradient id="SVGID_1_" gradientUnits="userSpaceOnUse" x1="-18.0562" y1="357.9272" x2="324.9998" y2="35.5635">
	<stop  offset="0" style="stop-color:#00293C"/>
	<stop  offset="1" style="stop-color:#033F3F"/>
</linearGradient>
<rect x="0" y="0" class="st0" width="300" height="400"/>
<g>
	<g>
		<path class="st3" d="M61.4,180v3.7h6.5v2.6h-6.5v5.1h-3.3v-14.1h10.6v2.6H61.4z"/>
		<path class="st3" d="M104,188.8v2.6H93.1v-14.1h10.6v2.6h-7.4v3.1h6.5v2.5h-6.5v3.3H104z"/>
		<path class="st3" d="M128.7,177.3h6.4c1.5,0,2.9,0.3,4.1,0.9c1.2,0.6,2.1,1.4,2.7,2.5c0.6,1.1,1,2.3,1,3.7s-0.3,2.6-1,3.7
			c-0.7,1.1-1.6,1.9-2.7,2.5c-1.2,0.6-2.5,0.9-4.1,0.9h-6.4V177.3z M134.9,188.7c1.4,0,2.5-0.4,3.4-1.2c0.8-0.8,1.3-1.8,1.3-3.2
			c0-1.3-0.4-2.4-1.3-3.2c-0.8-0.8-2-1.2-3.4-1.2h-3v8.7H134.9z"/>
		<path class="st3" d="M204.2,191.4l-2.7-3.9h-0.2h-2.8v3.9h-3.3v-14.1h6.1c1.2,0,2.3,0.2,3.2,0.6c0.9,0.4,1.6,1,2.1,1.8
			c0.5,0.8,0.7,1.7,0.7,2.7c0,1-0.3,1.9-0.8,2.7c-0.5,0.8-1.2,1.3-2.1,1.7l3.2,4.5H204.2z M203.4,180.6c-0.5-0.4-1.3-0.6-2.2-0.6
			h-2.7v4.9h2.7c1,0,1.7-0.2,2.2-0.6c0.5-0.4,0.8-1,0.8-1.8C204.1,181.7,203.9,181.1,203.4,180.6z"/>
		<path class="st3" d="M241.4,188.4h-6.5l-1.2,3h-3.3l6.3-14.1h3.2l6.3,14.1h-3.4L241.4,188.4z M240.4,185.9l-2.2-5.4l-2.2,5.4
			H240.4z"/>
	</g>
	<g>
		<path class="st3" d="M65.7,210.1v8.4h14.7v5.9H65.7v11.5h-7.3v-31.7h23.9v5.9H65.7z"/>
		<path class="st3" d="M100.8,204.2h7.3v31.7h-7.3V204.2z"/>
		<path class="st3" d="M153.8,230v5.9h-24.5v-31.7h23.9v5.9h-16.6v6.9h14.7v5.7h-14.7v7.3H153.8z"/>
		<path class="st3" d="M173.2,204.2h7.3v25.7h15.9v6h-23.2V204.2z"/>
		<path class="st3" d="M214.1,204.2h14.4c3.4,0,6.5,0.7,9.1,2c2.6,1.3,4.7,3.2,6.2,5.5c1.5,2.4,2.2,5.2,2.2,8.3s-0.7,5.9-2.2,8.3
			c-1.5,2.4-3.5,4.2-6.2,5.5c-2.6,1.3-5.7,2-9.1,2h-14.4V204.2z M228.1,229.9c3.2,0,5.7-0.9,7.6-2.6c1.9-1.8,2.8-4.2,2.8-7.2
			c0-3-0.9-5.4-2.8-7.2c-1.9-1.8-4.4-2.6-7.6-2.6h-6.7v19.6H228.1z"/>
	</g>
	<g>
		<g>
			<path class="st3" d="M141.1,159.5c-1.6,0.2-3.3,0.2-4.5,1.6c-1.2,1.4-0.2,5.3,1,5.9c1.2,0.6,2.3,1.2,11.7,1.2s16.2-4.7,17.2-8.2
				c1-3.5-1-3.5-5.7-2.9l0.2,2.9c-5.3,5.9-18.2,2.9-20.3,1.2L141.1,159.5z"/>
		</g>
		<g>
			<path class="st3" d="M141.5,156.6c0.6-3.9,0.8-8.6,4.1-9.6s5.7,0.8,5.7,0.8s3.1-0.6,5.7-0.2s3.3,7.2,3.3,9.4
				C159.1,157.6,144.8,159.5,141.5,156.6z"/>
		</g>
	</g>
	<g>
		<g id="XMLID_4_">
			<g>
				<rect x="176.3" y="185.8" class="st4" width="1.8" height="1.8"/>
				<rect x="176.3" y="184" class="st4" width="1.8" height="1.8"/>
				<rect x="176.3" y="182.2" class="st4" width="1.8" height="1.8"/>
				<rect x="174.5" y="187.6" class="st4" width="1.8" height="1.8"/>
				<rect x="174.5" y="185.8" class="st5" width="1.8" height="1.8"/>
				<rect x="174.5" y="184" class="st5" width="1.8" height="1.8"/>
				<rect x="174.5" y="182.2" class="st5" width="1.8" height="1.8"/>
				<rect x="174.5" y="180.4" class="st4" width="1.8" height="1.8"/>
				<rect x="172.8" y="189.3" class="st4" width="1.8" height="1.8"/>
				<rect x="172.8" y="187.6" class="st5" width="1.8" height="1.8"/>
				<rect x="172.8" y="185.8" class="st6" width="1.8" height="1.8"/>
				<rect x="172.8" y="184" class="st6" width="1.8" height="1.8"/>
				<rect x="172.8" y="182.2" class="st6" width="1.8" height="1.8"/>
				<rect x="172.8" y="180.4" class="st5" width="1.8" height="1.8"/>
				<rect x="172.8" y="178.6" class="st4" width="1.8" height="1.8"/>
				<rect x="171" y="191.1" class="st4" width="1.8" height="1.8"/>
				<rect x="171" y="189.3" class="st5" width="1.8" height="1.8"/>
				<rect x="171" y="187.6" class="st6" width="1.8" height="1.8"/>
				<rect x="171" y="185.8" class="st6" width="1.8" height="1.8"/>
				<rect x="171" y="184" class="st6" width="1.8" height="1.8"/>
				<rect x="171" y="182.2" class="st6" width="1.8" height="1.8"/>
				<rect x="171" y="180.4" class="st6" width="1.8" height="1.8"/>
				<rect x="171" y="178.6" class="st5" width="1.8" height="1.8"/>
				<rect x="171" y="176.8" class="st4" width="1.8" height="1.8"/>
				<rect x="169.2" y="191.1" class="st4" width="1.8" height="1.8"/>
				<rect x="169.2" y="189.3" class="st5" width="1.8" height="1.8"/>
				<rect x="169.2" y="187.6" class="st6" width="1.8" height="1.8"/>
				<rect x="169.2" y="185.8" class="st4" width="1.8" height="1.8"/>
				<rect x="169.2" y="184" class="st4" width="1.8" height="1.8"/>
				<rect x="169.2" y="182.2" class="st4" width="1.8" height="1.8"/>
				<rect x="169.2" y="180.4" class="st6" width="1.8" height="1.8"/>
				<rect x="169.2" y="178.6" class="st5" width="1.8" height="1.8"/>
				<rect x="169.2" y="176.8" class="st4" width="1.8" height="1.8"/>
				<rect x="167.4" y="191.1" class="st4" width="1.8" height="1.8"/>
				<rect x="167.4" y="189.3" class="st5" width="1.8" height="1.8"/>
				<rect x="167.4" y="187.6" class="st4" width="1.8" height="1.8"/>
				<rect x="167.4" y="185.8" class="st4" width="1.8" height="1.8"/>
				<rect x="167.4" y="184" class="st4" width="1.8" height="1.8"/>
				<rect x="167.4" y="182.2" class="st4" width="1.8" height="1.8"/>
				<rect x="167.4" y="180.4" class="st4" width="1.8" height="1.8"/>
				<rect x="167.4" y="178.6" class="st5" width="1.8" height="1.8"/>
				<rect x="167.4" y="176.8" class="st4" width="1.8" height="1.8"/>
				<rect x="165.6" y="189.3" class="st4" width="1.8" height="1.8"/>
				<rect x="165.6" y="187.6" class="st5" width="1.8" height="1.8"/>
				<rect x="165.6" y="185.8" class="st4" width="1.8" height="1.8"/>
				<rect x="165.6" y="184" class="st4" width="1.8" height="1.8"/>
				<rect x="165.6" y="182.2" class="st4" width="1.8" height="1.8"/>
				<rect x="165.6" y="180.4" class="st5" width="1.8" height="1.8"/>
				<rect x="165.6" y="178.6" class="st4" width="1.8" height="1.8"/>
				<rect x="163.8" y="187.6" class="st4" width="1.8" height="1.8"/>
				<rect x="163.8" y="185.8" class="st5" width="1.8" height="1.8"/>
				<rect x="163.8" y="184" class="st5" width="1.8" height="1.8"/>
				<rect x="163.8" y="182.2" class="st5" width="1.8" height="1.8"/>
				<rect x="163.8" y="180.4" class="st4" width="1.8" height="1.8"/>
				<rect x="162" y="185.8" class="st4" width="1.8" height="1.8"/>
				<rect x="162" y="184" class="st4" width="1.8" height="1.8"/>
				<rect x="162" y="182.2" class="st4" width="1.8" height="1.8"/>
			</g>
		</g>
	</g>
	<g>
		<path class="st3" d="M223.5,164.3C223.5,164.3,223.5,164.3,223.5,164.3c-0.2,0-0.4-0.2-0.3-0.4l1.6-9.7l14.2-4.3
			c0.2-0.1,0.4,0,0.4,0.2c0.1,0.2,0,0.4-0.2,0.4l-13.8,4.2l-1.6,9.3C223.8,164.1,223.7,164.3,223.5,164.3z"/>
	</g>
	<g>
		<circle class="st3" cx="239.1" cy="150.2" r="1.8"/>
	</g>
	<g>
		<circle class="st3" cx="166.4" cy="247" r="1.8"/>
	</g>
	<g>
		<circle class="st3" cx="266.6" cy="205.5" r="1.8"/>
	</g>
	<g>
		<circle class="st3" cx="253.9" cy="206.2" r="1.8"/>
	</g>
	<g>
		<circle class="st3" cx="225.1" cy="154.4" r="1.8"/>
	</g>
	<g>
		<circle class="st3" cx="223.5" cy="163.9" r="1.8"/>
	</g>
	<g>
		<path class="st3" d="M48.6,249.5c-0.1,0-0.3-0.1-0.3-0.2l-3.7-13.9l-9.2-1.8c-0.2,0-0.3-0.2-0.3-0.4c0-0.2,0.2-0.3,0.4-0.3
			l9.7,1.9l3.8,14.3C49,249.3,48.8,249.5,48.6,249.5C48.6,249.5,48.6,249.5,48.6,249.5z"/>
	</g>
	<g>
		<circle class="st3" cx="48.6" cy="249.2" r="1.8"/>
	</g>
	<g>
		<circle class="st3" cx="44.8" cy="235.1" r="1.8"/>
	</g>
	<g>
		<circle class="st3" cx="35.4" cy="233.2" r="1.8"/>
	</g>
	<g>
		<path class="st3" d="M70.7,156c-0.1,0-0.1,0-0.2-0.1c-0.2-0.1-0.2-0.3-0.1-0.5l6.8-9.4l-12,0.6c-0.2,0-0.3-0.1-0.4-0.3
			c0-0.2,0.1-0.3,0.3-0.4l13.4-0.7L71,155.9C70.9,156,70.8,156,70.7,156z"/>
	</g>
	<g>
		<path class="st3" d="M161.7,266.6c-0.1,0-0.3-0.1-0.3-0.2l-2.2-7.6l-8.7,5.5c-0.2,0.1-0.4,0.1-0.5-0.1c-0.1-0.2-0.1-0.4,0.1-0.5
			l9.4-5.9l2.5,8.5C162.1,266.4,162,266.6,161.7,266.6C161.8,266.6,161.7,266.6,161.7,266.6z"/>
	</g>
	<g>
		<path class="st3" d="M159.6,258.6l-0.6-0.3l0.1-0.1c0-0.1,0.1-0.1,0.1-0.2l6.9-11c0.1-0.2,0.3-0.2,0.5-0.1
			c0.2,0.1,0.2,0.3,0.1,0.5L159.6,258.6z"/>
	</g>
	<g>
		<path class="st3" d="M253.9,206.7c-0.2,0-0.3-0.1-0.3-0.3c0-0.2,0.1-0.3,0.3-0.4l12.7-0.7c0.2,0,0.3,0.1,0.4,0.3
			c0,0.2-0.1,0.3-0.3,0.4L253.9,206.7C253.9,206.7,253.9,206.7,253.9,206.7z"/>
	</g>
	<g>
		<circle class="st3" cx="70.7" cy="155.7" r="1.8"/>
	</g>
	<g>
		<circle class="st3" cx="78" cy="145.6" r="1.8"/>
	</g>
	<g>
		<circle class="st3" cx="65.2" cy="146.7" r="1.8"/>
	</g>
	<g>
		<circle class="st3" cx="161.7" cy="266.2" r="1.8"/>
	</g>
	<g>
		<circle class="st3" cx="150.3" cy="264.1" r="1.8"/>
	</g>
</g>
</svg>
