<?xml version="1.0" encoding="utf-8"?>
<!-- Generator: Adobe Illustrator 22.0.1, SVG Export Plug-In . SVG Version: 6.00 Build 0)  -->
<svg version="1.1" id="Layer_1" xmlns="http://www.w3.org/2000/svg" xmlns:xlink="http://www.w3.org/1999/xlink" x="0px" y="0px"
	 viewBox="0 0 1000 600" style="enable-background:new 0 0 1000 600;" xml:space="preserve">
<style type="text/css">
	.st0{fill:url(#SVGID_1_);}
	.st1{fill:url(#SVGID_2_);}
	.st2{fill:#FFFFFF;}
	.st3{fill:#C6DDD9;}
	.st4{fill:#75CABF;}
	.st5{fill:#1CAE97;}
	.st6{opacity:0.14;}
</style>
<linearGradient id="SVGID_1_" gradientUnits="userSpaceOnUse" x1="111.7913" y1="664.3806" x2="905.1233" y2="-81.0996">
	<stop  offset="0" style="stop-color:#00293C"/>
	<stop  offset="1" style="stop-color:#033F3F"/>
</linearGradient>
<rect x="0.9" y="-0.8" class="st0" width="999.1" height="600"/>
<g>
	<path class="st2" d="M384,297.2c1.1,0.9,1.6,2.1,1.6,3.7c0,1.6-0.5,2.8-1.6,3.7c-1.1,0.9-2.5,1.3-4.4,1.3h-3.9v4.6h-1.6v-14.7h5.5
		C381.5,295.8,382.9,296.3,384,297.2z M382.9,303.6c0.8-0.6,1.2-1.5,1.2-2.7c0-1.2-0.4-2.1-1.2-2.7s-1.9-1-3.3-1h-3.9v7.4h3.9
		C381,304.5,382.1,304.2,382.9,303.6z"/>
	<path class="st2" d="M399,310.5l-3.4-4.7c-0.4,0-0.8,0.1-1.2,0.1h-3.9v4.7h-1.6v-14.7h5.5c1.9,0,3.3,0.4,4.4,1.3
		c1.1,0.9,1.6,2.1,1.6,3.7c0,1.1-0.3,2.1-0.9,2.9s-1.4,1.4-2.5,1.7l3.6,5H399z M397.7,303.6c0.8-0.6,1.2-1.5,1.2-2.7
		c0-1.2-0.4-2.1-1.2-2.7s-1.9-1-3.3-1h-3.9v7.4h3.9C395.9,304.6,397,304.2,397.7,303.6z"/>
	<path class="st2" d="M414.5,309.2v1.3h-10.4v-14.7h10.1v1.3h-8.5v5.2h7.6v1.3h-7.6v5.5H414.5z"/>
	<path class="st2" d="M430.2,295.8l-6.5,14.7h-1.5l-6.5-14.7h1.7l5.6,12.8l5.7-12.8H430.2z"/>
	<path class="st2" d="M432.3,295.8h1.6v14.7h-1.6V295.8z"/>
	<path class="st2" d="M449.1,309.2v1.3h-10.4v-14.7h10.1v1.3h-8.5v5.2h7.6v1.3h-7.6v5.5H449.1z"/>
	<path class="st2" d="M472.7,295.8l-5,14.7h-1.6l-4.3-12.5l-4.3,12.5h-1.6l-5-14.7h1.6l4.2,12.6l4.4-12.6h1.4l4.3,12.7l4.3-12.7
		H472.7z"/>
	<path class="st2" d="M483.8,309.7c-1.2-0.6-2.1-1.5-2.8-2.7s-1-2.4-1-3.8c0-1.4,0.3-2.7,1-3.8c0.7-1.1,1.6-2,2.8-2.7
		c1.2-0.6,2.5-1,3.9-1c1.1,0,2.1,0.2,3,0.5c0.9,0.4,1.7,0.9,2.4,1.6l-1,1c-1.1-1.2-2.6-1.7-4.3-1.7c-1.2,0-2.2,0.3-3.2,0.8
		c-1,0.5-1.7,1.3-2.2,2.2c-0.5,0.9-0.8,2-0.8,3.1c0,1.1,0.3,2.2,0.8,3.1c0.5,0.9,1.3,1.7,2.2,2.2c1,0.5,2,0.8,3.2,0.8
		c1.8,0,3.2-0.6,4.3-1.8l1,1c-0.6,0.7-1.4,1.2-2.4,1.6c-0.9,0.4-1.9,0.6-3,0.6C486.3,310.7,484.9,310.4,483.8,309.7z"/>
	<path class="st2" d="M498.6,309.7c-1.2-0.7-2.1-1.5-2.8-2.7s-1-2.4-1-3.8c0-1.4,0.3-2.7,1-3.8c0.7-1.1,1.6-2,2.8-2.7s2.5-1,4-1
		s2.8,0.3,3.9,1s2.1,1.5,2.8,2.7c0.7,1.1,1,2.4,1,3.8c0,1.4-0.3,2.7-1,3.8s-1.6,2-2.8,2.7c-1.2,0.6-2.5,1-3.9,1
		S499.8,310.3,498.6,309.7z M505.7,308.5c0.9-0.5,1.7-1.3,2.2-2.2c0.5-0.9,0.8-2,0.8-3.1c0-1.1-0.3-2.2-0.8-3.1s-1.3-1.7-2.2-2.2
		c-0.9-0.5-2-0.8-3.2-0.8s-2.2,0.3-3.2,0.8c-0.9,0.5-1.7,1.3-2.2,2.2c-0.5,0.9-0.8,2-0.8,3.1c0,1.1,0.3,2.2,0.8,3.1
		c0.5,0.9,1.3,1.7,2.2,2.2c0.9,0.5,2,0.8,3.2,0.8S504.7,309,505.7,308.5z"/>
	<path class="st2" d="M529,295.8v14.7h-1.5v-11.8l-5.8,9.9H521l-5.8-9.8v11.7h-1.5v-14.7h1.3l6.4,10.9l6.3-10.9H529z"/>
	<path class="st2" d="M533.8,295.8h1.6v14.7h-1.6V295.8z"/>
	<path class="st2" d="M552.4,295.8v14.7h-1.3l-9.4-11.9v11.9h-1.6v-14.7h1.3l9.5,11.9v-11.9H552.4z"/>
	<path class="st2" d="M567.6,303.2h1.5v5.6c-0.7,0.6-1.5,1.1-2.4,1.4c-0.9,0.3-1.9,0.5-3,0.5c-1.5,0-2.8-0.3-4-1
		c-1.2-0.6-2.1-1.5-2.8-2.7s-1-2.4-1-3.8c0-1.4,0.3-2.7,1-3.8c0.7-1.1,1.6-2,2.8-2.7c1.2-0.6,2.5-1,4-1c1.1,0,2.1,0.2,3.1,0.5
		c0.9,0.4,1.7,0.9,2.4,1.6l-1,1c-1.2-1.1-2.6-1.7-4.4-1.7c-1.2,0-2.3,0.3-3.2,0.8c-1,0.5-1.7,1.3-2.3,2.2c-0.5,0.9-0.8,2-0.8,3.1
		c0,1.1,0.3,2.2,0.8,3.1c0.5,0.9,1.3,1.7,2.2,2.2c1,0.5,2,0.8,3.2,0.8c1.5,0,2.8-0.4,3.8-1.1V303.2z"/>
	<path class="st2" d="M579.8,310.1c-1-0.3-1.8-0.8-2.3-1.4l0.6-1.2c0.5,0.5,1.2,1,2.1,1.3c0.9,0.3,1.8,0.5,2.7,0.5
		c1.3,0,2.3-0.2,3-0.7c0.7-0.5,1-1.1,1-1.9c0-0.6-0.2-1.1-0.5-1.4s-0.8-0.6-1.3-0.8c-0.5-0.2-1.2-0.4-2.2-0.6
		c-1.1-0.3-2-0.5-2.6-0.8s-1.2-0.7-1.7-1.2s-0.7-1.3-0.7-2.2c0-0.7,0.2-1.4,0.6-2c0.4-0.6,1-1.1,1.8-1.5c0.8-0.4,1.8-0.5,3-0.5
		c0.8,0,1.7,0.1,2.5,0.3c0.8,0.2,1.5,0.5,2.1,1l-0.5,1.2c-0.6-0.4-1.3-0.7-2-0.9c-0.7-0.2-1.4-0.3-2.1-0.3c-1.3,0-2.3,0.2-2.9,0.7
		s-1,1.1-1,1.9c0,0.6,0.2,1.1,0.5,1.4s0.8,0.6,1.3,0.8s1.3,0.4,2.2,0.6c1.1,0.3,1.9,0.5,2.6,0.8c0.7,0.3,1.2,0.7,1.7,1.2
		c0.5,0.5,0.7,1.2,0.7,2.1c0,0.7-0.2,1.4-0.6,2c-0.4,0.6-1,1.1-1.8,1.4c-0.8,0.4-1.8,0.5-3,0.5C581.9,310.7,580.8,310.5,579.8,310.1
		z"/>
	<path class="st2" d="M594.3,309.7c-1.2-0.7-2.1-1.5-2.8-2.7s-1-2.4-1-3.8c0-1.4,0.3-2.7,1-3.8c0.7-1.1,1.6-2,2.8-2.7s2.5-1,4-1
		s2.8,0.3,3.9,1s2.1,1.5,2.8,2.7c0.7,1.1,1,2.4,1,3.8c0,1.4-0.3,2.7-1,3.8s-1.6,2-2.8,2.7c-1.2,0.6-2.5,1-3.9,1
		S595.5,310.3,594.3,309.7z M601.4,308.5c0.9-0.5,1.7-1.3,2.2-2.2c0.5-0.9,0.8-2,0.8-3.1c0-1.1-0.3-2.2-0.8-3.1s-1.3-1.7-2.2-2.2
		c-0.9-0.5-2-0.8-3.2-0.8s-2.2,0.3-3.2,0.8c-0.9,0.5-1.7,1.3-2.2,2.2c-0.5,0.9-0.8,2-0.8,3.1c0,1.1,0.3,2.2,0.8,3.1
		c0.5,0.9,1.3,1.7,2.2,2.2c0.9,0.5,2,0.8,3.2,0.8S600.5,309,601.4,308.5z"/>
	<path class="st2" d="M611.9,309.7c-1.2-0.7-2.1-1.5-2.8-2.7s-1-2.4-1-3.8c0-1.4,0.3-2.7,1-3.8c0.7-1.1,1.6-2,2.8-2.7s2.5-1,4-1
		s2.8,0.3,3.9,1s2.1,1.5,2.8,2.7c0.7,1.1,1,2.4,1,3.8c0,1.4-0.3,2.7-1,3.8s-1.6,2-2.8,2.7c-1.2,0.6-2.5,1-3.9,1
		S613.1,310.3,611.9,309.7z M619,308.5c0.9-0.5,1.7-1.3,2.2-2.2c0.5-0.9,0.8-2,0.8-3.1c0-1.1-0.3-2.2-0.8-3.1s-1.3-1.7-2.2-2.2
		c-0.9-0.5-2-0.8-3.2-0.8s-2.2,0.3-3.2,0.8c-0.9,0.5-1.7,1.3-2.2,2.2c-0.5,0.9-0.8,2-0.8,3.1c0,1.1,0.3,2.2,0.8,3.1
		c0.5,0.9,1.3,1.7,2.2,2.2c0.9,0.5,2,0.8,3.2,0.8S618.1,309,619,308.5z"/>
	<path class="st2" d="M639.4,295.8v14.7h-1.3l-9.4-11.9v11.9h-1.6v-14.7h1.3l9.5,11.9v-11.9H639.4z"/>
</g>
<g class="st6">
	<g>
		<path class="st2" d="M462.3,140.7c0,0-0.1,0-0.1,0c-0.5,0.1-0.9-0.2-1-0.7l-4.9-25.4l31-23.5c0.4-0.3,0.9-0.2,1.2,0.2
			c0.3,0.4,0.2,0.9-0.2,1.2l-30.1,22.9l4.7,24.3C462.9,140.1,462.7,140.6,462.3,140.7z"/>
	</g>
</g>
<g class="st6">
	<g>
		<circle class="st2" cx="487.7" cy="91.9" r="4.8"/>
	</g>
</g>
<g class="st6">
	<g>
		<circle class="st2" cx="662.2" cy="172.2" r="4.8"/>
	</g>
</g>
<g class="st6">
	<g>
		<circle class="st2" cx="631.5" cy="185.5" r="4.8"/>
	</g>
</g>
<g class="st6">
	<g>
		<circle class="st2" cx="457.2" cy="115.1" r="4.8"/>
	</g>
</g>
<g class="st6">
	<g>
		<circle class="st2" cx="462" cy="139.9" r="4.8"/>
	</g>
</g>
<g class="st6">
	<g>
		<path class="st2" d="M169.6,527.2c-0.4,0.1-0.8,0-1-0.3L146.7,496l-24.4,3.9c-0.5,0.1-0.9-0.2-1-0.7c-0.1-0.5,0.3-0.9,0.7-1
			l25.5-4.1l22.5,31.7c0.3,0.4,0.2,0.9-0.2,1.2C169.8,527.1,169.7,527.1,169.6,527.2z"/>
	</g>
</g>
<g class="st6">
	<g>
		<circle class="st2" cx="169.3" cy="526.3" r="4.8"/>
	</g>
</g>
<g class="st6">
	<g>
		<circle class="st2" cx="147.1" cy="495.1" r="4.8"/>
	</g>
</g>
<g class="st6">
	<g>
		<circle class="st2" cx="122.2" cy="499.1" r="4.8"/>
	</g>
</g>
<g class="st6">
	<g>
		<path class="st2" d="M328.3,282.3c-0.2,0.1-0.4,0.1-0.5,0c-0.5-0.1-0.7-0.6-0.6-1.1l8.1-29.4l-29,12.6c-0.5,0.2-1,0-1.2-0.5
			c-0.2-0.4,0-1,0.5-1.2l32.4-14l-9,33C328.8,282,328.6,282.2,328.3,282.3z"/>
	</g>
</g>
<g class="st6">
	<g>
		<path class="st2" d="M632,186.7c-0.4,0.2-0.9,0-1.1-0.5c-0.2-0.4,0-1,0.5-1.2l30.7-13.3c0.4-0.2,1,0,1.2,0.5c0.2,0.4,0,1-0.5,1.2
			L632,186.7C632,186.7,632,186.7,632,186.7z"/>
	</g>
</g>
<g class="st6">
	<g>
		<circle class="st2" cx="328" cy="281.5" r="4.8"/>
	</g>
</g>
<g class="st6">
	<g>
		<circle class="st2" cx="336.7" cy="250" r="4.8"/>
	</g>
</g>
<g class="st6">
	<g>
		<circle class="st2" cx="306.2" cy="264.5" r="4.8"/>
	</g>
</g>
<g>
	<g class="st6">
		<g>
			<circle class="st2" cx="830.5" cy="421.5" r="2.8"/>
		</g>
	</g>
	<g class="st6">
		<g>
			<circle class="st2" cx="562" cy="370.3" r="2.8"/>
		</g>
	</g>
	<g class="st6">
		<g>
			<circle class="st2" cx="553.6" cy="387.4" r="2.8"/>
		</g>
	</g>
	<g class="st6">
		<g>
			<path class="st2" d="M747.8,576.5c-0.1,0.2-0.3,0.3-0.6,0.2l-20.8-5.3l-9.1,10.7c-0.2,0.2-0.5,0.2-0.7,0.1
				c-0.2-0.2-0.2-0.5-0.1-0.7l9.6-11.1l21.4,5.5c0.3,0.1,0.4,0.3,0.4,0.6C747.8,576.4,747.8,576.4,747.8,576.5z"/>
		</g>
	</g>
	<g class="st6">
		<g>
			<circle class="st2" cx="747.3" cy="576.2" r="2.8"/>
		</g>
	</g>
	<g class="st6">
		<g>
			<circle class="st2" cx="726.2" cy="570.8" r="2.8"/>
		</g>
	</g>
	<g class="st6">
		<g>
			<circle class="st2" cx="716.9" cy="581.7" r="2.8"/>
		</g>
	</g>
	<g class="st6">
		<g>
			<path class="st2" d="M642.3,479.5c0,0.1-0.1,0.2-0.2,0.2c-0.3,0.1-0.5,0-0.7-0.2l-7.3-15.7l-8,16.1c-0.1,0.3-0.4,0.3-0.7,0.2
				c-0.2-0.1-0.3-0.4-0.2-0.7l8.9-18l8.2,17.6C642.4,479.2,642.4,479.3,642.3,479.5z"/>
		</g>
	</g>
	<g class="st6">
		<g>
			<path class="st2" d="M852.6,441.9c-0.1,0.2-0.3,0.3-0.5,0.2l-11.5-2.7l0.8,15.3c0,0.3-0.2,0.5-0.5,0.5c-0.3,0-0.5-0.2-0.5-0.5
				l-0.8-16.6l12.8,3c0.3,0.1,0.4,0.3,0.4,0.6C852.6,441.8,852.6,441.9,852.6,441.9z"/>
		</g>
	</g>
	<g class="st6">
		<g>
			<path class="st2" d="M840.6,438.8l-0.8,0.6l-0.1-0.2c-0.1-0.1-0.1-0.2-0.1-0.3l-9.2-17c-0.1-0.2,0-0.5,0.2-0.7
				c0.2-0.1,0.5,0,0.7,0.2L840.6,438.8z"/>
		</g>
	</g>
	<g class="st6">
		<g>
			<path class="st2" d="M554.2,387.7c-0.1,0.2-0.4,0.3-0.7,0.2c-0.2-0.1-0.3-0.4-0.2-0.7l8.4-17c0.1-0.3,0.4-0.3,0.7-0.2
				c0.2,0.1,0.3,0.4,0.2,0.7L554.2,387.7C554.2,387.7,554.2,387.7,554.2,387.7z"/>
		</g>
	</g>
	<g class="st6">
		<g>
			<circle class="st2" cx="641.9" cy="479.2" r="2.8"/>
		</g>
	</g>
	<g class="st6">
		<g>
			<circle class="st2" cx="634.1" cy="462.4" r="2.8"/>
		</g>
	</g>
	<g class="st6">
		<g>
			<circle class="st2" cx="626.2" cy="479.9" r="2.8"/>
		</g>
	</g>
	<g class="st6">
		<g>
			<circle class="st2" cx="852" cy="441.6" r="2.8"/>
		</g>
	</g>
	<g class="st6">
		<g>
			<circle class="st2" cx="841" cy="454.9" r="2.8"/>
		</g>
	</g>
	<g class="st6">
		<g>
			<circle class="st2" cx="475.2" cy="400" r="4.8"/>
		</g>
	</g>
	<g class="st6">
		<g>
			<path class="st2" d="M469,433.4l-1.7-0.2l0-0.4c0-0.2,0.1-0.4,0.2-0.5l7-33.3c0.1-0.5,0.6-0.8,1-0.7c0.5,0.1,0.8,0.6,0.7,1
				L469,433.4z"/>
		</g>
	</g>
	<g class="st6">
		<g>
			<circle class="st2" cx="467.2" cy="433" r="4.8"/>
		</g>
	</g>
</g>
<g class="st6">
	<g>
		<circle class="st2" cx="314.2" cy="173.6" r="2.8"/>
	</g>
</g>
<g class="st6">
	<g>
		<circle class="st2" cx="303.6" cy="157.8" r="2.8"/>
	</g>
</g>
<g class="st6">
	<g>
		<path class="st2" d="M42.9,231.7c-0.1-0.2-0.1-0.4,0.1-0.6l15-15.4l-4.7-13.3c-0.1-0.3,0-0.5,0.3-0.6c0.3-0.1,0.5,0,0.6,0.3
			l4.9,13.8l-15.4,15.8c-0.2,0.2-0.5,0.2-0.7,0C42.9,231.8,42.9,231.7,42.9,231.7z"/>
	</g>
</g>
<g class="st6">
	<g>
		<circle class="st2" cx="43.3" cy="231.4" r="2.8"/>
	</g>
</g>
<g class="st6">
	<g>
		<circle class="st2" cx="58.5" cy="215.8" r="2.8"/>
	</g>
</g>
<g class="st6">
	<g>
		<circle class="st2" cx="53.7" cy="202.3" r="2.8"/>
	</g>
</g>
<g class="st6">
	<g>
		<path class="st2" d="M179.5,188.7c-0.1-0.1-0.1-0.2-0.1-0.3c0-0.3,0.3-0.5,0.5-0.5l17.3,1.5l-10-14.9c-0.2-0.2-0.1-0.5,0.1-0.7
			c0.2-0.2,0.5-0.1,0.7,0.1l11.2,16.7l-19.4-1.7C179.8,189,179.6,188.9,179.5,188.7z"/>
	</g>
</g>
<g class="st6">
	<g>
		<path class="st2" d="M303,158.1c-0.1-0.2-0.1-0.5,0.2-0.7c0.2-0.2,0.5-0.1,0.7,0.1l10.6,15.8c0.2,0.2,0.1,0.5-0.1,0.7
			c-0.2,0.2-0.5,0.1-0.7-0.1L303,158.1C303,158.2,303,158.1,303,158.1z"/>
	</g>
</g>
<g class="st6">
	<g>
		<circle class="st2" cx="180" cy="188.5" r="2.8"/>
	</g>
</g>
<g class="st6">
	<g>
		<circle class="st2" cx="198.5" cy="190.1" r="2.8"/>
	</g>
</g>
<g class="st6">
	<g>
		<circle class="st2" cx="187.2" cy="174.6" r="2.8"/>
	</g>
</g>
<g class="st6">
	<g>
		<circle class="st2" cx="331.8" cy="83.6" r="4.8"/>
	</g>
</g>
<g class="st6">
	<g>
		<path class="st2" d="M306,61.5l1-1.4l0.4,0.2c0.2,0.1,0.3,0.2,0.4,0.4l25.3,22.7c0.4,0.3,0.4,0.9,0.1,1.2
			c-0.3,0.4-0.9,0.4-1.2,0.1L306,61.5z"/>
	</g>
</g>
<g class="st6">
	<g>
		<circle class="st2" cx="307.2" cy="60.1" r="4.8"/>
	</g>
</g>
<g class="st6">
	<g>
		<circle class="st2" cx="952.8" cy="217" r="2.8"/>
	</g>
</g>
<g class="st6">
	<g>
		<circle class="st2" cx="940.8" cy="202.3" r="2.8"/>
	</g>
</g>
<g class="st6">
	<g>
		<path class="st2" d="M688.4,301.2c-0.1-0.2-0.1-0.4,0-0.6l13.4-16.8l-5.9-12.7c-0.1-0.2,0-0.5,0.2-0.7c0.3-0.1,0.5,0,0.7,0.2
			L703,284l-13.8,17.3C689,301.4,688.7,301.5,688.4,301.2C688.4,301.3,688.4,301.2,688.4,301.2z"/>
	</g>
</g>
<g class="st6">
	<g>
		<circle class="st2" cx="688.8" cy="300.9" r="2.8"/>
	</g>
</g>
<g class="st6">
	<g>
		<circle class="st2" cx="702.4" cy="283.9" r="2.8"/>
	</g>
</g>
<g class="st6">
	<g>
		<circle class="st2" cx="696.3" cy="270.9" r="2.8"/>
	</g>
</g>
<g class="st6">
	<g>
		<path class="st2" d="M820.3,245.2c-0.1-0.1-0.1-0.2-0.1-0.3c0-0.3,0.2-0.5,0.5-0.5l17.4-0.2l-11.4-13.9c-0.2-0.2-0.1-0.5,0.1-0.7
			c0.2-0.2,0.5-0.1,0.7,0.1l12.7,15.5l-19.4,0.2C820.5,245.4,820.3,245.3,820.3,245.2z"/>
	</g>
</g>
<g class="st6">
	<g>
		<path class="st2" d="M940.2,202.8c-0.2-0.2-0.1-0.5,0.1-0.7c0.2-0.2,0.5-0.1,0.7,0.1l12.1,14.7c0.2,0.2,0.1,0.5-0.1,0.7
			c-0.2,0.2-0.5,0.1-0.7-0.1L940.2,202.8C940.2,202.8,940.2,202.8,940.2,202.8z"/>
	</g>
</g>
<g class="st6">
	<g>
		<circle class="st2" cx="820.7" cy="244.9" r="2.8"/>
	</g>
</g>
<g class="st6">
	<g>
		<circle class="st2" cx="839.2" cy="244.7" r="2.8"/>
	</g>
</g>
<g class="st6">
	<g>
		<circle class="st2" cx="826.6" cy="230.3" r="2.8"/>
	</g>
</g>
<g class="st6">
	<g>
		<circle class="st2" cx="961.6" cy="125.7" r="4.8"/>
	</g>
</g>
<g class="st6">
	<g>
		<path class="st2" d="M933.8,106.3l0.9-1.5l0.4,0.2c0.2,0.1,0.3,0.2,0.4,0.4l27.4,20.1c0.4,0.3,0.5,0.8,0.2,1.2
			c-0.3,0.4-0.8,0.5-1.2,0.2L933.8,106.3z"/>
	</g>
</g>
<g class="st6">
	<g>
		<circle class="st2" cx="934.9" cy="104.8" r="4.8"/>
	</g>
</g>
<g class="st6">
	<g>
		<circle class="st2" cx="265.8" cy="426.1" r="2.8"/>
	</g>
</g>
<g class="st6">
	<g>
		<circle class="st2" cx="253.8" cy="411.4" r="2.8"/>
	</g>
</g>
<g class="st6">
	<g>
		<path class="st2" d="M253.2,411.8c-0.2-0.2-0.1-0.5,0.1-0.7c0.2-0.2,0.5-0.1,0.7,0.1l12.1,14.7c0.2,0.2,0.1,0.5-0.1,0.7
			c-0.2,0.2-0.5,0.1-0.7-0.1L253.2,411.8C253.2,411.8,253.2,411.8,253.2,411.8z"/>
	</g>
</g>
</svg>
