<?xml version="1.0" encoding="utf-8"?>
<!-- Generator: Adobe Illustrator 22.0.1, SVG Export Plug-In . SVG Version: 6.00 Build 0)  -->
<svg version="1.1" id="Layer_1" xmlns="http://www.w3.org/2000/svg" xmlns:xlink="http://www.w3.org/1999/xlink" x="0px" y="0px"
	 viewBox="0 0 1000 600" style="enable-background:new 0 0 1000 600;" xml:space="preserve">
<style type="text/css">
	.st0{opacity:0.32;}
	.st1{fill:#676767;}
	.st2{fill:#E47425;}
	.st3{fill:#F9CADC;}
	.st4{fill:#85A5D6;}
	.st5{fill:#C6C639;}
	.st6{fill:#53ABBA;}
	.st7{fill:#4CC1BB;}
	.st8{fill:#87C540;}
	.st9{fill:#ED1763;}
	.st10{fill:#2083C1;}
	.st11{fill:#A678B5;}
	.st12{fill:#7BC142;}
	.st13{fill:#F05454;}
	.st14{fill:#FFFFFF;}
	.st15{fill:#12BEE9;}
	.st16{fill:#6FBE44;}
	.st17{fill:#EC2162;}
	.st18{fill:#E29926;}
	.st19{fill:#FFDD67;}
	.st20{fill:#674E27;}
	.st21{fill:#4C3526;}
	.st22{fill:#F2707F;}
	.st23{fill:#6DAFE0;}
	.st24{fill:#F99C38;}
	.st25{fill:#FFCF32;}
	.st26{fill:#FFDF84;}
	.st27{fill:#F6B619;}
	.st28{fill:#FFDD7D;}
	.st29{fill:#493919;}
	.st30{fill:#41ADE2;}
	.st31{fill:#F6873B;}
	.st32{fill:#ED4C5C;}
	.st33{fill:#B190C3;}
	.st34{fill:#F05B7A;}
	.st35{fill:#F26767;}
	.st36{fill:#EBA351;}
	.st37{fill:#D0D1D0;}
	.st38{fill:#231F20;}
	.st39{fill:#63A2D8;}
	.st40{fill:#DDE7E2;}
	.st41{fill:#493B31;}
	.st42{fill:#EE5023;}
	.st43{fill:#F1B21D;}
	.st44{fill:#BC845E;}
	.st45{fill:#916241;}
	.st46{fill:#CE9C7A;}
	.st47{fill:url(#SVGID_1_);}
	.st48{opacity:0.44;}
	.st49{enable-background:new    ;}
	.st50{clip-path:url(#SVGID_3_);}
</style>
<g>
	<linearGradient id="SVGID_1_" gradientUnits="userSpaceOnUse" x1="100" y1="700" x2="900" y2="-100">
		<stop  offset="0" style="stop-color:#220020"/>
		<stop  offset="1" style="stop-color:#221134"/>
	</linearGradient>
	<rect class="st47" width="1000" height="600"/>
</g>
<g>
	<polygon class="st48" points="639.9,382.4 639.9,237.2 492.5,200.4 360.3,237.2 360.3,382.4 499.8,418 	"/>
	<g>
		<g class="st49">
			<defs>
				<polygon id="SVGID_2_" class="st49" points="506.7,368.3 506.9,279.5 635.8,249.6 635.6,338.3 				"/>
			</defs>
			<clipPath id="SVGID_3_">
				<use xlink:href="#SVGID_2_"  style="overflow:visible;"/>
			</clipPath>
			<g class="st50">
				<polyline class="st14" points="536.5,273.2 528.4,275.1 528.3,292.1 515,295.2 515,278.2 506.9,280.1 506.8,322.5 514.9,320.7 
					515,303.6 528.3,300.5 528.3,317.6 536.4,315.7 536.5,273.2 				"/>
				<path class="st14" d="M570.3,265.4l-8.2,1.9l0,26.5c0,1.5-0.3,2.8-0.8,4.1c-0.5,1.3-1.2,2.3-2.2,3.2c-0.9,0.9-2,1.4-3.2,1.7
					c-1.2,0.3-2.3,0.2-3.2-0.2c-0.9-0.4-1.6-1.2-2.2-2.2c-0.5-1-0.8-2.3-0.8-3.7l0-26.5l-8.2,1.9l-0.1,27.4c0,3.2,0.6,5.8,1.8,7.9
					c1.2,2.1,2.9,3.5,5,4.3c2.1,0.8,4.7,0.8,7.5,0.2c2.8-0.7,5.3-1.9,7.5-3.7c2.2-1.8,3.8-4,5-6.6c1.2-2.6,1.8-5.5,1.8-8.7
					L570.3,265.4"/>
				<path class="st14" d="M588.5,260.5c-2.6,0.6-4.9,1.7-6.9,3.2c-2,1.6-3.6,3.5-4.7,5.7c-1.1,2.2-1.7,4.7-1.7,7.3
					c0,3.2,0.8,5.6,2.5,7.1c1.7,1.5,4,2.3,6.9,2.5l3.5,0.2c1.2,0.1,2.2,0.2,3,0.5c0.8,0.2,1.4,0.6,1.8,1.1c0.4,0.5,0.6,1.1,0.6,1.9
					c0,0.9-0.2,1.7-0.6,2.4c-0.4,0.8-1,1.4-1.8,2c-0.8,0.6-1.7,1-2.8,1.2c-1.2,0.3-2.3,0.3-3.2,0c-0.9-0.3-1.6-0.8-2.1-1.6
					c-0.5-0.8-0.8-1.9-0.9-3.2l-7.8,1.8c0,3.3,0.6,5.9,1.8,7.8c1.2,1.9,2.8,3.1,4.9,3.7c2.1,0.6,4.6,0.5,7.4-0.1
					c2.8-0.7,5.2-1.7,7.2-3.2c2-1.5,3.5-3.3,4.6-5.5c1.1-2.2,1.6-4.6,1.6-7.3c0-1.7-0.2-3.2-0.7-4.4c-0.4-1.3-1.1-2.3-2-3.2
					c-0.9-0.8-2-1.5-3.2-2c-1.3-0.5-2.8-0.7-4.4-0.8l-2.9-0.2c-0.8,0-1.5-0.1-2.1-0.2c-0.6-0.1-1.1-0.3-1.6-0.6
					c-0.4-0.3-0.8-0.6-1-1c-0.2-0.4-0.3-1-0.3-1.6c0-0.8,0.2-1.5,0.5-2.2s0.9-1.3,1.6-1.8c0.7-0.5,1.6-0.9,2.6-1.1
					c1.6-0.4,2.8-0.2,3.7,0.4c0.9,0.7,1.3,1.7,1.5,3.2l7.8-1.8c0-2.6-0.6-4.8-1.6-6.6c-1.1-1.8-2.6-3-4.5-3.6
					S591.2,259.9,588.5,260.5"/>
				<polyline class="st14" points="635.8,250.2 627.6,252 627.6,269.1 614.3,272.2 614.3,255.1 606.1,257 606,299.5 614.2,297.6 
					614.3,280.5 627.6,277.5 627.6,294.5 635.7,292.6 635.8,250.2 				"/>
				<polyline class="st14" points="536.4,318.4 528.3,320.2 528.2,337.3 514.9,340.4 514.9,323.3 506.8,325.2 506.7,367.7 
					514.9,365.8 514.9,348.8 528.2,345.7 528.2,362.7 536.4,360.8 536.4,318.4 				"/>
				<path class="st14" d="M570.2,310.5l-8.2,1.9l0,26.5c0,1.5-0.3,2.8-0.8,4.1c-0.5,1.3-1.2,2.3-2.2,3.2c-0.9,0.9-2,1.4-3.2,1.7
					c-1.2,0.3-2.3,0.2-3.2-0.2c-0.9-0.4-1.6-1.2-2.2-2.2c-0.5-1-0.8-2.3-0.8-3.7l0-26.5l-8.2,1.9l-0.1,27.4c0,3.2,0.6,5.8,1.8,7.9
					c1.2,2.1,2.9,3.5,5,4.3c2.1,0.8,4.7,0.8,7.5,0.2c2.8-0.7,5.3-1.9,7.5-3.7c2.2-1.8,3.8-4,5-6.6c1.2-2.6,1.8-5.5,1.8-8.7
					L570.2,310.5"/>
				<path class="st14" d="M588.5,305.7c-2.6,0.6-4.9,1.7-6.9,3.2c-2,1.6-3.6,3.5-4.7,5.7c-1.1,2.2-1.7,4.7-1.7,7.3
					c0,3.2,0.8,5.6,2.5,7.1c1.7,1.5,4,2.3,6.9,2.5l3.5,0.2c1.2,0.1,2.2,0.2,3,0.5c0.8,0.2,1.4,0.6,1.8,1.1c0.4,0.5,0.6,1.1,0.6,1.9
					c0,0.9-0.2,1.7-0.6,2.4c-0.4,0.8-1,1.4-1.8,2c-0.8,0.6-1.7,1-2.8,1.2c-1.2,0.3-2.3,0.3-3.2,0c-0.9-0.3-1.6-0.8-2.1-1.6
					s-0.8-1.9-0.9-3.2l-7.8,1.8c0,3.3,0.6,5.9,1.8,7.8c1.2,1.9,2.8,3.1,4.9,3.7c2.1,0.6,4.6,0.5,7.4-0.1c2.8-0.7,5.2-1.7,7.2-3.2
					c2-1.5,3.5-3.3,4.6-5.5c1.1-2.2,1.6-4.6,1.6-7.3c0-1.7-0.2-3.2-0.7-4.4c-0.4-1.3-1.1-2.3-2-3.2c-0.9-0.8-2-1.5-3.2-2
					c-1.3-0.5-2.8-0.7-4.4-0.8l-2.9-0.2c-0.8,0-1.5-0.1-2.1-0.2s-1.1-0.3-1.6-0.6c-0.4-0.3-0.8-0.6-1-1c-0.2-0.4-0.3-1-0.3-1.6
					c0-0.8,0.2-1.5,0.5-2.2s0.9-1.3,1.6-1.8c0.7-0.5,1.6-0.9,2.6-1.1c1.6-0.4,2.8-0.2,3.7,0.4c0.9,0.6,1.3,1.7,1.5,3.2l7.8-1.8
					c0-2.6-0.6-4.8-1.6-6.6c-1.1-1.8-2.6-3-4.5-3.6S591.1,305.1,588.5,305.7"/>
				<polyline class="st14" points="635.7,295.3 627.6,297.2 627.5,314.3 614.2,317.4 614.2,300.3 606,302.2 606,344.7 614.1,342.8 
					614.2,325.7 627.5,322.6 627.5,339.7 635.6,337.8 635.7,295.3 				"/>
			</g>
		</g>
	</g>
	<polygon class="st14" points="635.7,236.3 635.7,219.1 621.8,215.6 609.3,219.1 609.3,236.3 622.5,239.6 	"/>
</g>
</svg>
