<?xml version="1.0" encoding="utf-8"?>
<!-- Generator: Adobe Illustrator 22.0.1, SVG Export Plug-In . SVG Version: 6.00 Build 0)  -->
<svg version="1.1" id="Layer_4" xmlns="http://www.w3.org/2000/svg" xmlns:xlink="http://www.w3.org/1999/xlink" x="0px" y="0px"
	 viewBox="0 0 300 400" style="enable-background:new 0 0 300 400;" xml:space="preserve">
<style type="text/css">
	.st0{fill:#7DC242;}
	.st1{opacity:6.000000e-02;}
	.st2{clip-path:url(#SVGID_2_);}
	.st3{fill:none;stroke:#FFFFFF;stroke-miterlimit:10;}
	.st4{fill:none;stroke:#353535;stroke-miterlimit:10;}
	.st5{fill:url(#SVGID_3_);}
	.st6{fill:url(#SVGID_4_);}
	.st7{fill:url(#SVGID_5_);}
	.st8{fill:url(#SVGID_6_);}
	.st9{fill:#A41E21;}
	.st10{fill:#FFFFFF;}
	.st11{fill:#CFCFCE;}
	.st12{fill:#BCBCBC;}
	.st13{fill:#C6DDD9;}
	.st14{fill:#75CABF;}
	.st15{fill:#1CAE97;}
	.st16{fill:#F47F72;}
	.st17{opacity:0.19;clip-path:url(#SVGID_8_);fill:none;stroke:#FFFFFF;stroke-width:4;stroke-miterlimit:10;}
	.st18{clip-path:url(#SVGID_10_);}
	.st19{fill:none;stroke:#16498C;stroke-miterlimit:10;}
	.st20{opacity:0.23;}
	.st21{fill:#171717;}
	.st22{fill:none;stroke:#FFFFFF;stroke-width:23;stroke-linecap:round;stroke-linejoin:round;stroke-miterlimit:10;}
	.st23{fill:url(#SVGID_11_);}
	.st24{fill:url(#SVGID_12_);}
	.st25{fill:url(#SVGID_13_);}
	.st26{fill:#181818;}
	.st27{fill:#101010;}
	.st28{opacity:0.24;}
	.st29{fill:#D93636;}
	.st30{fill:#C42126;}
	.st31{fill:#D62027;}
</style>
<g class="st1">
	<defs>
		<rect id="SVGID_1_" x="-320" y="0" class="st1" width="300" height="400"/>
	</defs>
	<clipPath id="SVGID_2_">
		<use xlink:href="#SVGID_1_"  style="overflow:visible;"/>
	</clipPath>
	<g class="st2">
		<polygon class="st3" points="-9.3,-7.7 -18.1,7.6 -0.4,7.6 		"/>
		<polygon class="st3" points="18.9,-7.7 10,7.6 27.8,7.6 		"/>
		<polygon class="st3" points="47,-7.7 38.1,7.6 55.9,7.6 		"/>
		<polygon class="st3" points="75.2,-7.7 66.3,7.6 84,7.6 		"/>
	</g>
	<g class="st2">
		<polygon class="st3" points="-9.3,19.3 -18.1,34.7 -0.4,34.7 		"/>
		<polygon class="st3" points="18.9,19.3 10,34.7 27.8,34.7 		"/>
		<polygon class="st3" points="47,19.3 38.1,34.7 55.9,34.7 		"/>
		<polygon class="st3" points="75.2,19.3 66.3,34.7 84,34.7 		"/>
	</g>
	<g class="st2">
		<polygon class="st3" points="-9.3,46.4 -18.1,61.8 -0.4,61.8 		"/>
		<polygon class="st3" points="18.9,46.4 10,61.8 27.8,61.8 		"/>
		<polygon class="st3" points="47,46.4 38.1,61.8 55.9,61.8 		"/>
		<polygon class="st3" points="75.2,46.4 66.3,61.8 84,61.8 		"/>
	</g>
	<g class="st2">
		<polygon class="st3" points="-9.3,73.5 -18.1,88.9 -0.4,88.9 		"/>
		<polygon class="st3" points="18.9,73.5 10,88.9 27.8,88.9 		"/>
		<polygon class="st3" points="47,73.5 38.1,88.9 55.9,88.9 		"/>
		<polygon class="st3" points="75.2,73.5 66.3,88.9 84,88.9 		"/>
	</g>
	<g class="st2">
		<polygon class="st3" points="-9.3,100.6 -18.1,115.9 -0.4,115.9 		"/>
		<polygon class="st3" points="18.9,100.6 10,115.9 27.8,115.9 		"/>
		<polygon class="st3" points="47,100.6 38.1,115.9 55.9,115.9 		"/>
		<polygon class="st3" points="75.2,100.6 66.3,115.9 84,115.9 		"/>
	</g>
	<g class="st2">
		<polygon class="st3" points="-9.3,127.7 -18.1,143 -0.4,143 		"/>
		<polygon class="st3" points="18.9,127.7 10,143 27.8,143 		"/>
		<polygon class="st3" points="47,127.7 38.1,143 55.9,143 		"/>
		<polygon class="st3" points="75.2,127.7 66.3,143 84,143 		"/>
	</g>
	<g class="st2">
		<polygon class="st3" points="-9.3,154.7 -18.1,170.1 -0.4,170.1 		"/>
		<polygon class="st3" points="18.9,154.7 10,170.1 27.8,170.1 		"/>
		<polygon class="st3" points="47,154.7 38.1,170.1 55.9,170.1 		"/>
		<polygon class="st3" points="75.2,154.7 66.3,170.1 84,170.1 		"/>
	</g>
	<g class="st2">
		<polygon class="st3" points="-9.3,181.8 -18.1,197.2 -0.4,197.2 		"/>
		<polygon class="st3" points="18.9,181.8 10,197.2 27.8,197.2 		"/>
		<polygon class="st3" points="47,181.8 38.1,197.2 55.9,197.2 		"/>
		<polygon class="st3" points="75.2,181.8 66.3,197.2 84,197.2 		"/>
	</g>
	<g class="st2">
		<polygon class="st3" points="-9.3,208.9 -18.1,224.2 -0.4,224.2 		"/>
		<polygon class="st3" points="18.9,208.9 10,224.2 27.8,224.2 		"/>
		<polygon class="st3" points="47,208.9 38.1,224.2 55.9,224.2 		"/>
		<polygon class="st3" points="75.2,208.9 66.3,224.2 84,224.2 		"/>
	</g>
	<g class="st2">
		<polygon class="st3" points="-9.3,236 -18.1,251.3 -0.4,251.3 		"/>
		<polygon class="st3" points="18.9,236 10,251.3 27.8,251.3 		"/>
		<polygon class="st3" points="47,236 38.1,251.3 55.9,251.3 		"/>
		<polygon class="st3" points="75.2,236 66.3,251.3 84,251.3 		"/>
	</g>
	<g class="st2">
		<polygon class="st3" points="-9.3,263 -18.1,278.4 -0.4,278.4 		"/>
		<polygon class="st3" points="18.9,263 10,278.4 27.8,278.4 		"/>
		<polygon class="st3" points="47,263 38.1,278.4 55.9,278.4 		"/>
		<polygon class="st3" points="75.2,263 66.3,278.4 84,278.4 		"/>
	</g>
	<g class="st2">
		<polygon class="st3" points="-9.3,290.1 -18.1,305.5 -0.4,305.5 		"/>
		<polygon class="st3" points="18.9,290.1 10,305.5 27.8,305.5 		"/>
		<polygon class="st3" points="47,290.1 38.1,305.5 55.9,305.5 		"/>
		<polygon class="st3" points="75.2,290.1 66.3,305.5 84,305.5 		"/>
	</g>
	<g class="st2">
		<polygon class="st3" points="-9.3,317.9 -18.3,333.3 -0.5,333.3 		"/>
		<polygon class="st3" points="18.8,318 9.9,333.4 27.6,333.4 		"/>
		<polygon class="st3" points="46.9,318.1 38,333.5 55.7,333.5 		"/>
		<polygon class="st3" points="75.1,318.3 66.1,333.6 83.9,333.7 		"/>
	</g>
	<g class="st2">
		<polygon class="st3" points="-9.5,345 -18.4,360.3 -0.6,360.4 		"/>
		<polygon class="st3" points="18.7,345.1 9.7,360.4 27.5,360.5 		"/>
		<polygon class="st3" points="46.8,345.2 37.9,360.6 55.6,360.6 		"/>
		<polygon class="st3" points="75,345.3 66,360.7 83.8,360.7 		"/>
	</g>
	<g class="st2">
		<polygon class="st3" points="-9.6,372.1 -18.5,387.4 -0.8,387.5 		"/>
		<polygon class="st3" points="18.6,372.2 9.6,387.5 27.4,387.6 		"/>
		<polygon class="st3" points="46.7,372.3 37.8,387.6 55.5,387.7 		"/>
		<polygon class="st3" points="74.8,372.4 65.9,387.7 83.7,387.8 		"/>
	</g>
	<g class="st2">
		<polygon class="st4" points="-9.7,399.2 -18.6,414.5 -0.9,414.6 		"/>
		<polygon class="st4" points="18.5,399.3 9.5,414.6 27.3,414.7 		"/>
		<polygon class="st4" points="46.6,399.4 37.7,414.7 55.4,414.8 		"/>
		<polygon class="st4" points="74.7,399.5 65.8,414.8 83.5,414.9 		"/>
	</g>
	<use xlink:href="#SVGID_1_"  style="overflow:visible;fill:none;stroke:#FFFFFF;stroke-miterlimit:10;"/>
</g>
<g>
	<rect x="0" y="0" class="st10" width="300" height="400"/>
</g>
<g>
	<g>
		<g>
			<linearGradient id="SVGID_3_" gradientUnits="userSpaceOnUse" x1="-18.0405" y1="357.9293" x2="325.0155" y2="35.5655">
				<stop  offset="0" style="stop-color:#1F2020"/>
				<stop  offset="1" style="stop-color:#181818"/>
			</linearGradient>
			<path class="st5" d="M0,0v400h300V0H0z M177.2,213.9c0.6,0.5,0.7,1.4,0.2,2c-0.3,0.4-0.7,0.5-1.1,0.5c-0.3,0-0.6-0.1-0.9-0.3
				l-18-14V215c0,0.8-0.6,1.4-1.4,1.4s-1.4-0.6-1.4-1.4v-14.5c-1.4,0.4-4,1.1-6.9,2.1V234c0,0.4-0.2,0.8-0.5,1.1
				c-0.3,0.2-0.6,0.3-0.9,0.3c-0.1,0-0.2,0-0.3,0c-0.2,0-5.3-1.2-10.5-3.8c-7.1-3.7-10.9-8.5-10.9-14c0-5.6,5.3-10.7,15.6-15.2
				c1.6-0.7,3.2-1.3,4.7-1.8v-13.5l-20.6,9.7c-0.2,0.1-0.4,0.1-0.6,0.1c-0.5,0-1-0.3-1.3-0.8c-0.3-0.7,0-1.5,0.7-1.9l22.3-10.5
				c0.2-0.1,0.5-0.1,0.7-0.1c0,0,0.1,0,0.1,0c0.8,0,1.4,0.6,1.4,1.4v14.5c1.4-0.4,4-1.1,6.9-2.1V166c0-0.4,0.2-0.8,0.5-1.1
				s0.8-0.4,1.2-0.3c0.2,0,5.3,1.2,10.5,3.8c7.1,3.7,10.9,8.5,10.9,14c0,5.6-5.3,10.7-15.6,15.2c-1.3,0.6-2.6,1.1-3.9,1.5
				L177.2,213.9z"/>
		</g>
	</g>
	<g>
		<linearGradient id="SVGID_4_" gradientUnits="userSpaceOnUse" x1="152.2599" y1="189.7731" x2="169.5992" y2="173.4797">
			<stop  offset="0" style="stop-color:#1F2020"/>
			<stop  offset="1" style="stop-color:#181818"/>
		</linearGradient>
		<path class="st6" d="M174.9,182.4c0-8.8-12.8-13.3-17.5-14.6v28.6c1.2-0.4,2.4-0.9,3.6-1.4C167.4,192.3,174.9,187.9,174.9,182.4z"
			/>
	</g>
	<g>
		<linearGradient id="SVGID_5_" gradientUnits="userSpaceOnUse" x1="133.0935" y1="226.2104" x2="150.4327" y2="209.9171">
			<stop  offset="0" style="stop-color:#1F2020"/>
			<stop  offset="1" style="stop-color:#181818"/>
		</linearGradient>
		<path class="st7" d="M127.4,217.6c0,8.8,12.8,13.3,17.5,14.6v-28.6c-1.2,0.4-2.4,0.9-3.6,1.4C135,207.7,127.4,212.1,127.4,217.6z"
			/>
	</g>
</g>
</svg>
