<?xml version="1.0" encoding="utf-8"?>
<!-- Generator: Adobe Illustrator 22.0.1, SVG Export Plug-In . SVG Version: 6.00 Build 0)  -->
<svg version="1.1" id="Layer_4" xmlns="http://www.w3.org/2000/svg" xmlns:xlink="http://www.w3.org/1999/xlink" x="0px" y="0px"
	 viewBox="0 0 300 400" style="enable-background:new 0 0 300 400;" xml:space="preserve">
<style type="text/css">
	.st0{fill:url(#SVGID_1_);}
	.st1{fill:url(#SVGID_2_);}
	.st2{fill:url(#SVGID_3_);}
	.st3{fill:url(#SVGID_4_);}
	.st4{fill:#E63525;}
	.st5{fill:#E46125;}
	.st6{fill:#FFFFFF;}
	.st7{fill:#C6DDD9;}
	.st8{fill:#75CABF;}
	.st9{fill:#1CAE97;}
	.st10{fill:#F47F72;}
	.st11{opacity:0.19;clip-path:url(#SVGID_6_);fill:none;stroke:#FFFFFF;stroke-width:4;stroke-miterlimit:10;}
	.st12{clip-path:url(#SVGID_8_);}
	.st13{fill:none;stroke:#16498C;stroke-miterlimit:10;}
	.st14{opacity:0.23;}
	.st15{fill:none;stroke:#FFFFFF;stroke-miterlimit:10;}
</style>
<g>
	<linearGradient id="SVGID_1_" gradientUnits="userSpaceOnUse" x1="-18.0205" y1="357.9181" x2="325.0355" y2="35.5544">
		<stop  offset="0" style="stop-color:#E46125"/>
		<stop  offset="1" style="stop-color:#E63525"/>
	</linearGradient>
	<rect x="0" y="0" class="st0" width="300" height="400"/>
</g>
<g>
	<path class="st6" d="M99.4,89.1l12.8,36.1l12.7-36.1h13.5v49.8h-10.3v-13.6l1-23.5l-13.4,37.1h-7l-13.4-37.1l1,23.4v13.6H86V89.1
		H99.4z"/>
	<path class="st6" d="M204.7,128.6h-18l-3.4,10.3h-10.9l18.5-49.8h9.5l18.6,49.8h-10.9L204.7,128.6z M189.4,120.3h12.4l-6.3-18.6
		L189.4,120.3z"/>
	<path class="st6" d="M125.4,216.5c-1.8,2.2-4.5,3.9-7.8,5.1c-3.4,1.2-7.1,1.8-11.2,1.8c-4.3,0-8.1-0.9-11.3-2.8s-5.8-4.6-7.5-8.2
		c-1.8-3.6-2.7-7.8-2.7-12.6v-3.4c0-5,0.8-9.3,2.5-12.9c1.7-3.6,4.1-6.4,7.2-8.3c3.2-1.9,6.9-2.9,11.1-2.9c5.9,0,10.5,1.4,13.8,4.2
		c3.3,2.8,5.3,6.9,5.9,12.3h-10c-0.5-2.8-1.5-4.9-3-6.3c-1.6-1.3-3.7-2-6.4-2c-3.5,0-6.1,1.3-8,3.9c-1.8,2.6-2.7,6.5-2.8,11.7v3.2
		c0,5.2,1,9.2,3,11.8s4.9,4,8.7,4c3.9,0,6.6-0.8,8.2-2.5v-8.6h-9.3v-7.6h19.6V216.5z"/>
	<path class="st6" d="M214,222.8h-10.3l-20-32.7v32.7h-10.3v-49.8h10.3l20,32.8v-32.8H214V222.8z"/>
	<path class="st6" d="M115.9,285.3H96.3v13.3h23.1v8.2H86v-49.8h33.3v8.3h-23v11.9h19.7V285.3z"/>
	<path class="st6" d="M219.1,265.4h-15.2v41.5h-10.3v-41.5h-15v-8.3h40.5V265.4z"/>
</g>
<g>
	<defs>
		<rect id="SVGID_7_" x="-319.9" y="0" width="300" height="400"/>
	</defs>
	<clipPath id="SVGID_2_">
		<use xlink:href="#SVGID_7_"  style="overflow:visible;"/>
	</clipPath>
	<g style="clip-path:url(#SVGID_2_);">
		<polygon class="st13" points="196.9,-457.6 143.8,-136.1 -78,80.9 -388.2,185.3 -80.4,-136.1 		"/>
		<polygon class="st13" points="-388.2,185.3 -258,-240.6 196.9,-457.6 -95.6,-118.4 		"/>
		<polygon class="st13" points="-458.9,325.2 -95.6,246.4 58.7,-94.3 44.8,-281.2 -95.6,-118.4 -388.2,185.3 		"/>
		<polygon class="st13" points="58.7,-94.3 -388.2,185.3 -80.4,-136.1 		"/>
		<polygon class="st13" points="-95.6,246.4 -112.5,121 27.2,-24.8 		"/>
	</g>
</g>
<g class="st14">
	<circle class="st15" cx="150" cy="337.3" r="65.3"/>
	<circle class="st15" cx="150" cy="337.3" r="65.3"/>
	<circle class="st15" cx="150" cy="331.3" r="72.7"/>
	<circle class="st15" cx="150" cy="321.3" r="82.7"/>
	<circle class="st15" cx="150" cy="310" r="94"/>
	<circle class="st15" cx="150" cy="292.7" r="109.3"/>
</g>
</svg>
