<svg id="Layer_1" data-name="Layer 1" xmlns="http://www.w3.org/2000/svg" viewBox="0 0 1000 600"><defs><style>.cls-1{fill:#31353d;}.cls-2{opacity:0.11;}.cls-3{fill:#fff;}</style></defs><title>packet</title><rect class="cls-1" width="1000" height="600"/><circle class="cls-2" cx="500" cy="542" r="267"/><circle class="cls-2" cx="500" cy="542" r="312"/><circle class="cls-2" cx="500" cy="542" r="352"/><circle class="cls-2" cx="500" cy="542" r="392"/><path class="cls-3" d="M392.12,275.15a6.48,6.48,0,0,1,2.72,9.24,6.08,6.08,0,0,1-2.72,2.28,10.29,10.29,0,0,1-4.18.78H384.3v5h-4.19V274.35h7.83A10.12,10.12,0,0,1,392.12,275.15Zm-1.54,8.08a2.84,2.84,0,0,0,1-2.31,2.87,2.87,0,0,0-1-2.34,4.35,4.35,0,0,0-2.87-.82H384.3V284h3.41A4.4,4.4,0,0,0,390.58,283.23Z"/><path class="cls-3" d="M410.3,292.44l-3.49-5H403v5h-4.19V274.35h7.83a10.15,10.15,0,0,1,4.18.8,6,6,0,0,1,3.68,5.77,5.91,5.91,0,0,1-3.72,5.71l4.05,5.81Zm-1.06-13.86a4.37,4.37,0,0,0-2.87-.82H403v6.31h3.41a4.37,4.37,0,0,0,2.87-.83,3.26,3.26,0,0,0,0-4.66Z"/><path class="cls-3" d="M421.45,291.54a9,9,0,0,1-3.54-3.35,9.62,9.62,0,0,1,0-9.59,9,9,0,0,1,3.54-3.34,11.14,11.14,0,0,1,10.14,0,9.23,9.23,0,0,1,0,16.28,11.23,11.23,0,0,1-10.14,0Zm8-3.09a5.29,5.29,0,0,0,2-2.06,6,6,0,0,0,.74-3,6.06,6.06,0,0,0-.74-3,5.36,5.36,0,0,0-2-2.06,6.11,6.11,0,0,0-5.79,0,5.36,5.36,0,0,0-2,2.06,6.06,6.06,0,0,0-.73,3,6,6,0,0,0,.73,3,5.29,5.29,0,0,0,2,2.06,6.11,6.11,0,0,0,5.79,0Z"/><path class="cls-3" d="M456.37,274.35l-7.83,18.09h-4.13l-7.81-18.09h4.53l5.5,12.92,5.58-12.92Z"/><path class="cls-3" d="M457.87,274.35h4.19v18.09h-4.19Z"/><path class="cls-3" d="M466.35,274.35h8.21a11.54,11.54,0,0,1,5.21,1.13,8.44,8.44,0,0,1,3.52,3.16,9.67,9.67,0,0,1,0,9.51,8.46,8.46,0,0,1-3.52,3.17,11.54,11.54,0,0,1-5.21,1.12h-8.21Zm8,14.65a6.08,6.08,0,0,0,4.33-1.51,6,6,0,0,0,0-8.19,6.08,6.08,0,0,0-4.33-1.51h-3.83V289Z"/><path class="cls-3" d="M487.69,274.35h4.19v18.09h-4.19Z"/><path class="cls-3" d="M498.17,290.61a8.26,8.26,0,0,1-2.16-6.13V274.35h4.19v10c0,3.24,1.34,4.85,4,4.85a3.79,3.79,0,0,0,3-1.17,5.46,5.46,0,0,0,1-3.68v-10h4.14v10.13a8.56,8.56,0,0,1-14.23,6.13Z"/><path class="cls-3" d="M518.33,292.17a9.75,9.75,0,0,1-3.22-1.51l1.42-3.15a9.8,9.8,0,0,0,2.77,1.36,10.16,10.16,0,0,0,3.2.52,5.07,5.07,0,0,0,2.64-.53,1.61,1.61,0,0,0,.85-1.41,1.37,1.37,0,0,0-.5-1.07,3.89,3.89,0,0,0-1.3-.68,20.22,20.22,0,0,0-2.13-.57,30.86,30.86,0,0,1-3.38-1,5.59,5.59,0,0,1-2.27-1.58,4.29,4.29,0,0,1-.94-2.89,5.11,5.11,0,0,1,.85-2.86,5.77,5.77,0,0,1,2.58-2,10.43,10.43,0,0,1,4.19-.75,13.69,13.69,0,0,1,3.39.42,10,10,0,0,1,2.89,1.18l-1.29,3.18a10.15,10.15,0,0,0-5-1.42,4.71,4.71,0,0,0-2.6.57,1.74,1.74,0,0,0-.84,1.5,1.46,1.46,0,0,0,1,1.38,15.16,15.16,0,0,0,3,.89,31.8,31.8,0,0,1,3.39,1,5.68,5.68,0,0,1,2.26,1.56,4.18,4.18,0,0,1,.94,2.86,4.9,4.9,0,0,1-.87,2.83,5.73,5.73,0,0,1-2.59,2,10.62,10.62,0,0,1-4.22.75A14.63,14.63,0,0,1,518.33,292.17Z"/><path class="cls-3" d="M544,291.55a9,9,0,0,1-3.52-3.33,9.27,9.27,0,0,1,3.52-13,11.19,11.19,0,0,1,9.27-.37,8.51,8.51,0,0,1,3.2,2.38l-2.69,2.48a5.8,5.8,0,0,0-4.55-2.12,6.06,6.06,0,0,0-3,.73,5.27,5.27,0,0,0-2.05,2.06,6.06,6.06,0,0,0-.74,3,6,6,0,0,0,.74,3,5.21,5.21,0,0,0,2.05,2.06,6.06,6.06,0,0,0,3,.73,5.76,5.76,0,0,0,4.55-2.14l2.69,2.48a8.41,8.41,0,0,1-3.21,2.4,11.16,11.16,0,0,1-9.26-.37Z"/><path class="cls-3" d="M562.57,291.54a9.22,9.22,0,0,1,0-16.28,11.14,11.14,0,0,1,10.14,0,9.23,9.23,0,0,1,0,16.28,11.23,11.23,0,0,1-10.14,0Zm8-3.09a5.29,5.29,0,0,0,2-2.06,6,6,0,0,0,.73-3,6.06,6.06,0,0,0-.73-3,5.36,5.36,0,0,0-2-2.06,6.11,6.11,0,0,0-5.79,0,5.36,5.36,0,0,0-2,2.06,6.06,6.06,0,0,0-.73,3,6,6,0,0,0,.73,3,5.29,5.29,0,0,0,2,2.06,6.11,6.11,0,0,0,5.79,0Z"/><path class="cls-3" d="M592.22,292.44l-3.49-5h-3.85v5H580.7V274.35h7.83a10.1,10.1,0,0,1,4.17.8,6,6,0,0,1,3.68,5.77,5.91,5.91,0,0,1-3.72,5.71l4.06,5.81Zm-1.06-13.86a4.35,4.35,0,0,0-2.87-.82h-3.41v6.31h3.41a4.35,4.35,0,0,0,2.87-.83,3.26,3.26,0,0,0,0-4.66Z"/><path class="cls-3" d="M611.69,275.15a6.29,6.29,0,0,1,2.73,2.28,6.85,6.85,0,0,1,0,7,6.16,6.16,0,0,1-2.73,2.28,10.28,10.28,0,0,1-4.17.78h-3.64v5h-4.19V274.35h7.83A10.1,10.1,0,0,1,611.69,275.15Zm-1.54,8.08a2.81,2.81,0,0,0,1-2.31,2.85,2.85,0,0,0-1-2.34,4.34,4.34,0,0,0-2.86-.82h-3.41V284h3.41A4.39,4.39,0,0,0,610.15,283.23Z"/><path class="cls-3" d="M617.36,291.92a2.44,2.44,0,0,1-.72-1.8,2.37,2.37,0,0,1,.72-1.8,2.68,2.68,0,0,1,3.57,0,2.37,2.37,0,0,1,.72,1.8,2.44,2.44,0,0,1-.72,1.8,2.55,2.55,0,0,1-3.57,0Z"/><path class="cls-3" d="M330.37,309.09a5.32,5.32,0,0,1,0,7.78,7,7,0,0,1-4.65,1.41h-4.16v4.89h-1.64v-15.5h5.8A7,7,0,0,1,330.37,309.09Zm-1.17,6.74a3.49,3.49,0,0,0,1.22-2.85,3.56,3.56,0,0,0-1.22-2.89,5.41,5.41,0,0,0-3.52-1h-4.12v7.75h4.12A5.41,5.41,0,0,0,329.2,315.83Z"/><path class="cls-3" d="M344.55,319h-8.64l-1.86,4.14h-1.71l7.09-15.5h1.62l7.09,15.5h-1.73Zm-.6-1.33-3.72-8.33-3.72,8.33Z"/><path class="cls-3" d="M353.07,322.29a7.4,7.4,0,0,1-2.91-2.83,8.3,8.3,0,0,1,0-8.08,7.5,7.5,0,0,1,2.92-2.83,8.59,8.59,0,0,1,4.16-1,8.7,8.7,0,0,1,3.19.57,6.73,6.73,0,0,1,2.48,1.68l-1,1a6.16,6.16,0,0,0-4.58-1.84,6.75,6.75,0,0,0-3.35.84,6.21,6.21,0,0,0-2.36,2.3,6.75,6.75,0,0,0,0,6.56,6.21,6.21,0,0,0,2.36,2.3,6.75,6.75,0,0,0,3.35.84,6.09,6.09,0,0,0,4.58-1.86l1,1a6.7,6.7,0,0,1-2.49,1.7,8.59,8.59,0,0,1-3.2.59A8.42,8.42,0,0,1,353.07,322.29Z"/><path class="cls-3" d="M371.22,315.89l-3.17,3.21v4.07h-1.64v-15.5h1.64V317l9.1-9.37H379l-6.71,7,7.17,8.48h-1.95Z"/><path class="cls-3" d="M393.12,321.76v1.41h-11v-15.5h10.63v1.42h-9v5.51h8V316h-8v5.76Z"/><path class="cls-3" d="M400,309.09h-5.45v-1.42h12.54v1.42h-5.45v14.08H400Z"/><path class="cls-3" d="M416.46,322.75a6.05,6.05,0,0,1-2.45-1.46l.64-1.26a6.21,6.21,0,0,0,2.24,1.36,8.11,8.11,0,0,0,2.88.52,5.24,5.24,0,0,0,3.12-.76,2.34,2.34,0,0,0,1-2,2,2,0,0,0-.56-1.48,3.87,3.87,0,0,0-1.38-.85,23.07,23.07,0,0,0-2.29-.66,24.37,24.37,0,0,1-2.79-.85,4.54,4.54,0,0,1-1.78-1.25,3.29,3.29,0,0,1-.74-2.28,3.82,3.82,0,0,1,.62-2.14,4.31,4.31,0,0,1,1.9-1.54,7.88,7.88,0,0,1,3.19-.57,9.56,9.56,0,0,1,2.61.36,7.43,7.43,0,0,1,2.2,1l-.55,1.31a7.79,7.79,0,0,0-2.09-1,7.92,7.92,0,0,0-2.17-.32,5,5,0,0,0-3.07.79,2.45,2.45,0,0,0-1,2,2,2,0,0,0,.57,1.5,3.68,3.68,0,0,0,1.42.86c.57.2,1.33.42,2.29.66a21.61,21.61,0,0,1,2.76.83,4.45,4.45,0,0,1,1.78,1.24,3.26,3.26,0,0,1,.73,2.25,3.8,3.8,0,0,1-.63,2.13,4.16,4.16,0,0,1-1.94,1.53,8,8,0,0,1-3.21.57A9.92,9.92,0,0,1,416.46,322.75Z"/><path class="cls-3" d="M431.91,309.09h-5.45v-1.42H439v1.42h-5.45v14.08h-1.64Z"/><path class="cls-3" d="M452.2,323.17l-3.55-5a12.36,12.36,0,0,1-1.24.07h-4.16v4.91h-1.64v-15.5h5.8a7,7,0,0,1,4.65,1.42,4.79,4.79,0,0,1,1.69,3.89,4.82,4.82,0,0,1-3.55,4.88l3.79,5.31Zm-1.31-7.33a4,4,0,0,0,0-5.75,5.41,5.41,0,0,0-3.52-1h-4.12v7.77h4.12A5.35,5.35,0,0,0,450.89,315.84Z"/><path class="cls-3" d="M468.59,321.76v1.41h-11v-15.5h10.64v1.42h-9v5.51h8V316h-8v5.76Z"/><path class="cls-3" d="M482.17,319h-8.64l-1.86,4.14H470l7.09-15.5h1.62l7.08,15.5H484Zm-.6-1.33-3.72-8.33-3.72,8.33Z"/><path class="cls-3" d="M504.43,307.67v15.5h-1.58v-12.4l-6.09,10.43H496l-6.09-10.36v12.33h-1.58v-15.5h1.36l6.73,11.49,6.67-11.49Z"/><path class="cls-3" d="M531.38,307.67v15.5h-1.57v-12.4l-6.09,10.43h-.78l-6.09-10.36v12.33h-1.57v-15.5h1.35l6.74,11.49L530,307.67Z"/><path class="cls-3" d="M546.16,319h-8.64l-1.86,4.14H534l7.09-15.5h1.62l7.09,15.5H548Zm-.6-1.33-3.72-8.33-3.72,8.33Z"/><path class="cls-3" d="M565.27,307.67v15.5h-1.35l-10-12.58v12.58h-1.64v-15.5h1.36l10,12.58V307.67Z"/><path class="cls-3" d="M570.32,307.67H572v15.5h-1.64Z"/><path class="cls-3" d="M587.47,309.09a5.34,5.34,0,0,1,0,7.78,7.07,7.07,0,0,1-4.66,1.41h-4.16v4.89H577v-15.5h5.8A7,7,0,0,1,587.47,309.09Zm-1.18,6.74a3.49,3.49,0,0,0,1.22-2.85,3.56,3.56,0,0,0-1.22-2.89,5.39,5.39,0,0,0-3.52-1h-4.12v7.75h4.12A5.39,5.39,0,0,0,586.29,315.83Z"/><path class="cls-3" d="M594.36,321.58a6.89,6.89,0,0,1-1.69-5v-8.88h1.64v8.81a5.83,5.83,0,0,0,1.22,4,5.38,5.38,0,0,0,7.06,0,5.78,5.78,0,0,0,1.22-4v-8.81h1.6v8.88a7,7,0,0,1-1.67,5,7.22,7.22,0,0,1-9.38,0Z"/><path class="cls-3" d="M610.35,307.67H612v14.09h8.68v1.41H610.35Z"/><path class="cls-3" d="M633.16,319h-8.64l-1.86,4.14H621l7.08-15.5h1.62l7.09,15.5H635Zm-.6-1.33-3.72-8.33-3.72,8.33Z"/><path class="cls-3" d="M641.56,309.09h-5.45v-1.42h12.53v1.42H643.2v14.08h-1.64Z"/><path class="cls-3" d="M653.64,322.28a7.5,7.5,0,0,1-2.92-2.83,8.19,8.19,0,0,1,0-8.06,7.41,7.41,0,0,1,2.92-2.82,8.48,8.48,0,0,1,4.17-1,8.59,8.59,0,0,1,4.16,1,7.61,7.61,0,0,1,2.91,2.83,8.23,8.23,0,0,1,0,8.08,7.54,7.54,0,0,1-2.91,2.83,8.49,8.49,0,0,1-4.16,1A8.59,8.59,0,0,1,653.64,322.28Zm7.5-1.27a6,6,0,0,0,2.32-2.3,6.86,6.86,0,0,0,0-6.58,6,6,0,0,0-2.32-2.3,7.1,7.1,0,0,0-6.66,0,6,6,0,0,0-2.35,2.3,6.79,6.79,0,0,0,0,6.58,6,6,0,0,0,2.35,2.3,7.1,7.1,0,0,0,6.66,0Z"/><path class="cls-3" d="M680.21,323.17l-3.55-5a12.19,12.19,0,0,1-1.24.07h-4.16v4.91h-1.64v-15.5h5.8a7,7,0,0,1,4.66,1.42,4.81,4.81,0,0,1,1.68,3.89,4.82,4.82,0,0,1-3.54,4.88l3.78,5.31Zm-1.31-7.33a4,4,0,0,0,0-5.75,5.39,5.39,0,0,0-3.52-1h-4.12v7.77h4.12A5.33,5.33,0,0,0,678.9,315.84Z"/></svg>