<svg id="Layer_1" data-name="Layer 1" xmlns="http://www.w3.org/2000/svg" xmlns:xlink="http://www.w3.org/1999/xlink" viewBox="0 0 1000 600"><defs><style>.cls-1,.cls-4{fill:none;}.cls-2{fill:url(#linear-gradient);}.cls-3{clip-path:url(#clip-path);}.cls-4{stroke:#16498c;stroke-miterlimit:10;}.cls-5{fill:#fff;}</style><linearGradient id="linear-gradient" x1="111.15" y1="665.4" x2="904.92" y2="-80.49" gradientUnits="userSpaceOnUse"><stop offset="0" stop-color="#2954a5"/><stop offset="1" stop-color="#018fb5"/></linearGradient><clipPath id="clip-path"><rect class="cls-1" width="1000" height="600"/></clipPath></defs><title>tangible</title><rect class="cls-2" width="1000" height="600"/><g class="cls-3"><polygon class="cls-4" points="728 -273.84 650.59 142.7 326.85 423.86 -125.91 559.24 323.31 142.7 728 -273.84"/><polygon class="cls-4" points="-125.91 559.24 64.11 7.32 728 -273.84 301.05 165.61 -125.91 559.24"/><polygon class="cls-4" points="-229.13 740.43 301.05 638.38 526.25 196.85 505.98 -45.33 301.05 165.61 -125.91 559.24 -229.13 740.43"/><polygon class="cls-4" points="64.11 7.32 323.31 142.7 -125.91 559.24 64.11 7.32"/><polygon class="cls-4" points="301.05 638.38 -125.91 559.24 -229.13 740.43 301.05 638.38"/><polygon class="cls-4" points="526.25 196.85 -125.91 559.24 323.31 142.7 526.25 196.85"/><polygon class="cls-4" points="650.59 142.7 505.98 -45.33 728 -273.84 650.59 142.7"/><polygon class="cls-4" points="526.25 196.85 650.59 142.7 476.96 293.49 526.25 196.85"/><polygon class="cls-4" points="301.05 638.38 276.42 475.93 480.32 286.9 301.05 638.38"/><polygon class="cls-4" points="-125.91 559.24 276.42 475.93 301.05 638.38 -125.91 559.24"/></g><path class="cls-5" d="M330.11,286.74H318.19v-7h32.46v7H338.73V317h-8.62Z"/><path class="cls-5" d="M393.92,309h-17.3l-3.3,8h-8.83l16.6-37.26h8.52L406.26,317h-9Zm-2.72-6.54-5.91-14.26-5.9,14.26Z"/><path class="cls-5" d="M460.28,279.71V317H453.2l-18.57-22.62V317h-8.52V279.71h7.13l18.52,22.62V279.71Z"/><path class="cls-5" d="M510.25,297.75h7.88v15.12a22.4,22.4,0,0,1-7,3.51,27.14,27.14,0,0,1-8,1.23,21.75,21.75,0,0,1-10.43-2.48,18.48,18.48,0,0,1-7.27-6.86,20,20,0,0,1,0-19.85,18.37,18.37,0,0,1,7.32-6.87,22.18,22.18,0,0,1,10.54-2.47,23.22,23.22,0,0,1,8.88,1.64,17.78,17.78,0,0,1,6.71,4.79l-5.54,5.11a12.8,12.8,0,0,0-9.63-4.2,13.15,13.15,0,0,0-6.33,1.49,10.63,10.63,0,0,0-4.31,4.2,12.39,12.39,0,0,0-1.55,6.23,12.24,12.24,0,0,0,1.55,6.17,10.88,10.88,0,0,0,4.28,4.23,12.6,12.6,0,0,0,6.25,1.52,13.92,13.92,0,0,0,6.71-1.6Z"/><path class="cls-5" d="M542.07,279.71h8.63V317h-8.63Z"/><path class="cls-5" d="M607.85,301a9.32,9.32,0,0,1,1.81,5.83,8.61,8.61,0,0,1-3.8,7.53q-3.81,2.64-11.1,2.64H575.5V279.71h18.2q6.81,0,10.45,2.61a8.26,8.26,0,0,1,3.65,7.08,9.07,9.07,0,0,1-1.31,4.84,9.17,9.17,0,0,1-3.64,3.36A9.8,9.8,0,0,1,607.85,301Zm-23.79-14.76V295h8.57a8.59,8.59,0,0,0,4.84-1.12,3.72,3.72,0,0,0,1.65-3.3,3.67,3.67,0,0,0-1.65-3.27,8.78,8.78,0,0,0-4.84-1.09Zm15.2,23.15A3.84,3.84,0,0,0,601,305.9q0-4.63-6.87-4.63H584.06v9.2h10.06A9.64,9.64,0,0,0,599.26,309.36Z"/><path class="cls-5" d="M632.17,279.71h8.62v30.23h18.68v7h-27.3Z"/><path class="cls-5" d="M709.12,310.05V317H680.28V279.71h28.15v6.92H688.85v8.09h17.29v6.71H688.85v8.62Z"/><path class="cls-5" d="M333.19,342.58a5.52,5.52,0,0,1-1.35-4v-7.12h1.32v7.06a4.64,4.64,0,0,0,1,3.23,4.28,4.28,0,0,0,5.66,0,4.64,4.64,0,0,0,1-3.23v-7.06h1.28v7.12a5.56,5.56,0,0,1-1.34,4,5.78,5.78,0,0,1-7.52,0Z"/><path class="cls-5" d="M361.27,335.48a4,4,0,0,1,1,3v5.41h-1.25v-5.29a3.1,3.1,0,0,0-.73-2.21,2.75,2.75,0,0,0-2.08-.77,3.17,3.17,0,0,0-2.38.9A3.36,3.36,0,0,0,355,339v4.9h-1.26v-9.33h1.2v1.72a3.5,3.5,0,0,1,1.43-1.32,4.63,4.63,0,0,1,2.12-.47A3.84,3.84,0,0,1,361.27,335.48Z"/><path class="cls-5" d="M373.69,332.22a.89.89,0,0,1,0-1.26.93.93,0,0,1,.66-.26.89.89,0,0,1,.66.26.83.83,0,0,1,.26.61.93.93,0,0,1-1.58.65Zm0,2.31H375v9.33h-1.26Z"/><path class="cls-5" d="M394.31,334.53l-4.16,9.33h-1.29l-4.13-9.33H386l3.49,8,3.53-8Z"/><path class="cls-5" d="M411.92,339.58h-7.81a3.4,3.4,0,0,0,1.12,2.36,3.76,3.76,0,0,0,2.56.89,3.92,3.92,0,0,0,1.59-.31,3.46,3.46,0,0,0,1.26-.91l.71.81a3.94,3.94,0,0,1-1.55,1.14,5.24,5.24,0,0,1-2.05.39,5.11,5.11,0,0,1-2.54-.61,4.42,4.42,0,0,1-1.73-1.7,4.74,4.74,0,0,1-.62-2.44,4.94,4.94,0,0,1,.59-2.45,4.35,4.35,0,0,1,1.63-1.69,4.82,4.82,0,0,1,4.66,0,4.27,4.27,0,0,1,1.61,1.68,5,5,0,0,1,.59,2.46Zm-6.77-3.18a3.4,3.4,0,0,0-1,2.25h6.62a3.36,3.36,0,0,0-1-2.25,3.43,3.43,0,0,0-4.54,0Z"/><path class="cls-5" d="M425,334.94a4.49,4.49,0,0,1,2.17-.48v1.22h-.3a3,3,0,0,0-2.3.9,3.59,3.59,0,0,0-.84,2.54v4.75h-1.26v-9.33h1.21v1.83A3,3,0,0,1,425,334.94Z"/><path class="cls-5" d="M437.85,343.62a4.77,4.77,0,0,1-1.63-.82l.57-1a4.84,4.84,0,0,0,1.47.76,6.06,6.06,0,0,0,1.85.29,3.5,3.5,0,0,0,1.89-.4,1.27,1.27,0,0,0,.61-1.13,1,1,0,0,0-.34-.8,2.16,2.16,0,0,0-.85-.45,13.87,13.87,0,0,0-1.36-.29,17,17,0,0,1-1.83-.43,2.65,2.65,0,0,1-1.18-.76,2.06,2.06,0,0,1-.49-1.47,2.33,2.33,0,0,1,1-1.92,4.41,4.41,0,0,1,2.71-.74,7,7,0,0,1,1.81.24,5,5,0,0,1,1.49.63l-.55,1a4.72,4.72,0,0,0-2.75-.8,3.16,3.16,0,0,0-1.82.43,1.28,1.28,0,0,0-.61,1.11,1.13,1.13,0,0,0,.35.86,2.1,2.1,0,0,0,.86.47,14.46,14.46,0,0,0,1.42.31,16.8,16.8,0,0,1,1.79.42,2.64,2.64,0,0,1,1.15.73,2,2,0,0,1,.48,1.42,2.26,2.26,0,0,1-1,1.94A4.84,4.84,0,0,1,440,344,7.08,7.08,0,0,1,437.85,343.62Z"/><path class="cls-5" d="M460.24,335.37a3.54,3.54,0,0,1,1,2.71v5.78H460v-1.45a2.87,2.87,0,0,1-1.25,1.13,4.39,4.39,0,0,1-2,.41,3.8,3.8,0,0,1-2.48-.75,2.56,2.56,0,0,1-.06-3.88,4.16,4.16,0,0,1,2.74-.73h3V338a2.38,2.38,0,0,0-.67-1.83,2.79,2.79,0,0,0-2-.63,5.2,5.2,0,0,0-1.71.29,4.48,4.48,0,0,0-1.4.81l-.57-.94a5.22,5.22,0,0,1,1.71-.93,6.58,6.58,0,0,1,2.09-.33A3.93,3.93,0,0,1,460.24,335.37Zm-1.42,7.1a3,3,0,0,0,1.14-1.41v-1.53H457c-1.59,0-2.39.56-2.39,1.67a1.53,1.53,0,0,0,.62,1.29A2.84,2.84,0,0,0,457,343,3.32,3.32,0,0,0,458.82,342.47Z"/><path class="cls-5" d="M472.62,330.7h1.26v13.16h-1.26Z"/><path class="cls-5" d="M500.69,332.58h-4.36v-1.14h10v1.14H502v11.28h-1.31Z"/><path class="cls-5" d="M516.58,343.34a4.48,4.48,0,0,1-1.7-1.7,5.13,5.13,0,0,1,0-4.89,4.38,4.38,0,0,1,1.7-1.69,5.22,5.22,0,0,1,4.86,0,4.38,4.38,0,0,1,1.7,1.69,5.21,5.21,0,0,1,0,4.89,4.48,4.48,0,0,1-1.7,1.7,5.15,5.15,0,0,1-4.86,0Zm4.22-1a3.19,3.19,0,0,0,1.23-1.29,4.3,4.3,0,0,0,0-3.79A3.19,3.19,0,0,0,520.8,336a3.77,3.77,0,0,0-3.57,0A3.15,3.15,0,0,0,516,337.3a4.22,4.22,0,0,0,0,3.79,3.15,3.15,0,0,0,1.24,1.29,3.77,3.77,0,0,0,3.57,0Z"/><path class="cls-5" d="M542.71,334.53v9.33h-1.2v-1.7a3.48,3.48,0,0,1-1.37,1.32,4.15,4.15,0,0,1-2,.47,3.6,3.6,0,0,1-3.93-4v-5.41h1.26v5.29a3.13,3.13,0,0,0,.72,2.23,2.74,2.74,0,0,0,2.08.76,3,3,0,0,0,2.32-.89,3.47,3.47,0,0,0,.85-2.49v-4.9Z"/><path class="cls-5" d="M555.62,343.35a4.37,4.37,0,0,1-1.71-1.7,4.8,4.8,0,0,1-.62-2.45,4.75,4.75,0,0,1,.62-2.45,4.34,4.34,0,0,1,1.71-1.69,5,5,0,0,1,2.47-.6,4.86,4.86,0,0,1,2.16.47,3.61,3.61,0,0,1,1.5,1.37l-.94.64a3.07,3.07,0,0,0-1.17-1,3.52,3.52,0,0,0-1.55-.34,3.69,3.69,0,0,0-1.82.45A3.26,3.26,0,0,0,555,337.3a4.24,4.24,0,0,0,0,3.8,3.3,3.3,0,0,0,1.26,1.28,3.69,3.69,0,0,0,1.82.45,3.52,3.52,0,0,0,1.55-.34,2.86,2.86,0,0,0,1.17-1l.94.63a3.53,3.53,0,0,1-1.51,1.38,4.88,4.88,0,0,1-2.15.47A5,5,0,0,1,555.62,343.35Z"/><path class="cls-5" d="M579.6,335.48a4,4,0,0,1,1,3v5.41h-1.26v-5.29a3.05,3.05,0,0,0-.73-2.21,2.71,2.71,0,0,0-2.07-.77,3.19,3.19,0,0,0-2.39.9,3.4,3.4,0,0,0-.88,2.47v4.9h-1.26V330.7h1.26v5.46a3.54,3.54,0,0,1,1.42-1.26,4.75,4.75,0,0,1,2.08-.44A3.8,3.8,0,0,1,579.6,335.48Z"/><path class="cls-5" d="M605.71,343.52a4.85,4.85,0,0,1-2-1.17l.52-1a4.85,4.85,0,0,0,1.79,1.09,6.51,6.51,0,0,0,2.31.42,4.21,4.21,0,0,0,2.5-.61,1.9,1.9,0,0,0,.83-1.59,1.6,1.6,0,0,0-.45-1.19,3.1,3.1,0,0,0-1.11-.68,16.1,16.1,0,0,0-1.83-.52,19.23,19.23,0,0,1-2.23-.69,3.68,3.68,0,0,1-1.43-1,2.65,2.65,0,0,1-.59-1.83,3.12,3.12,0,0,1,.49-1.71,3.43,3.43,0,0,1,1.53-1.23,6.19,6.19,0,0,1,2.55-.46,7.38,7.38,0,0,1,2.09.29,5.6,5.6,0,0,1,1.76.81l-.44,1a6.17,6.17,0,0,0-1.67-.77,6.27,6.27,0,0,0-1.74-.26,4,4,0,0,0-2.45.63,2,2,0,0,0-.83,1.63,1.61,1.61,0,0,0,.45,1.19,2.86,2.86,0,0,0,1.14.7c.45.16,1.07.33,1.83.52a18.75,18.75,0,0,1,2.21.66,3.6,3.6,0,0,1,1.43,1,2.62,2.62,0,0,1,.59,1.8,3,3,0,0,1-.51,1.71,3.42,3.42,0,0,1-1.55,1.23,6.53,6.53,0,0,1-2.57.45A7.91,7.91,0,0,1,605.71,343.52Z"/><path class="cls-5" d="M625,343.35a4.37,4.37,0,0,1-1.71-1.7,4.9,4.9,0,0,1-.62-2.45,4.85,4.85,0,0,1,.62-2.45,4.34,4.34,0,0,1,1.71-1.69,5.06,5.06,0,0,1,2.48-.6,4.82,4.82,0,0,1,2.15.47,3.61,3.61,0,0,1,1.5,1.37l-.94.64a3.07,3.07,0,0,0-1.17-1,3.47,3.47,0,0,0-1.54-.34,3.67,3.67,0,0,0-1.82.45,3.13,3.13,0,0,0-1.26,1.29,4.24,4.24,0,0,0,0,3.8,3.17,3.17,0,0,0,1.26,1.28,3.67,3.67,0,0,0,1.82.45,3.47,3.47,0,0,0,1.54-.34,2.86,2.86,0,0,0,1.17-1l.94.63a3.53,3.53,0,0,1-1.51,1.38,4.84,4.84,0,0,1-2.14.47A5.06,5.06,0,0,1,625,343.35Z"/><path class="cls-5" d="M644.07,334.94a4.46,4.46,0,0,1,2.17-.48v1.22h-.3a3,3,0,0,0-2.31.9,3.63,3.63,0,0,0-.83,2.54v4.75h-1.26v-9.33h1.2v1.83A3.06,3.06,0,0,1,644.07,334.94Z"/><path class="cls-5" d="M664.53,339.58h-7.81a3.36,3.36,0,0,0,1.12,2.36,3.76,3.76,0,0,0,2.55.89,4,4,0,0,0,1.6-.31,3.46,3.46,0,0,0,1.26-.91l.71.81a3.94,3.94,0,0,1-1.55,1.14,5.24,5.24,0,0,1-2,.39,5.17,5.17,0,0,1-2.55-.61,4.56,4.56,0,0,1-1.73-1.7,4.84,4.84,0,0,1-.62-2.44,4.94,4.94,0,0,1,.6-2.45,4.28,4.28,0,0,1,1.63-1.69,4.82,4.82,0,0,1,4.66,0,4.27,4.27,0,0,1,1.61,1.68,5,5,0,0,1,.59,2.46Zm-6.77-3.18a3.4,3.4,0,0,0-1,2.25h6.62a3.36,3.36,0,0,0-1-2.25,3.43,3.43,0,0,0-4.54,0Z"/><path class="cls-5" d="M683.23,339.58h-7.81a3.32,3.32,0,0,0,1.12,2.36,3.72,3.72,0,0,0,2.55.89,4,4,0,0,0,1.6-.31,3.63,3.63,0,0,0,1.26-.91l.71.81a4,4,0,0,1-1.55,1.14,5.27,5.27,0,0,1-2.05.39,5.17,5.17,0,0,1-2.55-.61,4.49,4.49,0,0,1-1.73-1.7,4.84,4.84,0,0,1-.62-2.44,4.94,4.94,0,0,1,.6-2.45,4.28,4.28,0,0,1,1.63-1.69,4.57,4.57,0,0,1,2.33-.6,4.51,4.51,0,0,1,2.32.6,4.23,4.23,0,0,1,1.62,1.68,5,5,0,0,1,.58,2.46Zm-6.77-3.18a3.36,3.36,0,0,0-1,2.25H682a3.36,3.36,0,0,0-1-2.25,3.43,3.43,0,0,0-4.54,0Z"/><path class="cls-5" d="M701.35,335.48a4,4,0,0,1,1,3v5.41h-1.25v-5.29a3.1,3.1,0,0,0-.73-2.21,2.75,2.75,0,0,0-2.08-.77,3.17,3.17,0,0,0-2.38.9,3.36,3.36,0,0,0-.88,2.47v4.9H693.8v-9.33H695v1.72a3.42,3.42,0,0,1,1.42-1.32,4.63,4.63,0,0,1,2.12-.47A3.84,3.84,0,0,1,701.35,335.48Z"/></svg>